<svg xmlns="http://www.w3.org/2000/svg" width="46" height="54" viewBox="0 0 46 54">
    <g fill="#1D173E" fill-rule="evenodd">
        <path d="M45.144 17.13h-4.75a.797.797 0 0 0-.791.802v19.116l-9.081 3.382a4.715 4.715 0 0 0-3.36-1.648l-1.215-3.41-5.207 1.91 1.697 4.776c-.767 2.307.291 4.83 2.464 5.874a4.712 4.712 0 0 0 6.051-1.787l8.651-3.118V53.2c0 .442.354.801.792.801h4.749a.797.797 0 0 0 .792-.801V17.932a.797.797 0 0 0-.792-.802z"/>
        <path d="M35.265 30.227a.804.804 0 0 0 .475-1.026l-1.683-4.693a8.66 8.66 0 0 1-3.383 2.295l-19.35 7.133a8.44 8.44 0 0 1-2.956.53 8.214 8.214 0 0 1-1.088-.08l1.412 3.927.27.754c.074.2.22.364.411.457a.809.809 0 0 0 .602.024l25.29-9.321zM5.468 33.956c-.109-.04-.216-.068-.325-.112a8.566 8.566 0 0 1-3.289-2.336l-1.306.48a.804.804 0 0 0-.475 1.027l2.168 6.029c.074.2.222.364.412.456a.797.797 0 0 0 .601.025l2.977-1.099c.41-.15.623-.61.475-1.025l-1.238-3.445zM10.782 32.431l19.346-7.134a7.067 7.067 0 0 0 3.024-2.148 7.291 7.291 0 0 0 1.235-7.093.789.789 0 0 0-1.013-.48L2.13 27.084a.804.804 0 0 0-.475 1.026 7.126 7.126 0 0 0 4.084 4.248c.44.183.9.312 1.37.385.414.08.836.12 1.258.12a6.95 6.95 0 0 0 2.414-.433z"/>
        <g stroke="#1D173E" stroke-width=".5">
            <path d="M26.926 4.384a.378.378 0 0 0-.534 0L24.2 6.565l-2.192-2.181a.379.379 0 0 0-.534 0 .375.375 0 0 0 0 .531l2.175 2.165-2.174 2.162a.375.375 0 0 0 .268.641.377.377 0 0 0 .267-.11l2.19-2.18 2.191 2.18a.376.376 0 0 0 .534 0 .374.374 0 0 0 0-.531L24.75 7.08l2.175-2.165a.374.374 0 0 0 0-.531z"/>
            <path fill-rule="nonzero" d="M24.2 1c-3.332 0-6.042 2.697-6.042 6.012 0 3.314 2.71 6.011 6.041 6.011 3.331 0 6.042-2.697 6.042-6.011C30.24 3.697 27.53 1 24.199 1zm0 11.272c-2.916 0-5.287-2.36-5.287-5.26s2.371-5.26 5.286-5.26c2.915 0 5.287 2.36 5.287 5.26s-2.372 5.26-5.287 5.26z"/>
        </g>
    </g>
</svg>
