<svg width="16" height="18" viewBox="0 0 16 18" fill="none" xmlns="http://www.w3.org/2000/svg">
<path fill-rule="evenodd" clip-rule="evenodd" d="M9.98453 0.982334C8.7548 0.279631 7.24515 0.279631 6.01542 0.982334L2.01544 3.26803C0.769145 3.9802 0 5.30558 0 6.74101V11.259C0 12.6945 0.769144 14.0198 2.01544 14.732L6.01542 17.0177C7.24515 17.7204 8.7548 17.7204 9.98453 17.0177L13.9845 14.732C15.2308 14.0198 15.9999 12.6945 15.9999 11.259V6.74101C15.9999 5.30558 15.2308 3.9802 13.9845 3.26803L9.98453 0.982334ZM7 2.72322L3.00772 5.00452C2.38457 5.36061 2 6.02329 2 6.74101V11.259L2.00008 11.2768L7 8.41972V2.72322ZM9 8.41972L13.9999 11.2768L13.9999 11.259V6.74101C13.9999 6.02329 13.6154 5.36061 12.9922 5.00452L9 2.72325V8.41972ZM8 10.1518L12.9844 13L8.99225 15.2812C8.37739 15.6326 7.62256 15.6326 7.00769 15.2812L3.01559 13L8 10.1518Z" fill="#F7F7F7"/>
</svg>
