<svg width="48" height="48" viewBox="0 0 48 48" fill="none" xmlns="http://www.w3.org/2000/svg">
<path d="M21.495 18.495C21.7683 18.2217 21.7683 17.7784 21.495 17.5051C21.2216 17.2317 20.7784 17.2317 20.505 17.5051L14.505 23.5051C14.3683 23.6418 14.3 23.8209 14.3 24C14.3 24.095 14.3189 24.1855 14.3531 24.268C14.3865 24.3487 14.4356 24.4244 14.5005 24.4904" fill="#F7F7F7"/>
<path d="M14.5054 24.4954L20.505 30.495C20.7784 30.7684 21.2216 30.7684 21.495 30.495C21.7683 30.2217 21.7683 29.7784 21.495 29.5051L16.6899 24.7H33C33.3866 24.7 33.7 24.3866 33.7 24C33.7 23.6134 33.3866 23.3 33 23.3H16.6899L21.495 18.495" fill="#F7F7F7"/>
</svg>
