<svg width="40" height="40" viewBox="0 0 40 40" fill="none" xmlns="http://www.w3.org/2000/svg">
<mask id="mask0" mask-type="alpha" maskUnits="userSpaceOnUse" x="12" y="13" width="16" height="14">
<path d="M19.7071 14.7071C20.0976 14.3166 20.0976 13.6834 19.7071 13.2929C19.3166 12.9024 18.6834 12.9024 18.2929 13.2929L12.2929 19.2929C11.9024 19.6834 11.9024 20.3166 12.2929 20.7071L18.2929 26.7071C18.6834 27.0976 19.3166 27.0976 19.7071 26.7071C20.0976 26.3166 20.0976 25.6834 19.7071 25.2929L15.4142 21H27C27.5523 21 28 20.5523 28 20C28 19.4477 27.5523 19 27 19H15.4142L19.7071 14.7071Z" fill="white"/>
</mask>
<g mask="url(#mask0)">
<path d="M8 8H32V32H8V8Z" fill="#616871"/>
</g>
</svg>
