<svg width="40" height="40" viewBox="0 0 40 40" fill="none" xmlns="http://www.w3.org/2000/svg">
<path d="M11 15C11 13.3431 12.3431 12 14 12H15C15.5523 12 16 12.4477 16 13C16 13.5523 15.5523 14 15 14H14C13.4477 14 13 14.4477 13 15V25C13 25.5523 13.4477 26 14 26H15C15.5523 26 16 26.4477 16 27C16 27.5523 15.5523 28 15 28H14C12.3431 28 11 26.6569 11 25V21H10C9.44772 21 9 20.5523 9 20C9 19.4477 9.44772 19 10 19H11V15Z" fill="white"/>
<path d="M29 15V19L30 19C30.5523 19 31 19.4477 31 20C31 20.5523 30.5523 21 30 21H29V25C29 26.6569 27.6569 28 26 28H25C24.4477 28 24 27.5523 24 27C24 26.4477 24.4477 26 25 26H26C26.5523 26 27 25.5523 27 25V15C27 14.4477 26.5523 14 26 14H25C24.4477 14 24 13.5523 24 13C24 12.4477 24.4477 12 25 12H26C27.6569 12 29 13.3431 29 15Z" fill="white"/>
<path d="M24 21C23.4477 21 23 20.5523 23 20C23 19.4477 23.4477 19 24 19C24.5523 19 25 19.4477 25 20C25 20.5523 24.5523 21 24 21Z" fill="white"/>
<path d="M15 20C15 20.5523 15.4477 21 16 21C16.5523 21 17 20.5523 17 20C17 19.4477 16.5523 19 16 19C15.4477 19 15 19.4477 15 20Z" fill="white"/>
<path d="M20 21C19.4477 21 19 20.5523 19 20C19 19.4477 19.4477 19 20 19C20.5523 19 21 19.4477 21 20C21 20.5523 20.5523 21 20 21Z" fill="white"/>
</svg>
