<svg width="20" height="24" viewBox="0 0 20 24" fill="none" xmlns="http://www.w3.org/2000/svg">
<path fill-rule="evenodd" clip-rule="evenodd" d="M19.0185 1.34511C19.2805 0.955894 19.1861 0.421938 18.8077 0.152483C18.4293 -0.116972 17.9102 -0.0198888 17.6482 0.369324L16.166 2.57146H1.66667C0.746192 2.57146 0 3.33897 0 4.28574V19.7142C0 20.661 0.746193 21.4285 1.66667 21.4285H3.47367L2.6482 22.6549C2.38623 23.0441 2.48061 23.5781 2.85902 23.8475C3.23742 24.117 3.75655 24.0199 4.01852 23.6307L19.0185 1.34511ZM5.78136 17.9999L9.49515 12.4823L7.71519 9.75794C7.58068 9.55206 7.35535 9.42856 7.11419 9.42856C6.83992 9.42856 6.58919 9.58795 6.46653 9.84027L3.10301 16.7595C2.82596 17.3294 3.22888 17.9999 3.84836 17.9999H5.78136ZM12.0063 8.75156L13.8103 6.07125C13.6592 6.02491 13.4991 6.00001 13.3333 6.00001C12.4129 6.00001 11.6667 6.76752 11.6667 7.71429C11.6667 8.10413 11.7932 8.46357 12.0063 8.75156Z" fill="#F7F7F7"/>
<path d="M16.1453 17.9999H9.91176C9.6383 17.9999 9.38225 18.1379 9.2266 18.3692L8.07275 20.0835C7.69012 20.6519 8.08569 21.4285 8.75791 21.4285H18.3333C19.2538 21.4285 20 20.661 20 19.7142V4.28574C20 4.18193 19.991 4.08027 19.9738 3.98155C19.8819 3.45345 19.2434 3.48721 18.9465 3.92831L14.2933 10.8416C14.1434 11.0642 14.2493 11.3826 14.368 11.6242L16.8891 16.7563C17.1691 17.3264 16.7663 17.9999 16.1453 17.9999Z" fill="#F7F7F7"/>
</svg>
