<?xml version="1.0" encoding="UTF-8" standalone="no"?>
<!-- Created with Inkscape (http://www.inkscape.org/) -->

<svg
   xmlns:dc="http://purl.org/dc/elements/1.1/"
   xmlns:cc="http://creativecommons.org/ns#"
   xmlns:rdf="http://www.w3.org/1999/02/22-rdf-syntax-ns#"
   xmlns:svg="http://www.w3.org/2000/svg"
   xmlns="http://www.w3.org/2000/svg"
   xmlns:sodipodi="http://sodipodi.sourceforge.net/DTD/sodipodi-0.dtd"
   xmlns:inkscape="http://www.inkscape.org/namespaces/inkscape"
   viewBox="0 0 448 250"
   version="1.1"
   id="svg8">
  <g
     inkscape:label="Layer 1"
     inkscape:groupmode="layer"
     id="layer1">
    <rect
       style="fill:none;stroke:none;stroke-width:0.2282248"
       id="rect4728"
       width="448"
       height="250" />
    <g
       id="g4732"
       transform="translate(104.56495,54.13842)">
      <path
         id="path4696"
         d="m 121.78616,50.83194 c 0.56387,-0.83766 0.36067,-1.986828 -0.45364,-2.566739 -0.81438,-0.579887 -1.93158,-0.371001 -2.49544,0.466659 l -3.18996,4.739384 H 84.442039 c -1.981028,0 -3.586963,1.651812 -3.586963,3.689429 V 90.3654 c 0,2.037682 1.605935,3.68947 3.586963,3.68947 h 3.888977 l -1.77655,2.639426 c -0.563781,0.837627 -0.36067,1.986892 0.453726,2.566682 0.81438,0.580049 1.931645,0.371001 2.495443,-0.466578 z M 93.297532,86.675946 101.29025,74.801111 97.459477,68.937816 c -0.289496,-0.44307 -0.774458,-0.708895 -1.29346,-0.708895 -0.590299,0 -1.129889,0.343019 -1.393877,0.886066 l -7.238877,14.891387 c -0.596237,1.226524 0.270869,2.669555 1.604121,2.669555 z m 13.397158,-19.90404 3.88252,-5.76849 c -0.32521,-0.09972 -0.66977,-0.15333 -1.02659,-0.15333 -1.98086,0 -3.58681,1.651813 -3.58681,3.68943 0,0.839002 0.27225,1.612581 0.73086,2.232382 z"
         style="clip-rule:evenodd;fill:#f7f7f7;fill-rule:evenodd;stroke-width:2.15217376"
         inkscape:connector-curvature="0" />
      <path
         id="path4698"
         d="m 115.60253,86.675946 h -13.41566 c -0.58851,0 -1.13959,0.296979 -1.47458,0.794792 l -2.483285,3.689471 c -0.823482,1.223294 0.02766,2.894669 1.474584,2.894669 H 120.3115 c 1.98107,0 3.58702,-1.651788 3.58702,-3.68947 V 57.160681 c 0,-0.223446 -0.0195,-0.442175 -0.0561,-0.65464 -0.19783,-1.136559 -1.57197,-1.063905 -2.21095,-0.114611 l -10.01449,14.8786 c -0.32261,0.479104 -0.0947,1.164329 0.16073,1.684292 l 5.42584,11.045171 c 0.60258,1.226954 -0.26428,2.676445 -1.60078,2.676445 z"
         style="fill:#f7f7f7;stroke-width:2.15217376"
         inkscape:connector-curvature="0" />
    </g>
  </g>
</svg>
