<svg width="40" height="40" viewBox="0 0 40 40" fill="none" xmlns="http://www.w3.org/2000/svg">
<path d="M20.0001 12C20.5523 12 21.0001 12.4477 21.0001 13L21.0001 20.5858L23.293 18.2929C23.6835 17.9024 24.3166 17.9024 24.7072 18.2929C25.0977 18.6834 25.0977 19.3166 24.7072 19.7071L20.0001 24.4142L15.293 19.7071C14.9024 19.3166 14.9024 18.6834 15.293 18.2929C15.6835 17.9024 16.3166 17.9024 16.7072 18.2929L19.0001 20.5858L19.0001 13C19.0001 12.4477 19.4478 12 20.0001 12Z" fill="#F7F7F7"/>
<path d="M26.0001 27C26.5523 27 27.0001 26.5523 27.0001 26C27.0001 25.4477 26.5523 25 26.0001 25H14.0001C13.4478 25 13.0001 25.4477 13.0001 26C13.0001 26.5523 13.4478 27 14.0001 27H26.0001Z" fill="#F7F7F7"/>
</svg>
