<svg width="14" height="14" viewBox="0 0 14 14" fill="none" xmlns="http://www.w3.org/2000/svg">
<path d="M0.214206 1.24848C-0.0714019 0.962874 -0.0714019 0.499813 0.214206 0.214205C0.499814 -0.0714018 0.962875 -0.0714018 1.24848 0.214205L7 5.96571L12.7515 0.214205C13.0371 -0.0714018 13.5002 -0.0714018 13.7858 0.214205C14.0714 0.499813 14.0714 0.962874 13.7858 1.24848L8.03426 7L13.7858 12.7515C14.0714 13.0371 14.0714 13.5002 13.7858 13.7858C13.5002 14.0714 13.0371 14.0714 12.7515 13.7858L7 8.03429L1.24848 13.7858C0.962875 14.0714 0.499814 14.0714 0.214206 13.7858C-0.0714019 13.5002 -0.0714019 13.0371 0.214206 12.7515L5.96574 7L0.214206 1.24848Z" fill="#F7F7F7"/>
</svg>
