<svg width="40" height="40" viewBox="0 0 40 40" fill="none" xmlns="http://www.w3.org/2000/svg">
<mask id="mask0" mask-type="alpha" maskUnits="userSpaceOnUse" x="14" y="14" width="12" height="12">
<path d="M25.7071 15.7071C26.0976 15.3166 26.0976 14.6834 25.7071 14.2929C25.3166 13.9024 24.6834 13.9024 24.2929 14.2929L20 18.5858L15.7071 14.2929C15.3166 13.9024 14.6834 13.9024 14.2929 14.2929C13.9024 14.6834 13.9024 15.3166 14.2929 15.7071L18.5858 20L14.2929 24.2929C13.9024 24.6834 13.9024 25.3166 14.2929 25.7071C14.6834 26.0976 15.3166 26.0976 15.7071 25.7071L20 21.4142L24.2929 25.7071C24.6834 26.0976 25.3166 26.0976 25.7071 25.7071C26.0976 25.3166 26.0976 24.6834 25.7071 24.2929L21.4142 20L25.7071 15.7071Z" fill="black"/>
</mask>
<g mask="url(#mask0)">
<path d="M8 8H32V32H8V8Z" fill="#616871"/>
</g>
</svg>
