<svg width="24" height="20" viewBox="0 0 24 20" fill="none" xmlns="http://www.w3.org/2000/svg">
<path fill-rule="evenodd" clip-rule="evenodd" d="M9 2C7.5083 2 6 3.52583 6 5.8125C6 7.3217 7.13981 9.04034 8.42415 10.0649C8.77126 10.3418 9 10.771 9 11.252V11.5991C9 12.8607 8.2108 13.9874 7.02523 14.4185L2.65826 16.0065C2.26307 16.1502 2 16.5258 2 16.9463V18H16V17.5C16 17.2239 16.2239 17 16.5 17H17.5C17.7761 17 18 17.2239 18 17.5V18C18 19.1046 17.1046 20 16 20H2C0.89543 20 0 19.1046 0 18V16.9463C0 15.6848 0.789203 14.558 1.97477 14.1269L6.34174 12.5389C6.73693 12.3952 7 12.0197 7 11.5991V11.4831C5.52113 10.2345 4 8.08145 4 5.8125C4 2.78343 6.07342 0 9 0C9.94968 0 10.8296 0.306913 11.5712 0.823044C12.0245 1.13853 12.1363 1.76176 11.8208 2.21507C11.5053 2.66837 10.8821 2.7801 10.4288 2.46461C9.99366 2.1618 9.50747 2 9 2Z" fill="#F7F7F7"/>
<path fill-rule="evenodd" clip-rule="evenodd" d="M16 3C12.6863 3 10 5.68629 10 9C10 12.3137 12.6863 15 16 15C17.2958 15 18.4957 14.5892 19.4765 13.8907L22.2929 16.7071C22.6834 17.0976 23.3166 17.0976 23.7071 16.7071C24.0976 16.3166 24.0976 15.6834 23.7071 15.2929L20.8907 12.4765C21.5892 11.4957 22 10.2958 22 9C22 5.68629 19.3137 3 16 3ZM12 9C12 6.79086 13.7909 5 16 5C18.2091 5 20 6.79086 20 9C20 11.2091 18.2091 13 16 13C13.7909 13 12 11.2091 12 9Z" fill="#F7F7F7"/>
</svg>
