<svg width="24" height="30" viewBox="0 0 24 30" fill="none" xmlns="http://www.w3.org/2000/svg">
<path fill-rule="evenodd" clip-rule="evenodd" d="M0 3C0 1.34315 1.34315 0 3 0H15.5858C16.1162 0 16.6249 0.210714 17 0.585786L23.4142 7C23.7893 7.37507 24 7.88378 24 8.41421V27C24 28.6569 22.6569 30 21 30H3C1.34314 30 0 28.6569 0 27V3ZM3 2C2.44772 2 2 2.44772 2 3V27C2 27.5523 2.44772 28 3 28H21C21.5523 28 22 27.5523 22 27V10C22 9.44772 21.5523 9 21 9H18C16.3431 9 15 7.65685 15 6V3C15 2.44772 14.5523 2 14 2H3ZM17 3.41421V6C17 6.55228 17.4477 7 18 7H20.5858L17 3.41421ZM12 12C9.79086 12 8 13.7909 8 16C8 16.7418 8.20193 17.4365 8.55382 18.032L14.032 12.5538C13.4365 12.2019 12.7418 12 12 12ZM15.4462 13.968L9.96803 19.4462C10.5635 19.7981 11.2582 20 12 20C14.2091 20 16 18.2091 16 16C16 15.2582 15.7981 14.5635 15.4462 13.968ZM6 16C6 12.6863 8.68629 10 12 10C15.3137 10 18 12.6863 18 16C18 19.3137 15.3137 22 12 22C8.68629 22 6 19.3137 6 16Z" fill="#F7F7F7"/>
</svg>
