<svg width="40" height="40" viewBox="0 0 40 40" fill="none" xmlns="http://www.w3.org/2000/svg">
<path fill-rule="evenodd" clip-rule="evenodd" d="M20.2929 12.8787C19.7303 12.3161 18.9672 12 18.1716 12H15C13.3431 12 12 13.3431 12 15V25C12 26.6569 13.3431 28 15 28H25C26.6569 28 28 26.6569 28 25V17C28 15.3431 26.6569 14 25 14H21.8284C21.5632 14 21.3089 13.8946 21.1213 13.7071L20.2929 12.8787ZM18.1716 14C18.4368 14 18.6911 14.1054 18.8787 14.2929L19.7071 15.1213C20.2697 15.6839 21.0328 16 21.8284 16H25C25.5523 16 26 16.4477 26 17V25C26 25.5523 25.5523 26 25 26H15C14.4477 26 14 25.5523 14 25V15C14 14.4477 14.4477 14 15 14H18.1716Z" fill="#F7F7F7"/>
</svg>
