<svg width="18" height="22" viewBox="0 0 18 22" fill="none" xmlns="http://www.w3.org/2000/svg">
<path fill-rule="evenodd" clip-rule="evenodd" d="M6.5 0C5.11929 0 4 1.11929 4 2.5V8C1.79086 8 0 9.79086 0 12V13C0 17.9706 4.02944 22 9 22C13.9706 22 18 17.9706 18 13V9C18 7.34315 16.6569 6 15 6H14.8293C14.4175 4.83481 13.3062 4 12 4H11.2361C10.6868 3.38625 9.8885 3 9 3V2.5C9 1.11929 7.88071 0 6.5 0ZM12 6V9C12 9.55228 11.5523 10 11 10C10.4477 10 10 9.55228 10 9V6C10 5.44772 9.55228 5 9 5V8C9 8.55228 8.55228 9 8 9C7.44772 9 7 8.55228 7 8V2.5C7 2.22386 6.77614 2 6.5 2C6.22386 2 6 2.22386 6 2.5V13C6 13.5523 5.55228 14 5 14C4.44772 14 4 13.5523 4 13V10C2.89543 10 2 10.8954 2 12V13C2 16.866 5.13401 20 9 20C12.866 20 16 16.866 16 13V9C16 8.44772 15.5523 8 15 8V9C15 9.55228 14.5523 10 14 10C13.4477 10 13 9.55228 13 9V7C13 6.44772 12.5523 6 12 6Z" fill="#F7F7F7"/>
</svg>
