<svg width="40" height="40" viewBox="0 0 40 40" fill="none" xmlns="http://www.w3.org/2000/svg">
<path fill-rule="evenodd" clip-rule="evenodd" d="M20.3 17.5C20.3 16.285 21.285 15.3 22.5 15.3C23.715 15.3 24.7 16.285 24.7 17.5C24.7 18.7151 23.715 19.7 22.5 19.7C21.285 19.7 20.3 18.7151 20.3 17.5ZM22.5 16.7C22.0582 16.7 21.7 17.0582 21.7 17.5C21.7 17.9419 22.0582 18.3 22.5 18.3C22.9418 18.3 23.3 17.9419 23.3 17.5C23.3 17.0582 22.9418 16.7 22.5 16.7Z" fill="#F7F7F7"/>
<path fill-rule="evenodd" clip-rule="evenodd" d="M11 15C11 13.3431 12.3431 12 14 12H26C27.6569 12 29 13.3431 29 15V25C29 26.6569 27.6569 28 26 28H14C12.3431 28 11 26.6569 11 25V15ZM14 14C13.4477 14 13 14.4477 13 15V24.438L16.5307 20.2011C17.2836 19.2976 18.6498 19.2356 19.4814 20.0672L21 21.5858L21.5858 21C22.3668 20.219 23.6331 20.219 24.4142 21L27 23.5859V15C27 14.4477 26.5523 14 26 14H14ZM26.4691 25.8834L23 22.4143L21.7071 23.7072C21.3166 24.0977 20.6834 24.0977 20.2929 23.7072L18.0672 21.4815L14.3017 26H26C26.1695 26 26.3292 25.9578 26.4691 25.8834Z" fill="#F7F7F7"/>
</svg>
