<svg width="40" height="40" viewBox="0 0 40 40" fill="none" xmlns="http://www.w3.org/2000/svg">
<path d="M23.5194 13.0002C22.334 12.9899 21.1921 13.446 20.3398 14.2701L20.3294 14.2803L19.1186 15.4853C18.7271 15.8748 18.7256 16.508 19.1152 16.8995C19.5048 17.2909 20.1379 17.2925 20.5294 16.9029L21.7347 15.7034C22.2095 15.2468 22.8438 14.9944 23.502 15.0001C24.1624 15.0058 24.7943 15.271 25.2616 15.7387C25.7289 16.2065 25.9942 16.8395 25.9999 17.5015C26.0056 18.1608 25.7535 18.7958 25.2978 19.2711L23.1925 21.3785C22.937 21.6343 22.6295 21.8322 22.291 21.9586C21.9526 22.085 21.591 22.137 21.2307 22.1112C20.8704 22.0854 20.5199 21.9823 20.2028 21.8089C19.8858 21.6355 19.6096 21.3958 19.3931 21.1061C19.0625 20.6637 18.4359 20.573 17.9934 20.9036C17.551 21.2342 17.4604 21.8609 17.791 22.3033C18.1791 22.8227 18.6744 23.2525 19.2432 23.5636C19.812 23.8747 20.4411 24.0597 21.0877 24.1061C21.7343 24.1524 22.3833 24.059 22.9907 23.8323C23.5979 23.6055 24.1493 23.2507 24.6075 22.792L26.7194 20.6779L26.7316 20.6655C27.5548 19.8123 28.0101 18.6698 27.9998 17.4841C27.9895 16.2984 27.5144 15.164 26.6765 14.3252C25.8386 13.4864 24.7048 13.0105 23.5194 13.0002Z" fill="#F7F7F7"/>
<path d="M18.9123 17.8939C18.2657 17.8476 17.6167 17.941 17.0093 18.1678C16.4021 18.3945 15.8505 18.7495 15.3924 19.2082L13.2806 21.3221L13.2684 21.3345C12.4452 22.1877 11.9899 23.3302 12.0002 24.5159C12.0105 25.7016 12.4856 26.836 13.3235 27.6748C14.1614 28.5136 15.2952 28.9895 16.4806 28.9999C17.666 29.0102 18.8079 28.554 19.6602 27.7299L19.6726 27.7177L20.8764 26.5127C21.2668 26.122 21.2664 25.4888 20.8757 25.0985C20.485 24.7082 19.8518 24.7085 19.4615 25.0992L18.2644 26.2976C17.7897 26.7536 17.1557 27.0056 16.498 26.9999C15.8376 26.9942 15.2057 26.729 14.7384 26.2613C14.2711 25.7935 14.0058 25.1605 14.0001 24.4986C13.9944 23.8393 14.2465 23.2042 14.7022 22.729L16.8076 20.6214C17.0631 20.3656 17.3705 20.1678 17.709 20.0414C18.0474 19.915 18.409 19.863 18.7693 19.8888C19.1296 19.9147 19.4801 20.0177 19.7972 20.1911C20.1142 20.3645 20.3904 20.6042 20.6069 20.8939C20.9375 21.3363 21.5641 21.427 22.0066 21.0964C22.449 20.7658 22.5396 20.1392 22.209 19.6968C21.8209 19.1773 21.3256 18.7475 20.7568 18.4364C20.188 18.1253 19.5589 17.9403 18.9123 17.8939Z" fill="#F7F7F7"/>
</svg>
