<svg width="40" height="40" viewBox="0 0 40 40" fill="none" xmlns="http://www.w3.org/2000/svg">
<path fill-rule="evenodd" clip-rule="evenodd" d="M27 21C27 19.8954 26.1046 19 25 19H15C13.8954 19 13 19.8954 13 21V25C13 26.1046 13.8954 27 15 27H25C26.1046 27 27 26.1046 27 25V21ZM15 21H25V25H15V21Z" fill="#F7F7F7"/>
<path fill-rule="evenodd" clip-rule="evenodd" d="M25 17C25 14.7909 23.2091 13 21 13H19C16.7909 13 15 14.7909 15 17V21H25V17ZM21 15C22.1046 15 23 15.8954 23 17V19H17V17C17 15.8954 17.8954 15 19 15H21Z" fill="#F7F7F7"/>
</svg>
