<svg width="40" height="40" viewBox="0 0 40 40" fill="none" xmlns="http://www.w3.org/2000/svg">
<path fill-rule="evenodd" clip-rule="evenodd" d="M18.6001 14.0001C18.6001 14.7733 19.2269 15.4001 20.0001 15.4001C20.7733 15.4001 21.4001 14.7733 21.4001 14.0001C21.4001 13.2269 20.7733 12.6001 20.0001 12.6001C19.2269 12.6001 18.6001 13.2269 18.6001 14.0001Z" fill="#F7F7F7"/>
<path fill-rule="evenodd" clip-rule="evenodd" d="M18.6001 20.0001C18.6001 20.7733 19.2269 21.4001 20.0001 21.4001C20.7733 21.4001 21.4001 20.7733 21.4001 20.0001C21.4001 19.2269 20.7733 18.6001 20.0001 18.6001C19.2269 18.6001 18.6001 19.2269 18.6001 20.0001Z" fill="#F7F7F7"/>
<path fill-rule="evenodd" clip-rule="evenodd" d="M18.6001 26.0001C18.6001 26.7733 19.2269 27.4001 20.0001 27.4001C20.7733 27.4001 21.4001 26.7733 21.4001 26.0001C21.4001 25.2269 20.7733 24.6001 20.0001 24.6001C19.2269 24.6001 18.6001 25.2269 18.6001 26.0001Z" fill="#F7F7F7"/>
</svg>
