<svg width="80" height="80" viewBox="0 0 80 80" fill="none" xmlns="http://www.w3.org/2000/svg">
<path fill-rule="evenodd" clip-rule="evenodd" d="M62 42C71.9411 42 80 33.9411 80 24C80 14.0589 71.9411 6 62 6C52.0589 6 44 14.0589 44 24C44 33.9411 52.0589 42 62 42ZM62 12C60.3431 12 59 13.3431 59 15V24C59 25.6569 60.3431 27 62 27C63.6569 27 65 25.6569 65 24V15C65 13.3431 63.6569 12 62 12ZM59 33C59 31.3431 60.3431 30 62 30C63.6569 30 65 31.3431 65 33C65 34.6569 63.6569 36 62 36C60.3431 36 59 34.6569 59 33Z" fill="#F7F7F7"/>
<path fill-rule="evenodd" clip-rule="evenodd" d="M39.4123 9.15189L43.8123 11.6185C42.6922 13.2607 41.7886 15.0625 41.1429 16.9827L38 15.2208V38.2964L60 51.2892V45.9103C60.6587 45.9697 61.3258 46 62 46C63.366 46 64.7029 45.8755 66 45.6372V52.6976C66 55.938 64.2462 58.9265 61.4123 60.5152L39.4123 72.8481C36.6726 74.384 33.3274 74.384 30.5877 72.8481L8.58765 60.5152C5.75376 58.9265 4 55.938 4 52.6976V29.3024C4 26.062 5.75376 23.0735 8.58765 21.4848L30.5877 9.15189C33.3274 7.61604 36.6726 7.61604 39.4123 9.15189ZM32 15.2208L11.5292 26.6965C10.5846 27.2261 10 28.2222 10 29.3024V51.2892L32 38.2964L32 15.2208ZM34.9786 43.488L35 43.4881L35.0214 43.488L56.7045 56.2936L36.4708 67.6364C35.5575 68.1484 34.4425 68.1484 33.5292 67.6364L13.2955 56.2936L34.9786 43.488Z" fill="#F7F7F7"/>
</svg>
