<svg width="48" height="48" viewBox="0 0 48 48" fill="none" xmlns="http://www.w3.org/2000/svg">
<mask id="mask0" mask-type="alpha" maskUnits="userSpaceOnUse" x="13" y="10" width="22" height="28">
<path d="M24.5 10C24.7761 10 25 10.2239 25 10.5V18C25 19.1046 25.8954 20 27 20H34.5C34.7761 20 35 20.2239 35 20.5V33C35 34.6569 33.6569 36 32 36H26.7966C26.4115 36 26.1667 35.5798 26.3222 35.2276C26.758 34.2404 27 33.1484 27 32C27 27.5817 23.4183 24 19 24C17.8516 24 16.7596 24.242 15.7724 24.6778C15.4202 24.8333 15 24.5885 15 24.2034V13C15 11.3431 16.3431 10 18 10H24.5Z" fill="#F7F7F7"/>
<path d="M34.6586 17.6586L27.3414 10.3414C27.2154 10.2154 27 10.3047 27 10.4828V17.5C27 17.7761 27.2239 18 27.5 18H34.5172C34.6953 18 34.7846 17.7846 34.6586 17.6586Z" fill="#F7F7F7"/>
<path fill-rule="evenodd" clip-rule="evenodd" d="M19 38C22.3137 38 25 35.3137 25 32C25 28.6863 22.3137 26 19 26C15.6863 26 13 28.6863 13 32C13 35.3137 15.6863 38 19 38ZM19 28C18.4477 28 18 28.4477 18 29V32C18 32.5523 18.4477 33 19 33C19.5523 33 20 32.5523 20 32V29C20 28.4477 19.5523 28 19 28ZM18 35C18 34.4477 18.4477 34 19 34C19.5523 34 20 34.4477 20 35C20 35.5523 19.5523 36 19 36C18.4477 36 18 35.5523 18 35Z" fill="#F7F7F7"/>
</mask>
<g mask="url(#mask0)">
<path d="M0 0H48V48H0V0Z" fill="#F7F7F7"/>
</g>
</svg>
