
            <svg
              width="18"
              height="18"
              viewBox="0 0 18 18"
              fill="none"
              xmlns="http://www.w3.org/2000/svg"
            >
              <path
                d="M4 17H2C1.44772 17 1 16.5523 1 16V2C1 1.44772 1.44772 1 2 1H5.66301C5.93629 1 6.19767 1.11184 6.38636 1.30952L7.70455 2.69048C7.89324 2.88816 8.15462 3 8.4279 3H12C13.1046 3 14 3.89543 14 5V8"
                stroke="white"
                strokeWidth="2"
                strokeLinecap="round"
              />
              <path
                d="M16.5253 9.33501C16.7568 8.684 16.2741 8 15.5831 8H6.31732C5.04793 8 3.91594 8.79893 3.49068 9.99497L1.47467 15.665C1.2432 16.316 1.72595 17 2.41688 17H11.6827C12.9521 17 14.0841 16.2011 14.5093 15.005L16.5253 9.33501Z"
                stroke="white"
                strokeWidth="2"
              />
            </svg>