<svg width="40" height="40" viewBox="0 0 40 40" fill="none" xmlns="http://www.w3.org/2000/svg">
<rect x="0.5" y="0.5" width="39" height="39" fill="none" stroke="none"/>
<path d="M17.4851 20.0519C17.495 19.8816 17.4491 19.708 17.3283 19.5875L12.9108 15.1818C12.686 14.9576 12.3126 15.1905 12.415 15.491L14.8586 22.6606C15.5425 24.5311 17.3285 25.7543 19.3407 25.7302L20.5812 25.7153C20.6342 25.7146 20.6869 25.7129 20.7393 25.7102C20.8913 25.7023 21.042 25.7529 21.1497 25.8603L23.9447 28.6479C24.1399 28.8425 24.4557 28.8425 24.6509 28.6479L27.645 25.6617C27.8409 25.4664 27.8409 25.1491 27.645 24.9537L24.6389 21.9556C24.5433 21.8603 24.4904 21.7304 24.492 21.5955L24.5094 20.1524C24.5344 18.0803 23.2271 16.2565 21.2639 15.6249L14.3837 13.3877C14.0836 13.2902 13.8556 13.6626 14.0791 13.8855L18.5634 18.3577C18.6837 18.4777 18.8565 18.5233 19.0261 18.5133C19.5597 18.4818 20.1267 18.6862 20.5596 19.118C21.3159 19.8723 21.3766 21.0348 20.695 21.7146C20.0135 22.3943 18.8478 22.3338 18.0914 21.5795C17.659 21.1482 17.454 20.5835 17.4851 20.0519Z" fill="#F7F7F7"/>
</svg>
