<svg width="16" height="18" viewBox="0 0 16 18" fill="none" xmlns="http://www.w3.org/2000/svg">
<path d="M1 6.74095C1 5.66438 1.57686 4.67035 2.51158 4.13622L6.51156 1.85052C7.43385 1.3235 8.56609 1.3235 9.48839 1.85052L13.4884 4.13622C14.4231 4.67035 14.9999 5.66438 14.9999 6.74095V11.259C14.9999 12.3356 14.4231 13.3296 13.4884 13.8637L9.48839 16.1494C8.56609 16.6764 7.43385 16.6764 6.51156 16.1494L2.51158 13.8637C1.57686 13.3296 1 12.3356 1 11.259V6.74095Z" stroke="#F7F7F7" stroke-width="2"/>
<path d="M7.99997 9L1 13" stroke="#F7F7F7" stroke-width="2"/>
<path d="M8.00003 9L15 13" stroke="#F7F7F7" stroke-width="2"/>
<path d="M8 8.99997V2" stroke="#F7F7F7" stroke-width="2"/>
</svg>
