<svg width="18" height="18" viewBox="0 0 18 18" fill="none" xmlns="http://www.w3.org/2000/svg">
<path d="M17.9701 1.24253C18.1041 0.706733 17.7783 0.163799 17.2425 0.0298499C16.7067 -0.104099 16.1638 0.221662 16.0299 0.757457L15.5658 2.61371C13.941 0.866846 11.62 2.56114e-09 9 2.56114e-09C4.02944 2.56114e-09 0 4.02944 0 9C0 13.9706 4.02944 18 9 18C12.4542 18 15.3741 16.4753 16.8937 13.4487C17.1415 12.9551 16.9423 12.3541 16.4487 12.1063C15.9551 11.8585 15.3541 12.0577 15.1063 12.5513C13.9808 14.793 11.828 16 9 16C5.13401 16 2 12.866 2 9C2 5.13401 5.13401 2 9 2C11.1548 2 12.9143 2.68919 14.1214 3.99999H12C11.4477 3.99999 11 4.44771 11 4.99999C11 5.55228 11.4477 5.99999 12 5.99999H15.9793C16.1009 6.00261 16.2243 5.98302 16.3437 5.93918C16.3945 5.92055 16.4436 5.89788 16.4904 5.87151C16.6552 5.77895 16.7844 5.6456 16.8715 5.49055C16.9084 5.42497 16.9383 5.35451 16.96 5.28006C16.9643 5.26535 16.9682 5.25054 16.9719 5.23565L17.9701 1.24253Z" fill="#F7F7F7"/>
</svg>
