<svg width="40" height="40" viewBox="0 0 40 40" fill="none" xmlns="http://www.w3.org/2000/svg">
<path d="M15.2929 16.7071C14.9024 16.3166 14.9024 15.6834 15.2929 15.2929C15.6834 14.9024 16.3166 14.9024 16.7071 15.2929L20 18.5858L23.2929 15.2929C23.6834 14.9024 24.3166 14.9024 24.7071 15.2929C25.0976 15.6834 25.0976 16.3166 24.7071 16.7071L21.4142 20L24.7071 23.2929C25.0976 23.6834 25.0976 24.3166 24.7071 24.7071C24.3166 25.0976 23.6834 25.0976 23.2929 24.7071L20 21.4142L16.7071 24.7071C16.3166 25.0976 15.6834 25.0976 15.2929 24.7071C14.9024 24.3166 14.9024 23.6834 15.2929 23.2929L18.5858 20L15.2929 16.7071Z" fill="#F7F7F7"/>
</svg>
