
            <svg
              width="18"
              height="18"
              viewBox="0 0 18 18"
              fill="none"
              xmlns="http://www.w3.org/2000/svg"
            >
              <path
                d="M1 3C1 1.89543 1.89543 1 3 1H15C16.1046 1 17 1.89543 17 3V15C17 16.1046 16.1046 17 15 17H3C1.89543 17 1 16.1046 1 15V3Z"
                stroke="white"
                strokeWidth="2"
              />
              <path
                d="M13 5H8"
                stroke="white"
                strokeWidth="2"
                strokeLinecap="round"
              />
              <path
                d="M13 9H8"
                stroke="white"
                strokeWidth="2"
                strokeLinecap="round"
              />
              <path
                d="M10 13H8"
                stroke="white"
                strokeWidth="2"
                strokeLinecap="round"
              />
              <circle r="1" transform="matrix(-1 0 0 1 5 5)" fill="white" />
              <circle r="1" transform="matrix(-1 0 0 1 5 9)" fill="white" />
              <circle r="1" transform="matrix(-1 0 0 1 5 13)" fill="white" />
            </svg>