<svg width="17" height="15" viewBox="0 0 17 15" fill="none" xmlns="http://www.w3.org/2000/svg">
<path fill-rule="evenodd" clip-rule="evenodd" d="M14.8135 6.05672C14.8135 7.39414 14.3574 8.62504 13.5923 9.60239L16.4949 12.505C16.7683 12.7783 16.7683 13.2215 16.4949 13.4949C16.2215 13.7683 15.7783 13.7683 15.505 13.4949L12.6024 10.5923C11.625 11.3574 10.3941 11.8135 9.05672 11.8135C5.87733 11.8135 3.29993 9.23611 3.29993 6.05672C3.29993 5.58936 3.35562 5.135 3.46073 4.69993H1.99993C1.83424 4.69993 1.69993 4.83424 1.69993 4.99993V12.9999C1.69993 13.1656 1.83424 13.2999 1.99993 13.2999H9.99993C10.3865 13.2999 10.6999 13.6133 10.6999 13.9999C10.6999 14.3865 10.3865 14.6999 9.99993 14.6999H1.99993C1.06104 14.6999 0.299927 13.9388 0.299927 12.9999V4.99993C0.299927 4.06104 1.06104 3.29993 1.99993 3.29993H3.99993L4.00169 3.29993C4.97861 1.51238 6.87607 0.299927 9.05672 0.299927C12.2361 0.299927 14.8135 2.87733 14.8135 6.05672ZM4.69993 6.05672C4.69993 3.65053 6.65053 1.69993 9.05672 1.69993C11.4629 1.69993 13.4135 3.65053 13.4135 6.05672C13.4135 7.22873 12.9507 8.29266 12.1979 9.07573C12.1755 9.09329 12.1538 9.11241 12.1331 9.1331C12.1124 9.15379 12.0933 9.17545 12.0757 9.19794C11.2927 9.95073 10.2287 10.4135 9.05672 10.4135C6.65053 10.4135 4.69993 8.46291 4.69993 6.05672Z" fill="#F7F7F7"/>
</svg>
