<svg width="40" height="40" viewBox="0 0 40 40" fill="none" xmlns="http://www.w3.org/2000/svg">
<path fill-rule="evenodd" clip-rule="evenodd" d="M26.7071 13.2929C27.0976 13.6834 27.0976 14.3166 26.7071 14.7071L14.7071 26.7071C14.3166 27.0976 13.6834 27.0976 13.2929 26.7071C12.9024 26.3166 12.9024 25.6834 13.2929 25.2929L25.2929 13.2929C25.6834 12.9024 26.3166 12.9024 26.7071 13.2929Z" fill="#F7F7F7"/>
<path d="M22.1547 15.0168C22.4208 14.7508 22.3076 14.2996 21.9403 14.218C21.3173 14.0796 20.6686 14 20 14C17.7935 14 15.8033 14.8664 14.2416 15.8564C12.6739 16.8502 11.4672 18.0131 10.8075 18.7125C10.1214 19.44 10.1214 20.56 10.8075 21.2875C11.3084 21.8185 12.1246 22.6168 13.1748 23.4053C13.3701 23.552 13.6428 23.5288 13.8155 23.356L14.5253 22.6463C14.7472 22.4243 14.7119 22.0553 14.4596 21.8686C13.5435 21.1905 12.813 20.4908 12.3431 20C12.951 19.3651 13.9948 18.3808 15.3124 17.5456C16.6961 16.6685 18.3117 16 20 16C20.2786 16 20.5553 16.0182 20.8293 16.0526C20.9887 16.0726 21.1499 16.0217 21.2635 15.908L22.1547 15.0168Z" fill="#F7F7F7"/>
<path d="M18.7365 24.092C18.8501 23.9783 19.0113 23.9274 19.1707 23.9474C19.4447 23.9818 19.7213 24 20 24C21.6882 24 23.3039 23.3315 24.6876 22.4544C26.0051 21.6192 27.049 20.6349 27.6569 20C27.1869 19.5092 26.4565 18.8095 25.5404 18.1314C25.2881 17.9447 25.2528 17.5757 25.4747 17.3537L26.1845 16.644C26.3572 16.4713 26.6299 16.448 26.8252 16.5947C27.8754 17.3832 28.6916 18.1815 29.1925 18.7125C29.8786 19.44 29.8786 20.56 29.1925 21.2875C28.5328 21.9869 27.3261 23.1498 25.7584 24.1436C24.1966 25.1336 22.2064 26 20 26C19.3314 26 18.6827 25.9205 18.0597 25.782C17.6924 25.7004 17.5792 25.2493 17.8453 24.9832L18.7365 24.092Z" fill="#F7F7F7"/>
<path d="M20.0489 17.1227C20.0945 17.0771 20.0645 17 20 17C18.3431 17 17 18.3431 17 20C17 20.0645 17.0771 20.0945 17.1227 20.0489L20.0489 17.1227Z" fill="#F7F7F7"/>
<path d="M19.9511 22.8773C19.9055 22.9229 19.9355 23 20 23C21.6569 23 23 21.6569 23 20C23 19.9355 22.9229 19.9055 22.8773 19.9511L19.9511 22.8773Z" fill="#F7F7F7"/>
</svg>
