<svg width="40" height="40" viewBox="0 0 40 40" fill="none" xmlns="http://www.w3.org/2000/svg">
<mask id="mask0" mask-type="alpha" maskUnits="userSpaceOnUse" x="13" y="14" width="14" height="14">
<path fill-rule="evenodd" clip-rule="evenodd" d="M14 24C14.5523 24 15 24.4477 15 25V26H25V25C25 24.4477 25.4477 24 26 24C26.5523 24 27 24.4477 27 25V26C27 27.1046 26.1046 28 25 28H15C13.8954 28 13 27.1046 13 26V25C13 24.4477 13.4477 24 14 24Z" fill="#F7F7F7"/>
<path d="M15.2929 19.7071C14.9024 19.3166 14.9024 18.6834 15.2929 18.2929L19.2929 14.2929C19.6834 13.9024 20.3166 13.9024 20.7071 14.2929L24.7071 18.2929C25.0976 18.6834 25.0976 19.3166 24.7071 19.7071C24.3166 20.0976 23.6834 20.0976 23.2929 19.7071L21 17.4142V23C21 23.5523 20.5523 24 20 24C19.4477 24 19 23.5523 19 23L19 17.4142L16.7071 19.7071C16.3166 20.0976 15.6834 20.0976 15.2929 19.7071Z" fill="#F7F7F7"/>
</mask>
<g mask="url(#mask0)">
<path d="M8 8H32V32H8V8Z" fill="#616871"/>
</g>
</svg>
