<svg
            width="183"
            height="13"
            viewBox="0 0 183 13"
            fill="none"
            xmlns="http://www.w3.org/2000/svg"
          >
            <path
              d="M11.584 2.2L7.342 12H5.102L0.874 2.2H3.324L6.306 9.2L9.33 2.2H11.584ZM12.385 4.468H14.569V12H12.385V4.468ZM13.477 3.418C13.0756 3.418 12.749 3.30133 12.497 3.068C12.245 2.83467 12.119 2.54533 12.119 2.2C12.119 1.85467 12.245 1.56533 12.497 1.332C12.749 1.09867 13.0756 0.981999 13.477 0.981999C13.8783 0.981999 14.205 1.094 14.457 1.318C14.709 1.542 14.835 1.822 14.835 2.158C14.835 2.522 14.709 2.82533 14.457 3.068C14.205 3.30133 13.8783 3.418 13.477 3.418ZM19.1299 12.112C18.5046 12.112 17.8932 12.0373 17.2959 11.888C16.6986 11.7293 16.2226 11.5333 15.8679 11.3L16.5959 9.732C16.9319 9.94667 17.3379 10.124 17.8139 10.264C18.2899 10.3947 18.7566 10.46 19.2139 10.46C20.1379 10.46 20.5999 10.2313 20.5999 9.774C20.5999 9.55933 20.4739 9.40533 20.2219 9.312C19.9699 9.21867 19.5826 9.13933 19.0599 9.074C18.4439 8.98067 17.9352 8.87333 17.5339 8.752C17.1326 8.63067 16.7826 8.416 16.4839 8.108C16.1946 7.8 16.0499 7.36133 16.0499 6.792C16.0499 6.316 16.1852 5.896 16.4559 5.532C16.7359 5.15867 17.1372 4.86933 17.6599 4.664C18.1919 4.45867 18.8172 4.356 19.5359 4.356C20.0679 4.356 20.5952 4.41667 21.1179 4.538C21.6499 4.65 22.0886 4.80867 22.4339 5.014L21.7059 6.568C21.0432 6.19467 20.3199 6.008 19.5359 6.008C19.0692 6.008 18.7192 6.07333 18.4859 6.204C18.2526 6.33467 18.1359 6.50267 18.1359 6.708C18.1359 6.94133 18.2619 7.10467 18.5139 7.198C18.7659 7.29133 19.1672 7.38 19.7179 7.464C20.3339 7.56667 20.8379 7.67867 21.2299 7.8C21.6219 7.912 21.9626 8.122 22.2519 8.43C22.5412 8.738 22.6859 9.16733 22.6859 9.718C22.6859 10.1847 22.5459 10.6 22.2659 10.964C21.9859 11.328 21.5752 11.6127 21.0339 11.818C20.5019 12.014 19.8672 12.112 19.1299 12.112ZM24.0334 4.468H26.2174V12H24.0334V4.468ZM25.1254 3.418C24.7241 3.418 24.3974 3.30133 24.1454 3.068C23.8934 2.83467 23.7674 2.54533 23.7674 2.2C23.7674 1.85467 23.8934 1.56533 24.1454 1.332C24.3974 1.09867 24.7241 0.981999 25.1254 0.981999C25.5267 0.981999 25.8534 1.094 26.1054 1.318C26.3574 1.542 26.4834 1.822 26.4834 2.158C26.4834 2.522 26.3574 2.82533 26.1054 3.068C25.8534 3.30133 25.5267 3.418 25.1254 3.418ZM31.8283 12.112C31.035 12.112 30.321 11.9487 29.6863 11.622C29.061 11.286 28.571 10.824 28.2163 10.236C27.8617 9.648 27.6843 8.98067 27.6843 8.234C27.6843 7.48733 27.8617 6.82 28.2163 6.232C28.571 5.644 29.061 5.18667 29.6863 4.86C30.321 4.524 31.035 4.356 31.8283 4.356C32.6217 4.356 33.331 4.524 33.9563 4.86C34.5817 5.18667 35.0717 5.644 35.4263 6.232C35.781 6.82 35.9583 7.48733 35.9583 8.234C35.9583 8.98067 35.781 9.648 35.4263 10.236C35.0717 10.824 34.5817 11.286 33.9563 11.622C33.331 11.9487 32.6217 12.112 31.8283 12.112ZM31.8283 10.32C32.3883 10.32 32.8457 10.1333 33.2003 9.76C33.5643 9.37733 33.7463 8.86867 33.7463 8.234C33.7463 7.59933 33.5643 7.09533 33.2003 6.722C32.8457 6.33933 32.3883 6.148 31.8283 6.148C31.2683 6.148 30.8063 6.33933 30.4423 6.722C30.0783 7.09533 29.8963 7.59933 29.8963 8.234C29.8963 8.86867 30.0783 9.37733 30.4423 9.76C30.8063 10.1333 31.2683 10.32 31.8283 10.32ZM41.9962 4.356C42.9295 4.356 43.6808 4.636 44.2502 5.196C44.8288 5.756 45.1182 6.58667 45.1182 7.688V12H42.9342V8.024C42.9342 7.42667 42.8035 6.98333 42.5422 6.694C42.2808 6.39533 41.9028 6.246 41.4082 6.246C40.8575 6.246 40.4188 6.41867 40.0922 6.764C39.7655 7.1 39.6022 7.604 39.6022 8.276V12H37.4182V4.468H39.5042V5.35C39.7935 5.03267 40.1528 4.79 40.5822 4.622C41.0115 4.44467 41.4828 4.356 41.9962 4.356ZM50.1358 4.356C51.3025 4.356 52.1985 4.636 52.8238 5.196C53.4492 5.74667 53.7618 6.582 53.7618 7.702V12H51.7178V11.062C51.3072 11.762 50.5418 12.112 49.4218 12.112C48.8432 12.112 48.3392 12.014 47.9098 11.818C47.4898 11.622 47.1678 11.3513 46.9438 11.006C46.7198 10.6607 46.6078 10.2687 46.6078 9.83C46.6078 9.13 46.8692 8.57933 47.3918 8.178C47.9238 7.77667 48.7405 7.576 49.8418 7.576H51.5778C51.5778 7.1 51.4332 6.736 51.1438 6.484C50.8545 6.22267 50.4205 6.092 49.8418 6.092C49.4405 6.092 49.0438 6.15733 48.6518 6.288C48.2692 6.40933 47.9425 6.57733 47.6718 6.792L46.8878 5.266C47.2985 4.97667 47.7885 4.75267 48.3578 4.594C48.9365 4.43533 49.5292 4.356 50.1358 4.356ZM49.9678 10.642C50.3412 10.642 50.6725 10.558 50.9618 10.39C51.2512 10.2127 51.4565 9.956 51.5778 9.62V8.85H50.0798C49.1838 8.85 48.7358 9.144 48.7358 9.732C48.7358 10.012 48.8432 10.236 49.0578 10.404C49.2818 10.5627 49.5852 10.642 49.9678 10.642ZM55.7385 4.468H57.9225V12H55.7385V4.468ZM56.8305 3.418C56.4291 3.418 56.1025 3.30133 55.8505 3.068C55.5985 2.83467 55.4725 2.54533 55.4725 2.2C55.4725 1.85467 55.5985 1.56533 55.8505 1.332C56.1025 1.09867 56.4291 0.981999 56.8305 0.981999C57.2318 0.981999 57.5585 1.094 57.8105 1.318C58.0625 1.542 58.1885 1.822 58.1885 2.158C58.1885 2.522 58.0625 2.82533 57.8105 3.068C57.5585 3.30133 57.2318 3.418 56.8305 3.418ZM62.0354 5.462C62.2967 5.098 62.6467 4.82267 63.0854 4.636C63.5334 4.44933 64.0467 4.356 64.6254 4.356V6.372C64.3827 6.35333 64.2194 6.344 64.1354 6.344C63.5101 6.344 63.0201 6.52133 62.6654 6.876C62.3107 7.22133 62.1334 7.744 62.1334 8.444V12H59.9494V4.468H62.0354V5.462ZM73.2337 8.262C73.2337 8.29 73.2197 8.486 73.1917 8.85H67.4937C67.5963 9.31667 67.839 9.68533 68.2217 9.956C68.6043 10.2267 69.0803 10.362 69.6497 10.362C70.0417 10.362 70.387 10.306 70.6857 10.194C70.9937 10.0727 71.2783 9.886 71.5397 9.634L72.7017 10.894C71.9923 11.706 70.9563 12.112 69.5937 12.112C68.7443 12.112 67.993 11.9487 67.3397 11.622C66.6863 11.286 66.1823 10.824 65.8277 10.236C65.473 9.648 65.2957 8.98067 65.2957 8.234C65.2957 7.49667 65.4683 6.834 65.8137 6.246C66.1683 5.64867 66.649 5.18667 67.2557 4.86C67.8717 4.524 68.5577 4.356 69.3137 4.356C70.051 4.356 70.7183 4.51467 71.3157 4.832C71.913 5.14933 72.3797 5.60667 72.7157 6.204C73.061 6.792 73.2337 7.478 73.2337 8.262ZM69.3277 6.008C68.833 6.008 68.4177 6.148 68.0817 6.428C67.7457 6.708 67.5403 7.09067 67.4657 7.576H71.1757C71.101 7.1 70.8957 6.722 70.5597 6.442C70.2237 6.15267 69.813 6.008 69.3277 6.008Z"
              fill="#E5E5E5"
            />
            <path
              d="M83.0485 2.2C83.9165 2.2 84.6679 2.34467 85.3025 2.634C85.9465 2.92333 86.4412 3.334 86.7865 3.866C87.1319 4.398 87.3045 5.028 87.3045 5.756C87.3045 6.47467 87.1319 7.10467 86.7865 7.646C86.4412 8.178 85.9465 8.58867 85.3025 8.878C84.6679 9.158 83.9165 9.298 83.0485 9.298H81.0745V12H78.8065V2.2H83.0485ZM82.9225 7.45C83.6039 7.45 84.1219 7.30533 84.4765 7.016C84.8312 6.71733 85.0085 6.29733 85.0085 5.756C85.0085 5.20533 84.8312 4.78533 84.4765 4.496C84.1219 4.19733 83.6039 4.048 82.9225 4.048H81.0745V7.45H82.9225ZM88.9064 1.612H91.0904V12H88.9064V1.612ZM96.1554 4.356C97.322 4.356 98.218 4.636 98.8434 5.196C99.4687 5.74667 99.7814 6.582 99.7814 7.702V12H97.7374V11.062C97.3267 11.762 96.5614 12.112 95.4414 12.112C94.8627 12.112 94.3587 12.014 93.9294 11.818C93.5094 11.622 93.1874 11.3513 92.9634 11.006C92.7394 10.6607 92.6274 10.2687 92.6274 9.83C92.6274 9.13 92.8887 8.57933 93.4114 8.178C93.9434 7.77667 94.76 7.576 95.8614 7.576H97.5974C97.5974 7.1 97.4527 6.736 97.1634 6.484C96.874 6.22267 96.44 6.092 95.8614 6.092C95.46 6.092 95.0634 6.15733 94.6714 6.288C94.2887 6.40933 93.962 6.57733 93.6914 6.792L92.9074 5.266C93.318 4.97667 93.808 4.75267 94.3774 4.594C94.956 4.43533 95.5487 4.356 96.1554 4.356ZM95.9874 10.642C96.3607 10.642 96.692 10.558 96.9814 10.39C97.2707 10.2127 97.476 9.956 97.5974 9.62V8.85H96.0994C95.2034 8.85 94.7554 9.144 94.7554 9.732C94.7554 10.012 94.8627 10.236 95.0774 10.404C95.3014 10.5627 95.6047 10.642 95.9874 10.642ZM106.616 11.636C106.401 11.7947 106.135 11.916 105.818 12C105.51 12.0747 105.183 12.112 104.838 12.112C103.942 12.112 103.247 11.8833 102.752 11.426C102.267 10.9687 102.024 10.2967 102.024 9.41V6.316H100.862V4.636H102.024V2.802H104.208V4.636H106.084V6.316H104.208V9.382C104.208 9.69933 104.287 9.94667 104.446 10.124C104.614 10.292 104.847 10.376 105.146 10.376C105.491 10.376 105.785 10.2827 106.028 10.096L106.616 11.636ZM110.236 4.636H112.168V6.316H110.292V12H108.108V6.316H106.946V4.636H108.108V4.3C108.108 3.44133 108.36 2.76 108.864 2.256C109.377 1.752 110.096 1.5 111.02 1.5C111.347 1.5 111.655 1.53733 111.944 1.612C112.243 1.67733 112.49 1.77533 112.686 1.906L112.112 3.488C111.86 3.31067 111.566 3.222 111.23 3.222C110.567 3.222 110.236 3.586 110.236 4.314V4.636ZM116.744 12.112C115.951 12.112 115.237 11.9487 114.602 11.622C113.977 11.286 113.487 10.824 113.132 10.236C112.778 9.648 112.6 8.98067 112.6 8.234C112.6 7.48733 112.778 6.82 113.132 6.232C113.487 5.644 113.977 5.18667 114.602 4.86C115.237 4.524 115.951 4.356 116.744 4.356C117.538 4.356 118.247 4.524 118.872 4.86C119.498 5.18667 119.988 5.644 120.342 6.232C120.697 6.82 120.874 7.48733 120.874 8.234C120.874 8.98067 120.697 9.648 120.342 10.236C119.988 10.824 119.498 11.286 118.872 11.622C118.247 11.9487 117.538 12.112 116.744 12.112ZM116.744 10.32C117.304 10.32 117.762 10.1333 118.116 9.76C118.48 9.37733 118.662 8.86867 118.662 8.234C118.662 7.59933 118.48 7.09533 118.116 6.722C117.762 6.33933 117.304 6.148 116.744 6.148C116.184 6.148 115.722 6.33933 115.358 6.722C114.994 7.09533 114.812 7.59933 114.812 8.234C114.812 8.86867 114.994 9.37733 115.358 9.76C115.722 10.1333 116.184 10.32 116.744 10.32ZM124.42 5.462C124.682 5.098 125.032 4.82267 125.47 4.636C125.918 4.44933 126.432 4.356 127.01 4.356V6.372C126.768 6.35333 126.604 6.344 126.52 6.344C125.895 6.344 125.405 6.52133 125.05 6.876C124.696 7.22133 124.518 7.744 124.518 8.444V12H122.334V4.468H124.42V5.462ZM137.955 4.356C138.897 4.356 139.644 4.636 140.195 5.196C140.755 5.74667 141.035 6.57733 141.035 7.688V12H138.851V8.024C138.851 7.42667 138.725 6.98333 138.473 6.694C138.23 6.39533 137.88 6.246 137.423 6.246C136.909 6.246 136.503 6.414 136.205 6.75C135.906 7.07667 135.757 7.56667 135.757 8.22V12H133.573V8.024C133.573 6.83867 133.097 6.246 132.145 6.246C131.641 6.246 131.239 6.414 130.941 6.75C130.642 7.07667 130.493 7.56667 130.493 8.22V12H128.309V4.468H130.395V5.336C130.675 5.01867 131.015 4.776 131.417 4.608C131.827 4.44 132.275 4.356 132.761 4.356C133.293 4.356 133.773 4.46333 134.203 4.678C134.632 4.88333 134.977 5.18667 135.239 5.588C135.547 5.196 135.934 4.89267 136.401 4.678C136.877 4.46333 137.395 4.356 137.955 4.356ZM156.533 2.2L152.291 12H150.051L145.823 2.2H148.273L151.255 9.2L154.279 2.2H156.533ZM157.334 4.468H159.518V12H157.334V4.468ZM158.426 3.418C158.025 3.418 157.698 3.30133 157.446 3.068C157.194 2.83467 157.068 2.54533 157.068 2.2C157.068 1.85467 157.194 1.56533 157.446 1.332C157.698 1.09867 158.025 0.981999 158.426 0.981999C158.828 0.981999 159.154 1.094 159.406 1.318C159.658 1.542 159.784 1.822 159.784 2.158C159.784 2.522 159.658 2.82533 159.406 3.068C159.154 3.30133 158.828 3.418 158.426 3.418ZM168.923 8.262C168.923 8.29 168.909 8.486 168.881 8.85H163.183C163.286 9.31667 163.528 9.68533 163.911 9.956C164.294 10.2267 164.77 10.362 165.339 10.362C165.731 10.362 166.076 10.306 166.375 10.194C166.683 10.0727 166.968 9.886 167.229 9.634L168.391 10.894C167.682 11.706 166.646 12.112 165.283 12.112C164.434 12.112 163.682 11.9487 163.029 11.622C162.376 11.286 161.872 10.824 161.517 10.236C161.162 9.648 160.985 8.98067 160.985 8.234C160.985 7.49667 161.158 6.834 161.503 6.246C161.858 5.64867 162.338 5.18667 162.945 4.86C163.561 4.524 164.247 4.356 165.003 4.356C165.74 4.356 166.408 4.51467 167.005 4.832C167.602 5.14933 168.069 5.60667 168.405 6.204C168.75 6.792 168.923 7.478 168.923 8.262ZM165.017 6.008C164.522 6.008 164.107 6.148 163.771 6.428C163.435 6.708 163.23 7.09067 163.155 7.576H166.865C166.79 7.1 166.585 6.722 166.249 6.442C165.913 6.15267 165.502 6.008 165.017 6.008ZM182.336 4.468L179.606 12H177.506L175.812 7.324L174.062 12H171.962L169.246 4.468H171.304L173.082 9.564L174.93 4.468H176.778L178.57 9.564L180.404 4.468H182.336Z"
              fill="#45E5B7"
            />
          </svg>