<svg width="40" height="40" viewBox="0 0 40 40" fill="none" xmlns="http://www.w3.org/2000/svg">
<path d="M20 12.6C20.7732 12.6 21.4 13.2268 21.4 14V20C21.4 20.7732 20.7732 21.4 20 21.4C19.2268 21.4 18.6 20.7732 18.6 20V14C18.6 13.2268 19.2268 12.6 20 12.6Z" fill="#F36B86"/>
<path d="M21.7 24.9999C21.7 25.9388 20.9389 26.6999 20 26.6999C19.0611 26.6999 18.3 25.9388 18.3 24.9999C18.3 24.061 19.0611 23.2999 20 23.2999C20.9389 23.2999 21.7 24.061 21.7 24.9999Z" fill="#F36B86"/>
<path d="M15.0708 14.686C15.4496 14.2842 15.431 13.6513 15.0291 13.2724C14.6273 12.8935 13.9944 12.9122 13.6155 13.314C10.1282 17.0129 10.1282 22.9871 13.6155 26.686C13.9944 27.0878 14.6273 27.1065 15.0291 26.7276C15.431 26.3487 15.4496 25.7159 15.0708 25.314C12.3097 22.3855 12.3097 17.6145 15.0708 14.686Z" fill="#F36B86"/>
<path d="M26.3845 13.314C26.0056 12.9122 25.3727 12.8935 24.9709 13.2724C24.569 13.6513 24.5504 14.2842 24.9292 14.686C27.6903 17.6145 27.6903 22.3855 24.9292 25.314C24.5504 25.7159 24.569 26.3487 24.9709 26.7276C25.3727 27.1065 26.0056 27.0878 26.3845 26.686C29.8718 22.9871 29.8718 17.0129 26.3845 13.314Z" fill="#F36B86"/>
</svg>
