<?xml version="1.0" encoding="UTF-8"?>
<svg width="24px" height="24px" viewBox="0 0 24 24" version="1.1" xmlns="http://www.w3.org/2000/svg" xmlns:xlink="http://www.w3.org/1999/xlink">
    <!-- Generator: Sketch 48.2 (47327) - http://www.bohemiancoding.com/sketch -->
    <title>martial-arts-couple-fight</title>
    <desc>Created with Sketch.</desc>
    <defs>
        <filter x="-40.4%" y="-16.7%" width="180.8%" height="153.8%" filterUnits="objectBoundingBox" id="filter-1">
            <feOffset dx="0" dy="5" in="SourceAlpha" result="shadowOffsetOuter1"></feOffset>
            <feGaussianBlur stdDeviation="2" in="shadowOffsetOuter1" result="shadowBlurOuter1"></feGaussianBlur>
            <feColorMatrix values="0 0 0 0 0   0 0 0 0 0   0 0 0 0 0  0 0 0 0.182999321 0" type="matrix" in="shadowBlurOuter1" result="shadowMatrixOuter1"></feColorMatrix>
            <feMerge>
                <feMergeNode in="shadowMatrixOuter1"></feMergeNode>
                <feMergeNode in="SourceGraphic"></feMergeNode>
            </feMerge>
        </filter>
    </defs>
    <g id="Crowd-Beh" stroke="none" stroke-width="1" fill="none" fill-rule="evenodd" transform="translate(-5.000000, -10.000000)">
        <g id="Group-10" filter="url(#filter-1)" transform="translate(4.000000, 4.000000)" fill="#FAFAFA" fill-rule="nonzero">
            <g id="martial-arts-couple-fight" transform="translate(5.000000, 6.000000)">
                <circle id="Oval" cx="1.5" cy="1.5" r="1.5"></circle>
                <circle id="Oval" cx="13.5" cy="2.5" r="1.5"></circle>
                <path d="M15.7411895,5.6952978 C15.7098394,5.42774357 15.5437017,5.19584907 15.3020794,5.08468175 L13.5640258,4.28107824 L12.0830609,3.5172619 C12.0303439,3.47401498 11.9736336,3.43513829 11.9086387,3.40639806 L10.6984113,2.87735934 C10.6522503,2.8570257 10.6037947,2.84166925 10.5545047,2.83092581 L8.31776984,2.35527047 C7.90914561,2.26792688 7.50734569,2.53548111 7.4218481,2.9522296 C7.33635052,3.36955472 7.59880338,3.77786627 8.00802362,3.86463324 L10.1709129,4.32490178 L10.7653432,4.58465639 L9.97199468,5.65696738 L5.73794198,4.07792397 C5.29024932,3.9113399 4.79270044,4.14526776 4.62829118,4.60292632 C4.494338,4.97527465 4.62543033,5.37690948 4.92036572,5.60443376 L4.1800323,5.88100156 L3.6742287,3.95604355 L3.95292282,3.89510334 C4.20855137,3.83938311 4.41769116,3.65249575 4.5063178,3.40202784 L5.34240016,1.03161146 C5.48374386,0.630826389 5.27943174,0.189707882 4.88588656,0.0454908097 C4.49377179,-0.0981496371 4.05948935,0.109617635 3.91754964,0.510402706 L3.24104887,2.42695412 L2.93127284,2.54188469 L2.81898462,2.56655819 C2.72237145,2.58774159 2.63460903,2.62807503 2.55739597,2.68091213 L1.44551013,3.09414017 C1.10867527,3.21920721 0.922869253,3.60257212 1.030598,3.95085392 L2.5469062,8.86816444 L2.5654421,8.85684437 L2.72389128,10.5644449 L1.20072896,13.7312115 C0.990158745,14.1682329 1.16768023,14.6961487 1.59683699,14.9097429 C1.71937658,14.9706831 1.84933649,15 1.97670375,15 C2.29673114,15 2.60421253,14.8189092 2.75464537,14.5066514 L4.38550664,11.1158203 C4.45589538,10.9701161 4.48524886,10.8076291 4.47014001,10.6456884 L4.21194862,7.86344003 C4.21165062,7.85906981 4.20995199,7.85561006 4.20938578,7.8512702 L4.63058581,7.5935793 L4.62942359,7.58978571 L5.9240162,7.1063004 L7.21407913,8.25612199 C7.3782202,8.40267592 7.58139989,8.47463271 7.78344717,8.47463271 C8.02453308,8.47463271 8.26418857,8.37247895 8.43488574,8.1736949 C8.74948945,7.80744666 8.71331166,7.25082096 8.35394763,6.93042962 L8.35311321,6.92954951 L9.67193361,7.42144141 C9.72608109,7.44147156 9.78136099,7.4545215 9.83637268,7.4629281 L9.84635584,7.47716164 C9.83637268,7.55406527 9.83237942,7.63212216 9.84322679,7.71281938 L10.2438943,10.6947319 L10.0435456,13.7027444 C10.0113313,14.1879596 10.3715298,14.6081981 10.8480097,14.6409748 C10.8679462,14.6424315 10.8879125,14.6430081 10.9075511,14.6430081 C11.3586708,14.6430081 11.7388058,14.2866232 11.7698877,13.8217113 L11.9764944,10.7245647 C11.9801897,10.6645046 11.9782228,10.6047177 11.9702363,10.5452342 L11.644219,8.12228418 L12.4270479,7.08390305 L13.3221352,5.86212466 L14.2884457,6.30876664 L14.4913572,8.04683729 C14.53725,8.43891228 14.8641017,8.72649666 15.242538,8.72649666 C15.2721597,8.72649666 15.3023774,8.72507027 15.3323269,8.72127668 C15.7477754,8.67077643 16.044171,8.28741151 15.994583,7.86486642 L15.7411895,5.6952978 Z" id="Shape"></path>
            </g>
        </g>
    </g>
</svg>