<?xml version="1.0" encoding="UTF-8" standalone="no"?>
<svg width="24px" height="24px" viewBox="0 0 24 24" version="1.1" xmlns="http://www.w3.org/2000/svg" xmlns:xlink="http://www.w3.org/1999/xlink">
    <!-- Generator: Sketch 41.2 (35397) - http://www.bohemiancoding.com/sketch -->
    <title>chart-block-horizontal bar-24px</title>
    <desc>Created with Sketch.</desc>
    <defs></defs>
    <g id="Page-1" stroke="none" stroke-width="1" fill="none" fill-rule="evenodd">
        <g id="Style-Guide" transform="translate(-1804.000000, -1024.000000)" fill="#CCCCCC">
            <g id="Group-60" transform="translate(1721.000000, 981.000000)">
                <g id="chart-block-horizontal-bar" transform="translate(80.000000, 40.000000)">
                    <path d="M27,26.52 C27,26.7792 26.7888,27 26.52,27 L3.48,27 C3.2112,27 3,26.7792 3,26.52 L3,3.48 C3,3.2112 3.2112,3 3.48,3 C3.7488,3 3.96,3.2112 3.96,3.48 L3.96,26.04 L26.52,26.04 C26.7888,26.04 27,26.2512 27,26.52 Z M5,14 L12,14 L12,19 L5,19 L5,14 Z M5,20 L17,20 L17,25 L5,25 L5,20 Z M5,8 L24,8 L24,13 L5,13 L5,8 Z" id="chart-block-horizontal-bar-24px"></path>
                </g>
            </g>
        </g>
    </g>
</svg>