<?xml version="1.0" encoding="UTF-8" standalone="no"?>
<svg width="24px" height="24px" viewBox="0 0 24 24" version="1.1" xmlns="http://www.w3.org/2000/svg" xmlns:xlink="http://www.w3.org/1999/xlink">
    <!-- Generator: Sketch 41.2 (35397) - http://www.bohemiancoding.com/sketch -->
    <title>chart-block-stacked column-24px</title>
    <desc>Created with Sketch.</desc>
    <defs></defs>
    <g id="Page-1" stroke="none" stroke-width="1" fill="none" fill-rule="evenodd">
        <g id="Style-Guide" transform="translate(-1764.000000, -1024.000000)" fill="#CCCCCC">
            <g id="Group-60" transform="translate(1721.000000, 981.000000)">
                <g id="chart-block-stacked-column" transform="translate(40.000000, 40.000000)">
                    <path d="M27,26.52 C27,26.7792 26.7888,27 26.52,27 L3.48,27 C3.2112,27 3,26.7792 3,26.52 L3,3.48 C3,3.2112 3.2112,3 3.48,3 C3.7488,3 3.96,3.2112 3.96,3.48 L3.96,26.04 L26.52,26.04 C26.7888,26.04 27,26.2512 27,26.52 M6,13 L11,13 L11,19 L6,19 L6,13 Z M7,18 L10,18 L10,14 L7,14 L7,18 Z M12,17 L17,17 L17,22 L12,22 L12,17 Z M13,18 L13,21 L16,21 L16,18 L13,18 Z M18,7 L23,7 L23,17 L18,17 L18,7 Z M19,16 L22,16 L22,8 L19,8 L19,16 Z M6,19 L11,19 L11,25 L6,25 L6,19 Z M12,22 L17,22 L17,25 L12,25 L12,22 Z M18,17 L23,17 L23,25 L18,25 L18,17 Z" id="chart-block-stacked-column-24px"></path>
                </g>
            </g>
        </g>
    </g>
</svg>