<?xml version="1.0" encoding="UTF-8" standalone="no"?>
<svg width="26px" height="26px" viewBox="0 0 26 26" version="1.1" xmlns="http://www.w3.org/2000/svg" xmlns:xlink="http://www.w3.org/1999/xlink">
    <!-- Generator: Sketch 41.2 (35397) - http://www.bohemiancoding.com/sketch -->
    <title>block-chart</title>
    <desc>Created with Sketch.</desc>
    <defs>
        <filter x="-50%" y="-50%" width="200%" height="200%" filterUnits="objectBoundingBox" id="filter-1">
            <feOffset dx="0" dy="1" in="SourceAlpha" result="shadowOffsetOuter1"></feOffset>
            <feGaussianBlur stdDeviation="0.5" in="shadowOffsetOuter1" result="shadowBlurOuter1"></feGaussianBlur>
            <feColorMatrix values="0 0 0 0 0   0 0 0 0 0   0 0 0 0 0  0 0 0 0.5 0" type="matrix" in="shadowBlurOuter1" result="shadowMatrixOuter1"></feColorMatrix>
            <feMerge>
                <feMergeNode in="shadowMatrixOuter1"></feMergeNode>
                <feMergeNode in="SourceGraphic"></feMergeNode>
            </feMerge>
        </filter>
    </defs>
    <g id="Page-1" stroke="none" stroke-width="1" fill="none" fill-rule="evenodd">
        <g id="4.6_Visualization-Editor_Chart-Block_Field-Properties" transform="translate(-22.000000, -151.000000)" fill="#CCCCCC">
            <g id="side-bar-(chart)" transform="translate(0.000000, 58.000000)">
                <g id="Group-73" filter="url(#filter-1)">
                    <g id="Group-62" transform="translate(17.000000, 90.000000)">
                        <g id="Group-20">
                            <g id="chart-block-column" transform="translate(3.000000, 0.000000)">
                                <path d="M27,26.52 C27,26.7792 26.7888,27 26.52,27 L3.48,27 C3.2112,27 3,26.7792 3,26.52 L3,3.48 C3,3.2112 3.2112,3 3.48,3 C3.7488,3 3.96,3.2112 3.96,3.48 L3.96,26.04 L26.52,26.04 C26.7888,26.04 27,26.2512 27,26.52 Z M6,13 L11,13 L11,25 L6,25 L6,13 Z M12,18 L17,18 L17,25 L12,25 L12,18 Z M18,7 L23,7 L23,25 L18,25 L18,7 Z" id="block-chart"></path>
                            </g>
                        </g>
                    </g>
                </g>
            </g>
        </g>
    </g>
</svg>