<?xml version="1.0" encoding="UTF-8" standalone="no"?>
<svg width="26px" height="26px" viewBox="0 0 26 26" version="1.1" xmlns="http://www.w3.org/2000/svg" xmlns:xlink="http://www.w3.org/1999/xlink">
    <!-- Generator: Sketch 41.2 (35397) - http://www.bohemiancoding.com/sketch -->
    <title>line-chart</title>
    <desc>Created with Sketch.</desc>
    <defs>
        <filter x="-50%" y="-50%" width="200%" height="200%" filterUnits="objectBoundingBox" id="filter-1">
            <feOffset dx="0" dy="1" in="SourceAlpha" result="shadowOffsetOuter1"></feOffset>
            <feGaussianBlur stdDeviation="0.5" in="shadowOffsetOuter1" result="shadowBlurOuter1"></feGaussianBlur>
            <feColorMatrix values="0 0 0 0 0   0 0 0 0 0   0 0 0 0 0  0 0 0 0.5 0" type="matrix" in="shadowBlurOuter1" result="shadowMatrixOuter1"></feColorMatrix>
            <feMerge>
                <feMergeNode in="shadowMatrixOuter1"></feMergeNode>
                <feMergeNode in="SourceGraphic"></feMergeNode>
            </feMerge>
        </filter>
    </defs>
    <g id="Page-1" stroke="none" stroke-width="1" fill="none" fill-rule="evenodd">
        <g id="4.6_Visualization-Editor_Chart-Block_Field-Properties" transform="translate(-22.000000, -79.000000)" fill="#CCCCCC">
            <g id="side-bar-(chart)" transform="translate(0.000000, 58.000000)">
                <g id="Group-73" filter="url(#filter-1)">
                    <g id="Group-68" transform="translate(20.000000, 18.000000)">
                        <g id="chart-line">
                            <path d="M5.352192,7.953792 C5.352192,5.841792 8.548992,5.841792 8.548992,7.953792 C8.548992,8.491392 8.337792,8.894592 8.030592,9.163392 L11.064192,15.259392 C11.486592,15.153792 11.966592,15.220992 12.340992,15.441792 L16.440192,12.696192 C16.353792,12.494592 16.295232,12.254592 16.295232,11.985792 C16.295232,9.873792 19.492032,9.873792 19.492032,11.985792 C19.492032,12.408192 19.358592,12.753792 19.136832,13.012992 L24.158592,19.742592 C25.098432,19.368192 26.404992,19.857792 26.404992,21.201792 C26.404992,22.248192 25.598592,22.804992 24.801792,22.804992 C24.013632,22.804992 23.208192,22.248192 23.208192,21.201792 C23.208192,20.865792 23.284992,20.577792 23.428992,20.356992 L18.331392,13.521792 C18.187392,13.569792 18.043392,13.588992 17.889792,13.588992 C17.620992,13.588992 17.352192,13.521792 17.112192,13.396992 L12.955392,16.180992 C13.022592,16.353792 13.060992,16.555392 13.060992,16.785792 C13.060992,17.841792 12.254592,18.388992 11.457792,18.388992 C10.670592,18.388992 9.864192,17.841792 9.864192,16.785792 C9.864192,16.344192 10.008192,15.998592 10.238592,15.748992 L7.137792,9.537792 C7.070592,9.556992 7.012992,9.556992 6.945792,9.556992 C6.158592,9.556992 5.352192,9.000192 5.352192,7.953792 Z M27,26.52 C27,26.7792 26.7888,27 26.52,27 L3.48,27 C3.2112,27 3,26.7792 3,26.52 L3,3.48 C3,3.2112 3.2112,3 3.48,3 C3.7488,3 3.96,3.2112 3.96,3.48 L3.96,26.04 L26.52,26.04 C26.7888,26.04 27,26.2512 27,26.52 Z" id="line-chart"></path>
                        </g>
                    </g>
                </g>
            </g>
        </g>
    </g>
</svg>