<?xml version="1.0" encoding="UTF-8" standalone="no"?>
<svg width="24px" height="24px" viewBox="0 0 24 24" version="1.1" xmlns="http://www.w3.org/2000/svg" xmlns:xlink="http://www.w3.org/1999/xlink">
    <!-- Generator: Sketch 41.2 (35397) - http://www.bohemiancoding.com/sketch -->
    <title>chart-line-area-24px</title>
    <desc>Created with Sketch.</desc>
    <defs></defs>
    <g id="Page-1" stroke="none" stroke-width="1" fill="none" fill-rule="evenodd">
        <g id="Style-Guide" transform="translate(-1764.000000, -984.000000)" fill="#CCCCCC">
            <g id="Group-60" transform="translate(1721.000000, 981.000000)">
                <g id="chart-line-area" transform="translate(40.000000, 0.000000)">
                    <path d="M10.8968015,15.4625386 L10.3553498,15.3388622 C10.373018,15.351996 10.3903864,15.3672734 10.4073175,15.3848372 C10.7327619,15.7224434 10.245746,16.229569 9.92030159,15.8919628 C9.69120011,15.6542999 9.86472685,15.3326288 10.1010796,15.2807828 L7.37060317,14.6570977 L5.29953555,16.8648265 C5.26468965,16.9384354 5.20630773,17.0005558 5.13633324,17.0387978 L3.96,18.2927524 L3.96,18.4986717 C4.03789329,18.5012962 4.11856497,18.5346636 4.19119048,18.6100031 C4.43632008,18.8642931 4.22051439,19.2136734 3.96,19.226363 L3.96,19.5730406 C4.03853336,19.5752585 4.11990755,19.6085649 4.19303175,19.6844217 C4.43824933,19.938803 4.22115534,20.2883428 3.96,20.3007952 L3.96,20.427222 L4.75221482,20.7472167 C4.87493778,20.6296365 5.07085652,20.5950505 5.22874603,20.7588403 C5.29659429,20.829224 5.32913026,20.9068926 5.33517984,20.9826904 L5.68945844,21.1257921 C5.57616612,20.8091059 5.98141883,20.4652216 6.26446032,20.7588403 C6.45824078,20.9598623 6.36397089,21.2203086 6.18727402,21.3268718 L7.15839683,21.7191318 L10.5440317,17.9085271 C10.6219797,17.821349 10.734659,17.7791146 10.8451224,17.7945998 C10.8420294,17.5153585 11.1902056,17.2733103 11.4411905,17.5336744 C11.5782088,17.675813 11.5708864,17.8480002 11.4921888,17.9745437 L14.003211,18.6850265 C14.1075551,18.5037547 14.3575026,18.408221 14.5501746,18.608093 C14.6294577,18.6903389 14.6604135,18.782532 14.6571778,18.8700636 L15.0075965,18.969213 C14.9058097,18.6552629 15.3057206,18.3212751 15.5858889,18.6119132 C15.7538311,18.7861313 15.7054177,19.0049832 15.5744999,19.1296159 L15.7750794,19.186369 L16.0552834,19.0006789 C15.9145351,18.6779963 16.3320283,18.3096069 16.6216032,18.6100031 C16.6246372,18.6131505 16.6276007,18.6163127 16.6304943,18.6194888 L17.346385,18.1450708 C17.2862127,18.1315531 17.2258994,18.0984755 17.1703016,18.0408 C16.8448571,17.7031938 17.331873,17.1979783 17.6573175,17.5355845 C17.7607446,17.6428766 17.7821144,17.767097 17.752691,17.8758133 L19.2002536,16.9165192 C18.9630104,16.5818716 19.420822,16.1379147 19.7305873,16.4592558 C19.7523271,16.481808 19.7704332,16.5051166 19.7851971,16.5288793 L20.587591,15.997136 C20.4870637,16.0203308 20.3749237,15.9949949 20.2774444,15.8938729 C19.952,15.5562667 20.4408571,15.0491411 20.7663016,15.3867473 C20.9152442,15.5412558 20.8936298,15.7312704 20.7951799,15.8595676 L21.644127,15.2969736 C21.7697937,15.2148403 21.9332063,15.2243907 22.0482857,15.3213271 L22.266679,15.5076486 C22.3527637,15.2991442 22.6263191,15.171256 22.8340476,15.3867473 C23.0204492,15.5801147 22.9403198,15.8290936 22.7766764,15.9427511 L23.3833337,16.4603187 C23.5055746,16.3342098 23.7089885,16.2924744 23.8716032,16.4611659 C24.0129775,16.6078234 24.0006876,16.7864703 23.9148816,16.9138069 L25.3533651,18.141044 L25.3533651,9.34266987 L24.7775476,9.92484155 C24.8220797,9.94254766 24.8660006,9.97179344 24.9073175,10.0146543 C25.2327619,10.3522605 24.745746,10.859386 24.4203016,10.5217798 C24.3760395,10.4758637 24.3468059,10.426812 24.3301501,10.3771762 L23.7205688,10.9934843 C23.772343,11.0098853 23.8237218,11.0413122 23.8716032,11.0909829 C24.1970476,11.4285891 23.7100317,11.9338047 23.3845873,11.5961984 C23.3340835,11.5438073 23.3031454,11.4873798 23.288133,11.4306921 L22.6666203,12.0590633 C22.7245247,12.0734123 22.7823899,12.1060832 22.8358889,12.1615814 C23.1613333,12.4991876 22.6743175,13.0063132 22.348873,12.668707 C22.2923026,12.6100226 22.2602809,12.5462161 22.2476919,12.4826146 L21.607048,13.1303281 C21.6728275,13.1411277 21.7393252,13.1747868 21.8001746,13.2379101 C22.125619,13.5755163 21.6386032,14.0807318 21.3131587,13.7431256 C21.218785,13.6452252 21.1927317,13.5332303 21.2112471,13.4317805 C21.1684011,13.4377723 21.1242948,13.4354192 21.0811587,13.4241426 L20.8473792,13.3629558 C20.9771144,13.6835001 20.5644502,14.0425411 20.2774444,13.7431256 C20.1064272,13.5657174 20.1597611,13.342026 20.2961071,13.2186722 L17.7357547,12.5485548 C17.6495871,12.7575159 17.3761292,12.8860464 17.1684603,12.6706171 C17.0783779,12.5771683 17.050544,12.4707315 17.0643016,12.3728163 L16.6966954,12.2766033 C16.8439291,12.6001808 16.422033,12.9726247 16.1309048,12.6706171 C15.9553498,12.4885017 16.0167454,12.2576144 16.1616225,12.1365594 L15.9780794,12.0885209 L15.2880096,13.1298165 C15.3848346,13.1120645 15.4911051,13.1395842 15.5840476,13.236 C15.9094921,13.5736062 15.4206349,14.0807318 15.0951905,13.7431256 C15.0422411,13.6881975 15.010847,13.6287821 14.9967973,13.5692475 L14.5214033,14.2866034 C14.530488,14.2945671 14.5394713,14.3031354 14.5483333,14.3123287 C14.8508517,14.626152 14.4497552,15.0848018 14.1303456,14.8766983 L13.4983492,15.8303628 C13.4210159,15.9464 13.2861429,16.0022698 13.1531111,15.9779163 L12.5276073,15.8350411 C12.4174972,16.0043391 12.1778815,16.0869806 11.9917302,15.8938729 C11.9294849,15.8293015 11.8970278,15.7585988 11.8875183,15.6888343 L11.5496899,15.6116689 C11.5699556,15.8982607 11.2127221,16.156352 10.9560159,15.8900527 C10.8235153,15.7526006 10.8256888,15.5873654 10.8968015,15.4625386 Z M26.0438413,26.04 L26.52,26.04 C26.7888,26.04 27,26.2512 27,26.52 C27,26.7792 26.7888,27 26.52,27 L3.48,27 C3.2112,27 3,26.7792 3,26.52 L3,3.48 C3,3.2112 3.2112,3 3.48,3 C3.7488,3 3.96,3.2112 3.96,3.48 L3.96,17.2636371 L7.00925397,14.011969 C7.09165079,13.9221953 7.21409524,13.8849488 7.33101587,13.9112124 L13.0615079,15.2224806 L15.5357143,11.4620155 C15.6185714,11.3388155 15.765873,11.2810357 15.9044286,11.3182822 L21.0595238,12.6801674 L25.3880563,8.30924408 C25.4255919,8.23337904 25.490149,8.18164525 25.5645374,8.1540427 C25.6945403,8.08785674 25.8572626,8.11115035 25.9646667,8.22586667 C26.0574944,8.32568251 26.0833784,8.46750857 26.0438413,8.59060228 L26.0438413,26.04 Z M25.3533651,26.04 L3.96,26.04 L3.96,21.1951721 L7.12571429,22.4745674 C7.16530159,22.4898481 7.20673016,22.4989209 7.25,22.4989209 C7.34896825,22.5027411 7.44425397,22.4616744 7.51238095,22.3852713 L10.905381,18.5350326 L15.7387143,19.9026481 C15.834,19.9284341 15.9329683,19.913631 16.0158254,19.8596713 L21.8149048,16.0247132 L25.3533651,19.0665795 L25.3533651,26.04 Z M8.33588889,18.6100031 C8.66133333,18.9476093 8.17431746,19.4547349 7.84887302,19.1171287 C7.52342857,18.7795225 8.01044444,18.2723969 8.33588889,18.6100031 Z M8.33588889,17.5355845 C8.66133333,17.8731907 8.17431746,18.3803163 7.84887302,18.0427101 C7.52342857,17.7051039 8.01044444,17.1979783 8.33588889,17.5355845 Z M8.33588889,16.4611659 C8.66133333,16.7987721 8.17247619,17.3039876 7.84703175,16.9663814 C7.5215873,16.6287752 8.01044444,16.1235597 8.33588889,16.4611659 Z M8.33588889,15.3867473 C8.66133333,15.7243535 8.17247619,16.229569 7.84703175,15.8919628 C7.5215873,15.5543566 8.01044444,15.0491411 8.33588889,15.3867473 Z M7.30201587,20.7569302 C7.62746032,21.0945364 7.13860317,21.601662 6.81315873,21.2640558 C6.48771429,20.9264496 6.97657143,20.419324 7.30201587,20.7569302 Z M7.3001746,19.6825116 C7.62561905,20.0201178 7.13860317,20.5272434 6.81315873,20.1896372 C6.48771429,19.852031 6.97473016,19.3449054 7.3001746,19.6825116 Z M7.3001746,18.6119132 C7.62561905,18.9495194 7.13860317,19.4547349 6.81315873,19.1171287 C6.48771429,18.7795225 6.97473016,18.274307 7.3001746,18.6119132 Z M7.3001746,17.5355845 C7.62561905,17.8731907 7.1367619,18.3803163 6.81131746,18.0427101 C6.48587302,17.7051039 6.97473016,17.1979783 7.3001746,17.5355845 Z M7.3001746,16.4611659 C7.62561905,16.7987721 7.1367619,17.3058977 6.81131746,16.9682915 C6.48587302,16.6306853 6.97473016,16.1235597 7.3001746,16.4611659 Z M7.29833333,15.3867473 C7.62377778,15.7243535 7.1367619,16.229569 6.81131746,15.8919628 C6.48587302,15.5543566 6.97288889,15.0491411 7.29833333,15.3867473 Z M6.26446032,19.6825116 C6.58990476,20.0201178 6.10288889,20.5272434 5.77744444,20.1896372 C5.452,19.852031 5.93901587,19.3449054 6.26446032,19.6825116 Z M6.26446032,18.608093 C6.58990476,18.9456992 6.10104762,19.4528248 5.77560317,19.1152186 C5.45015873,18.7776124 5.93901587,18.2704868 6.26446032,18.608093 Z M6.26446032,17.5374946 C6.58990476,17.8751008 6.10104762,18.3803163 5.77560317,18.0427101 C5.45015873,17.7051039 5.93901587,17.1998884 6.26446032,17.5374946 Z M6.26261905,16.4611659 C6.58806349,16.7987721 6.10104762,17.3058977 5.77560317,16.9682915 C5.45015873,16.6306853 5.9371746,16.1235597 6.26261905,16.4611659 Z M5.22874603,19.6844217 C5.55419048,20.0220279 5.06533333,20.5272434 4.73988889,20.1896372 C4.41444444,19.852031 4.90330159,19.3468155 5.22874603,19.6844217 Z M5.22874603,18.608093 C5.55419048,18.9456992 5.06533333,19.4528248 4.73988889,19.1152186 C4.41444444,18.7776124 4.90330159,18.2704868 5.22874603,18.608093 Z M5.22690476,17.5336744 C5.55234921,17.8712806 5.06533333,18.3784062 4.73988889,18.0408 C4.41444444,17.7031938 4.90146032,17.1960682 5.22690476,17.5336744 Z M10.4073175,16.4592558 C10.7327619,16.796862 10.245746,17.3039876 9.92030159,16.9663814 C9.59485714,16.6287752 10.081873,16.1216496 10.4073175,16.4592558 Z M9.37344444,18.6100031 C9.69888889,18.9476093 9.21003175,19.4547349 8.8845873,19.1171287 C8.55914286,18.7795225 9.048,18.2723969 9.37344444,18.6100031 Z M9.37160317,17.5355845 C9.69704762,17.8731907 9.21003175,18.3784062 8.8845873,18.0408 C8.55914286,17.7031938 9.04615873,17.1979783 9.37160317,17.5355845 Z M9.37160317,16.4611659 C9.69704762,16.7987721 9.21003175,17.3039876 8.8845873,16.9663814 C8.55914286,16.6287752 9.04615873,16.1235597 9.37160317,16.4611659 Z M9.37160317,15.3848372 C9.69704762,15.7224434 9.20819048,16.229569 8.88274603,15.8919628 C8.55730159,15.5543566 9.04615873,15.047231 9.37160317,15.3848372 Z M8.33773016,19.6863318 C8.6631746,20.023938 8.17431746,20.5291535 7.84887302,20.1915473 C7.52342857,19.8539411 8.01228571,19.3487256 8.33773016,19.6863318 Z M10.4091587,17.5355845 C10.7346032,17.8731907 10.245746,18.3784062 9.92030159,18.0408 C9.59485714,17.7031938 10.0837143,17.1979783 10.4091587,17.5355845 Z M15.5858889,17.5355845 C15.9113333,17.8731907 15.4224762,18.3803163 15.0970317,18.0427101 C14.7715873,17.7051039 15.2604444,17.1979783 15.5858889,17.5355845 Z M15.5858889,16.4611659 C15.9113333,16.7987721 15.4224762,17.3058977 15.0970317,16.9682915 C14.7715873,16.6306853 15.2604444,16.1235597 15.5858889,16.4611659 Z M15.5840476,15.3867473 C15.9094921,15.7243535 15.4224762,16.229569 15.0970317,15.8919628 C14.7715873,15.5543566 15.2586032,15.0491411 15.5840476,15.3867473 Z M15.5840476,14.3123287 C15.9094921,14.6499349 15.4224762,15.1551504 15.0970317,14.8175442 C14.7715873,14.479938 15.2586032,13.9747225 15.5840476,14.3123287 Z M14.5501746,17.5374946 C14.875619,17.8751008 14.3867619,18.3803163 14.0613175,18.0427101 C13.735873,17.7051039 14.2247302,17.1998884 14.5501746,17.5374946 Z M14.5483333,16.4611659 C14.8737778,16.7987721 14.3867619,17.3058977 14.0613175,16.9682915 C13.735873,16.6306853 14.2228889,16.1235597 14.5483333,16.4611659 Z M14.5483333,15.3867473 C14.8737778,15.7243535 14.3867619,16.2314791 14.0613175,15.8938729 C13.735873,15.5562667 14.2228889,15.0491411 14.5483333,15.3867473 Z M24.9073175,16.4611659 C25.2327619,16.7987721 24.745746,17.3039876 24.4203016,16.9663814 C24.0948571,16.6287752 24.581873,16.1235597 24.9073175,16.4611659 Z M24.9073175,15.3848372 C25.2327619,15.7224434 24.7439048,16.229569 24.4184603,15.8919628 C24.0930159,15.5543566 24.581873,15.047231 24.9073175,15.3848372 Z M24.9073175,14.3104186 C25.2327619,14.6480248 24.7439048,15.1551504 24.4184603,14.8175442 C24.0930159,14.479938 24.581873,13.9728124 24.9073175,14.3104186 Z M24.9054762,13.236 C25.2309206,13.5736062 24.7439048,14.0788217 24.4184603,13.7412155 C24.0930159,13.4036093 24.5800317,12.8983938 24.9054762,13.236 Z M24.9054762,12.1654016 C25.2309206,12.5030078 24.7439048,13.0082233 24.4184603,12.6706171 C24.0930159,12.3330109 24.5800317,11.8277953 24.9054762,12.1654016 Z M24.9091587,11.0890729 C25.2346032,11.4266791 24.745746,11.9338047 24.4203016,11.5961984 C24.0948571,11.2585922 24.5837143,10.7514667 24.9091587,11.0890729 Z M23.8716032,15.3867473 C24.1970476,15.7243535 23.7081905,16.229569 23.382746,15.8919628 C23.0573016,15.5543566 23.5461587,15.0491411 23.8716032,15.3867473 Z M23.8697619,13.236 C24.1952063,13.5736062 23.7081905,14.0807318 23.382746,13.7431256 C23.0573016,13.4055194 23.5443175,12.8983938 23.8697619,13.236 Z M23.8697619,14.3104186 C24.1952063,14.6480248 23.7081905,15.1551504 23.382746,14.8175442 C23.0573016,14.479938 23.5443175,13.9728124 23.8697619,14.3104186 Z M23.8734444,12.1615814 C24.1988889,12.4991876 23.7100317,13.0044031 23.3845873,12.6667969 C23.0591429,12.3291907 23.548,11.8239752 23.8734444,12.1615814 Z M22.8340476,14.3123287 C23.1594921,14.6499349 22.6724762,15.1551504 22.3470317,14.8175442 C22.0215873,14.479938 22.5086032,13.9747225 22.8340476,14.3123287 Z M22.8377302,13.236 C23.1631746,13.5736062 22.6743175,14.0807318 22.348873,13.7431256 C22.0234286,13.4055194 22.5122857,12.8983938 22.8377302,13.236 Z M21.8020159,14.3123287 C22.1274603,14.6499349 21.6386032,15.1570605 21.3131587,14.8175442 C20.9877143,14.479938 21.4765714,13.9747225 21.8020159,14.3123287 Z M20.7644603,14.3123287 C21.0899048,14.6499349 20.6028889,15.1570605 20.2774444,14.8194543 C19.952,14.4818481 20.4390159,13.9747225 20.7644603,14.3123287 Z M19.728746,15.3886574 C20.0541905,15.7262636 19.5671746,16.2314791 19.2417302,15.8938729 C18.9162857,15.5562667 19.4033016,15.0510512 19.728746,15.3886574 Z M19.728746,14.3123287 C20.0541905,14.6499349 19.5671746,15.1570605 19.2417302,14.8194543 C18.9162857,14.4818481 19.4033016,13.9747225 19.728746,14.3123287 Z M19.728746,13.2379101 C20.0541905,13.5755163 19.5653333,14.0826419 19.2398889,13.7450357 C18.9144444,13.4074295 19.4033016,12.9003039 19.728746,13.2379101 Z M18.6930317,16.4592558 C19.0184762,16.796862 18.5314603,17.3039876 18.2060159,16.9663814 C17.8805714,16.6287752 18.3675873,16.1216496 18.6930317,16.4592558 Z M18.6930317,15.3848372 C19.0184762,15.7224434 18.5314603,16.229569 18.2060159,15.8919628 C17.8805714,15.5543566 18.3675873,15.047231 18.6930317,15.3848372 Z M18.6930317,14.3142388 C19.0184762,14.651845 18.529619,15.1570605 18.2041746,14.8194543 C17.8787302,14.4818481 18.3675873,13.9766326 18.6930317,14.3142388 Z M18.6930317,13.2379101 C19.0184762,13.5755163 18.529619,14.0826419 18.2041746,13.7450357 C17.8787302,13.4074295 18.3675873,12.9003039 18.6930317,13.2379101 Z M17.6573175,16.4611659 C17.9827619,16.7987721 17.495746,17.3039876 17.1703016,16.9663814 C16.8448571,16.6287752 17.331873,16.1235597 17.6573175,16.4611659 Z M17.6573175,15.3848372 C17.9827619,15.7224434 17.4939048,16.229569 17.1684603,15.8919628 C16.8430159,15.5543566 17.331873,15.047231 17.6573175,15.3848372 Z M17.6573175,14.3104186 C17.9827619,14.6480248 17.4939048,15.1551504 17.1684603,14.8175442 C16.8430159,14.479938 17.331873,13.9728124 17.6573175,14.3104186 Z M17.6554762,13.2398202 C17.9809206,13.5774264 17.4939048,14.0826419 17.1684603,13.7450357 C16.8430159,13.4074295 17.3300317,12.902214 17.6554762,13.2398202 Z M16.6216032,17.5355845 C16.9470476,17.8731907 16.4600317,18.3803163 16.1345873,18.0427101 C15.8091429,17.7051039 16.2961587,17.1979783 16.6216032,17.5355845 Z M16.6216032,16.4611659 C16.9470476,16.7987721 16.4581905,17.3039876 16.132746,16.9663814 C15.8073016,16.6287752 16.2961587,16.1235597 16.6216032,16.4611659 Z M16.6197619,14.3104186 C16.9452063,14.6480248 16.4581905,15.1551504 16.132746,14.8175442 C15.8073016,14.479938 16.2943175,13.9728124 16.6197619,14.3104186 Z M16.6197619,13.236 C16.9452063,13.5736062 16.4581905,14.0807318 16.132746,13.7431256 C15.8073016,13.4055194 16.2943175,12.8983938 16.6197619,13.236 Z M16.6216032,15.3867473 C16.9470476,15.7243535 16.4581905,16.229569 16.132746,15.8919628 C15.8073016,15.5543566 16.2961587,15.0491411 16.6216032,15.3867473 Z M13.512619,17.5336744 C13.8380635,17.8712806 13.3510476,18.3764961 13.0256032,18.0388899 C12.7001587,17.7012837 13.1871746,17.1960682 13.512619,17.5336744 Z M13.512619,16.463076 C13.8380635,16.8006822 13.3510476,17.3058977 13.0256032,16.9682915 C12.7001587,16.6306853 13.1871746,16.1254698 13.512619,16.463076 Z M12.4769048,17.5336744 C12.8023492,17.8712806 12.3153333,18.3784062 11.9898889,18.0408 C11.6644444,17.7031938 12.1514603,17.1960682 12.4769048,17.5336744 Z M12.4769048,16.4592558 C12.8023492,16.796862 12.3134921,17.3020775 11.9880476,16.9644713 C11.6626032,16.6268651 12.1514603,16.1216496 12.4769048,16.4592558 Z M11.444873,16.4592558 C11.7703175,16.796862 11.2814603,17.3039876 10.9560159,16.9663814 C10.6305714,16.6287752 11.1194286,16.1216496 11.444873,16.4592558 Z" id="chart-line-area-24px"></path>
                </g>
            </g>
        </g>
    </g>
</svg>