<?xml version="1.0" encoding="UTF-8" standalone="no"?>
<svg width="24px" height="24px" viewBox="0 0 24 24" version="1.1" xmlns="http://www.w3.org/2000/svg" xmlns:xlink="http://www.w3.org/1999/xlink">
    <!-- Generator: Sketch 41.2 (35397) - http://www.bohemiancoding.com/sketch -->
    <title>chart-line-scatter-24px</title>
    <desc>Created with Sketch.</desc>
    <defs></defs>
    <g id="Page-1" stroke="none" stroke-width="1" fill="none" fill-rule="evenodd">
        <g id="Style-Guide" transform="translate(-1804.000000, -984.000000)" fill="#CCCCCC">
            <g id="Group-60" transform="translate(1721.000000, 981.000000)">
                <g id="chart-line-scatter" transform="translate(80.000000, 0.000000)">
                    <path d="M27,26.52 C27,26.7792 26.7888,27 26.52,27 L3.48,27 C3.2112,27 3,26.7792 3,26.52 L3,3.48 C3,3.2112 3.2112,3 3.48,3 C3.7488,3 3.96,3.2112 3.96,3.48 L3.96,26.04 L26.52,26.04 C26.7888,26.04 27,26.2512 27,26.52 Z M8.8,10.6 C9.79411255,10.6 10.6,9.79411255 10.6,8.8 C10.6,7.80588745 9.79411255,7 8.8,7 C7.80588745,7 7,7.80588745 7,8.8 C7,9.79411255 7.80588745,10.6 8.8,10.6 Z M13.4,16.8 C14.7254834,16.8 15.8,15.7254834 15.8,14.4 C15.8,13.0745166 14.7254834,12 13.4,12 C12.0745166,12 11,13.0745166 11,14.4 C11,15.7254834 12.0745166,16.8 13.4,16.8 Z M17.2,20.4 C17.8627417,20.4 18.4,19.8627417 18.4,19.2 C18.4,18.5372583 17.8627417,18 17.2,18 C16.5372583,18 16,18.5372583 16,19.2 C16,19.8627417 16.5372583,20.4 17.2,20.4 Z M16.9,12.8 C17.3970563,12.8 17.8,12.3970563 17.8,11.9 C17.8,11.4029437 17.3970563,11 16.9,11 C16.4029437,11 16,11.4029437 16,11.9 C16,12.3970563 16.4029437,12.8 16.9,12.8 Z M20.2,14.4 C20.8627417,14.4 21.4,13.8627417 21.4,13.2 C21.4,12.5372583 20.8627417,12 20.2,12 C19.5372583,12 19,12.5372583 19,13.2 C19,13.8627417 19.5372583,14.4 20.2,14.4 Z M7.2,23.4 C7.8627417,23.4 8.4,22.8627417 8.4,22.2 C8.4,21.5372583 7.8627417,21 7.2,21 C6.5372583,21 6,21.5372583 6,22.2 C6,22.8627417 6.5372583,23.4 7.2,23.4 Z M22.8,9.6 C23.7941125,9.6 24.6,8.79411255 24.6,7.8 C24.6,6.80588745 23.7941125,6 22.8,6 C21.8058875,6 21,6.80588745 21,7.8 C21,8.79411255 21.8058875,9.6 22.8,9.6 Z" id="chart-line-scatter-24px"></path>
                </g>
            </g>
        </g>
    </g>
</svg>