<?xml version="1.0" encoding="UTF-8"?>
<svg width="35px" height="50px" viewBox="0 0 35 50" version="1.1" xmlns="http://www.w3.org/2000/svg" xmlns:xlink="http://www.w3.org/1999/xlink">
    <!-- Generator: Sketch 48.2 (47327) - http://www.bohemiancoding.com/sketch -->
    <title>CCTV Marker Point</title>
    <desc>Created with Sketch.</desc>
    <defs></defs>
    <g id="Symbols" stroke="none" stroke-width="1" fill="none" fill-rule="evenodd">
        <g id="CCTV-Marker-Point">
            <g id="Group-11" transform="translate(1.000000, 0.000000)">
                <g id="Group-10" opacity="0.75" transform="translate(0.000000, 0.758476)">
                    <path d="M16.3638732,22.9441394 L16.3638732,47.6532127" id="Line-4" stroke="#F44336" stroke-width="2" stroke-linecap="square"></path>
                    <polygon id="Polygon" fill="#F44336" points="16.3638732 0.359608807 32.6530939 9.60016768 32.6530939 28.0812854 16.3638732 37.3218443 0.0746525175 28.0812854 0.0746525175 9.60016768"></polygon>
                </g>
                <g id="security-camera-(2)" transform="translate(4.000000, 12.720137)" fill="#FFFFFF" fill-rule="nonzero">
                    <path d="M24.6240682,0 L0.194256668,0 C0.0870471494,0 0,0.0859099197 0,0.191249577 L0,2.4771011 C0,3.42249119 0.783036607,4.19072779 1.7452081,4.19072779 L23.0731168,4.19072779 C24.0352883,4.19072779 24.815223,3.42249119 24.815223,2.4771011 L24.815223,0.191249577 C24.815223,0.0859099197 24.7310839,0 24.6240682,0 Z" id="Shape"></path>
                    <path d="M12.4076115,8.38221753 C10.9109434,8.38221753 9.69344648,9.57847983 9.69344648,11.0490443 L9.69344648,15.6481776 C10.4689222,15.8771437 11.4694797,16.0009607 12.408387,16.0009607 C13.3467126,16.0009607 14.3463008,15.8771437 15.1217765,15.6485585 L15.1217765,11.0490443 C15.1217765,9.57847983 13.9042796,8.38221753 12.4076115,8.38221753 Z M12.4079992,12.9539206 C11.3388121,12.9539206 10.4693099,12.0993931 10.4693099,11.0490443 C10.4693099,9.99869553 11.3388121,9.14416804 12.4079992,9.14416804 C13.4771864,9.14416804 14.3466885,9.99869553 14.3466885,11.0490443 C14.3466885,12.0993931 13.4771864,12.9539206 12.4079992,12.9539206 Z" id="Shape"></path>
                    <path d="M22.6830525,4.76219067 L2.13449692,4.76219067 C2.0272874,4.76219067 1.9386893,4.84810059 1.9386893,4.95344025 L1.9386893,5.71539076 C1.9386893,10.1846115 4.84672324,13.9953164 8.91797077,15.41083 L8.91797077,11.0490443 C8.91797077,9.15845461 10.4834624,7.62026702 12.4076115,7.62026702 C14.3317606,7.62026702 15.8972522,9.15845461 15.8972522,11.0490443 L15.8972522,15.411211 C19.9684998,13.9960784 22.8765337,10.1849924 22.8765337,5.71539076 L22.8765337,4.95344025 C22.8765337,4.84810059 22.790262,4.76219067 22.6830525,4.76219067 Z" id="Shape"></path>
                </g>
            </g>
        </g>
    </g>
</svg>