<?xml version="1.0" encoding="UTF-8" standalone="no"?>
<svg width="26px" height="26px" viewBox="0 0 26 26" version="1.1" xmlns="http://www.w3.org/2000/svg" xmlns:xlink="http://www.w3.org/1999/xlink">
    <!-- Generator: Sketch 41.2 (35397) - http://www.bohemiancoding.com/sketch -->
    <title>diagram-chart</title>
    <desc>Created with Sketch.</desc>
    <defs>
        <filter x="-50%" y="-50%" width="200%" height="200%" filterUnits="objectBoundingBox" id="filter-1">
            <feOffset dx="0" dy="1" in="SourceAlpha" result="shadowOffsetOuter1"></feOffset>
            <feGaussianBlur stdDeviation="0.5" in="shadowOffsetOuter1" result="shadowBlurOuter1"></feGaussianBlur>
            <feColorMatrix values="0 0 0 0 0   0 0 0 0 0   0 0 0 0 0  0 0 0 0.5 0" type="matrix" in="shadowBlurOuter1" result="shadowMatrixOuter1"></feColorMatrix>
            <feMerge>
                <feMergeNode in="shadowMatrixOuter1"></feMergeNode>
                <feMergeNode in="SourceGraphic"></feMergeNode>
            </feMerge>
        </filter>
    </defs>
    <g id="Page-1" stroke="none" stroke-width="1" fill="none" fill-rule="evenodd">
        <g id="4.6_Visualization-Editor_Chart-Block_Field-Properties" transform="translate(-21.000000, -367.000000)" fill="#CCCCCC">
            <g id="side-bar-(chart)" transform="translate(0.000000, 58.000000)">
                <g id="Group-73" filter="url(#filter-1)">
                    <g id="Group-65" transform="translate(8.000000, 306.000000)">
                        <g id="Group-23">
                            <g id="chart-diagram-tree-map" transform="translate(11.000000, 0.000000)">
                                <path d="M25.9090909,20.4545455 L24.8181818,20.4545455 L24.8181818,16.0909091 C24.8181818,14.8882909 23.8389818,13.9090909 22.6363636,13.9090909 L16.0909091,13.9090909 L16.0909091,9.54545455 L17.1818182,9.54545455 C17.7819055,9.54545455 18.2727273,9.05463273 18.2727273,8.45454545 L18.2727273,4.09090909 C18.2727273,3.49082182 17.7819055,3 17.1818182,3 L12.8181818,3 C12.2180945,3 11.7272727,3.49082182 11.7272727,4.09090909 L11.7272727,8.45454545 C11.7272727,9.05463273 12.2180945,9.54545455 12.8181818,9.54545455 L13.9090909,9.54545455 L13.9090909,13.9090909 L7.36363636,13.9090909 C6.16101818,13.9090909 5.18181818,14.8882909 5.18181818,16.0909091 L5.18181818,20.4545455 L4.09090909,20.4545455 C3.49082182,20.4545455 3,20.9453673 3,21.5454545 L3,25.9090909 C3,26.5091782 3.49082182,27 4.09090909,27 L8.45454545,27 C9.05463273,27 9.54545455,26.5091782 9.54545455,25.9090909 L9.54545455,21.5454545 C9.54545455,20.9453673 9.05463273,20.4545455 8.45454545,20.4545455 L7.36363636,20.4545455 L7.36363636,16.0909091 L13.9090909,16.0909091 L13.9090909,20.4545455 L12.8181818,20.4545455 C12.2180945,20.4545455 11.7272727,20.9453673 11.7272727,21.5454545 L11.7272727,25.9090909 C11.7272727,26.5091782 12.2180945,27 12.8181818,27 L17.1818182,27 C17.7819055,27 18.2727273,26.5091782 18.2727273,25.9090909 L18.2727273,21.5454545 C18.2727273,20.9453673 17.7819055,20.4545455 17.1818182,20.4545455 L16.0909091,20.4545455 L16.0909091,16.0909091 L22.6363636,16.0909091 L22.6363636,20.4545455 L21.5454545,20.4545455 C20.9453673,20.4545455 20.4545455,20.9453673 20.4545455,21.5454545 L20.4545455,25.9090909 C20.4545455,26.5091782 20.9453673,27 21.5454545,27 L25.9090909,27 C26.5091782,27 27,26.5091782 27,25.9090909 L27,21.5454545 C27,20.9453673 26.5091782,20.4545455 25.9090909,20.4545455 Z" id="diagram-chart"></path>
                            </g>
                        </g>
                    </g>
                </g>
            </g>
        </g>
    </g>
</svg>