<?xml version="1.0" encoding="UTF-8" standalone="no"?>
<svg width="24px" height="23px" viewBox="0 0 24 23" version="1.1" xmlns="http://www.w3.org/2000/svg" xmlns:xlink="http://www.w3.org/1999/xlink">
    <!-- Generator: Sketch 41.2 (35397) - http://www.bohemiancoding.com/sketch -->
    <title>chart-diagram-sankey-24px</title>
    <desc>Created with Sketch.</desc>
    <defs></defs>
    <g id="Page-1" stroke="none" stroke-width="1" fill="none" fill-rule="evenodd">
        <g id="Style-Guide" transform="translate(-1764.000000, -1145.000000)" fill="#CCCCCC">
            <g id="Group-60" transform="translate(1721.000000, 981.000000)">
                <g id="chart-diagram-sankey" transform="translate(40.000000, 160.000000)">
                    <path d="M4,13.01376 L4,13 L20,13 L20,16 L27,10 L20,4 L20,7 L3,7 L3,21 C6.35264,21 9.16864,22.24128 10.7376,24.34368 L9.30624,24.88992 L14.00864,26.99744 L16.11744,22.29504 L14.56992,22.88512 C12.5312,19.44736 8.64,17.3264 4,17.05504 L4,17.01248 C11.41888,17.1376 15.76864,18.69504 20.03744,22.7264 L18.85504,23.84128 L24.0064,23.99264 L24.15872,18.84128 L22.95136,19.97888 C17.8576,15.09248 12.59744,13.15136 4,13.01376 Z" id="chart-diagram-sankey-24px"></path>
                </g>
            </g>
        </g>
    </g>
</svg>