<?xml version="1.0" encoding="UTF-8"?>
<svg width="36px" height="50px" viewBox="0 0 36 50" version="1.1" xmlns="http://www.w3.org/2000/svg" xmlns:xlink="http://www.w3.org/1999/xlink">
    <!-- Generator: Sketch 48.2 (47327) - http://www.bohemiancoding.com/sketch -->
    <title>Face Point</title>
    <desc>Created with Sketch.</desc>
    <defs></defs>
    <g id="Symbols" stroke="none" stroke-width="1" fill="none" fill-rule="evenodd">
        <g id="Face-Point">
            <g id="Group-10" opacity="0.75" transform="translate(0.691518, 0.758476)">
                <path d="M17.3638732,22.9441394 L17.3638732,47.6532127" id="Line-4" stroke="#E91E63" stroke-width="2" stroke-linecap="square"></path>
                <polygon id="Polygon" fill="#E91E63" points="17.3638732 0.359608807 33.6530939 9.60016768 33.6530939 28.0812854 17.3638732 37.3218443 1.07465252 28.0812854 1.07465252 9.60016768"></polygon>
            </g>
            <g id="user-silhouette-(2)" transform="translate(6.555392, 9.500000)" fill="#FFFFFF" fill-rule="nonzero">
                <path d="M11.1272974,15.30934 C14.7236659,15.30934 17.6394332,11.8967508 17.6394332,7.68714549 C17.6394332,1.84957719 14.7238079,0.0650219799 11.1272974,0.0650219799 C7.53064487,0.0650219799 4.61516151,1.84957719 4.61516151,7.68714549 C4.61523249,11.8967508 7.53071585,15.30934 11.1272974,15.30934 Z" id="Shape"></path>
                <path d="M22.2219921,19.1271098 C22.0717175,18.7884418 21.8077254,18.5075554 21.4791373,18.3364823 L16.3803067,15.6822226 C16.2678669,15.6238022 16.1317183,15.6351597 16.0306361,15.7116812 C14.588511,16.802432 12.8928997,17.3789697 11.1272974,17.3789697 C9.36141112,17.3789697 7.6659417,16.802432 6.22381665,15.7116812 C6.12245051,15.6351597 5.98630186,15.6238022 5.87386211,15.6822226 L0.775386448,18.3364823 C0.446656329,18.5075554 0.182948191,18.7882998 0.0325316237,19.1271098 L22.2219921,19.1271098 Z" id="Shape"></path>
            </g>
        </g>
    </g>
</svg>