<?xml version="1.0" encoding="UTF-8"?>
<svg width="10px" height="14px" viewBox="0 0 10 14" version="1.1" xmlns="http://www.w3.org/2000/svg" xmlns:xlink="http://www.w3.org/1999/xlink">
    <!-- Generator: Sketch 48.2 (47327) - http://www.bohemiancoding.com/sketch -->
    <title>female-silhouette</title>
    <desc>Created with Sketch.</desc>
    <defs></defs>
    <g id="people-count-woman" stroke="none" stroke-width="1" fill="none" fill-rule="evenodd" transform="translate(-12.000000, -10.000000)">
        <g id="female-silhouette" transform="translate(12.000000, 10.000000)" fill="#FFFFFF" fill-rule="nonzero">
            <path d="M7.87453867,4.7742707 C7.49427962,4.2582747 7.03592216,4 6.49959613,4 L3.49988442,4 C2.96342854,4 2.50501913,4.25844313 2.12496786,4.7742707 L0.125082137,7.55357504 C0.0416334439,7.66916584 0,7.79726855 0,7.9368726 C0,8.13022974 0.0728000893,8.29428013 0.218711934,8.42899972 C0.364467946,8.56448927 0.541546437,8.63178891 0.749921434,8.63178891 C1.01553917,8.63178891 1.22375833,8.52825286 1.37491656,8.32048296 L3.14814286,5.85277331 L3.49975456,5.84569927 L1.57025351,10.5187053 C1.52334771,10.5910097 1.4999987,10.6708213 1.4999987,10.7575625 C1.4999987,10.8830425 1.54942381,10.9917036 1.64845582,11.0833053 C1.74733201,11.1751716 1.86446665,11.2209844 2.00006753,11.2209844 L3.4999104,11.2209844 L3.4999104,13.1894929 C3.4999104,13.4114109 3.58590437,13.6019528 3.75773647,13.7611428 C3.92956858,13.9203088 4.13524246,14 4.37493994,14 L5.62490423,14 C5.86444587,14 6.07014573,13.9203088 6.2421077,13.7611428 C6.41412161,13.6019528 6.49995974,13.4114109 6.49995974,13.1894929 L6.49995974,11.2209844 L7.99995844,11.2209844 C8.13540349,11.2209844 8.25253813,11.1751956 8.35154418,11.0833053 C8.45042036,10.9917036 8.50002727,10.8831869 8.50002727,10.7575625 C8.50002727,10.6708453 8.47665229,10.5910097 8.42977246,10.5187053 L6.50011558,5.84569927 L6.85170131,5.85277331 L8.62510941,8.32048296 C8.77605986,8.52827692 8.98446083,8.63178891 9.25005259,8.63178891 C9.45829773,8.63178891 9.63537622,8.56448927 9.78126209,8.42899972 C9.92704408,8.29413576 10,8.13022974 10,7.9368726 C10,7.79726855 9.95821072,7.66916584 9.87504772,7.55357504 L7.87453867,4.7742707 Z" id="Shape"></path>
            <path d="M3.58479098,0.584933662 C3.19494022,0.97477071 3,1.44632098 3,1.99982191 C3,2.55367902 3.19491054,3.0250512 3.58479098,3.41506634 C3.97464174,3.80487371 4.44645229,4 5.00001484,4 C5.55357739,4 6.02535826,3.80508148 6.4152387,3.41506634 C6.80508946,3.02525897 7,2.55367902 7,1.99982191 C7,1.44632098 6.80508946,0.974948799 6.4152387,0.584933662 C6.02532857,0.195096613 5.55357739,0 5.00001484,0 C4.44645229,0 3.97464174,0.194918524 3.58479098,0.584933662 Z" id="Shape"></path>
        </g>
    </g>
</svg>