<svg xmlns="http://www.w3.org/2000/svg" width="14" height="14" viewBox="0 0 14 14">
    <path fill="#AEAECE" fill-rule="nonzero" d="M.005 5.624a.264.264 0 0 1 .161-.192 6.17 6.17 0 0 1 2.293-.436c1.238 0 2.193.353 2.562.513l3.933-3.343A2.95 2.95 0 0 1 9.497.098.266.266 0 0 1 9.69 0a.274.274 0 0 1 .2.077l4.034 4.029a.263.263 0 0 1-.023.393c-.576.457-1.28.553-1.769.553-.109 0-.202-.005-.273-.01L8.495 8.99c.23.589.93 2.712.081 4.843a.263.263 0 0 1-.432.089l-3.852-3.848-3.588 3.584a.264.264 0 1 1-.374-.374l3.588-3.584-3.84-3.836a.264.264 0 0 1-.073-.24z"/>
</svg>
