<?xml version="1.0" encoding="UTF-8"?>
<svg width="45px" height="39px" viewBox="0 0 45 39" version="1.1" xmlns="http://www.w3.org/2000/svg" xmlns:xlink="http://www.w3.org/1999/xlink">
    <!-- Generator: Sketch 50.2 (55047) - http://www.bohemiancoding.com/sketch -->
    <title>right next</title>
    <desc>Created with Sketch.</desc>
    <defs></defs>
    <g id="Page-1" stroke="none" stroke-width="1" fill="none" fill-rule="evenodd">
        <g id="Solution---Smart-City" transform="translate(-193.000000, -1068.000000)" fill="#6C6CA3" fill-rule="nonzero">
            <g id="right-next" transform="translate(193.000000, 1068.000000)">
                <path d="M22.4131384,18.0905457 L4.83401126,0.583863044 C4.05178423,-0.194621015 2.78399739,-0.194621015 2.002153,0.583863044 L0.586287639,1.99387308 C-0.195429213,2.77286521 -0.195429213,4.03579015 0.586287639,4.81376614 L15.3330464,19.5001746 L0.586287639,34.1845509 C-0.195429213,34.9639241 -0.195429213,36.2277381 0.586287639,37.0054601 L2.002153,38.4154701 C2.78399739,39.1948433 4.05178423,39.1948433 4.83401126,38.4154701 L22.4131384,20.9086605 C23.1956205,20.1304305 23.1956205,18.8690297 22.4131384,18.0905457 Z" id="Shape"></path>
                <path d="M44.4131384,18.0905457 L26.8340113,0.583863044 C26.0517842,-0.194621015 24.7839974,-0.194621015 24.002153,0.583863044 L22.5862876,1.99387308 C21.8045708,2.77286521 21.8045708,4.03579015 22.5862876,4.81376614 L37.3330464,19.5001746 L22.5862876,34.1845509 C21.8045708,34.9639241 21.8045708,36.2277381 22.5862876,37.0054601 L24.002153,38.4154701 C24.7839974,39.1948433 26.0517842,39.1948433 26.8340113,38.4154701 L44.4131384,20.9086605 C45.1956205,20.1304305 45.1956205,18.8690297 44.4131384,18.0905457 Z" id="Shape"></path>
            </g>
        </g>
    </g>
</svg>
