<svg xmlns="http://www.w3.org/2000/svg" width="19" height="17" viewBox="0 0 19 17">
    <path fill="#F3F3FF" fill-rule="nonzero" d="M18.292 6.331h-3.54c-.327 0-.59.236-.59.528v3.165c0 .292.263.528.59.528h3.54c.326 0 .59-.236.59-.528V6.86c0-.292-.264-.528-.59-.528zm0-6.331h-3.54c-.327 0-.59.236-.59.528v3.165c0 .292.263.528.59.528h3.54c.326 0 .59-.236.59-.528V.528c0-.292-.264-.528-.59-.528zM4.13 0H.59C.264 0 0 .236 0 .528v3.165c0 .292.264.528.59.528h3.54c.326 0 .59-.236.59-.528V.528C4.72.236 4.456 0 4.13 0zm0 6.331H.59c-.326 0-.59.236-.59.528v3.165c0 .292.264.528.59.528h3.54c.326 0 .59-.236.59-.528V6.86c0-.292-.264-.528-.59-.528zm14.162 6.331h-3.54c-.327 0-.59.236-.59.528v3.165c0 .292.263.528.59.528h3.54c.326 0 .59-.236.59-.528V13.19c0-.292-.264-.528-.59-.528zm-14.162 0H.59c-.326 0-.59.236-.59.528v3.166c0 .291.264.527.59.527h3.54c.326 0 .59-.236.59-.527V13.19c0-.292-.264-.528-.59-.528zm7.081-6.33h-3.54c-.326 0-.59.235-.59.527v3.165c0 .292.264.528.59.528h3.54c.326 0 .59-.236.59-.528V6.86c0-.292-.264-.528-.59-.528zm0-6.332h-3.54c-.326 0-.59.236-.59.528v3.165c0 .292.264.528.59.528h3.54c.326 0 .59-.236.59-.528V.528c0-.292-.264-.528-.59-.528zm0 12.662h-3.54c-.326 0-.59.236-.59.528v3.165c0 .292.264.528.59.528h3.54c.326 0 .59-.236.59-.528V13.19c0-.292-.264-.528-.59-.528z"/>
</svg>
