<?xml version="1.0" encoding="UTF-8" standalone="no"?>
<svg width="19px" height="24px" viewBox="0 0 19 24" version="1.1" xmlns="http://www.w3.org/2000/svg" xmlns:xlink="http://www.w3.org/1999/xlink">
    <!-- Generator: Sketch 41.2 (35397) - http://www.bohemiancoding.com/sketch -->
    <title>chart-objec-card-24px</title>
    <desc>Created with Sketch.</desc>
    <defs></defs>
    <g id="Page-1" stroke="none" stroke-width="1" fill="none" fill-rule="evenodd">
        <g id="Style-Guide" transform="translate(-1767.000000, -1224.000000)" fill="#CCCCCC">
            <g id="Group-60" transform="translate(1721.000000, 981.000000)">
                <g id="chart-objec-card" transform="translate(40.000000, 240.000000)">
                    <path d="M6.71678749,3.00106662 L6.71678749,3.00106662 C6.30827231,3.04408693 5.99717503,3.39002711 6.00001935,3.80103107 L6.00001935,20.8669392 C6.00001935,21.3085196 6.35840342,21.6669037 6.79998379,21.6669037 L11.3331157,21.6669037 L11.3331157,26.2000356 C11.3331157,26.6416159 11.6914997,27 12.1330801,27 L23.865892,27 C24.3074723,27 24.6658564,26.6416159 24.6658564,26.2000356 L24.6658564,9.13412737 C24.6658564,8.692547 24.3074723,8.33416293 23.865892,8.33416293 L19.3327601,8.33416293 L19.3327601,3.80103107 C19.3327601,3.35945069 18.974376,3.00106662 18.5327957,3.00106662 L6.79998379,3.00106662 C6.77225169,2.99964446 6.74451959,2.99964446 6.71678749,3.00106662 Z M7.59994824,4.60099551 L17.7328312,4.60099551 L17.7328312,20.0669748 L7.59994824,20.0669748 L7.59994824,4.60099551 Z M19.3327601,9.93409182 L23.0659275,9.93409182 L23.0659275,25.4000711 L12.9330445,25.4000711 L12.9330445,21.6669037 L18.5327957,21.6669037 C18.974376,21.6669037 19.3327601,21.3085196 19.3327601,20.8669392 L19.3327601,9.93409182 Z" id="chart-objec-card-24px"></path>
                </g>
            </g>
        </g>
    </g>
</svg>