<?xml version="1.0" encoding="UTF-8" standalone="no"?>
<svg width="24px" height="24px" viewBox="0 0 24 24" version="1.1" xmlns="http://www.w3.org/2000/svg" xmlns:xlink="http://www.w3.org/1999/xlink">
    <!-- Generator: Sketch 41.2 (35397) - http://www.bohemiancoding.com/sketch -->
    <title>chart-list-list-24px</title>
    <desc>Created with Sketch.</desc>
    <defs></defs>
    <g id="Page-1" stroke="none" stroke-width="1" fill="none" fill-rule="evenodd">
        <g id="Style-Guide" transform="translate(-1764.000000, -1184.000000)" fill="#CCCCCC">
            <g id="Group-60" transform="translate(1721.000000, 981.000000)">
                <g id="chart-list-list" transform="translate(40.000000, 200.000000)">
                    <path d="M5.2,3 C4,3 3,4 3,5.2 L3,24.8 C3,26 4,27 5.2,27 L24.8,27 C26,27 27,26 27,24.8 L27,5.2 C27,4 26,3 24.8,3 L5.2,3 Z M7.6,23.70016 C6.4,23.70016 5.49984,22.69984 5.49984,21.6 C5.49984,20.4 6.50016,19.49984 7.6,19.49984 C8.8,19.49984 9.70016,20.50016 9.70016,21.6 C9.70016,22.69984 8.8,23.70016 7.6,23.70016 Z M7.6,17.09984 C6.4,17.09984 5.49984,16.10016 5.49984,15 C5.49984,13.8 6.50016,12.90016 7.6,12.90016 C8.8,12.90016 9.70016,13.89984 9.70016,15 C9.70016,16.2 8.8,17.09984 7.6,17.09984 Z M7.6,10.6 C6.4,10.6 5.49984,9.6 5.49984,8.50016 C5.49984,7.30016 6.50016,6.4 7.6,6.4 C8.8,6.4 9.70016,7.4 9.70016,8.50016 C9.70016,9.6 8.8,10.6 7.6,10.6 Z M11.6679688,20 L24,20 L24,23 L11.6679688,23 L11.6679688,20 Z M11.6679688,13.5 L24,13.5 L24,16.5 L11.6679688,16.5 L11.6679688,13.5 Z M11.6679688,7 L24,7 L24,10 L11.6679688,10 L11.6679688,7 Z" id="chart-list-list-24px"></path>
                </g>
            </g>
        </g>
    </g>
</svg>