<?xml version="1.0" encoding="UTF-8" standalone="no"?>
<svg width="26px" height="26px" viewBox="0 0 26 26" version="1.1" xmlns="http://www.w3.org/2000/svg" xmlns:xlink="http://www.w3.org/1999/xlink">
    <!-- Generator: Sketch 41.2 (35397) - http://www.bohemiancoding.com/sketch -->
    <title>table-chart</title>
    <desc>Created with Sketch.</desc>
    <defs>
        <filter x="-50%" y="-50%" width="200%" height="200%" filterUnits="objectBoundingBox" id="filter-1">
            <feOffset dx="0" dy="1" in="SourceAlpha" result="shadowOffsetOuter1"></feOffset>
            <feGaussianBlur stdDeviation="0.5" in="shadowOffsetOuter1" result="shadowBlurOuter1"></feGaussianBlur>
            <feColorMatrix values="0 0 0 0 0   0 0 0 0 0   0 0 0 0 0  0 0 0 0.5 0" type="matrix" in="shadowBlurOuter1" result="shadowMatrixOuter1"></feColorMatrix>
            <feMerge>
                <feMergeNode in="shadowMatrixOuter1"></feMergeNode>
                <feMergeNode in="SourceGraphic"></feMergeNode>
            </feMerge>
        </filter>
    </defs>
    <g id="Page-1" stroke="none" stroke-width="1" fill="none" fill-rule="evenodd">
        <g id="4.6_Visualization-Editor_Chart-Block_Field-Properties" transform="translate(-21.000000, -439.000000)" fill="#CCCCCC">
            <g id="side-bar-(chart)" transform="translate(0.000000, 58.000000)">
                <g id="Group-73" filter="url(#filter-1)">
                    <g id="Group-66" transform="translate(18.000000, 378.000000)">
                        <g id="Group-24">
                            <g id="chart-list-table" transform="translate(1.000000, 0.000000)">
                                <path d="M3.9963271,3 C3.44607084,3 3,3.44746922 3,4.00069463 L3,25.9993054 C3,26.5519738 3.45600219,27 3.9963271,27 L25.8989248,27 C26.449181,27 26.8952519,26.5525308 26.8952519,25.9993054 L26.8952519,4.00069463 C26.8952519,3.44802625 26.4392497,3 25.8989248,3 L3.9963271,3 Z M18.902768,12.51872 L18.902768,9.11264 L25.2624097,9.11264 L25.2624097,12.51872 L18.902768,12.51872 Z M18.4124375,16.9936 L11.4828144,16.9936 L11.4828144,13.00992 L18.4124375,13.00992 L18.4124375,16.9936 Z M11.4828144,12.51872 L11.4828144,9.11264 L18.4124375,9.11264 L18.4124375,12.51872 L11.4828144,12.51872 Z M10.421228,9.11264 L10.9937583,9.11264 L10.9937583,12.51872 L4.63411663,12.51872 L4.63411663,9.11264 L10.421228,9.11264 Z M10.9937583,13.00992 L10.9937583,16.99488 L4.63411663,16.99488 L4.63411663,13.00992 L10.9937583,13.00992 Z M4.63411663,17.48512 L10.9937583,17.48512 L10.9937583,21.4624 L4.63411663,21.4624 L4.63411663,17.48512 Z M11.4828144,17.48512 L18.4124375,17.48512 L18.4124375,21.4624 L11.4828144,21.4624 L11.4828144,17.48512 Z M18.902768,17.48512 L25.2624097,17.48512 L25.2624097,21.4624 L18.902768,21.4624 L18.902768,17.48512 Z M18.902768,13.00992 L25.2624097,13.00992 L25.2624097,16.99488 L18.902768,16.99488 L18.902768,13.00992 Z M4.63411663,25.35872 L4.63411663,21.95488 L10.9937583,21.95488 L10.9937583,25.35872 L4.63411663,25.35872 Z M11.4828144,25.35872 L11.4828144,21.95488 L18.4124375,21.95488 L18.4124375,25.35872 L11.4828144,25.35872 Z M18.902768,21.95616 L25.2624097,21.95616 L25.2624097,25.36 L18.902768,25.36 L18.902768,21.95616 Z" id="table-chart"></path>
                            </g>
                        </g>
                    </g>
                </g>
            </g>
        </g>
    </g>
</svg>