<?xml version="1.0" encoding="UTF-8"?>
<svg width="8px" height="14px" viewBox="0 0 8 14" version="1.1" xmlns="http://www.w3.org/2000/svg" xmlns:xlink="http://www.w3.org/1999/xlink">
    <!-- Generator: Sketch 48.2 (47327) - http://www.bohemiancoding.com/sketch -->
    <title>man-standing-black-silhouette</title>
    <desc>Created with Sketch.</desc>
    <defs></defs>
    <g id="people-count-man" stroke="none" stroke-width="1" fill="none" fill-rule="evenodd" transform="translate(-13.000000, -10.000000)">
        <g id="man-standing-black-silhouette" transform="translate(13.000000, 10.000000)" fill="#FFFFFF" fill-rule="nonzero">
            <path d="M5.41513325,3.41518768 C5.80484869,3.02529323 6,2.55380866 6,1.9998532 C6,1.44642621 5.80502485,0.974765491 5.41513325,0.584871038 C5.0252123,0.194947226 4.55355505,0 3.99998532,0 C3.44638624,0 2.97455282,0.194947226 2.58483739,0.584841679 C2.1949458,0.974765491 2,1.4462207 2,1.99982384 C2,2.55360315 2.1949458,3.02505835 2.58483739,3.41515832 C2.97455282,3.80505277 3.44638624,4 3.99998532,4 C4.55355505,4.00002936 5.0252123,3.80508213 5.41513325,3.41518768 Z" id="Shape"></path>
            <path d="M6.50018786,4 L1.50009473,4 C1.083446,4 0.729225206,4.13716961 0.437560814,4.41138805 C0.145742279,4.68575141 0,5.01849459 0,5.41022142 L0,9.06406804 C0,9.26007637 0.0727812228,9.4263755 0.218703336,9.56356926 C0.364445615,9.70076302 0.541633082,9.7690459 0.74995745,9.7690459 C0.958127675,9.7690459 1.13531514,9.70076302 1.28123726,9.56356926 C1.42697953,9.4263755 1.49994059,9.25995561 1.49994059,9.06406804 L1.49994059,5.8804482 L1.99992935,5.8804482 L1.99992935,13.1773688 C1.99992935,13.4026275 2.08576135,13.5959789 2.25778503,13.757568 C2.4298087,13.9191571 2.63543557,14 2.87505098,14 C3.11451225,14 3.32031895,13.919133 3.49216279,13.757568 C3.66400663,13.596003 3.75001847,13.4026516 3.75001847,13.1773688 L3.75001847,9.76902175 L4.24998153,9.76902175 L4.24998153,13.1773447 C4.24998153,13.4026033 4.33599337,13.5959547 4.50783721,13.7575438 C4.67965536,13.9191088 4.88530792,13.9999758 5.12494902,13.9999758 C5.36441029,13.9999758 5.57021699,13.9191088 5.74221497,13.7575438 C5.91421296,13.5959789 6.00007065,13.4026275 6.00007065,13.1773447 L6.00007065,5.8804482 L6.50003372,5.8804482 L6.50003372,9.06406804 C6.50003372,9.26007637 6.57284063,9.4263755 6.71876274,9.56356926 C6.86450502,9.70076302 7.04151266,9.7690459 7.25001686,9.7690459 C7.45834123,9.7690459 7.63537455,9.70076302 7.78129666,9.56356926 C7.92706463,9.4263755 8,9.25995561 8,9.06406804 L8,5.41022142 C8,5.01863951 7.85410358,4.68575141 7.56246488,4.41138805 C7.27090325,4.13716961 6.91668246,4 6.50018786,4 Z" id="Shape"></path>
        </g>
    </g>
</svg>