<?xml version="1.0" encoding="UTF-8"?>
<svg width="53px" height="69px" viewBox="0 0 53 69" version="1.1" xmlns="http://www.w3.org/2000/svg" xmlns:xlink="http://www.w3.org/1999/xlink">
    <!-- Generator: Sketch 48.2 (47327) - http://www.bohemiancoding.com/sketch -->
    <title>man-user (1)</title>
    <desc>Created with Sketch.</desc>
    <defs></defs>
    <g id="Map-View---CrowdEs" stroke="none" stroke-width="1" fill="none" fill-rule="evenodd" transform="translate(-811.000000, -524.000000)">
        <g id="man-user-(1)" transform="translate(811.000000, 524.000000)" fill="#FFFFFF" fill-rule="nonzero">
            <path d="M26.2672401,33.554047 C33.8953251,33.554047 40.0796919,26.0427924 40.0796919,16.7771215 C40.0796919,7.51125453 38.0492735,0 26.2672401,0 C14.4852068,0 12.4543963,7.51125453 12.4543963,16.7771215 C12.4543963,26.0427924 18.6387631,33.554047 26.2672401,33.554047 Z" id="Shape"></path>
            <path d="M0.183172945,59.6106164 C0.176501816,58.1892457 0.169830687,59.2101469 0.183172945,59.6106164 Z" id="Shape"></path>
            <path d="M52.3551181,60.2104197 C52.3762434,59.875322 52.3623452,57.8855467 52.3551181,60.2104197 Z" id="Shape"></path>
            <path d="M52.3257145,58.4930273 C52.069903,42.3520042 49.9618589,37.7526889 33.8304411,34.8413378 C33.8304411,34.8413378 31.559697,37.7348507 26.2670441,37.7348507 C20.9743912,37.7348507 18.7032551,34.8413378 18.7032551,34.8413378 C2.74786696,37.720933 0.51162311,42.2520319 0.21758684,57.9686626 C0.193475866,59.2520329 0.182302487,59.3194652 0.177989955,59.1704868 C0.178970076,59.4496253 0.180146221,59.9659529 0.180146221,60.866292 C0.180146221,60.866292 4.02065196,68.608463 26.2670441,68.608463 C48.5130442,68.608463 52.353942,60.866292 52.353942,60.866292 C52.353942,60.2878247 52.354334,59.885583 52.3549221,59.6119333 C52.3506096,59.7040646 52.3419845,59.5254866 52.3257145,58.4930273 Z" id="Shape"></path>
        </g>
    </g>
</svg>