<?xml version="1.0" encoding="UTF-8" standalone="no"?>
<svg width="25px" height="27px" viewBox="0 0 25 27" version="1.1" xmlns="http://www.w3.org/2000/svg" xmlns:xlink="http://www.w3.org/1999/xlink">
    <!-- Generator: Sketch 41.2 (35397) - http://www.bohemiancoding.com/sketch -->
    <title>map-chart</title>
    <desc>Created with Sketch.</desc>
    <defs>
        <filter x="-50%" y="-50%" width="200%" height="200%" filterUnits="objectBoundingBox" id="filter-1">
            <feOffset dx="0" dy="1" in="SourceAlpha" result="shadowOffsetOuter1"></feOffset>
            <feGaussianBlur stdDeviation="0.5" in="shadowOffsetOuter1" result="shadowBlurOuter1"></feGaussianBlur>
            <feColorMatrix values="0 0 0 0 0   0 0 0 0 0   0 0 0 0 0  0 0 0 0.5 0" type="matrix" in="shadowBlurOuter1" result="shadowMatrixOuter1"></feColorMatrix>
            <feMerge>
                <feMergeNode in="shadowMatrixOuter1"></feMergeNode>
                <feMergeNode in="SourceGraphic"></feMergeNode>
            </feMerge>
        </filter>
    </defs>
    <g id="Page-1" stroke="none" stroke-width="1" fill="none" fill-rule="evenodd">
        <g id="4.6_Visualization-Editor_Chart-Block_Field-Properties" transform="translate(-23.000000, -295.000000)" fill="#CCCCCC">
            <g id="side-bar-(chart)" transform="translate(0.000000, 58.000000)">
                <g id="Group-73" filter="url(#filter-1)">
                    <g id="Group-64" transform="translate(20.000000, 234.000000)">
                        <g id="Group-21">
                            <g id="chart-map-tile">
                                <path d="M24.5202,21.6699 L20.8602,21.6699 C21.3102,20.2999 21.5602,18.8299 21.6202,17.2899 L25.8102,17.2899 C25.7402,18.8799 25.2702,20.3699 24.5202,21.6699 L24.5202,21.6699 Z M18.2002,26.3999 C19.1102,25.3599 19.8802,24.1099 20.4402,22.7499 L23.8102,22.7499 C22.5002,24.4809 20.5202,25.8799 18.2002,26.3999 L18.2002,26.3999 Z M16.4402,26.6599 L16.4402,22.7499 L19.2902,22.7499 C18.5702,24.2999 17.6002,25.6299 16.4402,26.6599 L16.4402,26.6599 Z M16.4402,17.2899 L20.5502,17.2899 C20.5002,18.8299 20.2002,20.2999 19.7102,21.6699 L16.4402,21.6699 L16.4402,17.2899 Z M16.4402,11.8299 L19.7102,11.8299 C20.2002,13.1999 20.5002,14.6699 20.5502,16.2099 L16.4402,16.2099 L16.4402,11.8299 Z M16.4402,6.8399 C17.6002,7.8699 18.5702,9.1999 19.2902,10.7499 L16.4402,10.7499 L16.4402,6.8399 Z M23.8102,10.7499 L20.4402,10.7499 C19.8802,9.3899 19.1102,8.1299 18.2002,7.0999 C20.5202,7.6199 22.5002,9.0199 23.8102,10.7499 L23.8102,10.7499 Z M25.8102,16.2099 L21.6202,16.2099 C21.5602,14.6699 21.3102,13.1999 20.8602,11.8299 L24.5202,11.8299 C25.2702,13.1299 25.7402,14.6199 25.8102,16.2099 L25.8102,16.2099 Z M15.3702,10.7499 L13.6402,10.7499 C14.0002,9.9099 14.2102,9.0199 14.2102,8.1099 L14.2102,8.0399 C14.5702,7.6099 14.9502,7.1999 15.3702,6.8399 L15.3702,10.7499 Z M15.3702,16.2099 L11.2602,16.2099 C11.2902,15.4809 11.3702,14.7599 11.5002,14.0699 C12.0602,13.4299 12.6302,12.6699 13.1202,11.8299 L15.3702,11.8299 L15.3702,16.2099 Z M15.3702,21.6699 L12.1002,21.6699 C11.6102,20.2999 11.3102,18.8299 11.2602,17.2899 L15.3702,17.2899 L15.3702,21.6699 Z M15.3702,26.6599 C14.2102,25.6299 13.2402,24.2999 12.5402,22.7499 L15.3702,22.7499 L15.3702,26.6599 Z M8.0002,22.7499 L11.3702,22.7499 C11.9302,24.1099 12.7002,25.3599 13.6102,26.3999 C11.2902,25.8799 9.3102,24.4809 8.0002,22.7499 L8.0002,22.7499 Z M6.0002,17.2899 L10.1902,17.2899 C10.2502,18.8299 10.5002,20.2999 10.9502,21.6699 L7.2902,21.6699 C6.5402,20.3699 6.0702,18.8799 6.0002,17.2899 L6.0002,17.2899 Z M10.2502,15.3699 C10.2302,15.6499 10.2002,15.9299 10.1902,16.2099 L6.0002,16.2099 C6.0402,15.3599 6.1902,14.5299 6.4402,13.7499 C7.5802,15.1299 8.7002,16.0299 8.8102,16.1099 C8.8902,16.1799 9.0002,16.2099 9.1102,16.2099 C9.2102,16.2099 9.3102,16.1799 9.4102,16.1099 C9.4502,16.0699 9.7902,15.8099 10.2502,15.3699 L10.2502,15.3699 Z M4.9602,8.1099 C4.9602,5.8199 6.8202,3.9599 9.1102,3.9599 C10.7002,3.9599 12.1002,4.8699 12.7902,6.1999 C12.9502,6.5199 13.0702,6.8599 13.1502,7.2199 C13.1902,7.3399 13.2002,7.4499 13.2102,7.5699 C13.2502,7.7499 13.2502,7.9299 13.2502,8.1099 C13.2502,8.7699 13.1202,9.4299 12.8702,10.0499 C12.8002,10.2899 12.6902,10.5209 12.5802,10.7499 C12.0202,11.9199 11.2002,12.9699 10.4602,13.7709 C9.9202,14.3699 9.4102,14.8299 9.1102,15.0999 C8.6302,14.6909 7.7002,13.8199 6.8502,12.6909 C6.6002,12.3699 6.3602,12.0299 6.1402,11.6699 C5.4802,10.5899 4.9602,9.3699 4.9602,8.1099 L4.9602,8.1099 Z M15.9102,5.7499 C15.1702,5.7499 14.4402,5.8199 13.7402,5.9599 C12.9302,4.2099 11.1502,2.9999 9.1102,2.9999 C6.3002,2.9999 4.0002,5.2899 4.0002,8.1099 C4.0002,9.7999 4.7502,11.3999 5.6702,12.7309 C5.1802,13.9699 4.9102,15.3299 4.9102,16.7499 C4.9102,22.8299 9.8202,27.7499 15.9102,27.7499 C21.9902,27.7499 26.9102,22.8299 26.9102,16.7499 C26.9102,10.6699 21.9902,5.7499 15.9102,5.7499 L15.9102,5.7499 Z M11.1297,6.8298 C10.7497,6.1198 9.9797,5.6298 9.1097,5.6298 C7.8297,5.6298 6.7997,6.6598 6.7997,7.9398 C6.7997,8.5998 7.0697,9.1998 7.5197,9.6198 C7.7997,9.8698 8.1197,10.0598 8.4797,10.1598 C8.6797,10.2198 8.8797,10.2498 9.1097,10.2498 C10.3697,10.2498 11.4197,9.2098 11.4197,7.9398 L11.4197,7.8898 C11.4097,7.5098 11.3107,7.1498 11.1297,6.8298 Z M10.2897,8.5698 C10.1197,8.9098 9.8107,9.1598 9.4197,9.2498 C9.3107,9.2798 9.2097,9.2898 9.1097,9.2898 C8.7497,9.2898 8.4297,9.1498 8.1897,8.9098 C7.9197,8.6698 7.7497,8.3198 7.7497,7.9398 C7.7497,7.1898 8.3697,6.5898 9.1097,6.5898 C9.6197,6.5898 10.0607,6.8698 10.2897,7.2898 C10.3897,7.4798 10.4497,7.6998 10.4497,7.9398 C10.4497,8.1698 10.3897,8.3798 10.2897,8.5698 Z" id="map-chart"></path>
                            </g>
                        </g>
                    </g>
                </g>
            </g>
        </g>
    </g>
</svg>