<?xml version="1.0" encoding="UTF-8" standalone="no"?>
<svg width="24px" height="18px" viewBox="0 0 24 18" version="1.1" xmlns="http://www.w3.org/2000/svg" xmlns:xlink="http://www.w3.org/1999/xlink">
    <!-- Generator: Sketch 41.2 (35397) - http://www.bohemiancoding.com/sketch -->
    <title>chart- object-scoreboard-24px</title>
    <desc>Created with Sketch.</desc>
    <defs></defs>
    <g id="Page-1" stroke="none" stroke-width="1" fill="none" fill-rule="evenodd">
        <g id="Style-Guide" transform="translate(-1844.000000, -1227.000000)" fill="#CCCCCC">
            <g id="Group-60" transform="translate(1721.000000, 981.000000)">
                <g id="chart--object-scoreboard" transform="translate(120.000000, 240.000000)">
                    <path d="M25.5888,10.2568421 L25.5888,20.1641704 L4.4112,20.1641704 L4.4112,10.2568421 L25.5888,10.2568421 Z M3,9.55011529 L3,20.8721805 C3,21.2632381 3.31616,21.5801905 3.70624,21.5801905 L26.29376,21.5801905 C26.68384,21.5801905 27,21.2632381 27,20.8721805 L27,9.55011529 C27,9.15905764 26.68384,8.84210526 26.29376,8.84210526 L3.70624,8.84210526 C3.31616,8.84210526 3,9.15905764 3,9.55011529 Z M17.11744,7.42736842 C17.50752,7.42736842 17.82368,7.11041604 17.82368,6.7193584 C17.82368,6.32830075 17.50752,6.01134837 17.11744,6.01134837 L12.88256,6.01134837 C12.49248,6.01134837 12.17632,6.32830075 12.17632,6.7193584 C12.17632,7.11041604 12.49248,7.42736842 12.88256,7.42736842 L17.11744,7.42736842 Z M5.82368,12.3808722 L5.82368,18.0414236 C5.82368,18.4324812 6.13984,18.7494336 6.52992,18.7494336 L11.47008,18.7494336 C11.86016,18.7494336 12.17632,18.4324812 12.17632,18.0414236 L12.17632,12.3808722 C12.17632,11.9898145 11.86016,11.6728622 11.47008,11.6728622 L6.52992,11.6728622 C6.13984,11.6728622 5.82368,11.9898145 5.82368,12.3808722 Z M10.76512,13.087599 L10.76512,17.3334135 L7.23488,17.3334135 L7.23488,13.087599 L10.76512,13.087599 Z M17.82368,12.3808722 L17.82368,18.0414236 C17.82368,18.4324812 18.13984,18.7494336 18.52992,18.7494336 L23.47008,18.7494336 C23.86016,18.7494336 24.17632,18.4324812 24.17632,18.0414236 L24.17632,12.3808722 C24.17632,11.9898145 23.86016,11.6728622 23.47008,11.6728622 L18.52992,11.6728622 C18.13984,11.6728622 17.82368,11.9898145 17.82368,12.3808722 Z M22.76512,13.087599 L22.76512,17.3334135 L19.23488,17.3334135 L19.23488,13.087599 L22.76512,13.087599 Z M15.70624,13.442406 C15.70624,14.3858847 14.29376,14.3858847 14.29376,13.442406 C14.29376,12.4986065 15.70624,12.4986065 15.70624,13.442406 Z M15.70624,16.9798897 C15.70624,17.9236892 14.29376,17.9236892 14.29376,16.9798897 C14.29376,16.036411 15.70624,16.036411 15.70624,16.9798897 Z M9.35264,21.5801905 L7.94112,21.5801905 L7.94112,22.9949273 C7.94112,23.385985 8.2576,23.7029373 8.64736,23.7029373 C9.03744,23.7029373 9.35264,23.385985 9.35264,22.9949273 L9.35264,21.5801905 Z M22.05888,21.5801905 L20.64736,21.5801905 L20.64736,22.9949273 C20.64736,23.385985 20.96256,23.7029373 21.35264,23.7029373 C21.7424,23.7029373 22.05888,23.385985 22.05888,22.9949273 L22.05888,21.5801905 Z" id="chart--object-scoreboard-24px"></path>
                </g>
            </g>
        </g>
    </g>
</svg>