<?xml version="1.0" encoding="UTF-8" standalone="no"?>
<svg width="26px" height="17px" viewBox="0 0 26 17" version="1.1" xmlns="http://www.w3.org/2000/svg" xmlns:xlink="http://www.w3.org/1999/xlink">
    <!-- Generator: Sketch 41.2 (35397) - http://www.bohemiancoding.com/sketch -->
    <title>object-chart</title>
    <desc>Created with Sketch.</desc>
    <defs>
        <filter x="-50%" y="-50%" width="200%" height="200%" filterUnits="objectBoundingBox" id="filter-1">
            <feOffset dx="0" dy="1" in="SourceAlpha" result="shadowOffsetOuter1"></feOffset>
            <feGaussianBlur stdDeviation="0.5" in="shadowOffsetOuter1" result="shadowBlurOuter1"></feGaussianBlur>
            <feColorMatrix values="0 0 0 0 0   0 0 0 0 0   0 0 0 0 0  0 0 0 0.5 0" type="matrix" in="shadowBlurOuter1" result="shadowMatrixOuter1"></feColorMatrix>
            <feMerge>
                <feMergeNode in="shadowMatrixOuter1"></feMergeNode>
                <feMergeNode in="SourceGraphic"></feMergeNode>
            </feMerge>
        </filter>
    </defs>
    <g id="Page-1" stroke="none" stroke-width="1" fill="none" fill-rule="evenodd">
        <g id="4.6_Visualization-Editor_Chart-Block_Field-Properties" transform="translate(-21.000000, -516.000000)" fill="#CCCCCC">
            <g id="side-bar-(chart)" transform="translate(0.000000, 58.000000)">
                <g id="Group-73" filter="url(#filter-1)">
                    <g id="Group-67" transform="translate(14.000000, 450.000000)">
                        <g id="Group-25">
                            <g id="chart-object-gauge" transform="translate(5.000000, 0.000000)">
                                <path d="M15,8 C8.38204444,8 3,13.3820444 3,20 C3,20.4416 3.3584,20.8 3.8,20.8 L6.2,20.8 C6.64586667,20.8071111 7.01102222,20.4458667 7.01102222,20 C7.01102222,19.5541333 6.64586667,19.1928889 6.2,19.2 L4.6832,19.2 C4.85848889,16.9376 5.74844444,14.8846222 7.12515556,13.2583111 L7.76657778,13.8915556 C8.07093333,14.2403556 8.60568889,14.2584889 8.93351111,13.9335111 C9.26097778,13.6081778 9.24568889,13.0737778 8.90008889,12.7665778 L8.25013333,12.1166222 C9.86791111,10.7153778 11.9262222,9.80693333 14.2,9.63342222 L14.2,11.2 C14.1928889,11.6458667 14.5541333,12.0110222 15,12.0110222 C15.4458667,12.0110222 15.8071111,11.6458667 15.8,11.2 L15.8,9.63342222 C18.0737778,9.80693333 20.1320889,10.7153778 21.7498667,12.1166222 L21.0999111,12.7665778 C20.7543111,13.0737778 20.7390222,13.6081778 21.0664889,13.9335111 C21.3943111,14.2584889 21.9290667,14.2403556 22.2334222,13.8915556 L22.8748444,13.2583111 C24.2515556,14.8846222 25.1415111,16.9376 25.3168,19.2 L23.8,19.2 C23.3541333,19.1928889 22.9889778,19.5541333 22.9889778,20 C22.9889778,20.4458667 23.3541333,20.8071111 23.8,20.8 L26.2,20.8 C26.6416,20.8 27,20.4416 27,20 C27,13.3820444 21.6179556,8 15,8 Z M19.3335111,14.8583111 L19.3335111,14.8583111 C19.2179556,14.8597333 19.1041778,14.8846222 19,14.9333333 C19,14.9333333 17.7722667,15.4944 16.4417778,16.1582222 C15.7765333,16.4903111 15.0860444,16.8444444 14.5000889,17.1751111 C13.9137778,17.5054222 13.4707556,17.7543111 13.1166222,18.1084444 C12.0819556,19.1431111 12.0819556,20.8487111 13.1166222,21.8833778 C14.1512889,22.9180444 15.8487111,22.9180444 16.8833778,21.8833778 C17.2375111,21.5292444 17.4860444,21.0862222 17.8167111,20.4999111 C18.1473778,19.9139556 18.5015111,19.2152889 18.8332444,18.5500444 C19.4970667,17.2195556 20.0666667,15.9918222 20.0666667,15.9918222 C20.3112889,15.4595556 19.9194667,14.8540444 19.3335111,14.8583111 Z M17.6417778,17.3582222 C17.5262222,17.5943111 17.5333333,17.5918222 17.4081778,17.8417778 C17.0832,18.4931556 16.7333333,19.1612444 16.4250667,19.7084444 C16.1168,20.2556444 15.7943111,20.7139556 15.7584,20.7498667 C15.3345778,21.1736889 14.6654222,21.1736889 14.2416,20.7498667 C13.8181333,20.3264 13.8181333,19.6654222 14.2416,19.2416 C14.2778667,19.2056889 14.7361778,18.8832 15.2833778,18.5749333 C15.8305778,18.2666667 16.5068444,17.9168 17.1582222,17.5918222 C17.4096,17.4666667 17.4056889,17.4737778 17.6417778,17.3582222 Z" id="object-chart"></path>
                            </g>
                        </g>
                    </g>
                </g>
            </g>
        </g>
    </g>
</svg>