<?xml version="1.0" encoding="UTF-8" standalone="no"?>
<svg width="25px" height="24px" viewBox="0 0 25 24" version="1.1" xmlns="http://www.w3.org/2000/svg" xmlns:xlink="http://www.w3.org/1999/xlink">
    <!-- Generator: Sketch 41.2 (35397) - http://www.bohemiancoding.com/sketch -->
    <title>chart-radial-radar-24px</title>
    <desc>Created with Sketch.</desc>
    <defs></defs>
    <g id="Page-1" stroke="none" stroke-width="1" fill="none" fill-rule="evenodd">
        <g id="Style-Guide" transform="translate(-1804.000000, -1064.000000)" fill="#CCCCCC">
            <g id="Group-60" transform="translate(1721.000000, 981.000000)">
                <g id="chart-radial-radar" transform="translate(80.000000, 80.000000)">
                    <path d="M22.1201852,25.944288 L19.8516667,22.324128 C19.8618519,22.324128 19.8701852,22.315488 19.8794444,22.305888 C20.0183333,22.152288 20.0461111,21.930528 19.9627778,21.749088 L24.0655556,13.377888 C24.297037,13.358688 24.472037,13.146528 24.472037,12.906528 L26.3433333,12.464928 L22.1201852,25.944288 Z M8.24055556,26.117088 L8.83314815,25.165728 C8.99981481,25.243488 9.19425926,25.204128 9.32388889,25.061088 C9.37944444,25.003488 9.42574074,24.935328 9.435,24.859488 L19.3146296,22.363488 C19.4072222,22.430688 19.5275926,22.459488 19.6303704,22.421088 L21.9535185,26.117088 L8.24055556,26.117088 Z M3.85166667,12.464928 L6.25907407,13.022688 L6.25907407,13.032288 C6.25907407,13.243488 6.3887037,13.405728 6.56462963,13.473888 L8.66648148,24.398688 C8.49981481,24.570528 8.49055556,24.840288 8.64796296,25.022688 L8.07388889,25.944288 L3.85166667,12.464928 Z M14.9812963,3.969888 L14.9812963,5.861088 C14.7868519,5.909088 14.6294444,6.091488 14.6294444,6.321888 C14.6294444,6.369888 14.6387037,6.407328 14.647963,6.445728 L6.87944444,12.571488 C6.83314815,12.552288 6.77759259,12.542688 6.72203704,12.542688 C6.54611111,12.542688 6.39796296,12.647328 6.31462963,12.792288 L3.99055556,12.254688 L14.9812963,3.969888 Z M18.397963,20.001888 C18.4164815,20.001888 18.4257407,19.992288 18.4359259,19.982688 C18.6109259,19.800288 18.6109259,19.492128 18.4359259,19.301088 C18.4257407,19.290528 18.4072222,19.281888 18.397963,19.272288 L20.6201852,14.087328 L20.6303704,14.087328 C20.8618519,14.087328 21.0461111,13.915488 21.0831481,13.694688 L23.5924074,13.109088 C23.6025926,13.137888 23.6201852,13.165728 23.6396296,13.195488 L19.5646296,21.488928 C19.4905556,21.480288 19.4164815,21.499488 19.3516667,21.527328 L18.397963,20.001888 Z M12.4442593,19.415328 C12.6109259,19.502688 12.8146296,19.464288 12.9535185,19.320288 C12.9998148,19.272288 13.0275926,19.224288 13.0553704,19.165728 L17.6664815,19.781088 C17.6757407,19.856928 17.722037,19.924128 17.7785185,19.982688 C17.8887037,20.096928 18.0368519,20.145888 18.185,20.107488 L19.185,21.690528 L19.185,21.701088 C19.1303704,21.767328 19.1016667,21.844128 19.1016667,21.930528 L9.32388889,24.389088 L12.4442593,19.415328 Z M9.55537037,13.800288 C9.57388889,14.040288 9.75907407,14.222688 9.9812963,14.241888 L12.2868519,18.667488 C12.1387037,18.830688 12.1294444,19.088928 12.2590741,19.262688 L9.12018519,24.273888 L7.01833333,13.397088 C7.07388889,13.349088 7.11092593,13.291488 7.1387037,13.233888 L9.55537037,13.800288 Z M14.9812963,10.544928 C14.7868519,10.593888 14.6294444,10.776288 14.6294444,10.997088 L14.6294444,11.005728 L10.2868519,13.377888 C10.2127778,13.320288 10.1201852,13.281888 10.0183333,13.281888 C9.84240741,13.281888 9.67574074,13.397088 9.60166667,13.560288 L7.185,12.993888 C7.185,12.974688 7.185,12.955488 7.17574074,12.936288 L14.9812963,6.792288 L14.9812963,10.544928 Z M20.3053704,13.272288 L15.5553704,10.967328 C15.5368519,10.757088 15.397963,10.593888 15.2127778,10.544928 L15.2127778,6.782688 L15.222037,6.782688 L23.5553704,12.811488 L23.6109259,12.849888 L23.5461111,12.869088 L21.0646296,13.444128 C20.9998148,13.262688 20.8331481,13.127328 20.6303704,13.127328 C20.5090741,13.127328 20.3887037,13.176288 20.3053704,13.272288 L20.3053704,13.272288 Z M15.2868519,15.038688 L20.2590741,13.885728 C20.2877778,13.934688 20.3331481,13.982688 20.3887037,14.011488 L18.185,19.175328 C18.0840741,19.157088 17.9905556,19.165728 17.897963,19.213728 L15.2868519,15.038688 Z M15.2127778,11.466528 C15.3424074,11.429088 15.4535185,11.342688 15.5090741,11.217888 L20.185,13.483488 C20.1757407,13.521888 20.1674074,13.560288 20.1674074,13.607328 L20.1674074,13.656288 L15.2127778,14.807328 L15.2127778,11.466528 Z M15.0924074,15.182688 L17.7312963,19.376928 C17.685,19.425888 17.6664815,19.483488 17.6572222,19.541088 L13.0738889,18.925728 C13.0738889,18.821088 13.0275926,18.724128 12.9535185,18.647328 C12.9442593,18.638688 12.9442593,18.638688 12.935,18.638688 L15.0924074,15.182688 Z M10.435,13.560288 L14.6942593,11.237088 C14.7498148,11.352288 14.8609259,11.438688 14.9812963,11.466528 L14.9812963,14.807328 L10.4812963,13.761888 C10.4812963,13.694688 10.4627778,13.617888 10.435,13.560288 L10.435,13.560288 Z M14.9072222,15.038688 L12.722037,18.523488 C12.6387037,18.493728 12.5553704,18.504288 12.472037,18.532128 L10.222037,14.193888 C10.3053704,14.155488 10.3701852,14.087328 10.4257407,14.001888 L14.9072222,15.038688 Z M15.2127778,3.969888 L26.1942593,12.244128 L24.4072222,12.666528 C24.3340741,12.523488 24.185,12.426528 24.0090741,12.426528 C23.9627778,12.426528 23.9164815,12.437088 23.8711111,12.456288 L23.8609259,12.456288 L15.5461111,6.426528 C15.5553704,6.398688 15.5553704,6.360288 15.5553704,6.321888 C15.5553704,6.101088 15.4164815,5.909088 15.2127778,5.861088 L15.2127778,3.969888 Z M15.0924074,3.000288 L2.99981481,12.101088 L7.62018519,26.837088 L22.5646296,26.837088 L27.185,12.101088 L15.0924074,3.000288 Z" id="chart-radial-radar-24px"></path>
                </g>
            </g>
        </g>
    </g>
</svg>