<?xml version="1.0" encoding="UTF-8" standalone="no"?>
<svg width="24px" height="24px" viewBox="0 0 24 24" version="1.1" xmlns="http://www.w3.org/2000/svg" xmlns:xlink="http://www.w3.org/1999/xlink">
    <!-- Generator: Sketch 41.2 (35397) - http://www.bohemiancoding.com/sketch -->
    <title>chart-radial-bar-24px</title>
    <desc>Created with Sketch.</desc>
    <defs></defs>
    <g id="Page-1" stroke="none" stroke-width="1" fill="none" fill-rule="evenodd">
        <g id="Style-Guide" transform="translate(-1804.000000, -1224.000000)" fill="#CCCCCC">
            <g id="Group-60" transform="translate(1721.000000, 981.000000)">
                <g id="chart-radial-bar" transform="translate(80.000000, 240.000000)">
                    <path d="M3,15.5070222 L4.94702222,15.5070222 C5.24035556,20.8403556 9.64035556,25.0544 15,25.0544 C20.5470222,25.0544 25.0803556,20.5473778 25.0803556,15.0014222 C25.0789333,9.64035556 20.6263111,5.24035556 15.5596444,4.94737778 L15.5596444,3 C21.9596444,3.29297778 27,8.54737778 27,15 C27,21.6140444 21.6136889,27 15,27 C8.57368889,27 3.29297778,21.9070222 3,15.5070222 Z M15,23.8807111 C19.8803556,23.8807111 23.8803556,19.9070222 23.8803556,15 C23.8789333,10.3070222 20.0929778,6.44035556 15.5596444,6.14737778 L15.5596444,8.0944 C19.0263111,8.36106667 21.5859556,10.9473778 21.9070222,14.3610667 C22.0929778,16.2014222 21.5333333,18.0140444 20.3333333,19.4277333 C19.1596444,20.8680889 17.4803556,21.7473778 15.6403556,21.9084444 C15.4263111,21.9347556 15.1873778,21.9347556 14.9736889,21.9347556 C11.5596444,21.9347556 8.73333333,19.5084444 8.14702222,16.2014222 L6.22631111,16.3877333 C6.91928889,20.7070222 10.5736889,23.8807111 15,23.8807111 Z M20.6263111,16.1210667 C20.7070222,15.7473778 20.7333333,15.4014222 20.7333333,15.0277333 C20.7333333,12.0403556 18.4929778,9.55964444 15.5596444,9.29297778 L15.5596444,11.2403556 C15.8263111,11.2666667 15.9070222,11.2929778 16.0929778,11.3473778 C17.9333333,11.8807111 19.0263111,13.6944 18.7596444,15.5333333 L20.6263111,16.1210667 Z" id="chart-radial-bar-24px"></path>
                </g>
            </g>
        </g>
    </g>
</svg>