<svg xmlns="http://www.w3.org/2000/svg" width="10" height="10" viewBox="0 0 10 10">
    <g fill="#C5C3FF" fill-rule="nonzero">
        <path d="M4.948 1.702L3.764 3.06a.16.16 0 0 1-.248 0l-.017-.02v-1C2.069 2.154.935 3.525.935 5.195c0 1.172.56 2.243 1.464 2.795.228.139.314.463.193.725-.12.261-.404.36-.631.221C.75 8.199 0 6.766 0 5.196 0 2.935 1.553 1.082 3.499.966V.078l.017-.02a.16.16 0 0 1 .248 0l1.184 1.358a.222.222 0 0 1 0 .285zM6.236 9.941L5.05 8.583a.222.222 0 0 1 0-.285L6.236 6.94a.16.16 0 0 1 .248 0l.016.02.001 1c1.43-.115 2.564-1.485 2.564-3.155 0-1.173-.561-2.244-1.465-2.795-.228-.14-.314-.464-.193-.726.122-.261.405-.36.633-.221C9.248 1.801 10 3.235 10 4.805c0 2.26-1.553 4.114-3.499 4.23v.886l-.017.02a.16.16 0 0 1-.248 0z"/>
    </g>
</svg>
