<?xml version="1.0" encoding="UTF-8"?>
<svg width="20px" height="23px" viewBox="0 0 20 23" version="1.1" xmlns="http://www.w3.org/2000/svg" xmlns:xlink="http://www.w3.org/1999/xlink">
    <!-- Generator: Sketch 48.2 (47327) - http://www.bohemiancoding.com/sketch -->
    <title>Shape</title>
    <desc>Created with Sketch.</desc>
    <defs>
        <filter x="-40.4%" y="-16.7%" width="180.8%" height="153.8%" filterUnits="objectBoundingBox" id="filter-1">
            <feOffset dx="0" dy="5" in="SourceAlpha" result="shadowOffsetOuter1"></feOffset>
            <feGaussianBlur stdDeviation="2" in="shadowOffsetOuter1" result="shadowBlurOuter1"></feGaussianBlur>
            <feColorMatrix values="0 0 0 0 0   0 0 0 0 0   0 0 0 0 0  0 0 0 0.182999321 0" type="matrix" in="shadowBlurOuter1" result="shadowMatrixOuter1"></feColorMatrix>
            <feMerge>
                <feMergeNode in="shadowMatrixOuter1"></feMergeNode>
                <feMergeNode in="SourceGraphic"></feMergeNode>
            </feMerge>
        </filter>
    </defs>
    <g id="vehicle-4" stroke="none" stroke-width="1" fill="none" fill-rule="evenodd" transform="translate(-7.000000, -9.000000)">
        <g id="Group-10" filter="url(#filter-1)" transform="translate(4.000000, 4.000000)" fill="#FFFFFF" fill-rule="nonzero">
            <g id="frontal-truck" transform="translate(7.000000, 5.000000)">
                <path d="M11.4274786,11.4429362 L11.4274786,9.28409535 C11.4274786,8.8202415 11.0483501,8.44418521 10.5806784,8.44418521 L10.3593087,8.44418521 L10.3593087,0.562695939 C10.3593087,0.492192533 10.3236285,0.426401555 10.2643536,0.387535466 L9.72684359,0.0351556915 C9.58608309,-0.0571026589 9.39843318,0.0429792362 9.39843318,0.210316165 L9.39843318,2.74157602 L9.23825266,2.31301962 C9.02283351,1.73663941 8.46853281,1.35410925 7.848753,1.35410925 L4.14797189,1.35410925 C3.52454794,1.35410925 2.96780245,1.74107733 2.75503567,2.32228435 L2.60154376,2.74157602 L2.60154376,0.210316165 C2.60154376,0.0430021121 2.41387078,-0.0571026589 2.27311028,0.0351556915 L1.73557722,0.38751259 C1.67627929,0.426378679 1.64059905,0.492169657 1.64059905,0.562673063 L1.64059905,8.44418521 L1.41925241,8.44418521 C0.951580663,8.44418521 0.57245218,8.82021863 0.57245218,9.28409535 L0.57245218,11.4429362 L0.21168276,11.4429362 C0.0947705886,11.4429362 0,11.5369331 0,11.6529137 L0,12.8137036 C0,12.9296613 0.0947705886,13.0236811 0.21168276,13.0236811 L1.12497694,13.0236811 L1.12497694,13.5800678 C1.12497694,13.8120062 1.31454118,14 1.54838858,14 L2.67034412,14 C2.90419152,14 3.09375577,13.8119833 3.09375577,13.5800678 L3.09375577,13.0236811 L8.90624423,13.0236811 L8.90624423,13.5800678 C8.90624423,13.8120062 9.09583154,14 9.32963282,14 L10.4516114,14 C10.6854588,14 10.875,13.8119833 10.875,13.5800678 L10.875,13.0236811 L11.7882942,13.0236811 C11.9052294,13.0236811 12,12.9296613 12,12.8137036 L12,11.6529366 C12,11.536956 11.9052294,11.4429591 11.7882942,11.4429591 L11.4274786,11.4429362 Z M2.88202688,3.91119595 L9.11792699,3.91119595 L9.11792699,5.98008889 L2.88202688,5.98008889 L2.88202688,3.91119595 Z M2.73702257,10.8553468 L2.01380005,10.8553468 C1.79282244,10.8553468 1.61368319,10.6776471 1.61368319,10.4584735 L1.61368319,10.4484538 C1.61368319,10.2292802 1.79282244,10.0516034 2.01380005,10.0516034 L2.73699951,10.0516034 C2.95797712,10.0516034 3.13711637,10.2292802 3.13711637,10.4484538 L3.13711637,10.4584735 C3.13713943,10.6776471 2.95800018,10.8553468 2.73702257,10.8553468 Z M7.43913371,10.9723568 L4.56082016,10.9723568 C4.32697275,10.9723568 4.13740851,10.7843172 4.13740851,10.5524246 L4.13740851,7.89161877 C4.13740851,7.65970328 4.32697275,7.47168658 4.56082016,7.47168658 L7.43913371,7.47168658 C7.67295805,7.47168658 7.8625223,7.65972616 7.8625223,7.89161877 L7.8625223,10.5524018 C7.86254536,10.7843172 7.67295805,10.9723568 7.43913371,10.9723568 Z M9.98613076,10.8553468 L9.2629313,10.8553468 C9.04197675,10.8553468 8.86281444,10.6776471 8.86281444,10.4584735 L8.86281444,10.4484538 C8.86281444,10.2292802 9.04197675,10.0516034 9.2629313,10.0516034 L9.98613076,10.0516034 C10.2071084,10.0516034 10.3862707,10.2292802 10.3862707,10.4484538 L10.3862707,10.4584735 C10.3862707,10.6776471 10.2071084,10.8553468 9.98613076,10.8553468 Z M7.37476167,9.00853272 L4.61841134,9.00853272 C4.50265238,9.00853272 4.40882742,8.91547371 4.40882742,8.80063689 L4.40882742,8.79642773 C4.40882742,8.68161378 4.50265238,8.58857765 4.61841134,8.58857765 L7.37476167,8.58857765 C7.49052063,8.58857765 7.58434559,8.68161378 7.58434559,8.79642773 L7.58434559,8.80063689 C7.58434559,8.91547371 7.49052063,9.00853272 7.37476167,9.00853272 Z M7.37476167,8.16862258 L4.61841134,8.16862258 C4.50265238,8.16862258 4.40882742,8.07556358 4.40882742,7.96074963 L4.40882742,7.95654047 C4.40882742,7.84174939 4.50265238,7.74869039 4.61841134,7.74869039 L7.37476167,7.74869039 C7.49052063,7.74869039 7.58434559,7.84174939 7.58434559,7.95654047 L7.58434559,7.96074963 C7.58434559,8.07556358 7.49052063,8.16862258 7.37476167,8.16862258 Z M7.37476167,10.6883301 L4.61841134,10.6883301 C4.50265238,10.6883301 4.40882742,10.5952711 4.40882742,10.4804572 L4.40882742,10.476248 C4.40882742,10.3614341 4.50265238,10.2683751 4.61841134,10.2683751 L7.37476167,10.2683751 C7.49052063,10.2683751 7.58434559,10.3614341 7.58434559,10.476248 L7.58434559,10.4804572 C7.58434559,10.5952711 7.49052063,10.6883301 7.37476167,10.6883301 Z M7.37476167,9.84841998 L4.61841134,9.84841998 C4.50265238,9.84841998 4.40882742,9.75536098 4.40882742,9.6405699 L4.40882742,9.63636075 C4.40882742,9.5215468 4.50265238,9.42848779 4.61841134,9.42848779 L7.37476167,9.42848779 C7.49052063,9.42848779 7.58434559,9.5215468 7.58434559,9.63636075 L7.58434559,9.6405699 C7.58434559,9.75536098 7.49052063,9.84841998 7.37476167,9.84841998 Z" id="Shape"></path>
            </g>
        </g>
    </g>
</svg>