<?xml version="1.0" encoding="UTF-8"?>
<svg width="16px" height="12px" viewBox="0 0 16 12" version="1.1" xmlns="http://www.w3.org/2000/svg" xmlns:xlink="http://www.w3.org/1999/xlink">
    <!-- Generator: Sketch 48.2 (47327) - http://www.bohemiancoding.com/sketch -->
    <title>sports-car</title>
    <desc>Created with Sketch.</desc>
    <defs></defs>
    <g id="vehicle-2" stroke="none" stroke-width="1" fill="none" fill-rule="evenodd" transform="translate(-9.000000, -10.000000)">
        <g id="Group" transform="translate(4.000000, 4.000000)" fill="#FFFFFF" fill-rule="nonzero">
            <g id="sports-car" transform="translate(5.000000, 6.000000)">
                <path d="M15.9080637,3.71310475 C15.8298162,3.61194975 15.7130596,3.55290649 15.5905675,3.55290649 L14.0334023,3.55290649 C13.6491294,2.47884012 13.1485096,1.42648083 12.5794745,1.02924125 C10.6109981,-0.343080416 5.38972191,-0.343080416 3.42124548,1.02924125 C2.85180069,1.42691497 2.35322924,2.48057668 1.96690806,3.55290649 L0.409742837,3.55290649 C0.286021738,3.55290649 0.169674744,3.61194975 0.0922466392,3.71310475 C0.0144088618,3.8138256 -0.0167262492,3.94710708 0.00867344658,4.07517886 L0.239319071,5.2595172 C0.278647633,5.46139305 0.446613363,5.60552807 0.640388462,5.60552807 L1.10167971,5.60552807 C0.65636569,6.14994166 0.440468275,6.83545128 0.437600568,7.52139504 C0.43473286,8.36883949 0.738300192,9.1346653 1.29340645,9.67647405 C1.29955154,9.68211789 1.30569662,9.68602516 1.31143204,9.691669 L1.31143204,11.3487876 C1.31143204,11.7078227 1.58673197,12 1.92594081,12 L3.36225264,12 C3.70146148,12 3.97676141,11.7078227 3.97676141,11.3487876 L3.97676141,10.6828143 L12.0231392,10.6828143 L12.0231392,11.3487876 C12.0231392,11.7078227 12.2984392,12 12.637648,12 L14.0739598,12 C14.4123493,12 14.6884686,11.7078227 14.6884686,11.3487876 L14.6884686,9.72422962 C15.2775777,9.15246511 15.5590227,8.36580049 15.5627097,7.5804383 C15.5651678,6.87105089 15.3394382,6.16036106 14.8679052,5.60465979 L15.3599219,5.60465979 C15.5545163,5.60465979 15.722482,5.46052477 15.7609912,5.25821477 L15.9920465,4.07431057 C16.0158075,3.94710708 15.9859015,3.81469388 15.9080637,3.71310475 Z M4.09597611,2.11676601 C5.66502183,1.02229498 10.3348788,1.02229498 11.9031052,2.11676601 C12.2079015,2.32862712 12.5999581,3.18518854 12.9592409,4.23407469 L3.04065972,4.23407469 C3.39912316,3.18562268 3.79117976,2.3294954 4.09597611,2.11676601 Z M2.25818522,7.68463229 C2.25818522,6.97698145 2.97495919,6.40391451 3.85818522,6.40391451 C4.74249562,6.40391451 5.45818522,6.97698145 5.45818522,7.68463229 C5.45818522,8.39228313 4.74249562,8.96578421 3.85818522,8.96578421 C2.97495919,8.96578421 2.25818522,8.39228313 2.25818522,7.68463229 Z M12.9398055,8.96578421 C12.0565795,8.96578421 11.3398055,8.39228313 11.3398055,7.68463229 C11.3398055,6.97698145 12.0565795,6.40391451 12.9398055,6.40391451 C13.8241159,6.40391451 14.5398055,6.97698145 14.5398055,7.68463229 C14.5398055,8.39228313 13.8230315,8.96578421 12.9398055,8.96578421 Z" id="Shape"></path>
            </g>
        </g>
    </g>
</svg>