<?xml version="1.0" encoding="UTF-8"?>
<svg width="12px" height="13px" viewBox="0 0 12 13" version="1.1" xmlns="http://www.w3.org/2000/svg" xmlns:xlink="http://www.w3.org/1999/xlink">
    <!-- Generator: Sketch 48.2 (47327) - http://www.bohemiancoding.com/sketch -->
    <title>Shape</title>
    <desc>Created with Sketch.</desc>
    <defs></defs>
    <g id="vehicle-3" stroke="none" stroke-width="1" fill="none" fill-rule="evenodd" transform="translate(-11.000000, -10.000000)">
        <g id="icon-(2)" transform="translate(11.000000, 10.000000)" fill="#FFFFFF" fill-rule="nonzero">
            <path d="M11.3917035,3.17876362 C11.2846457,2.14104916 11.1141034,1.33307959 10.8442946,1.01549948 C9.73187429,-0.29029837 1.93944928,-0.385858511 1.05470721,1.01549948 C0.838283019,1.35882933 0.686497522,2.16393782 0.584633871,3.18048027 C0.255957672,3.21881877 0,3.49319654 0,3.82908757 L0,5.10026633 C0,5.38294124 0.180642055,5.62126938 0.432848374,5.71425454 C0.373115299,7.71643977 0.421594317,9.80531578 0.511049647,10.8441747 C0.511049647,11.646136 1.05441864,11.5130957 1.05441864,11.5130957 L1.56373689,11.5130957 L1.56373689,12.3788591 C1.56373689,12.7221889 1.92069252,13 2.36046647,13 C2.80081755,13 3.15777317,12.7221889 3.15777317,12.3788591 L3.15777317,11.5130957 L9.08317885,11.5130957 L9.08317885,12.3788591 C9.08317885,12.7221889 9.43984592,13 9.880197,13 C10.3199709,13 10.6769266,12.7221889 10.6769266,12.3788591 L10.6769266,11.5130957 L10.8442946,11.5130957 C10.8442946,11.5130957 11.4837559,11.6000725 11.5247323,11.2224097 C11.5247323,10.1864119 11.5905252,7.89039355 11.5362749,5.7231239 C11.8043523,5.63986641 11.9999998,5.39495778 11.9999998,5.10026633 L11.9999998,3.82908757 C12.0002883,3.48518551 11.7319223,3.20623001 11.3917035,3.17876362 Z M2.95779723,1.20175592 L8.94120459,1.20175592 L8.94120459,2.09927736 L2.95779723,2.09927736 L2.95779723,1.20175592 Z M3.04321264,10.490831 C2.57342787,10.490831 2.19280986,10.1131682 2.19280986,9.64738405 C2.19280986,9.181886 2.57342787,8.80450927 3.04321264,8.80450927 C3.51299741,8.80450927 3.89390398,9.181886 3.89390398,9.64738405 C3.89390398,10.1131682 3.51328597,10.490831 3.04321264,10.490831 Z M8.90917381,10.490831 C8.4396776,10.490831 8.0581939,10.1131682 8.0581939,9.64738405 C8.0581939,9.181886 8.43938904,8.80450927 8.90917381,8.80450927 C9.37895858,8.80450927 9.75957658,9.181886 9.75957658,9.64738405 C9.75986515,10.1131682 9.37895858,10.490831 8.90917381,10.490831 Z M9.99042905,6.80003518 L1.90857277,6.80003518 L1.90857277,2.59710564 L9.99042905,2.59710564 L9.99042905,6.80003518 Z" id="Shape"></path>
        </g>
    </g>
</svg>