<?xml version="1.0" encoding="UTF-8"?>
<svg width="33px" height="50px" viewBox="0 0 33 50" version="1.1" xmlns="http://www.w3.org/2000/svg" xmlns:xlink="http://www.w3.org/1999/xlink">
    <!-- Generator: Sketch 48.2 (47327) - http://www.bohemiancoding.com/sketch -->
    <title>Vehicle Point</title>
    <desc>Created with Sketch.</desc>
    <defs></defs>
    <g id="Symbols" stroke="none" stroke-width="1" fill="none" fill-rule="evenodd">
        <g id="Vehicle-Point">
            <g id="Group-10" opacity="0.75" transform="translate(0.000000, 0.758476)">
                <path d="M16.3638732,22.9441394 L16.3638732,47.6532127" id="Line-4" stroke="#967D00" stroke-width="2" stroke-linecap="square"></path>
                <polygon id="Polygon" fill="#967D00" points="16.3638732 0.359608807 32.6530939 9.60016768 32.6530939 28.0812854 16.3638732 37.3218443 0.0746525175 28.0812854 0.0746525175 9.60016768"></polygon>
            </g>
            <g id="Group" transform="translate(3.000000, 9.720137)" fill="#FFFFFF" fill-rule="nonzero">
                <g id="front-car" transform="translate(4.769920, 8.512524)">
                    <path d="M12.6073359,0.838702267 C12.4487219,0.345158241 11.9730045,0.0161288898 11.497256,0.0161288898 L2.77519972,0.0161288898 C2.22015978,0.0161288898 1.82370267,0.345158241 1.66511983,0.838702267 L0,5.77414253 L0,12.3547296 C0,12.8482736 0.317165682,13.1773029 0.792914206,13.1773029 L1.58582841,13.1773029 C2.06157694,13.1773029 2.37874262,12.8482736 2.37874262,12.3547296 L2.37874262,11.5321562 L11.8937131,11.5321562 L11.8937131,12.3547296 C11.8937131,12.8482736 12.2108788,13.1773029 12.6866273,13.1773029 L13.4795415,13.1773029 C13.95529,13.1773029 14.2724557,12.8482736 14.2724557,12.3547296 L14.2724557,5.77414253 L12.6073359,0.838702267 Z M2.77519972,9.06443604 C2.14086836,9.06443604 1.58582841,8.48863468 1.58582841,7.83057598 C1.58582841,7.17251727 2.14086836,6.59671591 2.77519972,6.59671591 C3.40953109,6.59671591 3.96457103,7.17251727 3.96457103,7.83057598 C3.96457103,8.48863468 3.40953109,9.06443604 2.77519972,9.06443604 Z M11.497256,9.06443604 C10.8629246,9.06443604 10.3078847,8.48863468 10.3078847,7.83057598 C10.3078847,7.17251727 10.8629246,6.59671591 11.497256,6.59671591 C12.1315874,6.59671591 12.6866273,7.17251727 12.6866273,7.83057598 C12.6866273,8.48863468 12.1315874,9.06443604 11.497256,9.06443604 Z M1.58582841,4.95156916 L2.77519972,1.24998896 L11.497256,1.24998896 L12.6866273,4.95156916 L1.58582841,4.95156916 Z" id="Shape"></path>
                </g>
                <g id="front-car" transform="translate(12.716513, 0.078239)">
                    <path d="M11.7873021,0.78414957 C11.6390051,0.322707708 11.1942303,0.0150797994 10.7494265,0.0150797994 L2.59468914,0.0150797994 C2.07575132,0.0150797994 1.70508144,0.322707708 1.55681349,0.78414957 L0,5.39856819 L0,11.5511264 C0,12.0125682 0.296535902,12.3201961 0.741339756,12.3201961 L1.48267951,12.3201961 C1.92748336,12.3201961 2.22401927,12.0125682 2.22401927,11.5511264 L2.22401927,10.7820566 L11.1200963,10.7820566 L11.1200963,11.5511264 C11.1200963,12.0125682 11.4166322,12.3201961 11.8614361,12.3201961 L12.6027758,12.3201961 C13.0475797,12.3201961 13.3441156,12.0125682 13.3441156,11.5511264 L13.3441156,5.39856819 L11.7873021,0.78414957 Z M2.59468914,8.47484728 C2.00161734,8.47484728 1.48267951,7.93649844 1.48267951,7.32124262 C1.48267951,6.7059868 2.00161734,6.16763797 2.59468914,6.16763797 C3.18776095,6.16763797 3.70669878,6.7059868 3.70669878,7.32124262 C3.70669878,7.93649844 3.18776095,8.47484728 2.59468914,8.47484728 Z M10.7494265,8.47484728 C10.1563547,8.47484728 9.63741682,7.93649844 9.63741682,7.32124262 C9.63741682,6.7059868 10.1563547,6.16763797 10.7494265,6.16763797 C11.3424983,6.16763797 11.8614361,6.7059868 11.8614361,7.32124262 C11.8614361,7.93649844 11.3424983,8.47484728 10.7494265,8.47484728 Z M1.48267951,4.62949842 L2.59468914,1.16868446 L10.7494265,1.16868446 L11.8614361,4.62949842 L1.48267951,4.62949842 Z" id="Shape"></path>
                </g>
                <g id="front-car" transform="translate(0.000000, 3.686365)">
                    <path d="M8.32631089,0.553907336 C8.22155689,0.227954173 7.90737701,0.0106520641 7.5931766,0.0106520641 L1.83283573,0.0106520641 C1.46626859,0.0106520641 1.20443491,0.227954173 1.09970144,0.553907336 L0,3.81343896 L0,8.15948114 C0,8.4854343 0.209466941,8.70273641 0.523667352,8.70273641 L1.0473347,8.70273641 C1.36153511,8.70273641 1.57100206,8.4854343 1.57100206,8.15948114 L1.57100206,7.61622586 L7.85501028,7.61622586 L7.85501028,8.15948114 C7.85501028,8.4854343 8.06447722,8.70273641 8.37867763,8.70273641 L8.90234498,8.70273641 C9.21654539,8.70273641 9.42601233,8.4854343 9.42601233,8.15948114 L9.42601233,3.81343896 L8.32631089,0.553907336 Z M1.83283573,5.98646005 C1.41390185,5.98646005 1.0473347,5.60618136 1.0473347,5.17157714 C1.0473347,4.73697293 1.41390185,4.35669424 1.83283573,4.35669424 C2.25176961,4.35669424 2.61833676,4.73697293 2.61833676,5.17157714 C2.61833676,5.60618136 2.25176961,5.98646005 1.83283573,5.98646005 Z M7.5931766,5.98646005 C7.17424272,5.98646005 6.80767557,5.60618136 6.80767557,5.17157714 C6.80767557,4.73697293 7.17424272,4.35669424 7.5931766,4.35669424 C8.01211048,4.35669424 8.37867763,4.73697293 8.37867763,5.17157714 C8.37867763,5.60618136 8.01211048,5.98646005 7.5931766,5.98646005 Z M1.0473347,3.27018369 L1.83283573,0.825534971 L7.5931766,0.825534971 L8.37867763,3.27018369 L1.0473347,3.27018369 Z" id="Shape"></path>
                </g>
            </g>
        </g>
    </g>
</svg>