<?xml version="1.0" encoding="UTF-8"?>
<svg width="18px" height="23px" viewBox="0 0 18 23" version="1.1" xmlns="http://www.w3.org/2000/svg" xmlns:xlink="http://www.w3.org/1999/xlink">
    <!-- Generator: Sketch 48.2 (47327) - http://www.bohemiancoding.com/sketch -->
    <title>scooter-front-view</title>
    <desc>Created with Sketch.</desc>
    <defs>
        <filter x="-40.4%" y="-16.7%" width="180.8%" height="153.8%" filterUnits="objectBoundingBox" id="filter-1">
            <feOffset dx="0" dy="5" in="SourceAlpha" result="shadowOffsetOuter1"></feOffset>
            <feGaussianBlur stdDeviation="2" in="shadowOffsetOuter1" result="shadowBlurOuter1"></feGaussianBlur>
            <feColorMatrix values="0 0 0 0 0   0 0 0 0 0   0 0 0 0 0  0 0 0 0.182999321 0" type="matrix" in="shadowBlurOuter1" result="shadowMatrixOuter1"></feColorMatrix>
            <feMerge>
                <feMergeNode in="shadowMatrixOuter1"></feMergeNode>
                <feMergeNode in="SourceGraphic"></feMergeNode>
            </feMerge>
        </filter>
    </defs>
    <g id="vehicle-1" stroke="none" stroke-width="1" fill="none" fill-rule="evenodd" transform="translate(-8.000000, -10.000000)">
        <g id="Group-10" filter="url(#filter-1)" transform="translate(4.000000, 4.000000)" fill="#FFFFFF" fill-rule="nonzero">
            <g id="scooter-front-view" transform="translate(8.000000, 6.000000)">
                <path d="M5.04340485,9.05789972 C4.36790046,9.05789972 3.81521506,9.61058512 3.81521506,10.2860895 L3.81521506,12.7731738 C3.81521506,13.4486782 4.36790046,14.0013636 5.04340485,14.0013636 C5.71890923,14.0013636 6.27159464,13.4486782 6.27159464,12.7731738 L6.27159464,10.2860895 C6.27159464,9.61058512 5.71893332,9.05789972 5.04340485,9.05789972 Z" id="Shape"></path>
                <path d="M9.49559284,1.53523724 L7.13132749,1.53523724 C6.85498479,0.644799641 6.02598076,0 5.04340485,0 C4.06082893,0 3.2318249,0.644799641 2.9554822,1.53523724 L0.621921596,1.53523724 C0.284169403,1.53523724 0.00782669966,1.81157994 0.00782669966,2.14933214 C0.00782669966,2.48708433 0.284169403,2.76342703 0.621921596,2.76342703 L2.98618695,2.76342703 C3.13971067,3.28540769 3.47746286,3.71527412 3.93803403,3.99161682 C2.27997782,4.48289274 1.05178802,6.01812998 1.05178802,7.82970993 L1.05178802,11.0537081 C1.05178802,11.6063935 1.5123592,12.0669647 2.0650446,12.0669647 L2.89407271,12.0669647 L2.89407271,10.3167943 C2.89407271,9.11928512 3.87662455,8.13675737 5.07410959,8.13675737 C6.27159464,8.13675737 7.25414647,9.11930921 7.25414647,10.3167943 L7.25414647,12.0669647 L8.08317458,12.0669647 C8.63585999,12.0669647 9.09643116,11.6063935 9.09643116,11.0537081 L9.09643116,7.86041467 C9.09643116,6.04881064 7.86824137,4.48289274 6.21016107,4.02232157 C6.67073224,3.74597887 7.00848443,3.31611244 7.16200816,2.79413178 L9.52627351,2.79413178 C9.8640257,2.79413178 10.1403684,2.51778907 10.1403684,2.18003688 C10.1096877,1.81157994 9.83334504,1.53523724 9.49559284,1.53523724 Z M5.04340485,3.40822667 C4.36790046,3.40822667 3.81521506,2.85554127 3.81521506,2.18003688 C3.81521506,1.5045325 4.36790046,0.951847089 5.04340485,0.951847089 C5.71890923,0.951847089 6.27159464,1.5045325 6.27159464,2.18003688 C6.30229938,2.85554127 5.74961398,3.40822667 5.04340485,3.40822667 Z" id="Shape"></path>
            </g>
        </g>
    </g>
</svg>