<?xml version="1.0" encoding="UTF-8"?>
<svg width="19px" height="16px" viewBox="0 0 19 16" version="1.1" xmlns="http://www.w3.org/2000/svg" xmlns:xlink="http://www.w3.org/1999/xlink">
    <!-- Generator: Sketch 48.2 (47327) - http://www.bohemiancoding.com/sketch -->
    <title>Shape</title>
    <desc>Created with Sketch.</desc>
    <defs></defs>
    <g id="pop-up-icon-panel-crowd-es" stroke="none" stroke-width="1" fill="none" fill-rule="evenodd" transform="translate(-69.000000, -133.000000)">
        <g id="Group-5" fill="#FFFFFF" fill-rule="nonzero">
            <g id="multiple-users-silhouette" transform="translate(69.000000, 133.000000)">
                <path d="M11.4656808,2.74619252 C12.3441907,3.29737666 12.9602147,4.23009506 13.0723699,5.31276971 C13.4306502,5.48028413 13.8282915,5.57661679 14.2498814,5.57661679 C15.7889929,5.57661679 17.0364533,4.32832589 17.0364533,2.78842703 C17.0364533,1.2482909 15.7889929,0 14.2498814,0 C12.7254711,0.000474545104 11.488918,1.22646182 11.4656808,2.74619252 Z M9.64013478,8.45544466 C11.1792462,8.45544466 12.4267066,7.20691649 12.4267066,5.66701763 C12.4267066,4.12711877 11.1790091,2.87882787 9.64013478,2.87882787 C8.10126045,2.87882787 6.85308873,4.12735604 6.85308873,5.6672549 C6.85308873,7.20715377 8.10126045,8.45544466 9.64013478,8.45544466 Z M10.8221515,8.64549998 L8.45764383,8.64549998 C6.49030326,8.64549998 4.88977911,10.247327 4.88977911,12.2159773 L4.88977911,15.1095161 L4.89712966,15.1548352 L5.096306,15.2172379 C6.97378011,15.8042501 8.60489205,16 9.94743542,16 C12.5696868,16 14.0895919,15.2518796 14.1832522,15.2041879 L14.3693872,15.1099907 L14.3893049,15.1099907 L14.3893049,12.2159773 C14.3900162,10.247327 12.7894921,8.64549998 10.8221515,8.64549998 Z M15.4323724,5.76690938 L13.0861226,5.76690938 C13.0607513,6.70627141 12.6600275,7.55214806 12.0262199,8.16051488 C13.7749407,8.68085359 15.0544116,10.3035606 15.0544116,12.2202482 L15.0544116,13.1119185 C17.3710221,13.0269749 18.7059778,12.3699672 18.7939473,12.3258345 L18.9800824,12.2314001 L19,12.2314001 L19,9.33691219 C19,7.3684991 17.3994759,5.76690938 15.4323724,5.76690938 Z M4.75059279,5.57709134 C5.29571946,5.57709134 5.80290777,5.41788145 6.23255959,5.14667893 C6.36913765,4.25524595 6.84668663,3.47628016 7.52886559,2.94573873 C7.53171097,2.89353877 7.53669038,2.84181336 7.53669038,2.78913885 C7.53669038,1.24900271 6.28899289,0.000711817656 4.75059279,0.000711817656 C3.21124423,0.000711817656 1.96402097,1.24900271 1.96402097,2.78913885 C1.96402097,4.32856317 3.21124423,5.57709134 4.75059279,5.57709134 Z M7.25310121,8.16051488 C6.62237614,7.5552326 6.223075,6.71386413 6.1939099,5.78019664 C6.10688881,5.77379028 6.02081617,5.76690938 5.93213528,5.76690938 L3.56786472,5.76690938 C1.60052415,5.76690938 0,7.3684991 0,9.33691219 L0,12.2309255 L0.00735055535,12.2755328 L0.206526894,12.33841 C1.7126794,12.8089214 3.05688257,13.0257886 4.22443529,13.0941231 L4.22443529,12.2202482 C4.22490952,10.3035606 5.50390615,8.68132813 7.25310121,8.16051488 Z" id="Shape"></path>
            </g>
        </g>
    </g>
</svg>