<?xml version="1.0" encoding="UTF-8"?>
<svg width="75px" height="75px" viewBox="0 0 75 75" version="1.1" xmlns="http://www.w3.org/2000/svg" xmlns:xlink="http://www.w3.org/1999/xlink">
    <!-- Generator: Sketch 54.1 (76490) - https://sketchapp.com -->
    <title>Icon / Analytic / Medium / Water Level Monitoring</title>
    <desc>Created with Sketch.</desc>
    <defs>
        <linearGradient x1="-10.7006642%" y1="37.6825241%" x2="100%" y2="57.6585751%" id="linearGradient-1">
            <stop stop-color="#DD9FFF" offset="0%"></stop>
            <stop stop-color="#8760FF" offset="100%"></stop>
        </linearGradient>
        <linearGradient x1="-10.7006642%" y1="49.2823349%" x2="100%" y2="50.446219%" id="linearGradient-2">
            <stop stop-color="#DD9FFF" offset="0%"></stop>
            <stop stop-color="#8760FF" offset="100%"></stop>
        </linearGradient>
        <linearGradient x1="-10.7006642%" y1="48.5353774%" x2="100%" y2="50.910651%" id="linearGradient-3">
            <stop stop-color="#DD9FFF" offset="0%"></stop>
            <stop stop-color="#8760FF" offset="100%"></stop>
        </linearGradient>
        <linearGradient x1="-10.7006642%" y1="37.893979%" x2="100%" y2="57.5270999%" id="linearGradient-4">
            <stop stop-color="#DD9FFF" offset="0%"></stop>
            <stop stop-color="#8760FF" offset="100%"></stop>
        </linearGradient>
        <linearGradient x1="-10.7006642%" y1="49.2433737%" x2="100%" y2="50.4704437%" id="linearGradient-5">
            <stop stop-color="#DD9FFF" offset="0%"></stop>
            <stop stop-color="#8760FF" offset="100%"></stop>
        </linearGradient>
        <linearGradient x1="-10.7006642%" y1="48.5170124%" x2="100%" y2="50.9220697%" id="linearGradient-6">
            <stop stop-color="#DD9FFF" offset="0%"></stop>
            <stop stop-color="#8760FF" offset="100%"></stop>
        </linearGradient>
    </defs>
    <g id="Icon-/-Analytic-/-Medium-/-Water-Level-Monitoring" stroke="none" stroke-width="1" fill="none" fill-rule="evenodd">
        <g id="fr-ico-step">
            <rect id="Rectangle" fill="#D8D8D8" opacity="0" x="0" y="0" width="75" height="75"></rect>
            <g id="fr" opacity="0.204427083" transform="translate(2.000000, 2.000000)" stroke="#9795F0" stroke-linecap="square">
                <g id="Group">
                    <polyline id="Line" points="20.7083333 3.55271368e-15 -1.49213975e-13 3.55271368e-15 -1.49213975e-13 21.6944444"></polyline>
                    <polyline id="Line" transform="translate(60.645833, 10.847222) scale(-1, 1) translate(-60.645833, -10.847222) " points="71 3.55271368e-15 50.2916667 3.55271368e-15 50.2916667 21.6944444"></polyline>
                    <polyline id="Line" transform="translate(10.354167, 60.152778) scale(-1, 1) rotate(-180.000000) translate(-10.354167, -60.152778) " points="20.7083333 49.3055556 -1.49213975e-13 49.3055556 -1.49213975e-13 71"></polyline>
                    <polyline id="Line" transform="translate(60.645833, 60.152778) rotate(180.000000) translate(-60.645833, -60.152778) " points="71 49.3055556 50.2916667 49.3055556 50.2916667 71"></polyline>
                </g>
            </g>
            <g id="fr" transform="translate(7.000000, 8.000000)" stroke="#9795F0" stroke-linecap="square">
                <polyline id="Line" points="18 0 0 0 0 18.2142857"></polyline>
                <polyline id="Line" transform="translate(51.000000, 9.107143) scale(-1, 1) translate(-51.000000, -9.107143) " points="60 0 42 0 42 18.2142857"></polyline>
                <polyline id="Line" transform="translate(9.000000, 50.892857) scale(-1, 1) rotate(-180.000000) translate(-9.000000, -50.892857) " points="18 41.7857143 0 41.7857143 0 60"></polyline>
                <polyline id="Line" transform="translate(51.000000, 50.892857) rotate(180.000000) translate(-51.000000, -50.892857) " points="60 41.7857143 42 41.7857143 42 60"></polyline>
            </g>
        </g>
        <g id="flood" opacity="0.2" transform="translate(16.000000, 12.000000)">
            <path d="M1.83751736,21.7461312 L5.6802974,21.7461312 L5.6802974,25.5757142 C6.25655614,25.3934007 7.02525284,25.3934007 7.60151149,25.3934007 C9.52307745,25.3934007 11.4442915,26.3053016 12.789247,27.7641427 C13.7500299,29.0406704 15.671244,29.4052971 17.0161995,28.4933962 C17.2082857,28.3110829 17.5924581,28.1287695 17.7845444,27.7641427 C20.0902827,25.028774 24.3172352,24.6641472 27.1992323,26.8522418 C27.5834048,27.2168687 27.9675772,27.3995159 28.1600152,27.7641427 C29.1204464,29.0406704 31.0420123,29.4052971 32.3869677,28.4933962 C32.579054,28.3110829 32.9632264,28.1287695 33.1553126,27.7641427 C34.5002681,26.3053016 36.4214821,25.3934007 38.3430481,25.3934007 C38.9193067,25.3934007 39.6880035,25.3934007 40.2642622,25.5757142 L40.2642622,21.7461312 L44.1070422,21.7461312 C45.8361701,21.7461312 46.6045151,19.74035 45.4519976,18.6461356 L24.3172352,0.410455518 C23.5485385,-0.136818506 22.3960211,-0.136818506 21.8194106,0.410455518 L0.684999974,18.6461356 C-0.659955466,19.74035 0.108389454,21.7461312 1.83751736,21.7461312 Z M24.8934939,12.6284581 L28.7362739,12.6284581 L28.7362739,16.2753938 L24.8934939,16.2753938 L24.8934939,12.6284581 Z M24.8934939,18.0991955 L28.7362739,18.0991955 L28.7362739,21.7461312 L24.8934939,21.7461312 L24.8934939,18.0991955 Z M17.2082857,12.6284581 L21.0510657,12.6284581 L21.0510657,16.2753938 L17.2082857,16.2753938 L17.2082857,12.6284581 Z M17.2082857,18.0991955 L21.0510657,18.0991955 L21.0510657,21.7461312 L17.2082857,21.7461312 L17.2082857,18.0991955 Z" id="Shape" fill="url(#linearGradient-1)" fill-rule="nonzero"></path>
            <path d="M38.3334503,39 C37.1833802,39 36.8001403,39.3499199 35.8416901,40.2250401 C33.5415497,42.8500801 29.3248597,43.2 26.4498597,41.1001602 C26.0666198,40.7499199 25.6833802,40.57496 25.4917603,40.2250401 C24.5333099,39 22.6167603,38.6500801 21.2750702,39.5248799 C21.0834503,39.7001602 20.6998597,39.8751202 20.5082397,40.2250401 C19.1665497,41.62504 17.4416198,42.5001602 15.3334503,42.5001602 C13.4165497,42.5001602 11.5,41.62504 10.1583099,40.2250401 C9.19985966,39 7.28330991,38.6500801 5.94161983,39.5248799 C5.75,39.7001602 5.36676025,39.8751202 5.17514034,40.2250401 C3.83345034,41.62504 1.91654966,42.5001602 0,42.5001602 L0,46 L46,46 L46,42.5001602 C44.0834503,42.5001602 42.1665497,41.62504 40.8248597,40.2250401 C39.8667603,39.3499199 39.4831696,39 38.3334503,39 Z" id="Path" fill="url(#linearGradient-2)"></path>
            <path d="M38.3334503,27 C34.5,27 34.5,31.0000732 30.6665497,31.0000732 C26.8334503,31.0000732 26.8334503,27 23,27 C19.1665497,27 19.1665497,31.0000732 15.3334503,31.0000732 C11.5,31.0000732 11.5,27 7.66654966,27 C3.83345034,27 3.83345034,31.0000732 0,31.0000732 L0,37 C1.15007017,37 1.53330991,36.6001025 2.49176025,35.5999926 C3.83345034,34.0000366 5.75,32.9999268 7.66654966,32.9999268 C9.58345034,32.9999268 11.5,34.0000366 12.8416901,35.5999926 C13.8001403,37 15.7166901,37.3998975 17.0583802,36.4001538 C17.25,36.2002051 17.6332397,35.9998902 17.8248597,35.5999926 C20.125,32.6000292 24.3416901,32.2001319 27.2166901,34.5998828 C27.5999298,35.0001465 27.9831696,35.2000953 28.1751403,35.5999926 C29.1332397,37 31.0501403,37.3998975 32.3918304,36.4001538 C32.5834503,36.2002051 32.9666901,35.9998902 33.1583099,35.5999926 C35.4584503,32.6000292 39.6751403,32.2001319 42.5501403,34.5998828 C42.9333802,35.0001465 43.3166198,35.2000953 43.5082397,35.5999926 C44.4666901,36.6001025 44.8499298,37 46,37 L46,31.0000732 C42.1665497,31.0000732 42.1665497,27 38.3334503,27 Z" id="Path" fill="url(#linearGradient-3)"></path>
        </g>
        <g id="flood" transform="translate(22.000000, 21.000000)">
            <path d="M1.27827294,14.9973319 L3.95151124,14.9973319 L3.95151124,17.6384236 C4.35238688,17.5126902 4.88713241,17.5126902 5.28800799,17.5126902 C6.62474953,17.5126902 7.96124628,18.1415873 8.89686746,19.1476846 C9.56523817,20.0280485 10.901735,20.2795153 11.8373562,19.6506181 C11.9709813,19.5248848 12.2382317,19.3991514 12.371857,19.1476846 C13.9758489,17.2612234 16.9163376,17.0097567 18.9212051,18.5187874 C19.1884555,18.7702542 19.4557059,18.8962179 19.5895758,19.1476846 C20.2577018,20.0280485 21.5944433,20.2795153 22.5300645,19.6506181 C22.6636897,19.5248848 22.9309401,19.3991514 23.0645653,19.1476846 C24.0001865,18.1415873 25.3366832,17.5126902 26.6734248,17.5126902 C27.0743003,17.5126902 27.6090459,17.5126902 28.0099215,17.6384236 L28.0099215,14.9973319 L30.6831598,14.9973319 C31.8860314,14.9973319 32.4205322,13.6140345 31.6187809,12.8594039 L16.9163376,0.283072771 C16.381592,-0.0943575902 15.5798407,-0.0943575902 15.1787204,0.283072771 L0.476521721,12.8594039 C-0.459099455,13.6140345 0.0754013596,14.9973319 1.27827294,14.9973319 Z M17.3172131,8.70928142 L19.9904514,8.70928142 L19.9904514,11.2244095 L17.3172131,11.2244095 L17.3172131,8.70928142 Z M17.3172131,12.4822038 L19.9904514,12.4822038 L19.9904514,14.9973319 L17.3172131,14.9973319 L17.3172131,12.4822038 Z M11.9709813,8.70928142 L14.6442196,8.70928142 L14.6442196,11.2244095 L11.9709813,11.2244095 L11.9709813,8.70928142 Z M11.9709813,12.4822038 L14.6442196,12.4822038 L14.6442196,14.9973319 L11.9709813,14.9973319 L11.9709813,12.4822038 Z" id="Shape" fill="url(#linearGradient-4)" fill-rule="nonzero"></path>
            <path d="M26.6667481,27 C25.8666992,27 25.6000976,27.2499428 24.9333496,27.8750286 C23.3332519,29.7500572 20.3999024,30 18.3999024,28.5001145 C18.1333008,28.2499428 17.8666992,28.1249714 17.7333984,27.8750286 C17.0666504,27 15.7333984,26.7500572 14.8000488,27.3749142 C14.6667481,27.5001144 14.3999024,27.6250858 14.2666016,27.8750286 C13.3332519,28.8750286 12.1333008,29.5001144 10.6667481,29.5001144 C9.33325194,29.5001144 8,28.8750286 7.06665038,27.8750286 C6.39990237,27 5.06665038,26.7500572 4.13330075,27.3749142 C4,27.5001144 3.73339844,27.6250858 3.60009763,27.8750286 C2.66674806,28.8750286 1.33325194,29.5001144 0,29.5001144 L0,32 L32,32 L32,29.5001144 C30.6667481,29.5001144 29.3332519,28.8750286 28.3999024,27.8750286 C27.7333984,27.2499428 27.4665528,27 26.6667481,27 Z" id="Path" fill="url(#linearGradient-5)"></path>
            <path d="M26.6667481,19 C24,19 24,21.8000512 21.3332519,21.8000512 C18.6667481,21.8000512 18.6667481,19 16,19 C13.3332519,19 13.3332519,21.8000512 10.6667481,21.8000512 C8,21.8000512 8,19 5.33325194,19 C2.66674806,19 2.66674806,21.8000512 0,21.8000512 L0,26 C0.800048813,26 1.06665038,25.7200718 1.73339844,25.0199948 C2.66674806,23.9000256 4,23.1999488 5.33325194,23.1999488 C6.66674806,23.1999488 8,23.9000256 8.93334962,25.0199948 C9.60009763,26 10.9333496,26.2799282 11.8666992,25.5801077 C12,25.4401435 12.2666016,25.2999231 12.3999024,25.0199948 C14,22.9200205 16.9333496,22.6400923 18.9333496,24.319918 C19.1999512,24.6001025 19.4665528,24.7400667 19.6000976,25.0199948 C20.2666016,26 21.6000976,26.2799282 22.5334472,25.5801077 C22.6667481,25.4401435 22.9333496,25.2999231 23.0666504,25.0199948 C24.6667481,22.9200205 27.6000976,22.6400923 29.6000976,24.319918 C29.8666992,24.6001025 30.1333008,24.7400667 30.2666016,25.0199948 C30.9333496,25.7200718 31.1999512,26 32,26 L32,21.8000512 C29.3332519,21.8000512 29.3332519,19 26.6667481,19 Z" id="Path" fill="url(#linearGradient-6)"></path>
        </g>
    </g>
</svg>