<?xml version="1.0" encoding="UTF-8"?>
<svg width="34px" height="34px" viewBox="0 0 34 34" version="1.1" xmlns="http://www.w3.org/2000/svg" xmlns:xlink="http://www.w3.org/1999/xlink">
    <!-- Generator: Sketch 54.1 (76490) - https://sketchapp.com -->
    <title>Icon / Analytic / Circle / Vehicle Intrusion</title>
    <desc>Created with Sketch.</desc>
    <defs>
        <filter x="-20.0%" y="-20.0%" width="140.0%" height="140.0%" filterUnits="objectBoundingBox" id="filter-1">
            <feGaussianBlur stdDeviation="2" in="SourceGraphic"></feGaussianBlur>
        </filter>
    </defs>
    <g id="Icon-/-Analytic-/-Circle-/-Vehicle-Intrusion" stroke="none" stroke-width="1" fill="none" fill-rule="evenodd">
        <g id="Icon/Analytic/Esti" transform="translate(2.000000, 2.000000)">
            <circle id="Oval-3" stroke="#7A55FF" fill="#03031D" cx="15" cy="15" r="15"></circle>
            <circle id="Oval-3" stroke="#7A55FF" stroke-width="2" fill="#03031D" filter="url(#filter-1)" cx="15" cy="15" r="14"></circle>
            <circle id="Oval-3" stroke="#6655FF" cx="15" cy="15" r="15"></circle>
        </g>
        <g id="main" transform="translate(9.000000, 9.000000)" fill-rule="nonzero">
            <g id="car" transform="translate(2.000000, 6.000000)" fill="#D3D2F8">
                <path d="M2.82713755,3.17073171 C2.22758179,3.17073171 1.73977695,3.58102766 1.73977695,4.08536585 C1.73977695,4.58968261 2.22755631,5 2.82713755,5 C3.4266933,5 3.91449814,4.58970404 3.91449814,4.08536585 C3.91449814,3.5810491 3.42671879,3.17073171 2.82713755,3.17073171 Z M2.82713755,4.63414205 C2.46744487,4.63414205 2.17472629,4.38792161 2.17472629,4.08536585 C2.17472629,3.7828101 2.46744487,3.53658965 2.82713755,3.53658965 C3.18683022,3.53658965 3.47954881,3.7828101 3.47954881,4.08536585 C3.47954881,4.38792161 3.18683022,4.63414205 2.82713755,4.63414205 Z" id="Shape"></path>
                <path d="M12.7834167,3.17670711 L12.7834167,2.08512153 C12.7834167,2.00689834 12.7238245,1.93720316 12.6352107,1.91247192 L11.4127719,1.57026411 C10.952361,0.915504643 10.3194706,0.292384103 8.9208706,0.0866244862 C8.91828074,0.0862620457 8.91566549,0.0858996052 8.91307563,0.0855371646 C6.33017379,-0.214286428 4.39100423,0.274922998 3.14601842,1.54007494 C2.21933136,1.55135324 1.2733473,1.71400376 0.716959277,2.01310247 C0.428799386,2.16809909 0.257843307,2.43790408 0.241796338,2.72499962 L0.216659472,3.17672843 C0.0970689278,3.17672843 0,3.2582349 0,3.35865225 L0,4.08636886 C0,4.18678621 0.0970689278,4.26829268 0.216659472,4.26829268 L1.08332275,4.26829268 C1.20357345,4.26829268 1.2997791,4.18533644 1.29998222,4.08436478 C1.29998222,4.08344802 1.30021074,4.08255257 1.30021074,4.08144393 C1.30346076,3.38046264 1.98098816,2.81283814 2.8166747,2.81283814 C3.65431632,2.81283814 4.33334178,3.38299972 4.33334178,4.08634754 C4.31775185,4.1967853 4.42152394,4.26827136 4.55000125,4.26827136 L8.45002409,4.26827136 C8.5702748,4.26827136 8.66648044,4.18531512 8.66668356,4.08434346 C8.66668356,4.0834267 8.66688669,4.08253125 8.66688669,4.08142261 C8.67013671,3.38044132 9.34766411,2.81281682 10.1833506,2.81281682 C11.0209923,2.81281682 11.7000177,3.3829784 11.7000177,4.08632622 C11.6844278,4.19676398 11.7881999,4.26825004 11.9166772,4.26825004 L12.7833405,4.26825004 C12.902931,4.26825004 13,4.18674357 13,4.08632622 L13,3.35860961 C13.0000761,3.25821358 12.9030072,3.17670711 12.7834167,3.17670711 Z M6.9333824,1.44837749 C6.9333824,1.49858616 6.88486063,1.53935006 6.82503997,1.53935006 L3.9994785,1.53935006 C3.89938807,1.53935006 3.8538878,1.43601187 3.92774956,1.37942851 C4.67959576,0.803979562 5.63573613,0.474862247 6.81399498,0.38736484 C6.87747191,0.382631794 6.9333824,0.425570336 6.9333824,0.479062293 L6.9333824,1.44837749 Z M9.53641913,1.44927293 C9.53575897,1.49911917 9.48744032,1.53932874 9.42807669,1.53932874 L7.47504377,1.53932874 C7.4152485,1.53932874 7.36670134,1.49858616 7.36670134,1.44835617 L7.36670134,0.455013298 C7.36670134,0.404612745 7.41458834,0.363145285 7.47438361,0.363145285 C7.90640763,0.362782845 8.3635939,0.389155723 8.84957331,0.445568524 C9.08098482,0.479765854 9.28723407,0.526712562 9.47487189,0.584383245 C9.51798542,0.597665624 9.54550902,0.632779715 9.54507738,0.67134765 L9.53641913,1.44927293 Z M10.6672226,1.53932874 L10.0781059,1.53932874 C10.017879,1.53932874 9.96912869,1.49803184 9.96976346,1.44746073 L9.97540021,0.954435019 C9.9762635,0.879303231 10.078309,0.838539332 10.1504696,0.882927636 C10.3846995,1.02664596 10.5794721,1.19784581 10.753018,1.39215657 C10.8071766,1.45272678 10.7573345,1.53932874 10.6672226,1.53932874 Z" id="Shape"></path>
                <path d="M10.1728625,3.17073171 C9.5733067,3.17073171 9.08550186,3.58102766 9.08550186,4.08536585 C9.08550186,4.58968261 9.57328121,5 10.1728625,5 C10.7724182,5 11.260223,4.58970404 11.260223,4.08536585 C11.2601976,3.5810491 10.7724182,3.17073171 10.1728625,3.17073171 Z M10.1728625,4.63414205 C9.81316978,4.63414205 9.52045119,4.38792161 9.52045119,4.08536585 C9.52045119,3.7828101 9.81316978,3.53658965 10.1728625,3.53658965 C10.5325551,3.53658965 10.8252737,3.7828101 10.8252737,4.08536585 C10.8252737,4.38792161 10.5325551,4.63414205 10.1728625,4.63414205 Z" id="Shape"></path>
            </g>
            <path d="M8,0 C3.6,0 0,3.6 0,8 C0,12.4 3.6,16 8,16 C12.4,16 16,12.4 16,8 C16,3.6 12.4,0 8,0 Z M1.6,8 C1.6,4.48 4.48,1.6 8,1.6 C9.44,1.6 10.8,2.08 11.92,2.96 L2.96,11.92 C2.08,10.8 1.6,9.44 1.6,8 Z M8,14.4 C6.56,14.4 5.2,13.92 4.08,13.04 L13.04,4.08 C13.92,5.2 14.4,6.56 14.4,8 C14.4,11.52 11.52,14.4 8,14.4 Z" id="Shape" fill="#8481FE"></path>
        </g>
    </g>
</svg>