<svg xmlns="http://www.w3.org/2000/svg" width="38" height="38" viewBox="0 0 38 38">
    <defs>
        <filter id="a" width="140%" height="140%" x="-20%" y="-20%" filterUnits="objectBoundingBox">
            <feGaussianBlur in="SourceGraphic" stdDeviation="2"/>
        </filter>
    </defs>
    <g fill="none" fill-rule="evenodd" transform="translate(4 4)">
        <circle cx="15" cy="15" r="15" fill="#03031D" stroke="#A4FF53"/>
        <circle cx="15" cy="15" r="14" fill="#03031D" stroke="#AAD37E" stroke-width="2" filter="url(#a)"/>
        <circle cx="15" cy="15" r="15" stroke="#A4FF53"/>
        <g fill="#E6FFD2" fill-rule="nonzero">
            <path d="M10.152 12.411c.58 0 1.076-.214 1.486-.644.41-.43.616-.95.616-1.557 0-.608-.205-1.127-.616-1.557a1.98 1.98 0 0 0-1.486-.645 1.98 1.98 0 0 0-1.486.645c-.41.43-.615.95-.615 1.557 0 .608.205 1.127.615 1.557.41.43.906.644 1.486.644zM12.652 15.847c.616.645 1.358.968 2.229.968.87 0 1.613-.323 2.229-.968.615-.645.923-1.423.923-2.335 0-.911-.308-1.69-.923-2.335-.616-.645-1.359-.967-2.23-.967-.87 0-1.612.322-2.228.967-.616.645-.924 1.424-.924 2.335 0 .912.308 1.69.924 2.335zM19.61 12.411a1.98 1.98 0 0 0 1.485-.644c.41-.43.616-.95.616-1.557 0-.608-.205-1.127-.616-1.557a1.98 1.98 0 0 0-1.486-.645 1.98 1.98 0 0 0-1.486.645c-.41.43-.615.95-.615 1.557 0 .608.205 1.127.615 1.557.41.43.906.644 1.486.644zM21.744 12.412c-.033 0-.152.06-.357.18-.206.12-.472.243-.8.366a2.767 2.767 0 0 1-.978.185c-.366 0-.73-.066-1.091-.198.027.212.04.401.04.567 0 .797-.221 1.531-.665 2.202.887.029 1.612.396 2.176 1.101h1.1c.449 0 .826-.116 1.133-.348.306-.233.46-.572.46-1.02 0-2.024-.34-3.036-1.018-3.035z"/>
            <path d="M20.517 19.365a7.572 7.572 0 0 0-.218-.933 4.542 4.542 0 0 0-.353-.839 3.02 3.02 0 0 0-.509-.697 2.134 2.134 0 0 0-.702-.46 2.366 2.366 0 0 0-.915-.172c-.055 0-.173.062-.353.185l-.6.413c-.218.152-.51.29-.878.413a3.46 3.46 0 0 1-1.108.185c-.372 0-.742-.062-1.108-.185a3.529 3.529 0 0 1-.879-.413c-.219-.152-.418-.29-.599-.413-.18-.123-.298-.185-.353-.185-.334 0-.639.058-.915.172a2.13 2.13 0 0 0-.702.46 3.013 3.013 0 0 0-.51.697 4.533 4.533 0 0 0-.352.839c-.088.286-.16.597-.218.933a9.14 9.14 0 0 0-.115.937c-.019.29-.028.586-.028.89 0 .688.2 1.232.599 1.63.4.398.93.598 1.592.598h7.175c.662 0 1.193-.2 1.593-.598.4-.398.6-.942.6-1.63 0-.304-.01-.6-.03-.89a9.295 9.295 0 0 0-.114-.937zM11.868 15.714a3.911 3.911 0 0 1-.665-2.202c0-.166.014-.355.041-.567a3.164 3.164 0 0 1-1.092.198c-.323 0-.648-.062-.977-.185a5.271 5.271 0 0 1-.8-.366c-.205-.12-.324-.18-.357-.18-.679 0-1.018 1.012-1.018 3.035 0 .448.153.787.46 1.02.306.232.684.348 1.132.348h1.1c.564-.705 1.29-1.072 2.176-1.101z"/>
        </g>
    </g>
</svg>
