<svg xmlns="http://www.w3.org/2000/svg" width="75" height="75" viewBox="0 0 75 75">
    <defs>
        <linearGradient id="a" x1="-10.701%" y1="19.009%" y2="69.269%">
            <stop offset="0%" stop-color="#DD9FFF"/>
            <stop offset="100%" stop-color="#8760FF"/>
        </linearGradient>
    </defs>
    <g fill="none" fill-rule="evenodd">
        <g stroke="#9795F0" stroke-linecap="square" opacity=".204">
            <path d="M22.708 2H2v21.694M52.292 2H73v21.694M22.708 73H2V51.306M52.292 73H73V51.306"/>
        </g>
        <g stroke="#9795F0" stroke-linecap="square">
            <path d="M25 8H7v18.214M49 8h18v18.214M25 68H7V49.786M49 68h18V49.786"/>
        </g>
        <g fill="url(#a)" transform="translate(13 17)">
            <path d="M25.688 32.733c7.656 0 13.862-7.173 13.862-16.02 0-12.269-6.206-16.02-13.862-16.02s-13.862 3.751-13.862 16.02c0 8.847 6.206 16.02 13.862 16.02z" opacity=".2"/>
            <path d="M48.264 41.329c-.322-.836-.888-1.53-1.591-1.952L35.75 32.824a.628.628 0 0 0-.749.073c-3.088 2.693-6.72 4.116-10.502 4.116-3.782 0-7.414-1.423-10.503-4.116a.629.629 0 0 0-.75-.073l-10.92 6.553c-.704.422-1.268 1.115-1.59 1.952h47.527z" opacity=".2"/>
            <path d="M25.303 31.528c6.433 0 11.648-6.082 11.648-13.585 0-10.404-5.215-13.585-11.648-13.585S13.656 7.54 13.656 17.943c0 7.503 5.214 13.585 11.647 13.585z"/>
            <path d="M44.18 38.32a3.113 3.113 0 0 0-1.317-1.542l-9.045-5.177a.54.54 0 0 0-.62.057c-2.558 2.128-5.566 3.253-8.698 3.253-3.132 0-6.14-1.125-8.698-3.253a.54.54 0 0 0-.62-.057l-9.045 5.177a3.112 3.112 0 0 0-1.317 1.543h39.36z"/>
        </g>
    </g>
</svg>
