<?xml version="1.0" encoding="UTF-8"?>
<svg width="75px" height="75px" viewBox="0 0 75 75" version="1.1" xmlns="http://www.w3.org/2000/svg" xmlns:xlink="http://www.w3.org/1999/xlink">
    <!-- Generator: Sketch 55 (78076) - https://sketchapp.com -->
    <title>Icon / Analytic / Medium / Speed Anomaly</title>
    <desc>Created with Sketch.</desc>
    <defs>
        <linearGradient x1="-10.7006642%" y1="43.4434992%" x2="100%" y2="54.0766026%" id="linearGradient-1">
            <stop stop-color="#DD9FFF" offset="0%"></stop>
            <stop stop-color="#8760FF" offset="100%"></stop>
        </linearGradient>
        <linearGradient x1="-10.7006642%" y1="28.2153193%" x2="100%" y2="63.5449515%" id="linearGradient-2">
            <stop stop-color="#DD9FFF" offset="0%"></stop>
            <stop stop-color="#8760FF" offset="100%"></stop>
        </linearGradient>
        <linearGradient x1="-10.7006642%" y1="28.1580643%" x2="100%" y2="63.5805507%" id="linearGradient-3">
            <stop stop-color="#DD9FFF" offset="0%"></stop>
            <stop stop-color="#8760FF" offset="100%"></stop>
        </linearGradient>
        <linearGradient x1="-10.7006642%" y1="19.0085863%" x2="100%" y2="69.2693757%" id="linearGradient-4">
            <stop stop-color="#DD9FFF" offset="0%"></stop>
            <stop stop-color="#8760FF" offset="100%"></stop>
        </linearGradient>
        <linearGradient x1="-10.7006642%" y1="43.4434992%" x2="100%" y2="54.0766026%" id="linearGradient-5">
            <stop stop-color="#DD9FFF" offset="0%"></stop>
            <stop stop-color="#8760FF" offset="100%"></stop>
        </linearGradient>
        <linearGradient x1="-10.7006642%" y1="28.2153193%" x2="100%" y2="63.5449515%" id="linearGradient-6">
            <stop stop-color="#DD9FFF" offset="0%"></stop>
            <stop stop-color="#8760FF" offset="100%"></stop>
        </linearGradient>
        <linearGradient x1="-10.7006642%" y1="28.1580643%" x2="100%" y2="63.5805507%" id="linearGradient-7">
            <stop stop-color="#DD9FFF" offset="0%"></stop>
            <stop stop-color="#8760FF" offset="100%"></stop>
        </linearGradient>
    </defs>
    <g id="Icon-/-Analytic-/-Medium-/-Speed-Anomaly" stroke="none" stroke-width="1" fill="none" fill-rule="evenodd">
        <g id="fr-ico-step">
            <rect id="Rectangle" fill="#D8D8D8" opacity="0" x="0" y="0" width="75" height="75"></rect>
            <g id="fr" opacity="0.204427083" transform="translate(2.000000, 2.000000)" stroke="#9795F0" stroke-linecap="square">
                <g id="Group">
                    <polyline id="Line" points="20.7083333 3.55271368e-15 -1.49213975e-13 3.55271368e-15 -1.49213975e-13 21.6944444"></polyline>
                    <polyline id="Line" transform="translate(60.645833, 10.847222) scale(-1, 1) translate(-60.645833, -10.847222) " points="71 3.55271368e-15 50.2916667 3.55271368e-15 50.2916667 21.6944444"></polyline>
                    <polyline id="Line" transform="translate(10.354167, 60.152778) scale(-1, 1) rotate(-180.000000) translate(-10.354167, -60.152778) " points="20.7083333 49.3055556 -1.49213975e-13 49.3055556 -1.49213975e-13 71"></polyline>
                    <polyline id="Line" transform="translate(60.645833, 60.152778) rotate(180.000000) translate(-60.645833, -60.152778) " points="71 49.3055556 50.2916667 49.3055556 50.2916667 71"></polyline>
                </g>
            </g>
            <g id="fr" transform="translate(7.000000, 8.000000)" stroke="#9795F0" stroke-linecap="square">
                <polyline id="Line" points="18 0 0 0 0 18.2142857"></polyline>
                <polyline id="Line" transform="translate(51.000000, 9.107143) scale(-1, 1) translate(-51.000000, -9.107143) " points="60 0 42 0 42 18.2142857"></polyline>
                <polyline id="Line" transform="translate(9.000000, 50.892857) scale(-1, 1) rotate(-180.000000) translate(-9.000000, -50.892857) " points="18 41.7857143 0 41.7857143 0 60"></polyline>
                <polyline id="Line" transform="translate(51.000000, 50.892857) rotate(180.000000) translate(-51.000000, -50.892857) " points="60 41.7857143 42 41.7857143 42 60"></polyline>
            </g>
        </g>
        <g id="speedometer" opacity="0.3" transform="translate(14.000000, 14.000000)" fill-rule="nonzero">
            <path d="M24,48 C29.8505859,48 35.2104492,45.7862549 39.369873,42.2841797 C36.0823974,37.1726074 30.3636474,33.84375 24,33.84375 C17.5828857,33.84375 11.8666992,37.1099854 8.59240725,42.2497558 C12.7573242,45.7719727 18.1311036,48 24,48 Z M19.78125,36.65625 L28.21875,36.65625 L28.21875,39.46875 L19.78125,39.46875 L19.78125,36.65625 Z" id="Shape" fill="url(#linearGradient-1)"></path>
            <path d="M8.60192869,25.40625 C8.90332031,28.7838135 10.2949219,31.9108886 12.5998536,34.4223633 C15.9107666,32.2965088 19.8065185,31.03125 24,31.03125 C28.1645508,31.03125 32.0899658,32.2741699 35.4078369,34.4143067 C37.7087402,31.9039307 39.0970459,28.7801513 39.3980713,25.40625 L36.65625,25.40625 L36.65625,22.59375 L39.3973388,22.59375 C39.1065674,19.3835449 37.8354492,16.4534912 35.8798828,14.1086426 L33.9440917,16.0444336 L31.9555664,14.0559082 L33.8913574,12.1201172 C31.5465088,10.1645508 28.6164551,8.89343259 25.40625,8.60266116 L25.40625,11.34375 L22.59375,11.34375 L22.59375,8.60266116 C19.3835449,8.89343259 16.4534912,10.1645508 14.1086426,12.1201172 L16.0444336,14.0559082 L14.0559082,16.0444336 L12.1201172,14.1086426 C10.1645508,16.4534912 8.89343259,19.3835449 8.60266116,22.59375 L11.34375,22.59375 L11.34375,25.40625 L8.60192869,25.40625 Z M26.1932373,20.3964844 C27.4621583,21.1695557 28.21875,22.5168457 28.21875,24 C28.21875,26.3261719 26.3261719,28.21875 24,28.21875 C22.5168458,28.21875 21.1695557,27.4621582 20.3964844,26.1932373 L15.5419922,15.5419922 L26.1932373,20.3964844 Z" id="Shape" fill="url(#linearGradient-2)"></path>
            <path d="M24,0 C10.8178711,0 0,10.8178711 0,24 C0,30.2984619 2.56018069,36.0186768 6.55517578,40.2930908 C7.61828616,38.7176513 8.88464353,37.3128662 10.3135987,36.0930176 C7.34619141,32.7517089 5.71875,28.5186768 5.71875,24 C5.71875,13.920044 13.920044,5.71875 24,5.71875 C34.079956,5.71875 42.28125,13.920044 42.28125,24 C42.28125,28.5216065 40.6516114,32.7568359 37.680542,36.0992432 C39.1116943,37.319458 40.3758545,38.7304687 41.4418945,40.2963867 C45.4387208,36.0216065 48,30.2999268 48,24 C48,10.8178711 37.1821289,0 24,0 Z" id="Path" fill="url(#linearGradient-3)"></path>
            <path d="M24,25.40625 C24.776001,25.40625 25.40625,24.776001 25.40625,24 C25.40625,23.5290527 25.177002,23.0991211 24.7880859,22.8354492 L21.2080078,21.2080078 L22.876831,24.8789062 C23.0566406,25.1535645 23.5056152,25.40625 24,25.40625 Z" id="Path" fill="url(#linearGradient-4)"></path>
        </g>
        <g id="speedometer" transform="translate(21.000000, 21.000000)" fill-rule="nonzero">
            <path d="M17,34 C21.144165,34 24.9407349,32.4319306 27.8869934,29.9512939 C25.5583649,26.3305969 21.5075836,23.9726562 17,23.9726562 C12.4545441,23.9726562 8.40557861,26.2862396 6.08628847,29.9269104 C9.03643799,32.421814 12.842865,34 17,34 Z M14.0117187,25.9648438 L19.9882812,25.9648438 L19.9882812,27.9570313 L14.0117187,27.9570313 L14.0117187,25.9648438 Z" id="Shape" fill="url(#linearGradient-5)"></path>
            <path d="M6.09303282,17.9960937 C6.30651855,20.3885346 7.29223633,22.6035461 8.92489627,24.3825073 C11.2701264,22.8766937 14.0296173,21.9804687 17,21.9804687 C19.9498901,21.9804687 22.7303925,22.8608703 25.0805512,24.3768006 C26.7103576,22.5986176 27.6937408,20.3859405 27.9069672,17.9960937 L25.9648437,17.9960937 L25.9648437,16.0039062 L27.9064483,16.0039062 C27.7004852,13.730011 26.8001099,11.6545563 25.414917,9.99362186 L24.0437317,11.3648071 L22.6351929,9.95626834 L24.0063781,8.58508301 C22.3454437,7.19989014 20.269989,6.29951475 17.9960937,6.09355165 L17.9960937,8.03515625 L16.0039062,8.03515625 L16.0039062,6.09355165 C13.730011,6.29951475 11.6545563,7.19989014 9.99362186,8.58508301 L11.3648071,9.95626834 L9.95626834,11.3648071 L8.58508301,9.99362186 C7.19989014,11.6545563 6.29951475,13.730011 6.09355165,16.0039062 L8.03515625,16.0039062 L8.03515625,17.9960937 L6.09303282,17.9960937 Z M18.5535431,14.4475098 C19.4523621,14.9951019 19.9882812,15.9494324 19.9882812,17 C19.9882812,18.6477051 18.6477051,19.9882812 17,19.9882812 C15.9494324,19.9882812 14.9951019,19.4523621 14.4475098,18.5535431 L11.0089111,11.0089111 L18.5535431,14.4475098 Z" id="Shape" fill="url(#linearGradient-6)"></path>
            <path d="M17,0 C7.66265869,0 0,7.66265869 0,17 C0,21.4614105 1.81346132,25.5132294 4.64324951,28.5409393 C5.39628603,27.425003 6.29328917,26.4299469 7.30546571,25.5658875 C5.20355225,23.1991272 4.05078125,20.2007294 4.05078125,17 C4.05078125,9.86003114 9.86003114,4.05078125 17,4.05078125 C24.1399689,4.05078125 29.9492188,9.86003114 29.9492188,17 C29.9492188,20.2028046 28.7948914,23.2027588 26.6903839,25.5702973 C27.7041168,26.4346161 28.5995636,27.434082 29.3546753,28.5432739 C32.1857605,25.5153046 34,21.4624481 34,17 C34,7.66265869 26.3373413,0 17,0 Z" id="Path" fill="url(#linearGradient-7)"></path>
            <path d="M17,17.9960937 C17.5496674,17.9960937 17.9960937,17.5496674 17.9960937,17 C17.9960937,16.6664123 17.8337097,16.3618774 17.5582275,16.1751099 L15.0223389,15.0223389 L16.204422,17.6225586 C16.3317871,17.8171082 16.6498108,17.9960937 17,17.9960937 Z" id="Path" fill="url(#linearGradient-4)"></path>
        </g>
    </g>
</svg>