<?xml version="1.0" encoding="UTF-8" standalone="no"?>
<svg
   xmlns:dc="http://purl.org/dc/elements/1.1/"
   xmlns:cc="http://creativecommons.org/ns#"
   xmlns:rdf="http://www.w3.org/1999/02/22-rdf-syntax-ns#"
   xmlns:svg="http://www.w3.org/2000/svg"
   xmlns="http://www.w3.org/2000/svg"
   xmlns:sodipodi="http://sodipodi.sourceforge.net/DTD/sodipodi-0.dtd"
   xmlns:inkscape="http://www.inkscape.org/namespaces/inkscape"
   width="34px"
   height="34px"
   viewBox="0 0 34 34"
   version="1.1"
   id="svg2"
   inkscape:version="0.91 r13725"
   sodipodi:docname="ico-lpr.svg">
  <metadata
     id="metadata25">
    <rdf:RDF>
      <cc:Work
         rdf:about="">
        <dc:format>image/svg+xml</dc:format>
        <dc:type
           rdf:resource="http://purl.org/dc/dcmitype/StillImage" />
      </cc:Work>
    </rdf:RDF>
  </metadata>
  <sodipodi:namedview
     pagecolor="#ffffff"
     bordercolor="#666666"
     borderopacity="1"
     objecttolerance="10"
     gridtolerance="10"
     guidetolerance="10"
     inkscape:pageopacity="0"
     inkscape:pageshadow="2"
     inkscape:window-width="1280"
     inkscape:window-height="480"
     id="namedview23"
     showgrid="false"
     inkscape:zoom="9.8163059"
     inkscape:cx="-3.3380644"
     inkscape:cy="21.039381"
     inkscape:window-x="0"
     inkscape:window-y="24"
     inkscape:window-maximized="0"
     inkscape:current-layer="svg2" />
  <!-- Generator: Sketch 52.5 (67469) - http://www.bohemiancoding.com/sketch -->
  <title
     id="title4">Icon/Analytic/LPR</title>
  <desc
     id="desc6">Created with Sketch.</desc>
  <defs
     id="defs8">
    <filter
       x="-20.0%"
       y="-20.0%"
       width="140.0%"
       height="140.0%"
       filterUnits="objectBoundingBox"
       id="filter-1">
      <feGaussianBlur
         stdDeviation="2"
         in="SourceGraphic"
         id="feGaussianBlur11" />
    </filter>
  </defs>
  <g
     id="Icon/Analytic/LPR"
     transform="matrix(0.93017122,0,0,0.93017122,1.1150554,1.2591232)"
     style="fill:none;fill-rule:evenodd;stroke:none;stroke-width:1">
    <g
       transform="translate(2,2)"
       id="g14">
      <circle
         id="Oval-3"
         cx="15"
         cy="15"
         r="15"
         style="fill:#03031d" />
      <circle
         id="circle17"
         cx="15"
         cy="15"
         r="14"
         style="fill:#03031d;stroke:#45ffb2;stroke-width:2;filter:url(#filter-1)" />
      <circle
         id="circle19"
         cx="15"
         cy="15"
         r="15"
         style="stroke:#45ffb2" />
      <g
         id="icon"
         transform="translate(5,10)"
         style="fill:#b6ffde">
        <path
           d="m 2.2,0 15.52364,0 c 1.215027,0 2.2,0.98497355 2.2,2.2 l 0,5.5955236 c 0,1.2150264 -0.984973,2.2 -2.2,2.2 l -15.52364,0 c -1.21502645,0 -2.2,-0.9849736 -2.2,-2.2 L 0,2.2 C 0,0.98497355 0.98497355,0 2.2,0 Z M 2.0594702,3.0850748 c 0.3667841,0 0.6641213,-0.2876738 0.6641213,-0.6425374 C 2.7235915,2.0876738 2.4262543,1.8 2.0594702,1.8 1.6926861,1.8 1.3953488,2.0876738 1.3953488,2.4425374 c 0,0.3548636 0.2973373,0.6425374 0.6641214,0.6425374 z m 0,5.05 c 0.3667841,0 0.6641213,-0.2876738 0.6641213,-0.6425374 C 2.7235915,7.1376738 2.4262543,6.85 2.0594702,6.85 c -0.3667841,0 -0.6641214,0.2876738 -0.6641214,0.6425374 0,0.3548636 0.2973373,0.6425374 0.6641214,0.6425374 z m 15.8139538,-5.05 c 0.366784,0 0.664121,-0.2876738 0.664121,-0.6425374 C 18.537545,2.0876738 18.240208,1.8 17.873424,1.8 c -0.366784,0 -0.664122,0.2876738 -0.664122,0.6425374 0,0.3548636 0.297338,0.6425374 0.664122,0.6425374 z m 0,5.05 c 0.366784,0 0.664121,-0.2876738 0.664121,-0.6425374 C 18.537545,7.1376738 18.240208,6.85 17.873424,6.85 c -0.366784,0 -0.664122,0.2876738 -0.664122,0.6425374 0,0.3548636 0.297338,0.6425374 0.664122,0.6425374 z M 4.08976,6.8152 c 0,0.0528 0.02904,0.0968 0.08712,0.132 C 4.2349603,6.9824002 4.2956797,7 4.35904,7 4.44704,7 4.5015999,6.96656 4.52272,6.89968 l 0.23232,-0.78672 1.38864,0 L 6.376,6.89968 C 6.3971201,6.9665603 6.4499196,7 6.5344,7 6.60128,7 6.6637597,6.98064 6.72184,6.94192 6.77992,6.9032 6.80896,6.8592 6.80896,6.80992 6.80896,6.8064 6.80808,6.80112 6.80632,6.79408 6.80456,6.78704 6.80368,6.78 6.80368,6.77296 L 5.72656,3.26176 C 5.6948798,3.1596795 5.6033608,3.10864 5.452,3.10864 c -0.1513608,0 -0.2428798,0.05104 -0.27456,0.15312 L 4.10032,6.77296 C 4.09328,6.7940801 4.08976,6.80816 4.08976,6.8152 Z M 4.85536,5.74864 5.452,3.76336 l 0.58608,1.98528 -1.18272,0 z m 2.6120915,1.09824 c 0,0.04224 0.01848,0.07832 0.05544,0.10824 C 7.5598517,6.9850401 7.6082512,7 7.6680915,7 l 1.0296,0 c 0.3168016,0 0.5702391,-0.087999 0.76032,-0.264 0.190081,-0.1760009 0.28512,-0.4540781 0.28512,-0.83424 l 0,-0.09504 c 0,-0.2534413 -0.04576,-0.4487993 -0.13728,-0.58608 -0.09152,-0.1372807 -0.2270391,-0.2411197 -0.40656,-0.31152 0.1408007,-0.05984 0.2507996,-0.1645593 0.33,-0.31416 0.0792,-0.1496008 0.1188,-0.3335189 0.1188,-0.55176 0,-0.3414417 -0.095919,-0.5772793 -0.28776,-0.70752 C 9.1684905,3.2054393 8.9071332,3.14032 8.5762515,3.14032 l -0.90816,0 c -0.0528,0 -0.09944,0.01408 -0.13992,0.04224 -0.04048,0.02816 -0.06072,0.06688 -0.06072,0.11616 l 0,3.54816 z m 0.44352,-0.24816 0,-1.5048 0.7128,0 c 0.2217611,0 0.3898394,0.054559 0.50424,0.16368 0.1144006,0.1091205 0.1716,0.2851188 0.1716,0.528 l 0,0.08976 c 0,0.4822424 -0.2252778,0.72336 -0.67584,0.72336 l -0.7128,0 z m 0,-1.8744 0,-1.18272 0.64416,0 c 0.4329622,0 0.64944,0.1883181 0.64944,0.56496 0,0.2147211 -0.051039,0.3713595 -0.15312,0.46992 -0.1020805,0.09856 -0.2622389,0.14784 -0.48048,0.14784 l -0.66,0 z M 11.450834,3.964 c 0,0.04928 0.01584,0.0924 0.04752,0.12936 0.03168,0.03696 0.0704,0.05544 0.11616,0.05544 0.03872,0 0.07568,-0.01936 0.11088,-0.05808 l 0.195359,-0.2904 0,3.04128 c 0,0.04928 0.022,0.088 0.066,0.11616 0.044,0.02816 0.09592,0.04224 0.15576,0.04224 0.05984,0 0.111759,-0.01408 0.15576,-0.04224 0.044,-0.02816 0.066,-0.06688 0.066,-0.11616 l 0,-3.54816 c 0,-0.04928 -0.02024,-0.088 -0.06072,-0.11616 -0.04048,-0.02816 -0.08536,-0.04224 -0.13464,-0.04224 -0.04576,0 -0.09152,0.02288 -0.137281,0.06864 L 11.545875,3.7792 c -0.06336,0.04928 -0.09504,0.1108796 -0.09504,0.1848 z m 1.619452,2.8776 c 0,0.04576 0.022,0.0836 0.066,0.11352 C 13.180286,6.98504 13.225166,7 13.270926,7 l 1.87968,0 c 0.04224,0 0.07832,-0.02024 0.10824,-0.06072 0.02992,-0.04048 0.04488,-0.08712 0.04488,-0.13992 0,-0.05632 -0.01496,-0.1038398 -0.04488,-0.14256 -0.02992,-0.03872 -0.066,-0.05808 -0.10824,-0.05808 l -1.62096,0 0,-0.26928 c 0,-0.1020805 0.04312,-0.2059195 0.12936,-0.31152 0.08624,-0.1056005 0.192719,-0.2023996 0.31944,-0.2904 l 0.4224,-0.30096 c 0.151361,-0.1126406 0.291279,-0.2252794 0.41976,-0.33792 0.128481,-0.1126406 0.23584,-0.2499192 0.32208,-0.41184 0.08624,-0.1619208 0.12936,-0.3308791 0.12936,-0.50688 0,-0.2956815 -0.103839,-0.541199 -0.31152,-0.73656 -0.207681,-0.195361 -0.466399,-0.29304 -0.77616,-0.29304 -0.288641,0 -0.532399,0.084479 -0.73128,0.25344 -0.198881,0.1689608 -0.29832,0.3854387 -0.29832,0.64944 0,0.1724809 0.06688,0.25872 0.20064,0.25872 0.0704,0 0.12672,-0.0176 0.16896,-0.0528 0.04224,-0.0352 0.06336,-0.07568 0.06336,-0.12144 0,-0.1865609 0.05544,-0.3291195 0.16632,-0.42768 0.11088,-0.098561 0.254319,-0.14784 0.43032,-0.14784 0.207681,0 0.366959,0.063359 0.47784,0.19008 0.110881,0.1267206 0.16632,0.2745592 0.16632,0.44352 0,0.1584008 -0.06072,0.3141592 -0.18216,0.46728 -0.121441,0.1531208 -0.268399,0.2912794 -0.44088,0.41448 l -0.51216,0.38016 c -0.172481,0.1232006 -0.319439,0.2613592 -0.44088,0.41448 -0.121441,0.1531208 -0.18216,0.3088792 -0.18216,0.46728 l 0,0.51216 z"
           id="Combined-Shape"
           inkscape:connector-curvature="0" />
      </g>
    </g>
  </g>
</svg>
