<?xml version="1.0" encoding="UTF-8"?>
<svg width="75px" height="75px" viewBox="0 0 75 75" version="1.1" xmlns="http://www.w3.org/2000/svg" xmlns:xlink="http://www.w3.org/1999/xlink">
    <!-- Generator: Sketch 54.1 (76490) - https://sketchapp.com -->
    <title>Icon / Analytic / Medium / Vehicle Flow</title>
    <desc>Created with Sketch.</desc>
    <defs>
        <linearGradient x1="19.1589118%" y1="19.0085863%" x2="75.4042428%" y2="69.2693757%" id="linearGradient-1">
            <stop stop-color="#DD9FFF" offset="0%"></stop>
            <stop stop-color="#8760FF" offset="100%"></stop>
        </linearGradient>
        <linearGradient x1="100%" y1="67.8429778%" x2="-10.7006642%" y2="21.3026974%" id="linearGradient-2">
            <stop stop-color="#8760FF" offset="0%"></stop>
            <stop stop-color="#DD9FFF" offset="100%"></stop>
        </linearGradient>
        <linearGradient x1="-10.7006642%" y1="45.627648%" x2="100%" y2="52.7185753%" id="linearGradient-3">
            <stop stop-color="#DD9FFF" offset="100%"></stop>
            <stop stop-color="#8760FF" offset="0%"></stop>
        </linearGradient>
        <linearGradient x1="-10.7006642%" y1="21.3026974%" x2="100%" y2="67.8429778%" id="linearGradient-4">
            <stop stop-color="#DD9FFF" offset="100%"></stop>
            <stop stop-color="#8760FF" offset="0%"></stop>
        </linearGradient>
        <linearGradient x1="19.1589118%" y1="19.0085863%" x2="75.4042428%" y2="69.2693757%" id="linearGradient-5">
            <stop stop-color="#DD9FFF" offset="0%"></stop>
            <stop stop-color="#8760FF" offset="100%"></stop>
        </linearGradient>
        <linearGradient x1="100%" y1="67.8429778%" x2="-10.7006642%" y2="21.3026974%" id="linearGradient-6">
            <stop stop-color="#8760FF" offset="0%"></stop>
            <stop stop-color="#DD9FFF" offset="100%"></stop>
        </linearGradient>
        <linearGradient x1="-10.7006642%" y1="45.627648%" x2="100%" y2="52.7185753%" id="linearGradient-7">
            <stop stop-color="#DD9FFF" offset="100%"></stop>
            <stop stop-color="#8760FF" offset="0%"></stop>
        </linearGradient>
        <linearGradient x1="-10.7006642%" y1="21.3026974%" x2="100%" y2="67.8429778%" id="linearGradient-8">
            <stop stop-color="#DD9FFF" offset="100%"></stop>
            <stop stop-color="#8760FF" offset="0%"></stop>
        </linearGradient>
    </defs>
    <g id="Icon-/-Analytic-/-Medium-/-Vehicle-Flow" stroke="none" stroke-width="1" fill="none" fill-rule="evenodd">
        <g id="fr-ico-step">
            <rect id="Rectangle" fill="#D8D8D8" opacity="0" x="0" y="0" width="75" height="75"></rect>
            <g id="fr" opacity="0.204427083" transform="translate(2.000000, 2.000000)" stroke="#9795F0" stroke-linecap="square">
                <g id="Group">
                    <polyline id="Line" points="20.7083333 3.55271368e-15 -1.49213975e-13 3.55271368e-15 -1.49213975e-13 21.6944444"></polyline>
                    <polyline id="Line" transform="translate(60.645833, 10.847222) scale(-1, 1) translate(-60.645833, -10.847222) " points="71 3.55271368e-15 50.2916667 3.55271368e-15 50.2916667 21.6944444"></polyline>
                    <polyline id="Line" transform="translate(10.354167, 60.152778) scale(-1, 1) rotate(-180.000000) translate(-10.354167, -60.152778) " points="20.7083333 49.3055556 -1.49213975e-13 49.3055556 -1.49213975e-13 71"></polyline>
                    <polyline id="Line" transform="translate(60.645833, 60.152778) rotate(180.000000) translate(-60.645833, -60.152778) " points="71 49.3055556 50.2916667 49.3055556 50.2916667 71"></polyline>
                </g>
            </g>
            <g id="fr" transform="translate(7.000000, 8.000000)" stroke="#9795F0" stroke-linecap="square">
                <polyline id="Line" points="18 0 0 0 0 18.2142857"></polyline>
                <polyline id="Line" transform="translate(51.000000, 9.107143) scale(-1, 1) translate(-51.000000, -9.107143) " points="60 0 42 0 42 18.2142857"></polyline>
                <polyline id="Line" transform="translate(9.000000, 50.892857) scale(-1, 1) rotate(-180.000000) translate(-9.000000, -50.892857) " points="18 41.7857143 0 41.7857143 0 60"></polyline>
                <polyline id="Line" transform="translate(51.000000, 50.892857) rotate(180.000000) translate(-51.000000, -50.892857) " points="60 41.7857143 42 41.7857143 42 60"></polyline>
            </g>
        </g>
        <g id="Group-3" opacity="0.3" transform="translate(9.000000, 13.000000)">
            <path d="M15.7821728,42.9 C26.5730887,42.9 36.165014,42.9 44.5579486,42.9 C57.1473505,42.9 57.1473505,26.4333333 44.5579486,26.4333333 C31.9685467,26.4333333 29.2708177,26.4333333 15.7821728,26.4333333 C2.29352797,26.4333333 3.19277096,9.1 15.7821728,9.1 C24.1751074,9.1 30.5240532,9.1 34.82901,9.1" id="Line-6" stroke="#C5C3FF" stroke-width="4.8" stroke-linecap="square"></path>
            <path d="M33.2432432,18.2 C37.5675676,12.5612299 39.7297297,8.58650011 39.7297297,6.27581049 C39.7297297,2.80977606 36.8256308,0 33.2432432,0 C29.6608557,0 26.7567568,2.80977606 26.7567568,6.27581049 C26.7567568,8.58650011 28.9189189,12.5612299 33.2432432,18.2 Z" id="Oval" fill="url(#linearGradient-1)"></path>
            <g id="car" transform="translate(15.000000, 41.400000) scale(-1, 1) translate(-15.000000, -41.400000) translate(0.000000, 34.800000)" fill-rule="nonzero">
                <path d="M6.52416357,8.37073171 C5.14057337,8.37073171 4.01486989,9.45391303 4.01486989,10.7853659 C4.01486989,12.1167621 5.14051456,13.2 6.52416357,13.2 C7.90775377,13.2 9.03345725,12.1168187 9.03345725,10.7853659 C9.03345725,9.45396962 7.90781258,8.37073171 6.52416357,8.37073171 Z M6.52416357,12.234135 C5.69410355,12.234135 5.01859912,11.584113 5.01859912,10.7853659 C5.01859912,9.98661866 5.69410355,9.33659668 6.52416357,9.33659668 C7.35422359,9.33659668 8.02972801,9.98661866 8.02972801,10.7853659 C8.02972801,11.584113 7.35422359,12.234135 6.52416357,12.234135 Z" id="Shape" fill="url(#linearGradient-2)"></path>
                <path d="M29.5001923,8.38650676 L29.5001923,5.50472084 C29.5001923,5.29821161 29.3626719,5.11421634 29.1581786,5.04892587 L26.3371659,4.14549725 C25.2746793,2.41693226 23.8141629,0.771894033 20.5866245,0.228688644 C20.5806479,0.227731801 20.5746127,0.226774958 20.5686361,0.225818115 C14.6080934,-0.56571617 10.1330867,0.725796715 7.26004251,4.06579785 C5.1215339,4.09557256 2.93849377,4.52496991 1.65452141,5.31459051 C0.989537045,5.7237816 0.595023016,6.43606677 0.557991549,7.19399898 L0.499983397,8.38656305 C0.224005218,8.38656305 0,8.60174015 0,8.86684194 L0,10.7880138 C0,11.0531156 0.224005218,11.2682927 0.499983397,11.2682927 L2.49997558,11.2682927 C2.7774772,11.2682927 2.99949022,11.0492882 2.99995897,10.782723 C2.99995897,10.7803028 3.00048632,10.7779388 3.00048632,10.775012 C3.00798636,8.92442137 4.57151115,7.42589269 6.50001853,7.42589269 C8.43303766,7.42589269 10.0000195,8.93111927 10.0000195,10.7879575 C9.96404272,11.0795132 10.2035168,11.2682364 10.5000029,11.2682364 L19.5000556,11.2682364 C19.7775572,11.2682364 19.9995702,11.0492319 20.000039,10.7826667 C20.000039,10.7802465 20.0005077,10.7778825 20.0005077,10.7749557 C20.0080078,8.92436509 21.5715326,7.42583641 23.50004,7.42583641 C25.4330591,7.42583641 27.0000409,8.93106299 27.0000409,10.7879012 C26.9640641,11.0794569 27.2035382,11.2681801 27.5000243,11.2681801 L29.5000165,11.2681801 C29.7759947,11.2681801 29.9999999,11.053003 29.9999999,10.7879012 L29.9999999,8.86672937 C30.0001757,8.60168386 29.7761705,8.38650676 29.5001923,8.38650676 Z M16.0001132,3.82371658 C16.0001132,3.95626747 15.8881399,4.06388417 15.7500922,4.06388417 L9.22956577,4.06388417 C8.99858785,4.06388417 8.89358724,3.79107135 9.06403745,3.64169127 C10.7990671,2.12250604 13.0055449,1.25363633 15.7246038,1.02264318 C15.871089,1.01014793 16.0001132,1.12350569 16.0001132,1.26472445 L16.0001132,3.82371658 Z M22.0071211,3.82608054 C22.0055976,3.9576746 21.8940931,4.06382788 21.7571001,4.06382788 L17.250101,4.06382788 C17.1121119,4.06382788 17.00008,3.95626747 17.00008,3.82366029 L17.00008,1.20123511 C17.00008,1.06817765 17.1105885,0.958703553 17.2485776,0.958703553 C18.2455561,0.95774671 19.3006013,1.02737111 20.4220922,1.1763009 C20.9561188,1.26658185 21.4320786,1.39052116 21.865089,1.54277177 C21.9645817,1.57783725 22.0280977,1.67053845 22.0271016,1.7723578 L22.0071211,3.82608054 Z M24.6166676,4.06382788 L23.2571674,4.06382788 C23.1181823,4.06382788 23.0056816,3.95480407 23.0071464,3.82129633 L23.0201543,2.51970845 C23.0221465,2.32136053 23.2576362,2.21374384 23.4241606,2.33092896 C23.9646911,2.71034534 24.4141664,3.16231294 24.814657,3.67529335 C24.9396382,3.83519869 24.824618,4.06382788 24.6166676,4.06382788 Z" id="Shape" fill="url(#linearGradient-3)"></path>
                <path d="M23.4758364,8.37073171 C22.0922462,8.37073171 20.9665428,9.45391303 20.9665428,10.7853659 C20.9665428,12.1167621 22.0921874,13.2 23.4758364,13.2 C24.8594266,13.2 25.9851301,12.1168187 25.9851301,10.7853659 C25.9850713,9.45396962 24.8594266,8.37073171 23.4758364,8.37073171 Z M23.4758364,12.234135 C22.6457764,12.234135 21.970272,11.584113 21.970272,10.7853659 C21.970272,9.98661866 22.6457764,9.33659668 23.4758364,9.33659668 C24.3058965,9.33659668 24.9814009,9.98661866 24.9814009,10.7853659 C24.9814009,11.584113 24.3058965,12.234135 23.4758364,12.234135 Z" id="Shape" fill="url(#linearGradient-4)"></path>
            </g>
        </g>
        <g id="Group-3" transform="translate(13.000000, 17.000000)">
            <path d="M13.1518107,35.75 C22.1442406,35.75 30.1375117,35.75 37.1316238,35.75 C47.6227921,35.75 47.6227921,22.0277778 37.1316238,22.0277778 C26.6404556,22.0277778 24.3923481,22.0277778 13.1518107,22.0277778 C1.91127331,22.0277778 2.66064247,7.58333333 13.1518107,7.58333333 C20.1459229,7.58333333 25.436711,7.58333333 29.024175,7.58333333" id="Line-6" stroke="#C5C3FF" stroke-width="4" stroke-linecap="square"></path>
            <path d="M27.7027027,15.1666667 C31.3063063,10.4676916 33.1081081,7.15541675 33.1081081,5.22984207 C33.1081081,2.34148005 30.6880257,0 27.7027027,0 C24.7173797,0 22.2972973,2.34148005 22.2972973,5.22984207 C22.2972973,7.15541675 24.0990991,10.4676916 27.7027027,15.1666667 Z" id="Oval" fill="url(#linearGradient-5)"></path>
            <g id="car" transform="translate(14.772727, 35.500000) scale(-1, 1) translate(-14.772727, -35.500000) translate(0.000000, 29.000000)" fill-rule="nonzero">
                <path d="M6.42531261,8.24390244 C5.06268589,8.24390244 3.95403853,9.31067193 3.95403853,10.6219512 C3.95403853,11.9331748 5.06262797,13 6.42531261,13 C7.78793932,13 8.89658668,11.9332305 8.89658668,10.6219512 C8.89658668,9.31072766 7.78799724,8.24390244 6.42531261,8.24390244 Z M6.42531261,12.0487693 C5.60782925,12.0487693 4.94255974,11.4085962 4.94255974,10.6219512 C4.94255974,9.83530626 5.60782925,9.1951331 6.42531261,9.1951331 C7.24279596,9.1951331 7.90806547,9.83530626 7.90806547,10.6219512 C7.90806547,11.4085962 7.24279596,12.0487693 6.42531261,12.0487693 Z" id="Shape" fill="url(#linearGradient-6)"></path>
                <path d="M29.0532197,8.25943848 L29.0532197,5.42131598 C29.0532197,5.21793568 28.917783,5.03672821 28.716388,4.972427 L25.938118,4.08268668 C24.8917296,2.38031207 23.4533422,0.760198668 20.2747059,0.225223664 C20.2688199,0.224281319 20.2628761,0.223338973 20.2569901,0.222396628 C14.3867586,-0.557144713 9.97955507,0.714799795 7.15004187,4.00419486 C5.0439349,4.03351843 2.89397114,4.45640976 1.6294529,5.23406641 C0.974544059,5.63705764 0.586007515,6.33855061 0.549537131,7.084999 L0.492407891,8.25949391 C0.2206112,8.25949391 0,8.47141075 0,8.73249585 L0,10.624559 C0,10.8856441 0.2206112,11.097561 0.492407891,11.097561 L2.46209716,11.097561 C2.73539421,11.097561 2.9540434,10.8818748 2.95450505,10.6193484 C2.95450505,10.6169648 2.95502441,10.6146367 2.95502441,10.6117542 C2.96241081,8.78920287 4.50224583,7.31337917 6.4015334,7.31337917 C8.30526437,7.31337917 9.84850405,8.79579928 9.84850405,10.6245036 C9.81307238,10.9116418 10.048918,11.0975055 10.3409119,11.0975055 L19.2046002,11.0975055 C19.4778973,11.0975055 19.6965464,10.8818193 19.6970081,10.619293 C19.6970081,10.6169094 19.6974698,10.6145813 19.6974698,10.6116988 C19.7048562,8.78914744 21.2446912,7.31332374 23.1439787,7.31332374 C25.0477097,7.31332374 26.5909494,8.79574385 26.5909494,10.6244482 C26.5555177,10.9115863 26.7913634,11.0974501 27.0833573,11.0974501 L29.0530466,11.0974501 C29.3248432,11.0974501 29.5454544,10.8855333 29.5454544,10.6244482 L29.5454544,8.73238499 C29.5456276,8.47135532 29.3250164,8.25943848 29.0532197,8.25943848 Z M15.7576873,3.76578148 C15.7576873,3.89632403 15.6474105,4.00231016 15.5114545,4.00231016 L9.08972386,4.00231016 C8.86224561,4.00231016 8.75883591,3.73363087 8.92670355,3.58651413 C10.6354449,2.09034686 12.8084912,1.23464184 15.4863522,1.00714858 C15.630618,0.994842663 15.7576873,1.10648287 15.7576873,1.24556196 L15.7576873,3.76578148 Z M21.6736798,3.76810963 C21.6721795,3.89770983 21.5623644,4.00225473 21.427447,4.00225473 L16.9887358,4.00225473 C16.8528375,4.00225473 16.7425031,3.89632403 16.7425031,3.76572605 L16.7425031,1.18303457 C16.7425031,1.05199314 16.8513371,0.944177742 16.9872355,0.944177742 C17.9691082,0.943235397 19.008168,1.01180488 20.1126666,1.15847816 C20.6386019,1.24739122 21.1073502,1.36945266 21.5337998,1.51939644 C21.6317851,1.55393062 21.6943387,1.64522726 21.6933577,1.74550389 L21.6736798,3.76810963 Z M24.2436878,4.00225473 L22.9047861,4.00225473 C22.7679068,4.00225473 22.6571107,3.89488279 22.6585533,3.7633979 L22.6713641,2.48153105 C22.6733261,2.2861884 22.9052478,2.18020226 23.0692491,2.29561185 C23.6015897,2.6692795 24.0442548,3.11439911 24.4386774,3.61960708 C24.5617649,3.77708962 24.4484875,4.00225473 24.2436878,4.00225473 Z" id="Shape" fill="url(#linearGradient-7)"></path>
                <path d="M23.1201419,8.24390244 C21.7575152,8.24390244 20.6488679,9.31067193 20.6488679,10.6219512 C20.6488679,11.9331748 21.7574573,13 23.1201419,13 C24.4827687,13 25.591416,11.9332305 25.591416,10.6219512 C25.5913581,9.31072766 24.4827687,8.24390244 23.1201419,8.24390244 Z M23.1201419,12.0487693 C22.3026586,12.0487693 21.6373891,11.4085962 21.6373891,10.6219512 C21.6373891,9.83530626 22.3026586,9.1951331 23.1201419,9.1951331 C23.9376253,9.1951331 24.6028948,9.83530626 24.6028948,10.6219512 C24.6028948,11.4085962 23.9376253,12.0487693 23.1201419,12.0487693 Z" id="Shape" fill="url(#linearGradient-8)"></path>
            </g>
        </g>
    </g>
</svg>