<svg xmlns="http://www.w3.org/2000/svg" width="38" height="38" viewBox="0 0 38 38">
    <defs>
        <filter id="a" width="140%" height="140%" x="-20%" y="-20%" filterUnits="objectBoundingBox">
            <feGaussianBlur in="SourceGraphic" stdDeviation="2"/>
        </filter>
    </defs>
    <g fill="none" fill-rule="evenodd" transform="translate(4 4)">
        <circle cx="15" cy="15" r="15" fill="#03031D" stroke="#82C3FF"/>
        <circle cx="15" cy="15" r="14" stroke="#2395FF" stroke-width="2" filter="url(#a)"/>
        <circle cx="15" cy="15" r="15" stroke="#82C3FF"/>
        <path fill="#CAE4FF" fill-rule="nonzero" d="M21.756 18.055c.908-.823.992-2.217.185-3.123a2.227 2.227 0 0 0-3.126-.185 2.222 2.222 0 0 0-.185 3.123c.05.067.118.117.185.185a2.939 2.939 0 0 0-.639.57l-1.63-1.192a1.585 1.585 0 0 0-1.042-1.914V13.79h1.698a.495.495 0 0 0 .504-.504v-1.158c0-.924-.47-1.763-1.227-2.267.908-.822.992-2.216.185-3.123-.807-.906-2.235-.99-3.16-.184-.924.806-.991 2.216-.185 3.123.05.067.118.117.185.184a2.703 2.703 0 0 0-1.227 2.267v1.158c0 .286.219.504.505.504h1.697v1.746a1.592 1.592 0 0 0-1.042 1.914l-1.63 1.192a2.939 2.939 0 0 0-.639-.57c.908-.823.992-2.217.185-3.124a2.227 2.227 0 0 0-3.126-.184 2.205 2.205 0 0 0-.185 3.123c.05.067.118.117.185.184A2.703 2.703 0 0 0 7 20.338v1.158c0 .286.218.504.504.504h4.42a.495.495 0 0 0 .505-.504v-1.158c0-.269-.034-.537-.118-.79l1.664-1.258c.588.47 1.412.47 2 0l1.714 1.242c-.084.252-.118.52-.118.79v1.158c0 .285.219.503.505.503h4.42A.495.495 0 0 0 23 21.48V20.32a2.804 2.804 0 0 0-1.244-2.266z"/>
    </g>
</svg>
