<?xml version="1.0" encoding="UTF-8"?>
<svg width="34px" height="34px" viewBox="0 0 34 34" version="1.1" xmlns="http://www.w3.org/2000/svg" xmlns:xlink="http://www.w3.org/1999/xlink">
    <!-- Generator: Sketch 52.2 (67145) - http://www.bohemiancoding.com/sketch -->
    <title>Icon/Analytic/dwellingvehicle</title>
    <desc>Created with Sketch.</desc>
    <defs>
        <filter x="-20.0%" y="-20.0%" width="140.0%" height="140.0%" filterUnits="objectBoundingBox" id="filter-1">
            <feGaussianBlur stdDeviation="2" in="SourceGraphic"></feGaussianBlur>
        </filter>
    </defs>
    <g id="Icon/Analytic/dwellingvehicle" stroke="none" stroke-width="1" fill="none" fill-rule="evenodd">
        <g id="Icon/Analytic/Esti" transform="translate(2.000000, 2.000000)">
            <circle id="Oval-3" stroke="#A4FF53" fill="#03031D" cx="15" cy="15" r="15"></circle>
            <circle id="Oval-3" stroke="#FF5555" stroke-width="2" fill="#03031D" filter="url(#filter-1)" cx="15" cy="15" r="14"></circle>
            <circle id="Oval-3" stroke="#FF5555" cx="15" cy="15" r="15"></circle>
        </g>
        <g id="Group-4" transform="translate(8.000000, 12.000000)" fill="#FF5555" fill-rule="nonzero">
            <path d="M8.39166667,0.5625 C8.28609041,0.225 7.96944444,0 7.65277778,0 L1.84722222,0 C1.47777778,0 1.21388889,0.225 1.10833333,0.5625 L0,3.9375 L0,8.4375 C0,8.775 0.211111111,9 0.527777778,9 L1.05555556,9 C1.37222222,9 1.58333333,8.775 1.58333333,8.4375 L1.58333333,7.875 L7.91666667,7.875 L7.91666667,8.4375 C7.91666667,8.775 8.12777778,9 8.44444444,9 L8.97222222,9 C9.28888889,9 9.5,8.775 9.5,8.4375 L9.5,3.9375 L8.39166667,0.5625 Z M1.84722222,6.1875 C1.425,6.1875 1.05555556,5.79375 1.05555556,5.34375 C1.05555556,4.89375 1.425,4.5 1.84722222,4.5 C2.26944444,4.5 2.63888889,4.89375 2.63888889,5.34375 C2.63888889,5.79375 2.26944444,6.1875 1.84722222,6.1875 Z M7.65277778,6.1875 C7.23055556,6.1875 6.86111111,5.79375 6.86111111,5.34375 C6.86111111,4.89375 7.23055556,4.5 7.65277778,4.5 C8.075,4.5 8.44444444,4.89375 8.44444444,5.34375 C8.44444444,5.79375 8.075,6.1875 7.65277778,6.1875 Z M1.05555556,3.375 L1.84722222,0.84375 L7.65277778,0.84375 L8.44444444,3.375 L1.05555556,3.375 Z" id="Shape"></path>
            <path d="M9.12797203,1.35 L12.9065657,1.35 C13.1368687,1.35 13.3671567,1.5075 13.4439394,1.74375 L14.25,4.10625 L14.25,7.25625 C14.25,7.4925 14.0964646,7.65 13.8661616,7.65 L13.4823232,7.65 C13.2520202,7.65 13.0984848,7.4925 13.0984848,7.25625 L13.0984848,6.8625 L9.93181818,6.8625 L9.93181818,4.5 L9.93181818,3.825 L9.89527972,3.7125 L13.4823232,3.7125 L12.9065657,1.940625 L9.31979895,1.940625 L9.12797203,1.35 Z M7.34090909,6.975 L8.49242424,6.975 L8.49242424,7.25625 C8.49242424,7.4925 8.33888889,7.65 8.10858586,7.65 L7.72474747,7.65 C7.49444444,7.65 7.34090909,7.4925 7.34090909,7.25625 L7.34090909,6.975 Z M12.9065657,5.68125 C13.2136364,5.68125 13.4823232,5.405625 13.4823232,5.090625 C13.4823232,4.775625 13.2136364,4.5 12.9065657,4.5 C12.5994949,4.5 12.3308081,4.775625 12.3308081,5.090625 C12.3308081,5.405625 12.5994949,5.68125 12.9065657,5.68125 Z" id="Combined-Shape"></path>
            <path d="M13.9970764,2.27808197 C14.0479807,2.25982183 14.1045328,2.25 14.1660354,2.25 L17.5965909,2.25 C17.7837121,2.25 17.9708211,2.37375 18.0332071,2.559375 L18.6881313,4.415625 L18.6881313,6.890625 C18.6881313,7.07625 18.5633838,7.2 18.3762626,7.2 L18.0643939,7.2 C17.8772727,7.2 17.7525253,7.07625 17.7525253,6.890625 L17.7525253,6.58125 L14.8017677,6.58125 L14.8017677,5.18333333 L14.8017677,4.63333333 L14.6216853,4.10625 L18.0643939,4.10625 L17.5965909,2.7140625 L14.1660354,2.7140625 L14.1561173,2.74357881 L13.9970764,2.27808197 Z M13.3863636,7.2 L13.6982323,7.2 L13.3863636,7.2 Z M17.5965909,5.653125 C17.8460859,5.653125 18.0643939,5.4365625 18.0643939,5.1890625 C18.0643939,4.9415625 17.8460859,4.725 17.5965909,4.725 C17.347096,4.725 17.1287879,4.9415625 17.1287879,5.1890625 C17.1287879,5.4365625 17.347096,5.653125 17.5965909,5.653125 Z" id="Combined-Shape"></path>
        </g>
    </g>
</svg>