<?xml version="1.0" encoding="UTF-8" standalone="no"?>
<svg
   xmlns:dc="http://purl.org/dc/elements/1.1/"
   xmlns:cc="http://creativecommons.org/ns#"
   xmlns:rdf="http://www.w3.org/1999/02/22-rdf-syntax-ns#"
   xmlns:svg="http://www.w3.org/2000/svg"
   xmlns="http://www.w3.org/2000/svg"
   xmlns:sodipodi="http://sodipodi.sourceforge.net/DTD/sodipodi-0.dtd"
   xmlns:inkscape="http://www.inkscape.org/namespaces/inkscape"
   width="34px"
   height="34px"
   viewBox="0 0 34 34"
   version="1.1"
   id="svg2"
   inkscape:version="0.91 r13725"
   sodipodi:docname="ico-vehicle-dwelling.svg">
  <metadata
     id="metadata40">
    <rdf:RDF>
      <cc:Work
         rdf:about="">
        <dc:format>image/svg+xml</dc:format>
        <dc:type
           rdf:resource="http://purl.org/dc/dcmitype/StillImage" />
      </cc:Work>
    </rdf:RDF>
  </metadata>
  <sodipodi:namedview
     pagecolor="#ffffff"
     bordercolor="#666666"
     borderopacity="1"
     objecttolerance="10"
     gridtolerance="10"
     guidetolerance="10"
     inkscape:pageopacity="0"
     inkscape:pageshadow="2"
     inkscape:window-width="1328"
     inkscape:window-height="667"
     id="namedview38"
     showgrid="false"
     inkscape:zoom="6.9411765"
     inkscape:cx="24.059322"
     inkscape:cy="15.415254"
     inkscape:window-x="425"
     inkscape:window-y="141"
     inkscape:window-maximized="0"
     inkscape:current-layer="svg2" />
  <!-- Generator: Sketch 52.5 (67469) - http://www.bohemiancoding.com/sketch -->
  <title
     id="title4">Icon/Analytic/dwellingvehicle</title>
  <desc
     id="desc6">Created with Sketch.</desc>
  <defs
     id="defs8">
    <filter
       x="-20.0%"
       y="-20.0%"
       width="140.0%"
       height="140.0%"
       filterUnits="objectBoundingBox"
       id="filter-1">
      <feGaussianBlur
         stdDeviation="2"
         in="SourceGraphic"
         id="feGaussianBlur11" />
    </filter>
  </defs>
  <g
     id="Icon/Analytic/dwellingvehicle"
     transform="matrix(0.92649602,0,0,0.92649602,1.2495676,1.2495676)"
     style="fill:none;fill-rule:evenodd;stroke:none;stroke-width:1">
    <g
       id="Icon/Analytic/Esti"
       transform="translate(2,2)">
      <circle
         id="Oval-3"
         cx="15"
         cy="15"
         r="15"
         style="fill:#03031d" />
      <circle
         id="circle16"
         cx="15"
         cy="15"
         r="14"
         style="fill:#03031d;stroke:#ff7c18;stroke-width:2;filter:url(#filter-1)" />
      <circle
         id="circle18"
         cx="15"
         cy="15"
         r="15"
         style="stroke:#ff7c18" />
    </g>
    <g
       id="Group-4"
       transform="translate(10,12)"
       style="fill:#facba7;fill-rule:nonzero">
      <path
         d="M 9.9459411,9.6217166 C 9.8546285,9.8566573 9.6536127,10 9.3888889,10 L 8.7777778,10 C 8.4111111,10 8.1666667,9.725 8.1666667,9.3125 l 0,-0.6875 -7.33333337,0 0,0.6875 C 0.83333333,9.725 0.58888889,10 0.22222222,10 l -0.61111111,0 C -0.75555556,10 -1,9.725 -1,9.3125 l 0,-5.5 1.28333333,-4.125 C 0.40555556,-0.725 0.71111111,-1 1.1388889,-1 l 6.7222222,0 c 0.3666667,0 0.7333094,0.275 0.8555556,0.6875 L 9.1057294,0.93805876 C 8.826647,1.1372756 8.5676135,1.3661685 8.3325205,1.6222567 L 7.8611111,0.03125 l -6.7222222,0 -0.91666668,3.09375 7.15369828,0 C 7.1424024,3.6923517 7.0156593,4.2962196 7.0013687,4.9113429 6.9545606,5.0864576 6.9444444,5.3029299 6.9444444,5.53125 c 0,0.1430061 0.046479,0.2825263 0.139437,0.4185605 0.1862935,1.0185186 0.6693657,1.9347218 1.3871486,2.6503191 0.0017,0.00171 0.00345,0.00356 0.00517,0.00533 0.1980275,0.1963979 0.411418,0.3765274 0.641182,0.5394 0.2635945,0.1869426 0.5403076,0.3461042 0.8285591,0.476857 z M 8.2731302,3.0988489 8.2631579,3.125 l -0.0034,0 c 0.00443,-0.00873 0.00888,-0.017445 0.013376,-0.026151 z M 1.1388889,6.5625 c 0.4888889,0 0.9166667,-0.48125 0.9166667,-1.03125 C 2.0555556,4.98125 1.6277778,4.5 1.1388889,4.5 0.65,4.5 0.22222222,4.98125 0.22222222,5.53125 c 0,0.55 0.42777778,1.03125 0.91666668,1.03125 z"
         id="Combined-Shape"
         inkscape:connector-curvature="0" />
    </g>
    <g
       id="time-left"
       transform="translate(18,13)"
       style="fill:#facba7">
      <path
         d="M 4.7998455,7.3039136 C 4.7339914,7.320432 4.6668498,7.3351015 4.600206,7.3474557 4.4259914,7.3800605 4.3108154,7.5486998 4.3430386,7.7241987 4.3589528,7.81054 4.4076738,7.8824536 4.4738197,7.9293996 4.5419914,7.9776933 4.6287554,7.9994989 4.7171674,7.982946 4.7965322,7.968121 4.876515,7.9506868 4.9550043,7.9309719 5.1270386,7.887879 5.2318455,7.7124665 5.188927,7.5394039 5.1461116,7.3661857 4.9719828,7.2607862 4.7998455,7.3039136 Z"
         id="Path"
         inkscape:connector-curvature="0" />
      <path
         d="m 7.1740257,2.9727343 c 0.022489,0.068216 0.065425,0.123905 0.1196567,0.1623845 0.080412,0.057002 0.1856309,0.076181 0.2860429,0.042765 C 7.7480687,3.1216242 7.839279,2.9389201 7.783588,2.7695723 7.7582146,2.6923715 7.7300601,2.6149287 7.7000687,2.5395248 7.6342146,2.3738229 7.4474678,2.293149 7.2827468,2.3594298 7.1181974,2.425676 7.0380086,2.6136847 7.1039142,2.7794384 c 0.025202,0.063378 0.048807,0.128432 0.070111,0.1932959 z"
         id="path24"
         inkscape:connector-curvature="0" />
      <path
         d="M 5.8430901,6.8425572 C 5.7864549,6.8801901 5.728,6.9166134 5.6691159,6.9507387 5.515485,7.0399309 5.462867,7.237581 5.5514506,7.3921382 c 0.024051,0.042039 0.056086,0.076406 0.092979,0.1026696 0.099039,0.070134 0.233545,0.080639 0.3455279,0.015706 0.070008,-0.040639 0.1396219,-0.08387 0.2070725,-0.12876 C 6.3449099,7.2834212 6.3856137,7.0829374 6.2878627,6.9340302 6.1901288,6.7850713 5.9910215,6.7441555 5.8430901,6.8425572 Z"
         id="path26"
         inkscape:connector-curvature="0" />
      <path
         d="M 7.9832103,3.8752311 C 7.9762232,3.6968812 7.82697,3.5580648 7.6497167,3.5650281 c -0.17703,0.00703 -0.3150558,0.1573045 -0.308103,0.3355853 0.00266,0.068164 0.00335,0.1373477 0.00179,0.2054428 -0.00249,0.1118444 0.051863,0.2115421 0.1363262,0.2714643 0.050318,0.035663 0.111382,0.057244 0.1775966,0.058765 0.1772017,0.00396 0.3240515,-0.1375032 0.3279828,-0.3159395 0.00177,-0.081365 0.0011,-0.1638013 -0.00209,-0.2451145 z"
         id="path28"
         inkscape:connector-curvature="0" />
      <path
         d="M 7.1216309,5.9925011 C 6.9795365,5.8852009 6.7785064,5.9143326 6.6720858,6.0570885 c -0.040755,0.05467 -0.083674,0.1086653 -0.1276223,0.1606566 -0.1148498,0.13581 -0.098627,0.3398013 0.036309,0.4554817 0.00769,0.00657 0.015468,0.012596 0.023536,0.018263 0.1341459,0.095188 0.3205837,0.073313 0.4290472,-0.054791 0.052481,-0.06203 0.1036395,-0.1265313 0.1523434,-0.1918272 0.1064377,-0.142756 0.077631,-0.3452268 -0.064069,-0.4523715 z"
         id="path30"
         inkscape:connector-curvature="0" />
      <path
         d="M 7.5935622,4.8244147 C 7.4243777,4.7710238 7.244206,4.8658142 7.1911931,5.036095 7.1709013,5.101149 7.148412,5.166514 7.1241373,5.2305313 c -0.053305,0.1409244 -0.00223,0.2959827 0.1148498,0.3790756 0.021476,0.015188 0.045133,0.02806 0.070833,0.03784 0.1656481,0.06362 0.3511417,-0.020026 0.4142833,-0.1868164 0.028824,-0.076112 0.055571,-0.1538834 0.07976,-0.2312225 C 7.856824,5.0590929 7.7627125,4.8778056 7.5935622,4.8244147 Z"
         id="path32"
         inkscape:connector-curvature="0" />
      <path
         d="m 3.7961202,1.4202678 c -0.1435708,0 -0.2598627,0.1171491 -0.2598627,0.2614428 l 0,2.6046998 2.366867,1.2314643 c 0.038094,0.019853 0.078884,0.029201 0.1190214,0.029201 0.094009,0 0.1848069,-0.051525 0.23097,-0.1414255 C 6.3189528,5.2773391 6.269133,5.1197063 6.1416481,5.0534428 L 4.055691,3.9680346 l 0,-2.286324 C 4.0556738,1.5374169 3.9395193,1.4202678 3.7961202,1.4202678 Z"
         id="path34"
         inkscape:connector-curvature="0" />
      <path
         d="M 3.3991245,7.3503585 C 3.1120858,7.2984881 2.8367382,7.2101598 2.5756395,7.0869633 c -0.00309,-0.00162 -0.00585,-0.00347 -0.0091,-0.00496 C 2.5050129,7.0528553 2.443588,7.0216328 2.3840515,6.9890108 2.2739056,6.9279309 2.1672961,6.8609417 2.0637253,6.7875594 0.5534764,5.7168035 0.19035193,3.6090194 1.2542833,2.0890022 1.4856309,1.7586004 1.7655966,1.4829546 2.0777167,1.2644838 c 0.00385,-0.0027 0.00769,-0.00537 0.011502,-0.00809 C 3.1890816,0.49365011 4.6825236,0.44224622 5.8504034,1.2260389 L 5.5995708,1.5908078 C 5.5298369,1.6923369 5.5727382,1.766324 5.6948154,1.7552657 L 6.7843777,1.6570885 C 6.9066094,1.6460302 6.9797082,1.5396112 6.9468326,1.4208035 L 6.6542489,0.35979266 C 6.6214936,0.24084665 6.5376309,0.22660907 6.4678283,0.32812095 L 6.216412,0.69375378 C 5.3593476,0.11469546 4.331382,-0.10610799 3.311073,0.07196544 3.208309,0.08986609 3.1069871,0.11177538 3.0070558,0.13727862 c -0.00587,0.001313 -0.00979,0.002575 -0.013545,0.003629 C 2.1136825,0.36831151 1.346043,0.88478667 0.79828336,1.6216852 c -0.004618,0.00551 -0.009373,0.010903 -0.0137339,0.016898 -0.0182146,0.024691 -0.0362919,0.049952 -0.0539914,0.075214 -0.0289442,0.0414 -0.0574764,0.083836 -0.0847725,0.1262721 -0.003416,0.00511 -0.006026,0.010315 -0.009013,0.015482 -0.45201717,0.7049848 -0.67004292,1.5200172 -0.63265236,2.349771 8.584e-5,0.00273 -6.867e-5,0.00548 0,0.00828 0.00362232,0.081054 0.01000859,0.1632311 0.01867811,0.2441296 4.6352e-4,0.00522 0.0016137,0.01016 0.0024893,0.015378 0.0089614,0.081348 0.02020601,0.1628856 0.03430043,0.2444061 0.14324464,0.8317581 0.53308155,1.580216 1.11723606,2.1625918 0.00136,0.00136 0.00276,0.00285 0.00414,0.00427 0.1584206,0.1571145 0.329133,0.3012181 0.5129442,0.4315162 0.48103,0.341149 1.0166695,0.5666523 1.5919141,0.6705486 0.1745408,0.031568 0.3412704,-0.085374 0.3725837,-0.260959 0.031296,-0.1757062 -0.08479,-0.3436544 -0.2592789,-0.3751188 z"
         id="path36"
         inkscape:connector-curvature="0" />
    </g>
  </g>
</svg>
