<svg xmlns="http://www.w3.org/2000/svg" width="38" height="38" viewBox="0 0 38 38">
    <defs>
        <filter id="a" width="140%" height="140%" x="-20%" y="-20%" filterUnits="objectBoundingBox">
            <feGaussianBlur in="SourceGraphic" stdDeviation="2"/>
        </filter>
    </defs>
    <g fill="none" fill-rule="evenodd" transform="translate(4 4)">
        <circle cx="15" cy="15" r="15" fill="#03031D" stroke="#FF75A7"/>
        <circle cx="15" cy="15" r="14" stroke="#FF75A7" stroke-width="2" filter="url(#a)"/>
        <circle cx="15" cy="15" r="15" stroke="#FF75A7"/>
        <path fill="#FF75A7" fill-rule="nonzero" d="M19.348 10.97c.36 0 .652-.285.652-.637a.644.644 0 0 0-.652-.636h-.652v-1.06A.644.644 0 0 0 18.043 8h-6.086a.644.644 0 0 0-.653.636v1.061h-.652a.644.644 0 0 0-.652.636c0 .352.292.637.652.637h.652v2.12h-.652a.644.644 0 0 0-.652.637c0 .352.292.637.652.637h.652v2.12h-.652a.644.644 0 0 0-.652.637c0 .352.292.637.652.637h.652v3.606c0 .351.292.636.653.636h6.086c.36 0 .653-.285.653-.636v-3.606h.652c.36 0 .652-.285.652-.637a.644.644 0 0 0-.652-.636h-.652v-2.121h.652c.36 0 .652-.285.652-.637a.644.644 0 0 0-.652-.636h-.652V10.97h.652zM15 19.667c-.72 0-1.304-.57-1.304-1.273S14.28 17.12 15 17.12c.72 0 1.304.57 1.304 1.273S15.72 19.667 15 19.667zm0-3.394c-.72 0-1.304-.57-1.304-1.273s.584-1.273 1.304-1.273c.72 0 1.304.57 1.304 1.273S15.72 16.273 15 16.273zm0-3.394c-.72 0-1.304-.57-1.304-1.273s.584-1.273 1.304-1.273c.72 0 1.304.57 1.304 1.273S15.72 12.88 15 12.88z"/>
    </g>
</svg>
