<svg xmlns="http://www.w3.org/2000/svg" width="59" height="59" viewBox="0 0 59 59">
    <defs>
        <linearGradient id="a" x1="-10.189%" x2="163.91%" y1="50%" y2="55.983%">
            <stop offset="0%" stop-color="#56A6FC"/>
            <stop offset="100%" stop-color="#8B0ACD"/>
        </linearGradient>
        <linearGradient id="b" x1="-10.189%" x2="196.232%" y1="50%" y2="113.215%">
            <stop offset="0%" stop-color="#56A6FC"/>
            <stop offset="100%" stop-color="#8B0ACD"/>
        </linearGradient>
    </defs>
    <g fill="none" fill-rule="evenodd" transform="translate(1 1)">
        <circle cx="28.5" cy="28.5" r="19.5" stroke="url(#a)" stroke-width="2"/>
        <circle cx="28.5" cy="28.5" r="24.5" stroke="url(#a)" stroke-width="1.5" opacity=".6"/>
        <circle cx="28.5" cy="28.5" r="28.5" stroke="url(#a)" opacity=".3"/>
        <path fill="url(#b)" d="M27 36.015c0-.55.192-1.018.575-1.405.384-.387.863-.58 1.438-.58.54 0 1.007.197 1.399.593.392.395.588.86.588 1.392 0 .533-.196.997-.588 1.392a1.903 1.903 0 0 1-1.399.593 1.933 1.933 0 0 1-1.425-.593c-.392-.395-.588-.86-.588-1.392zm.078-15.442c0-.482.18-.864.536-1.148.358-.283.815-.425 1.373-.425.54 0 .989.142 1.346.425.358.284.536.666.536 1.148 0 1.03-.06 2.792-.183 5.285-.122 2.492-.183 4.245-.183 5.259 0 .36-.161.64-.483.838a1.943 1.943 0 0 1-1.033.296c-1.028 0-1.543-.378-1.543-1.134 0-1.014-.06-2.767-.183-5.26-.122-2.492-.183-4.253-.183-5.284z"/>
    </g>
</svg>
