<?xml version="1.0" encoding="UTF-8"?>
<svg width="75px" height="75px" viewBox="0 0 75 75" version="1.1" xmlns="http://www.w3.org/2000/svg" xmlns:xlink="http://www.w3.org/1999/xlink">
    <!-- Generator: Sketch 52.5 (67469) - http://www.bohemiancoding.com/sketch -->
    <title>ico/step/dwellingvehicle</title>
    <desc>Created with Sketch.</desc>
    <defs>
        <linearGradient x1="-10.7006642%" y1="19.0085863%" x2="100%" y2="69.2693757%" id="linearGradient-1">
            <stop stop-color="#DD9FFF" offset="0%"></stop>
            <stop stop-color="#8760FF" offset="100%"></stop>
        </linearGradient>
    </defs>
    <g id="ico/step/dwellingvehicle" stroke="none" stroke-width="1" fill="none" fill-rule="evenodd">
        <g id="fr-ico-step">
            <rect id="Rectangle" fill="#D8D8D8" opacity="0" x="0" y="0" width="75" height="75"></rect>
            <g id="fr" opacity="0.204427083" transform="translate(2.000000, 2.000000)" stroke="#9795F0" stroke-linecap="square">
                <g id="Group">
                    <polyline id="Line" points="20.7083333 3.55271368e-15 -1.49213975e-13 3.55271368e-15 -1.49213975e-13 21.6944444"></polyline>
                    <polyline id="Line" transform="translate(60.645833, 10.847222) scale(-1, 1) translate(-60.645833, -10.847222) " points="71 3.55271368e-15 50.2916667 3.55271368e-15 50.2916667 21.6944444"></polyline>
                    <polyline id="Line" transform="translate(10.354167, 60.152778) scale(-1, 1) rotate(-180.000000) translate(-10.354167, -60.152778) " points="20.7083333 49.3055556 -1.49213975e-13 49.3055556 -1.49213975e-13 71"></polyline>
                    <polyline id="Line" transform="translate(60.645833, 60.152778) rotate(180.000000) translate(-60.645833, -60.152778) " points="71 49.3055556 50.2916667 49.3055556 50.2916667 71"></polyline>
                </g>
            </g>
            <g id="fr" transform="translate(7.000000, 8.000000)" stroke="#9795F0" stroke-linecap="square">
                <polyline id="Line" points="18 0 0 0 0 18.2142857"></polyline>
                <polyline id="Line" transform="translate(51.000000, 9.107143) scale(-1, 1) translate(-51.000000, -9.107143) " points="60 0 42 0 42 18.2142857"></polyline>
                <polyline id="Line" transform="translate(9.000000, 50.892857) scale(-1, 1) rotate(-180.000000) translate(-9.000000, -50.892857) " points="18 41.7857143 0 41.7857143 0 60"></polyline>
                <polyline id="Line" transform="translate(51.000000, 50.892857) rotate(180.000000) translate(-51.000000, -50.892857) " points="60 41.7857143 42 41.7857143 42 60"></polyline>
            </g>
        </g>
        <g id="Group-2" opacity="0.2" transform="translate(18.000000, 25.000000)" fill="url(#linearGradient-1)">
            <g id="Group-4" fill-rule="nonzero">
                <path d="M28.9602403,26.7269907 C28.6943596,27.3796035 28.1090486,27.7777778 27.3382353,27.7777778 L25.5588235,27.7777778 C24.4911765,27.7777778 23.7794118,27.0138889 23.7794118,25.8680556 L23.7794118,23.9583333 L2.42647059,23.9583333 L2.42647059,25.8680556 C2.42647059,27.0138889 1.71470588,27.7777778 0.647058824,27.7777778 L-1.13235294,27.7777778 C-2.2,27.7777778 -2.91176471,27.0138889 -2.91176471,25.8680556 L-2.91176471,10.5902778 L0.825,-0.868055556 C1.18088235,-2.01388889 2.07058824,-2.77777778 3.31617647,-2.77777778 L22.8897059,-2.77777778 C23.9573529,-2.77777778 25.0249302,-2.01388889 25.3808824,-0.868055556 L26.5137415,2.60571878 C25.7011192,3.159099 24.9468746,3.79491254 24.2623391,4.50626862 L22.8897059,0.0868055556 L3.31617647,0.0868055556 L0.647058824,8.68055556 L21.476945,8.68055556 C20.7969952,10.2565326 20.4279492,11.9339433 20.3863384,13.6426192 C20.2500442,14.1290488 20.2205882,14.7303609 20.2205882,15.3645833 C20.2205882,15.7618225 20.3559241,16.1493786 20.6265957,16.5272515 C21.1690387,19.3564697 22.5756313,21.9014785 24.6656463,23.8892489 C24.6705826,23.8939885 24.6757063,23.8991481 24.680705,23.9040677 C25.2573094,24.449604 25.8786525,24.949964 26.547671,25.4023878 C27.3151963,25.9216729 28.1209197,26.3637884 28.9602403,26.7269907 Z M24.0894084,8.60791365 L24.0603715,8.68055556 L24.0504617,8.68055556 C24.0633479,8.65631234 24.0763301,8.63209822 24.0894084,8.60791365 Z M3.31617647,18.2291667 C4.73970588,18.2291667 5.98529412,16.8923611 5.98529412,15.3645833 C5.98529412,13.8368056 4.73970588,12.5 3.31617647,12.5 C1.89264706,12.5 0.647058824,13.8368056 0.647058824,15.3645833 C0.647058824,16.8923611 1.89264706,18.2291667 3.31617647,18.2291667 Z" id="Combined-Shape"></path>
            </g>
            <g id="time-left" transform="translate(22.500000, 2.631579)">
                <path d="M13.4995655,20.4221269 C13.3143509,20.4683131 13.125515,20.5093299 12.9380794,20.5438729 C12.4481009,20.6350375 12.1241685,21.1065619 12.2147961,21.5972661 C12.2595547,21.8386808 12.3965826,22.039755 12.582618,22.1710185 C12.7743509,22.3060504 13.0183745,22.36702 13.2670333,22.3207372 C13.4902468,22.2792856 13.7151985,22.2305388 13.9359496,22.1754149 C14.4197961,22.054925 14.7145655,21.5644623 14.5938573,21.0805701 C14.4734388,20.596243 13.9837017,20.3015403 13.4995655,20.4221269 Z" id="Path"></path>
                <path d="M20.1769474,8.31192168 C20.2401985,8.50265716 20.3609549,8.65836649 20.5134818,8.76595714 C20.7396406,8.92533818 21.0355687,8.97896442 21.3179775,8.88552916 C21.7914431,8.72822553 22.0479721,8.21737524 21.8913412,7.74387007 C21.8199785,7.52801239 21.740794,7.31147834 21.6564431,7.10064511 C21.4712285,6.63733375 20.9460032,6.41176537 20.4827253,6.59708992 C20.0199303,6.78231784 19.7943991,7.30799989 19.9797586,7.77145618 C20.0506384,7.94866432 20.1170279,8.13055871 20.1769474,8.31192168 Z" id="Path"></path>
                <path d="M16.433691,19.1321502 C16.2744045,19.2373735 16.11,19.3392151 15.9443884,19.4346311 C15.5123015,19.6840173 15.3643133,20.2366574 15.6134549,20.6688075 C15.6810998,20.7863505 15.7711964,20.8824429 15.8749571,20.955877 C16.1535032,21.1519751 16.5318026,21.1813488 16.8467543,20.9997925 C17.0436534,20.8861629 17.2394421,20.7652865 17.429147,20.6397721 C17.845059,20.3648289 17.9595386,19.8042657 17.6846137,19.3879135 C17.4097371,18.9714164 16.8497479,18.8570138 16.433691,19.1321502 Z" id="Path"></path>
                <path d="M22.452779,10.8353501 C22.4331277,10.3366744 22.013353,9.94853643 21.5148283,9.96800614 C21.0169313,9.98766909 20.6287339,10.4078379 20.6482886,10.9063203 C20.6557725,11.0969109 20.6577039,11.2903518 20.6533101,11.4807491 C20.646309,11.7934722 20.7991738,12.072232 21.0367275,12.2397778 C21.1782457,12.3394936 21.3499893,12.3998352 21.5362178,12.4040866 C22.0345976,12.4151501 22.4476127,12.0196203 22.4586695,11.5207031 C22.4636427,11.2932022 22.4617597,11.062706 22.452779,10.8353501 Z" id="Path"></path>
                <path d="M20.0295869,16.7553484 C19.6299464,16.4553314 19.0645494,16.5367853 18.7652414,16.9359384 C18.650617,17.0887973 18.5299088,17.2397721 18.4063036,17.3851427 C18.0832886,17.7648744 18.1289163,18.335245 18.5084227,18.6586933 C18.5300536,18.6770518 18.551926,18.6939127 18.5746191,18.709759 C18.9519045,18.9759094 19.4762607,18.9147465 19.7813144,18.5565619 C19.9289163,18.3831221 20.0728004,18.2027737 20.20978,18.0202029 C20.5091363,17.6210498 20.428117,17.0549307 20.0295869,16.7553484 Z" id="Path"></path>
                <path d="M21.3568938,13.4893174 C20.8810622,13.3400335 20.3743294,13.6050728 20.2252307,14.0811868 C20.1681599,14.2630812 20.1049088,14.4458452 20.0366363,14.6248409 C19.8867167,15.0188729 20.0303594,15.4524241 20.3596513,15.6847562 C20.4200536,15.7272223 20.486588,15.7632147 20.558868,15.7905593 C21.0247532,15.9684438 21.5464539,15.7345658 21.7240397,15.2682108 C21.8051073,15.0553967 21.8803326,14.8379448 21.9483637,14.6217006 C22.0973176,14.1454899 21.8326288,13.6386012 21.3568938,13.4893174 Z" id="Path"></path>
                <path d="M10.676588,3.97114357 C10.2727951,3.97114357 9.94572425,4.29869842 9.94572425,4.7021513 L9.94572425,11.985029 L16.6025376,15.4282682 C16.7096781,15.4837786 16.8243991,15.5099153 16.9372854,15.5099153 C17.2016845,15.5099153 17.4570547,15.3658492 17.5868884,15.1144822 C17.7720547,14.7557179 17.6319367,14.3149682 17.2733852,14.1296919 L11.4066309,11.0948335 L11.4066309,4.7021513 C11.4065826,4.29869842 11.0798981,3.97114357 10.676588,3.97114357 Z" id="Path"></path>
                <path d="M9.56003755,20.5519893 C8.75274142,20.4069569 7.97832618,20.1599864 7.24398605,19.8155223 C7.23529506,19.810981 7.22752146,19.8058116 7.21839592,19.8016568 C7.04534871,19.7201546 6.8725912,19.632855 6.70514485,19.541642 C6.39535944,19.3708594 6.09552039,19.1835541 5.80422747,18.9783733 C1.55665236,15.9844833 0.535364807,10.0910083 3.52767167,5.84095999 C4.17833691,4.91713937 4.96574034,4.14641923 5.84357833,3.53556326 C5.85439378,3.5280266 5.86520923,3.52053825 5.87592811,3.51295328 C8.96929185,1.38027168 13.1695976,1.23654371 16.4542597,3.42806923 L15.7487929,4.44798227 C15.5526663,4.73186314 15.6733262,4.9387348 16.0166685,4.90781516 L19.0810622,4.63330681 C19.4248391,4.60238718 19.6304292,4.30483403 19.5379667,3.97264124 L18.7150751,1.0059992 C18.6229506,0.673419916 18.3870869,0.63361089 18.1907672,0.917443447 L17.4836588,1.93977208 C15.0731652,0.320694555 12.1820118,-0.296683528 9.3123927,0.201219166 C9.0233691,0.251270319 8.73840129,0.31252984 8.45734442,0.38383824 C8.44083155,0.387509947 8.42982296,0.391036717 8.41924893,0.393983744 C5.94473176,1.02981698 3.78574571,2.47390872 2.24517167,4.53431568 C2.23218348,4.54972718 2.21880901,4.5648005 2.20654506,4.58156474 C2.15531652,4.65060248 2.10447425,4.72123451 2.05469421,4.79186655 C1.97328863,4.90762192 1.89304185,5.026276 1.81627146,5.14493009 C1.80666309,5.15923042 1.79932403,5.17377231 1.79092275,5.18821757 C0.519624464,7.15939241 -0.0935729614,9.43826589 0.0115879828,11.7583011 C0.0118293991,11.7659344 0.0113948498,11.773616 0.0115879828,11.7814425 C0.0217757511,12.0080738 0.0397371245,12.2378453 0.0641201717,12.4640417 C0.0654238197,12.4786319 0.0686587983,12.4924491 0.0711212446,12.5070393 C0.0963251073,12.7344919 0.127950644,12.9624758 0.167591202,13.1904115 C0.570466738,15.5160509 1.66688305,17.6087786 3.3098176,19.237132 C3.31363197,19.2409486 3.3175912,19.2451034 3.32145386,19.249065 C3.7670118,19.6883654 4.24714056,20.0912868 4.76410944,20.455607 C6.11700644,21.4094777 7.62349249,22.0399966 9.24136803,22.3304962 C9.73226395,22.4187621 10.201191,22.091787 10.2892597,21.6008412 C10.37728,21.1095572 10.0507886,20.6399653 9.56003755,20.5519893 Z" id="Path"></path>
            </g>
        </g>
        <g id="Group-2" transform="translate(23.000000, 28.000000)" fill="url(#linearGradient-1)">
            <g id="Group-4" fill-rule="nonzero">
                <path d="M21.8810704,20.3125129 C21.6801828,20.8084987 21.2379478,21.1111111 20.6555556,21.1111111 L19.3111111,21.1111111 C18.5044444,21.1111111 17.9666667,20.5305556 17.9666667,19.6597222 L17.9666667,18.2083333 L1.83333333,18.2083333 L1.83333333,19.6597222 C1.83333333,20.5305556 1.29555556,21.1111111 0.488888889,21.1111111 L-0.855555556,21.1111111 C-1.66222222,21.1111111 -2.2,20.5305556 -2.2,19.6597222 L-2.2,8.04861111 L0.623333333,-0.659722222 C0.892222222,-1.53055556 1.56444444,-2.11111111 2.50555556,-2.11111111 L17.2944444,-2.11111111 C18.1011111,-2.11111111 18.9077251,-1.53055556 19.1766667,-0.659722222 L20.0326047,1.98034627 C19.4186234,2.40091524 18.8487497,2.88413353 18.3315451,3.42476415 L17.2944444,0.0659722222 L2.50555556,0.0659722222 L0.488888889,6.59722222 L16.2270251,6.59722222 C15.7132852,7.79496477 15.4344505,9.06979694 15.4030112,10.3683906 C15.3000334,10.7380771 15.2777778,11.1950743 15.2777778,11.6770833 C15.2777778,11.9789851 15.3800315,12.2735277 15.584539,12.5607112 C15.9943848,14.710917 17.0571437,16.6451236 18.6362661,18.1558291 C18.6399957,18.1594312 18.643867,18.1633525 18.6476438,18.1670914 C19.0833004,18.5816991 19.5527597,18.9619726 20.0582403,19.3058147 C20.6381483,19.7004714 21.2469171,20.0364792 21.8810704,20.3125129 Z M18.2008863,6.54201437 L18.1789474,6.59722222 L18.1714599,6.59722222 C18.1811962,6.57879738 18.191005,6.56039465 18.2008863,6.54201437 Z M2.50555556,13.8541667 C3.58111111,13.8541667 4.52222222,12.8381944 4.52222222,11.6770833 C4.52222222,10.5159722 3.58111111,9.5 2.50555556,9.5 C1.43,9.5 0.488888889,10.5159722 0.488888889,11.6770833 C0.488888889,12.8381944 1.43,13.8541667 2.50555556,13.8541667 Z" id="Combined-Shape"></path>
            </g>
            <g id="time-left" transform="translate(17.000000, 2.000000)">
                <path d="M10.1996717,15.5208164 C10.0597318,15.5559179 9.91705579,15.5870907 9.77543777,15.6133434 C9.40523176,15.6826285 9.16048283,16.040987 9.22895708,16.4139222 C9.26277468,16.5973974 9.36630687,16.7502138 9.50686695,16.8499741 C9.65173176,16.9525983 9.83610515,16.9989352 10.0239807,16.9637603 C10.1926309,16.932257 10.3625944,16.8952095 10.5293841,16.8533153 C10.8949571,16.761743 11.1176717,16.3889914 11.02647,16.0212333 C10.9354871,15.6531447 10.5654635,15.4291706 10.1996717,15.5208164 Z" id="Path"></path>
                <path d="M15.2448047,6.31706048 C15.2925944,6.46201944 15.3838326,6.58035853 15.4990751,6.66212743 C15.6699506,6.78325702 15.8935408,6.82401296 16.1069163,6.75300216 C16.4646459,6.6334514 16.6584678,6.24520518 16.5401245,5.88534125 C16.486206,5.72128942 16.4263777,5.55672354 16.3626459,5.39649028 C16.222706,5.04437365 15.8258691,4.87294168 15.4758369,5.01378834 C15.1261695,5.15456156 14.9557682,5.55407991 15.0958176,5.9063067 C15.1493712,6.04098488 15.1995322,6.17922462 15.2448047,6.31706048 Z" id="Path"></path>
                <path d="M12.4165665,14.5404341 C12.2962167,14.6204039 12.172,14.6978035 12.0468712,14.7703197 C11.7204056,14.9598531 11.6085923,15.3798596 11.7968326,15.7082937 C11.8479421,15.7976263 11.916015,15.8706566 11.994412,15.9264665 C12.2048691,16.0755011 12.4906953,16.0978251 12.7286588,15.9598423 C12.877427,15.8734838 13.0253562,15.7816177 13.1686888,15.6862268 C13.4829335,15.47727 13.5694292,15.0512419 13.3617082,14.7348143 C13.1540236,14.4182765 12.7309206,14.3313305 12.4165665,14.5404341 Z" id="Path"></path>
                <path d="M16.9643219,8.23486609 C16.9494742,7.85587257 16.6323112,7.56088769 16.2556481,7.57568467 C15.8794592,7.59062851 15.5861545,7.9099568 15.6009292,8.28880346 C15.6065837,8.43365227 15.6080429,8.58066739 15.6047232,8.72536933 C15.5994335,8.96303888 15.7149313,9.17489633 15.8944163,9.3022311 C16.0013412,9.37801512 16.131103,9.42387473 16.271809,9.42710583 C16.6483627,9.43551404 16.9604185,9.13491145 16.9687725,8.75573434 C16.97253,8.58283369 16.9711073,8.40765659 16.9643219,8.23486609 Z" id="Path"></path>
                <path d="M15.1334657,12.7340648 C14.831515,12.5060518 14.4043262,12.5679568 14.1781824,12.8713132 C14.0915773,12.987486 14.0003755,13.1022268 13.906985,13.2127084 C13.6629292,13.5013045 13.6974034,13.9347862 13.9841416,14.1806069 C14.000485,14.1945594 14.0170107,14.2073737 14.0341567,14.2194168 C14.3192167,14.4216911 14.715397,14.3752073 14.945882,14.102987 C15.0574034,13.9711728 15.1661159,13.834108 15.2696116,13.6953542 C15.4957918,13.3919978 15.4345773,12.9617473 15.1334657,12.7340648 Z" id="Path"></path>
                <path d="M16.1363197,10.2518812 C15.7768026,10.1384255 15.3939378,10.3398553 15.2812854,10.7017019 C15.2381652,10.8399417 15.1903755,10.9788423 15.1387918,11.114879 C15.0255193,11.4143434 15.1340494,11.7438423 15.3828476,11.9204147 C15.428485,11.952689 15.4787554,11.9800432 15.533367,12.0008251 C15.8853691,12.1360173 16.2795429,11.95827 16.4137189,11.6038402 C16.47497,11.4421015 16.5318069,11.276838 16.5832082,11.1124924 C16.6957511,10.7505724 16.4957639,10.3653369 16.1363197,10.2518812 Z" id="Path"></path>
                <path d="M8.06675536,3.01806911 C7.76166738,3.01806911 7.51454721,3.2670108 7.51454721,3.57363499 L7.51454721,9.10862203 L12.5441395,11.7254838 C12.6250901,11.7676717 12.7117682,11.7875356 12.7970601,11.7875356 C12.9968283,11.7875356 13.1897747,11.6780454 13.2878712,11.4870065 C13.4277747,11.2143456 13.3219077,10.8793758 13.0510021,10.7385659 L8.61834335,8.43207343 L8.61834335,3.57363499 C8.61830687,3.2670108 8.37147854,3.01806911 8.06675536,3.01806911 Z" id="Path"></path>
                <path d="M7.22313948,15.6195119 C6.6131824,15.5092873 6.02806867,15.3215896 5.47323391,15.059797 C5.46666738,15.0563456 5.46079399,15.0524168 5.45389914,15.0492592 C5.32315236,14.9873175 5.19262446,14.9209698 5.06610944,14.8516479 C4.83204936,14.7218531 4.60550429,14.5795011 4.38541631,14.4235637 C1.17613734,12.1482073 0.404497854,7.66916631 2.66535193,4.43912959 C3.15696567,3.73702592 3.7518927,3.15127862 4.41514807,2.68702808 C4.42331974,2.68130022 4.43149142,2.67560907 4.43959013,2.66984449 C6.77679828,1.04900648 9.95036266,0.939773218 12.4321073,2.60533261 L11.899088,3.38046652 C11.7509034,3.59621598 11.8420687,3.75343844 12.1014828,3.72993952 L14.4168026,3.52131317 C14.6765451,3.49781425 14.8318798,3.27167387 14.7620193,3.01920734 L14.140279,0.764559395 C14.0706738,0.511799136 13.8924657,0.481544276 13.7441352,0.697257019 L13.2098755,1.47422678 C11.3886137,0.243727862 9.2041867,-0.225479482 7.03603004,0.152926566 C6.81765665,0.190965443 6.60234764,0.237522678 6.38999356,0.291717063 C6.37751717,0.294507559 6.36919957,0.297187905 6.3612103,0.299427646 C4.49157511,0.782660907 2.8603412,1.88017063 1.69635193,3.44607991 C1.68653863,3.45779266 1.67643348,3.46924838 1.66716738,3.4819892 C1.62846137,3.53445788 1.59004721,3.58813823 1.55243562,3.64181857 C1.49092918,3.72979266 1.43029828,3.81996976 1.37229399,3.91014687 C1.36503433,3.92101512 1.35948927,3.93206695 1.35314163,3.94304536 C0.39260515,5.44113823 -0.0706995708,7.17308207 0.00875536481,8.93630886 C0.00893776824,8.94211015 0.00860944206,8.94794816 0.00875536481,8.95389633 C0.0164527897,9.12613607 0.0300236052,9.30076242 0.0484463519,9.47267171 C0.0494313305,9.48376026 0.0518755365,9.49426134 0.0537360515,9.50534989 C0.07277897,9.67821382 0.0966738197,9.85148164 0.126624464,10.0247127 C0.431019313,11.7921987 1.25942275,13.3826717 2.50075107,14.6202203 C2.50363305,14.623121 2.50662446,14.6262786 2.50954292,14.6292894 C2.8461867,14.9631577 3.20895064,15.269378 3.59954936,15.5462613 C4.6217382,16.271203 5.7599721,16.7503974 6.98236695,16.9711771 C7.35326609,17.0382592 7.70756652,16.7897581 7.7741073,16.4166393 C7.84061159,16.0432635 7.59392918,15.6863737 7.22313948,15.6195119 Z" id="Path"></path>
            </g>
        </g>
    </g>
</svg>