<?xml version="1.0" encoding="UTF-8"?>
<svg width="34px" height="34px" viewBox="0 0 34 34" version="1.1" xmlns="http://www.w3.org/2000/svg" xmlns:xlink="http://www.w3.org/1999/xlink">
    <!-- Generator: Sketch 52.2 (67145) - http://www.bohemiancoding.com/sketch -->
    <title>Icon/Analytic/dwellingpeople</title>
    <desc>Created with Sketch.</desc>
    <defs>
        <filter x="-20.0%" y="-20.0%" width="140.0%" height="140.0%" filterUnits="objectBoundingBox" id="filter-1">
            <feGaussianBlur stdDeviation="2" in="SourceGraphic"></feGaussianBlur>
        </filter>
    </defs>
    <g id="Icon/Analytic/dwellingpeople" stroke="none" stroke-width="1" fill="none" fill-rule="evenodd">
        <g id="Icon/Analytic/Esti" transform="translate(2.000000, 2.000000)">
            <circle id="Oval-3" stroke="#A4FF53" fill="#03031D" cx="15" cy="15" r="15"></circle>
            <circle id="Oval-3" stroke="#91FDFF" stroke-width="2" fill="#03031D" filter="url(#filter-1)" cx="15" cy="15" r="14"></circle>
            <circle id="Oval-3" stroke="#91FDFF" cx="15" cy="15" r="15"></circle>
        </g>
        <g id="group-(1)" transform="translate(11.000000, 8.000000)" fill="#91FDFF">
            <path d="M8.31252808,5.51351351 C9.03618766,5.51351351 9.625,4.89513365 9.625,4.13513514 C9.625,3.37513662 9.03618766,2.75675676 8.31252808,2.75675676 C7.5888685,2.75675676 7,3.37507763 7,4.13513514 C7,4.89519264 7.58881234,5.51351351 8.31252808,5.51351351 Z" id="Path"></path>
            <path d="M6.5625,11.348427 L7.00705486,10.6264847 C7.06887414,10.5261691 7.1018059,10.4087674 7.1018059,10.2888115 L7.1018059,7.17726846 C7.1018059,6.79490186 7.00249508,6.43176238 6.82597001,6.12054088 C6.82902375,6.11947436 6.83208244,6.11841702 6.83514605,6.11736889 C6.83871164,6.11614941 7.22749292,5.99372747 7.22749292,5.99372747 C7.36813561,5.9495553 7.52119183,5.97672254 7.63905436,6.06730258 L8.4143059,6.66288161 L9.18955744,6.06730258 C9.30748601,5.97679029 9.46027811,5.94962305 9.60111888,5.99372747 C9.60111888,5.99372747 9.98990017,6.11614941 9.99346576,6.11736889 C10.6189625,6.3313871 11.0393059,6.92967608 11.0393059,7.60621483 L11.0393059,9.99970946 C11.0393059,10.0919832 11.0129602,10.1822923 10.9635041,10.2594581 L10.1811874,11.4810353 L10.1811874,14.6890728 C10.1811874,14.9503797 9.97477943,15.1621622 9.72010392,15.1621622 L7.10850789,15.1621622 C6.85383238,15.1621622 6.64742438,14.9503797 6.64742438,14.6890728 L6.64742438,11.4810353 L6.5625,11.348427 Z" id="Combined-Shape"></path>
            <path d="M12.2500187,7.35135135 C12.7324584,7.35135135 13.125,6.93909811 13.125,6.43243243 C13.125,5.92576675 12.7324584,5.51351351 12.2500187,5.51351351 C11.767579,5.51351351 11.375,5.92572743 11.375,6.43243243 C11.375,6.93913743 11.7675416,7.35135135 12.2500187,7.35135135 Z" id="Path"></path>
            <path d="M5.25513372,5.24176874 C5.25067679,5.24018342 4.7647063,5.0810349 4.7647063,5.0810349 C4.58874008,5.02369915 4.39758728,5.05901656 4.25026097,5.17668255 L3.28120873,5.95093528 L2.31215649,5.17668255 C2.16474764,5.05892849 1.97351231,5.02361108 1.79771117,5.0810349 C1.79771117,5.0810349 1.31174067,5.24018342 1.30728374,5.24176874 C0.525340047,5.51999243 0,6.29776809 0,7.17726846 L0,10.2888115 C0,10.4088555 0.0328492284,10.5262572 0.0947510407,10.6264847 L1.0726346,12.2145351 L1.0726346,16.3849839 C1.0726346,16.7246827 1.33064136,17 1.64898174,17 L4.91351826,17 C5.23185864,17 5.4898654,16.7246827 5.4898654,16.3849839 L5.4898654,12.2145351 L6.46774896,10.6264847 C6.52956824,10.5261691 6.5625,10.4087674 6.5625,10.2888115 L6.5625,7.17726846 C6.5625,6.29776809 6.03707742,5.51999243 5.25513372,5.24176874 Z" id="Path"></path>
            <path d="M10.9375,11.4561945 L11.7039251,10.2594318 C11.7533812,10.182266 11.7797269,10.0919569 11.7797269,9.99968315 L11.7797269,7.99262549 L12.115421,8.22472968 L12.6322554,7.86738226 C12.7108744,7.81307489 12.8127358,7.79677454 12.9066297,7.82323719 C12.9066297,7.82323719 13.1658172,7.89669036 13.1681943,7.89742205 C13.5851921,8.02583298 13.865421,8.38480636 13.865421,8.79072961 L13.865421,10.2268264 C13.865421,10.2821906 13.8478572,10.3363761 13.8148865,10.3826756 L13.293342,11.1156219 L13.293342,13.0404444 C13.293342,13.1972285 13.1557367,13.324298 12.985953,13.324298 L11.244889,13.324298 C11.0751053,13.324298 10.9375,13.1972285 10.9375,13.0404444 L10.9375,11.4561945 Z" id="Combined-Shape"></path>
            <path d="M1.3125,2.06756757 C1.3125,3.20756535 2.19573741,4.13513514 3.28125,4.13513514 C4.36676259,4.13513514 5.25,3.20756535 5.25,2.06756757 C5.25,0.927569788 4.36676259,0 3.28125,0 C2.19573741,0 1.3125,0.927481313 1.3125,2.06756757 Z" id="Path"></path>
        </g>
    </g>
</svg>