<?xml version="1.0" encoding="UTF-8"?>
<svg width="75px" height="75px" viewBox="0 0 75 75" version="1.1" xmlns="http://www.w3.org/2000/svg" xmlns:xlink="http://www.w3.org/1999/xlink">
    <!-- Generator: Sketch 54.1 (76490) - https://sketchapp.com -->
    <title>Icon / Analytic / Medium / Vehicle Intrusion</title>
    <desc>Created with Sketch.</desc>
    <defs>
        <linearGradient x1="-10.7006642%" y1="26.283221%" x2="100%" y2="64.7462626%" id="linearGradient-1">
            <stop stop-color="#DD9FFF" offset="0%"></stop>
            <stop stop-color="#8760FF" offset="100%"></stop>
        </linearGradient>
        <linearGradient x1="-10.7006642%" y1="46.386486%" x2="100%" y2="52.2467565%" id="linearGradient-2">
            <stop stop-color="#DD9FFF" offset="0%"></stop>
            <stop stop-color="#8760FF" offset="100%"></stop>
        </linearGradient>
        <linearGradient x1="-10.7006642%" y1="19.0085863%" x2="100%" y2="69.2693757%" id="linearGradient-3">
            <stop stop-color="#DD9FFF" offset="0%"></stop>
            <stop stop-color="#8760FF" offset="100%"></stop>
        </linearGradient>
        <linearGradient x1="-10.7006642%" y1="25.3966884%" x2="100%" y2="65.2974775%" id="linearGradient-4">
            <stop stop-color="#DD9FFF" offset="0%"></stop>
            <stop stop-color="#8760FF" offset="100%"></stop>
        </linearGradient>
        <linearGradient x1="-10.7006642%" y1="46.2514129%" x2="100%" y2="52.3307402%" id="linearGradient-5">
            <stop stop-color="#DD9FFF" offset="0%"></stop>
            <stop stop-color="#8760FF" offset="100%"></stop>
        </linearGradient>
    </defs>
    <g id="Icon-/-Analytic-/-Medium-/-Vehicle-Intrusion" stroke="none" stroke-width="1" fill="none" fill-rule="evenodd">
        <g id="fr-ico-step">
            <rect id="Rectangle" fill="#D8D8D8" opacity="0" x="0" y="0" width="75" height="75"></rect>
            <g id="fr" opacity="0.204427083" transform="translate(2.000000, 2.000000)" stroke="#9795F0" stroke-linecap="square">
                <g id="Group">
                    <polyline id="Line" points="20.7083333 3.55271368e-15 -1.49213975e-13 3.55271368e-15 -1.49213975e-13 21.6944444"></polyline>
                    <polyline id="Line" transform="translate(60.645833, 10.847222) scale(-1, 1) translate(-60.645833, -10.847222) " points="71 3.55271368e-15 50.2916667 3.55271368e-15 50.2916667 21.6944444"></polyline>
                    <polyline id="Line" transform="translate(10.354167, 60.152778) scale(-1, 1) rotate(-180.000000) translate(-10.354167, -60.152778) " points="20.7083333 49.3055556 -1.49213975e-13 49.3055556 -1.49213975e-13 71"></polyline>
                    <polyline id="Line" transform="translate(60.645833, 60.152778) rotate(180.000000) translate(-60.645833, -60.152778) " points="71 49.3055556 50.2916667 49.3055556 50.2916667 71"></polyline>
                </g>
            </g>
            <g id="fr" transform="translate(7.000000, 8.000000)" stroke="#9795F0" stroke-linecap="square">
                <polyline id="Line" points="18 0 0 0 0 18.2142857"></polyline>
                <polyline id="Line" transform="translate(51.000000, 9.107143) scale(-1, 1) translate(-51.000000, -9.107143) " points="60 0 42 0 42 18.2142857"></polyline>
                <polyline id="Line" transform="translate(9.000000, 50.892857) scale(-1, 1) rotate(-180.000000) translate(-9.000000, -50.892857) " points="18 41.7857143 0 41.7857143 0 60"></polyline>
                <polyline id="Line" transform="translate(51.000000, 50.892857) rotate(180.000000) translate(-51.000000, -50.892857) " points="60 41.7857143 42 41.7857143 42 60"></polyline>
            </g>
        </g>
        <g id="do-not-disturb-rounded-sign" opacity="0.2" transform="translate(16.000000, 16.000000)" fill-rule="nonzero">
            <g id="car" transform="translate(5.000000, 14.000000)">
                <path d="M7.61152416,8.87804878 C5.9973356,8.87804878 4.68401487,10.0268775 4.68401487,11.4390244 C4.68401487,12.8511113 5.99726698,14 7.61152416,14 C9.22571273,14 10.5390335,12.8511713 10.5390335,11.4390244 C10.5390335,10.0269375 9.22578134,8.87804878 7.61152416,8.87804878 Z M7.61152416,12.9755978 C6.6431208,12.9755978 5.85503231,12.2861805 5.85503231,11.4390244 C5.85503231,10.5918683 6.6431208,9.90245103 7.61152416,9.90245103 C8.57992752,9.90245103 9.36801602,10.5918683 9.36801602,11.4390244 C9.36801602,12.2861805 8.57992752,12.9755978 7.61152416,12.9755978 Z" id="Shape" fill="url(#linearGradient-1)"></path>
                <path d="M34.416891,8.8947799 L34.416891,5.83834029 C34.416891,5.61931535 34.2564506,5.42416884 34.017875,5.35492138 L30.7266936,4.3967395 C29.4871258,2.563413 27.78319,0.818675489 24.0177285,0.242548561 C24.0107558,0.241533728 24.0037148,0.240518894 23.9967421,0.239504061 C17.0427756,-0.600001999 11.8219345,0.769784394 8.4700496,4.31220984 C5.97512288,4.34378907 3.42824273,4.79921052 1.93027498,5.63668691 C1.15445989,6.07067745 0.694193518,6.82613143 0.65099014,7.62999892 L0.583313963,8.8948396 C0.261339421,8.8948396 0,9.12305773 0,9.4042263 L0,11.4418328 C0,11.7230014 0.261339421,11.9512195 0.583313963,11.9512195 L2.91663817,11.9512195 C3.24039007,11.9512195 3.49940526,11.718942 3.49995214,11.4362214 C3.49995214,11.4336544 3.50056737,11.4311472 3.50056737,11.428043 C3.50931743,9.4652954 5.33342967,7.8759468 7.58335495,7.8759468 C9.83854394,7.8759468 11.6666894,9.47239923 11.6666894,11.4417731 C11.6247165,11.7509988 11.9041029,11.9511598 12.2500034,11.9511598 L22.7500649,11.9511598 C23.0738168,11.9511598 23.3328319,11.7188823 23.3333788,11.4361617 C23.3333788,11.4335947 23.3339257,11.4310875 23.3339257,11.4279833 C23.3426758,9.4652357 25.166788,7.8758871 27.4167133,7.8758871 C29.6719023,7.8758871 31.5000477,9.47233953 31.5000477,11.4417134 C31.4580748,11.7509391 31.7374612,11.9511001 32.0833617,11.9511001 L34.4166859,11.9511001 C34.7386605,11.9511001 34.9999999,11.722882 34.9999999,11.4417134 L34.9999999,9.40410691 C35.000205,9.12299804 34.7388655,8.8947799 34.416891,8.8947799 Z M18.6667988,4.05545698 C18.6667988,4.19604126 18.5361632,4.31018018 18.3751076,4.31018018 L10.7678267,4.31018018 C10.4983525,4.31018018 10.3758518,4.02083325 10.5747104,3.86239984 C12.5989117,2.25114277 15.1731357,1.32961429 18.3453711,1.08462155 C18.5162705,1.07136902 18.6667988,1.19159694 18.6667988,1.34137442 L18.6667988,4.05545698 Z M25.6749746,4.05796421 C25.6731972,4.19753366 25.5431086,4.31012048 25.3832834,4.31012048 L20.1251179,4.31012048 C19.9641306,4.31012048 19.8334267,4.19604126 19.8334267,4.05539728 L19.8334267,1.27403723 C19.8334267,1.13291569 19.9623532,1.0168068 20.1233405,1.0168068 C21.2864821,1.01579197 22.5173682,1.08963602 23.8257743,1.24759187 C24.4488053,1.34334439 25.0040917,1.47479517 25.5092705,1.63627309 C25.6253454,1.67346375 25.6994474,1.7717832 25.6982853,1.87977342 L25.6749746,4.05796421 Z M28.7194455,4.31012048 L27.133362,4.31012048 C26.9712126,4.31012048 26.8399619,4.19448916 26.8416709,4.05289005 L26.8568467,2.67241805 C26.859171,2.46204905 27.1339089,2.34791013 27.3281874,2.47219738 C27.9588063,2.8746087 28.4831941,3.35396827 28.9504332,3.8980384 C29.0962446,4.06763498 28.9620544,4.31012048 28.7194455,4.31012048 Z" id="Shape" fill="url(#linearGradient-2)"></path>
                <path d="M27.3884758,8.87804878 C25.7742873,8.87804878 24.4609665,10.0268775 24.4609665,11.4390244 C24.4609665,12.8511113 25.7742187,14 27.3884758,14 C29.0026644,14 30.3159851,12.8511713 30.3159851,11.4390244 C30.3159165,10.0269375 29.0026644,8.87804878 27.3884758,8.87804878 Z M27.3884758,12.9755978 C26.4200725,12.9755978 25.631984,12.2861805 25.631984,11.4390244 C25.631984,10.5918683 26.4200725,9.90245103 27.3884758,9.90245103 C28.3568792,9.90245103 29.1449677,10.5918683 29.1449677,11.4390244 C29.1449677,12.2861805 28.3568792,12.9755978 27.3884758,12.9755978 Z" id="Shape" fill="url(#linearGradient-1)"></path>
            </g>
            <path d="M22,0 C9.9,0 0,9.9 0,22 C0,34.1 9.9,44 22,44 C34.1,44 44,34.1 44,22 C44,9.9 34.1,0 22,0 Z M4.4,22 C4.4,12.32 12.32,4.4 22,4.4 C25.96,4.4 29.7,5.72 32.78,8.14 L8.14,32.78 C5.72,29.7 4.4,25.96 4.4,22 Z M22,39.6 C18.04,39.6 14.3,38.28 11.22,35.86 L35.86,11.22 C38.28,14.3 39.6,18.04 39.6,22 C39.6,31.68 31.68,39.6 22,39.6 Z" id="Shape" fill="url(#linearGradient-3)"></path>
        </g>
        <g id="do-not-disturb-rounded-sign" transform="translate(21.000000, 21.000000)" fill-rule="nonzero">
            <g id="car" transform="translate(4.000000, 11.000000)">
                <path d="M5.87174721,6.97560976 C4.62651603,6.97560976 3.6133829,7.87826086 3.6133829,8.98780488 C3.6133829,10.0973017 4.6264631,11 5.87174721,11 C7.11697839,11 8.13011152,10.0973489 8.13011152,8.98780488 C8.13011152,7.87830802 7.11703132,6.97560976 5.87174721,6.97560976 Z M5.87174721,10.1951125 C5.12469319,10.1951125 4.51673921,9.65342754 4.51673921,8.98780488 C4.51673921,8.32218222 5.12469319,7.78049724 5.87174721,7.78049724 C6.61880123,7.78049724 7.22675521,8.32218222 7.22675521,8.98780488 C7.22675521,9.65342754 6.61880123,10.1951125 5.87174721,10.1951125 Z" id="Shape" fill="url(#linearGradient-4)"></path>
                <path d="M26.5501731,6.98875564 L26.5501731,4.58726737 C26.5501731,4.41517634 26.4264048,4.26184695 26.2423607,4.20743823 L23.7034494,3.45458104 C22.7472113,2.01411021 21.4327466,0.643245027 18.527962,0.19057387 C18.5225831,0.1897765 18.5171514,0.188979131 18.5117725,0.188181762 C13.147284,-0.471430142 9.11977801,0.604830596 6.53403826,3.38816488 C4.60938051,3.41297713 2.64464439,3.77080826 1.48906927,4.42882543 C0.89058334,4.769818 0.535520714,5.36338898 0.502192394,5.99499915 L0.449985057,6.98880254 C0.201604696,6.98880254 0,7.16811679 0,7.38903495 L0,8.99001149 C0,9.21092965 0.201604696,9.3902439 0.449985057,9.3902439 L2.24997802,9.3902439 C2.49972948,9.3902439 2.6995412,9.20774017 2.69996308,8.98560251 C2.69996308,8.98358564 2.70043769,8.98161566 2.70043769,8.97917665 C2.70718773,7.43701781 4.11436003,6.18824391 5.85001668,6.18824391 C7.5897339,6.18824391 9.00001755,7.44259939 9.00001755,8.98996459 C8.96763845,9.23292766 9.1831651,9.390197 9.4500026,9.390197 L17.55005,9.390197 C17.7998015,9.390197 17.9996132,9.20769327 18.0000351,8.98555561 C18.0000351,8.98353873 18.000457,8.98156876 18.000457,8.97912975 C18.007207,7.43697091 19.4143793,6.18819701 21.150036,6.18819701 C22.8897532,6.18819701 24.3000368,7.44255249 24.3000368,8.98991768 C24.2676577,9.23288076 24.4831844,9.39015009 24.7500219,9.39015009 L26.5500148,9.39015009 C26.7983952,9.39015009 26.9999999,9.21083584 26.9999999,8.98991768 L26.9999999,7.38894114 C27.0001581,7.16806989 26.7985534,6.98875564 26.5501731,6.98875564 Z M14.4001019,3.18643048 C14.4001019,3.29688956 14.2993259,3.38657014 14.175083,3.38657014 L8.30660919,3.38657014 C8.09872907,3.38657014 8.00422851,3.15922612 8.15763371,3.03474273 C9.71916043,1.76875504 11.7049904,1.04469694 14.1521434,0.852202649 C14.2839801,0.841789946 14.4001019,0.936254738 14.4001019,1.05393704 L14.4001019,3.18643048 Z M19.806409,3.18840045 C19.8050379,3.29806216 19.7046837,3.38652324 19.5813901,3.38652324 L15.5250909,3.38652324 C15.4009007,3.38652324 15.300072,3.29688956 15.300072,3.18638358 L15.300072,1.00102926 C15.300072,0.89014804 15.3995296,0.798919628 15.5237198,0.798919628 C16.4210005,0.798122259 17.3705412,0.85614259 18.379883,0.980250754 C18.8605069,1.05548488 19.2888708,1.15876764 19.6785801,1.28564314 C19.7681236,1.31486437 19.825288,1.39211537 19.8243915,1.47696483 L19.806409,3.18840045 Z M22.1550008,3.38652324 L20.9314507,3.38652324 C20.806364,3.38652324 20.7051134,3.29567006 20.7064318,3.18441361 L20.7181389,2.09975704 C20.7199319,1.93446711 20.9318726,1.84478653 21.0817445,1.9424408 C21.568222,2.25862112 21.9727498,2.63526078 22.3331913,3.06274446 C22.4456744,3.19599891 22.3421562,3.38652324 22.1550008,3.38652324 Z" id="Shape" fill="url(#linearGradient-5)"></path>
                <path d="M21.1282528,6.97560976 C19.8830216,6.97560976 18.8698885,7.87826086 18.8698885,8.98780488 C18.8698885,10.0973017 19.8829687,11 21.1282528,11 C22.373484,11 23.3866171,10.0973489 23.3866171,8.98780488 C23.3865642,7.87830802 22.373484,6.97560976 21.1282528,6.97560976 Z M21.1282528,10.1951125 C20.3811988,10.1951125 19.7732448,9.65342754 19.7732448,8.98780488 C19.7732448,8.32218222 20.3811988,7.78049724 21.1282528,7.78049724 C21.8753068,7.78049724 22.4832608,8.32218222 22.4832608,8.98780488 C22.4832608,9.65342754 21.8753068,10.1951125 21.1282528,10.1951125 Z" id="Shape" fill="url(#linearGradient-4)"></path>
            </g>
            <path d="M17,0 C7.65,0 0,7.65 0,17 C0,26.35 7.65,34 17,34 C26.35,34 34,26.35 34,17 C34,7.65 26.35,0 17,0 Z M3.4,17 C3.4,9.52 9.52,3.4 17,3.4 C20.06,3.4 22.95,4.42 25.33,6.29 L6.29,25.33 C4.42,22.95 3.4,20.06 3.4,17 Z M17,30.6 C13.94,30.6 11.05,29.58 8.67,27.71 L27.71,8.67 C29.58,11.05 30.6,13.94 30.6,17 C30.6,24.48 24.48,30.6 17,30.6 Z" id="Shape" fill="url(#linearGradient-3)"></path>
        </g>
    </g>
</svg>