<?xml version="1.0" encoding="UTF-8"?>
<svg width="75px" height="75px" viewBox="0 0 75 75" version="1.1" xmlns="http://www.w3.org/2000/svg" xmlns:xlink="http://www.w3.org/1999/xlink">
    <!-- Generator: Sketch 52.5 (67469) - http://www.bohemiancoding.com/sketch -->
    <title>ico/step/dwellingpeople</title>
    <desc>Created with Sketch.</desc>
    <defs>
        <linearGradient x1="-10.7006642%" y1="19.0085863%" x2="100%" y2="69.2693757%" id="linearGradient-1">
            <stop stop-color="#DD9FFF" offset="0%"></stop>
            <stop stop-color="#8760FF" offset="100%"></stop>
        </linearGradient>
    </defs>
    <g id="ico/step/dwellingpeople" stroke="none" stroke-width="1" fill="none" fill-rule="evenodd">
        <g id="fr-ico-step">
            <rect id="Rectangle" fill="#D8D8D8" opacity="0" x="0" y="0" width="75" height="75"></rect>
            <g id="fr" opacity="0.204427083" transform="translate(2.000000, 2.000000)" stroke="#9795F0" stroke-linecap="square">
                <g id="Group">
                    <polyline id="Line" points="20.7083333 3.55271368e-15 -1.49213975e-13 3.55271368e-15 -1.49213975e-13 21.6944444"></polyline>
                    <polyline id="Line" transform="translate(60.645833, 10.847222) scale(-1, 1) translate(-60.645833, -10.847222) " points="71 3.55271368e-15 50.2916667 3.55271368e-15 50.2916667 21.6944444"></polyline>
                    <polyline id="Line" transform="translate(10.354167, 60.152778) scale(-1, 1) rotate(-180.000000) translate(-10.354167, -60.152778) " points="20.7083333 49.3055556 -1.49213975e-13 49.3055556 -1.49213975e-13 71"></polyline>
                    <polyline id="Line" transform="translate(60.645833, 60.152778) rotate(180.000000) translate(-60.645833, -60.152778) " points="71 49.3055556 50.2916667 49.3055556 50.2916667 71"></polyline>
                </g>
            </g>
            <g id="fr" transform="translate(7.000000, 8.000000)" stroke="#9795F0" stroke-linecap="square">
                <polyline id="Line" points="18 0 0 0 0 18.2142857"></polyline>
                <polyline id="Line" transform="translate(51.000000, 9.107143) scale(-1, 1) translate(-51.000000, -9.107143) " points="60 0 42 0 42 18.2142857"></polyline>
                <polyline id="Line" transform="translate(9.000000, 50.892857) scale(-1, 1) rotate(-180.000000) translate(-9.000000, -50.892857) " points="18 41.7857143 0 41.7857143 0 60"></polyline>
                <polyline id="Line" transform="translate(51.000000, 50.892857) rotate(180.000000) translate(-51.000000, -50.892857) " points="60 41.7857143 42 41.7857143 42 60"></polyline>
            </g>
        </g>
        <g id="Group" opacity="0.2" transform="translate(23.000000, 14.000000)">
            <g id="group-(1)" fill="#D682FF">
                <path d="M3.4375,5.59459459 C3.4375,8.67929447 5.75074083,11.1891892 8.59375,11.1891892 C11.4367592,11.1891892 13.75,8.67929447 13.75,5.59459459 C13.75,2.50989472 11.4367592,0 8.59375,0 C5.75074083,0 3.4375,2.50965532 3.4375,5.59459459 Z" id="Path"></path>
            </g>
            <g id="time-left" transform="translate(10.476190, 13.529412)" fill="url(#linearGradient-1)">
                <path d="M12.5710239,19.7635309 C12.3985489,19.8082277 12.2227018,19.8479217 12.0481586,19.8813508 C11.5918823,19.9695754 11.2902309,20.4258935 11.374625,20.900773 C11.4163049,21.1344022 11.5439076,21.328992 11.7171469,21.4560224 C11.8956918,21.5866995 12.1229307,21.645703 12.354486,21.6009127 C12.5623462,21.5607979 12.7718251,21.5136232 12.9773922,21.460277 C13.4279583,21.3436727 13.7024525,20.8690271 13.590047,20.4007399 C13.4779113,19.932032 13.0218598,19.6468332 12.5710239,19.7635309 Z" id="Path"></path>
                <path d="M18.7891151,8.04386939 C18.8480155,8.22845382 18.960466,8.37914166 19.1025015,8.48326261 C19.3131044,8.63750375 19.5886777,8.68940058 19.8516616,8.59897853 C20.2925608,8.44674781 20.5314449,7.952372 20.3855876,7.49413696 C20.3191335,7.2852405 20.2453955,7.07568949 20.1668465,6.87165544 C19.9943716,6.42328548 19.5052728,6.20499149 19.0738606,6.38433947 C18.642898,6.56359395 18.4328796,7.07232321 18.6054895,7.52083344 C18.671494,7.69232677 18.733317,7.86835523 18.7891151,8.04386939 Z" id="Path"></path>
                <path d="M15.3033313,18.5151549 C15.155001,18.6169849 15.0019048,18.7155421 14.8476844,18.8078811 C14.4453178,19.0492247 14.3075087,19.5840427 14.5395136,20.0022564 C14.6025056,20.1160086 14.6864051,20.2090022 14.7830288,20.2800681 C15.0424157,20.4698422 15.3946945,20.4982686 15.6879828,20.3225674 C15.8713386,20.2126022 16.0536603,20.0956239 16.2303168,19.9741573 C16.6176211,19.7080808 16.7242264,19.1655952 16.4682117,18.7626701 C16.212242,18.3596046 15.6907705,18.2488914 15.3033313,18.5151549 Z" id="Path"></path>
                <path d="M20.9084079,10.4859195 C20.8901083,10.0033256 20.499207,9.62770474 20.0349724,9.64654656 C19.5713223,9.6655754 19.2098263,10.0721941 19.228036,10.5546009 C19.2350051,10.7390451 19.2368036,10.9262477 19.232712,11.1105049 C19.2261925,11.4131429 19.3685428,11.682913 19.5897568,11.8450555 C19.721541,11.9415556 19.8814715,11.9999512 20.0548907,12.0040656 C20.5189904,12.0147722 20.903597,11.631998 20.9138933,11.1491704 C20.9185244,10.9290062 20.9167709,10.7059433 20.9084079,10.4859195 Z" id="Path"></path>
                <path d="M18.6518905,16.2150029 C18.2797384,15.9246612 17.7532311,16.0034882 17.4745105,16.389769 C17.3677703,16.5376984 17.2553648,16.6838043 17.1402616,16.8244869 C16.8394645,17.1919726 16.8819538,17.7439492 17.2353566,18.0569666 C17.2554997,18.0747331 17.2758676,18.0910502 17.2969998,18.1063855 C17.6483344,18.3639527 18.1366237,18.3047623 18.4206949,17.9581288 C18.5581443,17.7902823 18.6921316,17.61575 18.8196894,17.439067 C19.0984549,17.0527862 19.0230084,16.5049239 18.6518905,16.2150029 Z" id="Path"></path>
                <path d="M19.8879011,13.0542986 C19.4447987,12.909829 18.9729205,13.1663209 18.8340773,13.6270807 C18.7809319,13.8031091 18.7220315,13.9799792 18.6584549,14.1532024 C18.5188473,14.5345273 18.6526099,14.9540968 18.959252,15.1789363 C19.0154997,15.220033 19.0774576,15.2548647 19.144766,15.2813274 C19.5786062,15.4534753 20.0644226,15.2271396 20.2297936,14.7758242 C20.3052851,14.5698732 20.3753362,14.3594339 20.4386879,14.1501634 C20.5773963,13.6893101 20.3309135,13.1987681 19.8879011,13.0542986 Z" id="Path"></path>
                <path d="M9.9422195,3.84307763 C9.56620069,3.84307763 9.26162681,4.16006911 9.26162681,4.55051099 L9.26162681,11.5985222 L15.4605641,14.9307199 C15.5603352,14.9844401 15.6671653,15.009734 15.7722869,15.009734 C16.0184999,15.009734 16.2563049,14.8703138 16.3772083,14.6270532 C16.5496383,14.2798587 16.419158,13.8533228 16.0852688,13.6740216 L10.6220478,10.7370347 L10.6220478,4.55051099 C10.6220029,4.16006911 10.3177887,3.84307763 9.9422195,3.84307763 Z" id="Path"></path>
                <path d="M8.90246883,19.8892054 C8.150701,19.7488502 7.42955242,19.5098442 6.74572246,19.1764889 C6.73762927,19.172094 6.73039035,19.1670913 6.7218925,19.1630705 C6.56074801,19.0841967 6.39987329,18.9997124 6.24394441,18.911441 C5.95546699,18.7461659 5.67625179,18.564901 5.40499489,18.3663372 C1.44958103,15.4689976 0.498540773,9.76558201 3.28502759,5.65259408 C3.89093807,4.75856587 4.62418148,4.0127008 5.44163908,3.4215444 C5.45171061,3.41425079 5.46178214,3.40700394 5.47176374,3.39966358 C8.35235643,1.33575912 12.2637523,1.19666624 15.3224852,3.31751696 L14.6655426,4.30453869 C14.4829062,4.57926464 14.5952667,4.77946487 14.9149928,4.74954237 L17.7686082,4.48388667 C18.088739,4.45396417 18.280188,4.16600686 18.1940854,3.844527 L17.4277948,0.9735566 C17.3420069,0.651702706 17.1223666,0.613177487 16.9395504,0.887856689 L16.2810791,1.87721611 C14.0363867,0.310352433 11.3440956,-0.287115741 8.67185776,0.194730022 C8.40271408,0.243167069 8.13734723,0.302451023 7.87562232,0.371459789 C7.86024525,0.375013086 7.84999387,0.378426121 7.84014715,0.38127811 C5.53583487,0.996606276 3.5253505,2.3941273 2.09074188,4.38808792 C2.07864705,4.40300241 2.06619252,4.41758963 2.05477212,4.43381324 C2.00706724,4.50062457 1.95972205,4.56897878 1.91336603,4.63733299 C1.83755978,4.74935536 1.76283262,4.86418295 1.69134273,4.97901055 C1.68239526,4.9928497 1.67556101,5.00692263 1.66773758,5.02090205 C0.483883098,6.92850819 -0.0871367259,9.13388998 0.0107909258,11.3791061 C0.0110157368,11.3864932 0.010611077,11.3939271 0.0107909258,11.4015012 C0.0202779481,11.6208238 0.0370038831,11.8431854 0.0597097895,12.0620872 C0.0609237686,12.0762068 0.0639362354,12.0895785 0.0662293072,12.1036981 C0.0896995708,12.3238155 0.119149806,12.5444472 0.156063765,12.7650321 C0.531228285,15.0156717 1.55222972,17.0409107 3.08215819,18.6167511 C3.0857102,18.6204447 3.0893971,18.6244655 3.09299407,18.6282993 C3.50790517,19.0534326 3.9550092,19.4433602 4.43641937,19.7959314 C5.69625996,20.7190405 7.09912528,21.3292258 8.60571837,21.610357 C9.06284897,21.6957764 9.49952177,21.379346 9.5815328,20.9042328 C9.66349888,20.4287923 9.35946454,19.9743443 8.90246883,19.8892054 Z" id="Path"></path>
            </g>
            <path d="M12.5499015,14.4404206 C11.7131848,15.1372972 10.9569479,15.9477419 10.299174,16.8599378 C10.284303,16.8782347 10.2689897,16.8961302 10.2549478,16.9160332 C10.1962929,16.9979967 10.1380801,17.081853 10.0810836,17.1657093 C9.98787693,17.3031372 9.89599702,17.4440066 9.80809747,17.584876 C9.7970962,17.6018538 9.78869323,17.6191183 9.77907403,17.6362681 C8.32347955,19.9765011 7.62138878,22.6820424 7.74179458,25.4364521 C7.742071,25.4455146 7.74157345,25.4546344 7.74179458,25.4639262 C7.75345924,25.7329891 7.77402442,26.0057801 7.8019422,26.2743268 C7.80343483,26.2916487 7.80713878,26.3080528 7.8099582,26.3253747 C7.83881579,26.5954126 7.87502598,26.8660815 7.92041311,27.136693 C8.38169227,29.8977561 9.63705268,32.3822999 11.5181584,34.3155259 C11.5225257,34.3200571 11.5270589,34.3249899 11.5314815,34.3296932 C12.0416306,34.8512426 12.5913622,35.329602 13.1832744,35.762133 C13.4960961,35.9908312 13.8160897,36.2038731 14.1428571,36.4010957 L14.1428571,44.3667382 C14.1428571,45.2688563 13.4781864,46 12.6580857,46 L4.24806649,46 C3.42796576,46 2.76329507,45.2688563 2.76329507,44.3667382 L2.76329507,33.2915255 L0.244095317,29.0742345 C0.0846253799,28.8080664 0,28.4962896 0,28.177496 L0,19.9143563 C0,17.5787194 1.3533682,15.5132269 3.36779244,14.7743648 C3.37927428,14.7701548 4.6312196,14.3475135 4.6312196,14.3475135 C5.08411422,14.1950165 5.57677001,14.2888068 5.95652109,14.6015193 L8.45296979,16.6576562 L10.9494185,14.6015193 C11.3289569,14.2890407 11.8214001,14.1952504 12.27472,14.3475135 C12.27472,14.3475135 12.3895148,14.3862668 12.5499015,14.4404206 Z" id="Combined-Shape" fill="url(#linearGradient-1)"></path>
        </g>
        <g id="Group" transform="translate(26.000000, 20.000000)">
            <g id="group-(1)" fill="#D682FF">
                <path d="M2.60416667,4.25675676 C2.60416667,6.60381101 4.35662184,8.51351351 6.51041667,8.51351351 C8.66421149,8.51351351 10.4166667,6.60381101 10.4166667,4.25675676 C10.4166667,1.9097025 8.66421149,0 6.51041667,0 C4.35662184,0 2.60416667,1.90952035 2.60416667,4.25675676 Z" id="Path"></path>
            </g>
            <g id="time-left" transform="translate(7.936508, 10.294118)" fill="url(#linearGradient-1)">
                <path d="M9.52350296,15.0374692 C9.39284011,15.0714776 9.25962259,15.1016796 9.12739287,15.1271147 C8.781729,15.1942422 8.55320526,15.5414407 8.61714013,15.902762 C8.64871585,16.0805234 8.74538456,16.2285809 8.87662647,16.3252344 C9.01188773,16.4246627 9.18403842,16.4695566 9.35945909,16.4354771 C9.51692895,16.4049549 9.67562504,16.3690611 9.83135772,16.3284716 C10.1726957,16.239751 10.3806458,15.8786075 10.2954902,15.5223021 C10.2105389,15.1656765 9.8650453,14.9486774 9.52350296,15.0374692 Z" id="Path"></path>
                <path d="M14.2341781,6.12033541 C14.2787996,6.26078008 14.3639894,6.37543387 14.4715921,6.45465633 C14.6311397,6.57201372 14.8399074,6.61150044 15.0391375,6.54270105 C15.3731521,6.42687333 15.5541249,6.05071782 15.443627,5.70206073 C15.3932829,5.54311777 15.3374208,5.38367679 15.277914,5.22843349 C15.1472512,4.88728243 14.7767218,4.72118918 14.4498944,4.8576496 C14.1234076,4.99403888 13.9643027,5.38111549 14.0950678,5.72237327 C14.1450712,5.85285732 14.1919068,5.98679202 14.2341781,6.12033541 Z" id="Path"></path>
                <path d="M11.5934328,14.0876178 C11.4810614,14.1650972 11.3650794,14.2400864 11.2482458,14.3103443 C10.9434226,14.4939754 10.8390217,14.900902 11.014783,15.2191081 C11.0625043,15.3056587 11.1260644,15.3764147 11.1992643,15.4304866 C11.3957695,15.5748799 11.6626473,15.5965087 11.8848355,15.462823 C12.0237414,15.3791539 12.1618639,15.2901486 12.2956945,15.1977284 C12.5891069,14.9952789 12.6698685,14.5825181 12.475918,14.2759446 C12.2820015,13.9692644 11.8869473,13.885026 11.5934328,14.0876178 Z" id="Path"></path>
                <path d="M15.839703,7.97841697 C15.8258396,7.61122602 15.5297023,7.32542752 15.1780094,7.33976369 C14.8267593,7.35424215 14.5528987,7.66362597 14.5666939,8.03067463 C14.5719736,8.17101258 14.5733361,8.31344937 14.5702364,8.45364503 C14.5652974,8.6839131 14.6731385,8.88917291 14.8407248,9.01254224 C14.9405613,9.08596621 15.0617208,9.13039766 15.193099,9.13352814 C15.5446897,9.1416745 15.8360583,8.85043324 15.8438586,8.48306441 C15.847367,8.31554821 15.8460386,8.14582645 15.839703,7.97841697 Z" id="Path"></path>
                <path d="M14.13022,12.3375022 C13.8482867,12.11659 13.4494175,12.1765671 13.2382655,12.4704764 C13.1574017,12.5830314 13.0722461,12.694199 12.9850467,12.80124 C12.7571701,13.0808487 12.7893589,13.5008309 13.0570884,13.7389963 C13.0723483,13.7525143 13.0877785,13.7649295 13.1037877,13.7765976 C13.3699503,13.9725727 13.7398665,13.9275365 13.9550719,13.6637937 C14.0592002,13.5360844 14.1607058,13.403288 14.2573404,13.2688553 C14.4685265,12.974946 14.41137,12.5580943 14.13022,12.3375022 Z" id="Path"></path>
                <path d="M15.0665917,9.93261847 C14.7309081,9.82269597 14.3734246,10.0178529 14.2682403,10.3684309 C14.2279787,10.5023656 14.1833572,10.6369407 14.1351931,10.7687409 C14.0294298,11.0588794 14.130765,11.3781171 14.3630697,11.5491907 C14.4056816,11.5804599 14.4526194,11.6069623 14.5036106,11.6270969 C14.8322774,11.758079 15.2003202,11.5858671 15.3256012,11.2424749 C15.3827917,11.0857731 15.4358608,10.9256562 15.4838545,10.7664287 C15.5889366,10.4157794 15.4022072,10.042541 15.0665917,9.93261847 Z" id="Path"></path>
                <path d="M7.53198447,2.9240808 C7.24712174,2.9240808 7.01638395,3.16526998 7.01638395,3.46234532 L7.01638395,8.82496252 L11.7125485,11.3603303 C11.7881327,11.4012044 11.8690647,11.4204498 11.9487022,11.4204498 C12.1352272,11.4204498 12.3153825,11.3143692 12.406976,11.1292796 C12.5376047,10.8651099 12.438756,10.5405717 12.1858097,10.4041469 L8.04700593,8.16948291 L8.04700593,3.46234532 C8.04697186,3.16526998 7.81650657,2.9240808 7.53198447,2.9240808 Z" id="Path"></path>
                <path d="M6.74429457,15.1330911 C6.17477349,15.0262991 5.6284488,14.8444467 5.1103958,14.5908068 C5.1042646,14.5874628 5.09878057,14.5836565 5.0923428,14.5805971 C4.97026364,14.5205844 4.84838885,14.4563029 4.73026092,14.3891399 C4.51171742,14.2633871 4.30019075,14.1254682 4.0946931,13.974387 C1.09816745,11.7698895 0.377682403,7.43033414 2.48865727,4.3008868 C2.94768036,3.62064795 3.50316779,3.05314191 4.12245385,2.603349 C4.13008379,2.59779952 4.13771374,2.59228561 4.14527556,2.58670055 C6.32754275,1.01633846 9.29072144,0.910506924 11.6079433,2.52419769 L11.1102596,3.27519248 C10.9718986,3.4842231 11.0570202,3.63654936 11.299237,3.61378224 L13.4610668,3.4116529 C13.7035902,3.38888578 13.8486273,3.16978783 13.7833981,2.92518359 L13.2028749,0.740749587 C13.1378841,0.495860755 12.9714899,0.466548088 12.8329927,0.675543133 L12.3341508,1.42831661 C10.6336263,0.236137721 8.59401185,-0.218457629 6.56958921,0.148164147 C6.36569249,0.185018422 6.16465699,0.230125778 5.96638054,0.282632448 C5.95473125,0.285336044 5.94696505,0.287932918 5.93950542,0.290102909 C4.19381429,0.758287384 2.67072008,1.8216186 1.58389536,3.33876255 C1.57473261,3.35011053 1.56529736,3.3612095 1.55664555,3.37355355 C1.52050548,3.42438826 1.48463792,3.4763969 1.44951972,3.52840554 C1.39209074,3.61363994 1.33547926,3.70100877 1.28132025,3.78837759 C1.27454186,3.79890738 1.2693644,3.80961504 1.26343756,3.82025156 C0.366578105,5.27169102 -0.0660126712,6.94969889 0.0081749438,8.6580155 C0.00834525513,8.66363613 0.00803869473,8.66929234 0.0081749438,8.67505527 C0.0153620819,8.84193114 0.0280332448,9.0111193 0.045234689,9.17767501 C0.0461543702,9.18841824 0.048436542,9.1985923 0.0501737176,9.20933554 C0.0679542203,9.37681616 0.0902650044,9.5446881 0.118230125,9.71252446 C0.402445671,11.4249676 1.1759316,12.9659103 2.33496832,14.1649193 C2.33765924,14.1677296 2.34045235,14.170789 2.34317733,14.173706 C2.65750392,14.497177 2.99621909,14.793861 3.36092377,15.0621217 C4.31534846,15.7644874 5.37812521,16.2287587 6.51948362,16.4426629 C6.86579467,16.507656 7.1966074,16.2668937 7.25873697,15.9053945 C7.32083248,15.5436463 7.09050344,15.1978707 6.74429457,15.1330911 Z" id="Path"></path>
            </g>
            <path d="M9.50750114,10.9872766 C8.87362487,11.5175087 8.30071813,12.1341515 7.80240457,12.8282135 C7.79113861,12.8421351 7.77953761,12.8557512 7.76889988,12.8708948 C7.72446428,12.9332583 7.68036373,12.997062 7.63718457,13.0608657 C7.56657343,13.1654305 7.49696744,13.2726137 7.43037687,13.379797 C7.42204258,13.3927148 7.41567669,13.4058509 7.40838942,13.4188997 C6.30566632,15.1995117 5.77377938,17.2580758 5.8649959,19.3538223 C5.8652053,19.3607176 5.86482837,19.3676566 5.8649959,19.3747265 C5.87383276,19.5794482 5.88941244,19.7870066 5.91056227,19.9913356 C5.91169306,20.0045153 5.91449907,20.0169967 5.916635,20.0301764 C5.93849681,20.23564 5.96592877,20.4415837 6.00031296,20.6474838 C6.34976687,22.7482927 7.30079748,24.6387065 8.72587757,26.1096393 C8.72918616,26.113087 8.73262039,26.1168401 8.73597086,26.1204187 C9.12244745,26.5172498 9.53891074,26.8812189 9.98732913,27.2103186 C10.2243153,27.3843281 10.4667346,27.5464251 10.7142857,27.6964859 L10.7142857,33.7573008 C10.7142857,34.443695 10.2107473,35 9.58945888,35 L3.21823219,35 C2.59694376,35 2.09340535,34.443695 2.09340535,33.7573008 L2.09340535,25.3305085 L0.184920695,22.1217002 C0.0641101363,21.919181 0,21.6819595 0,21.4393991 L0,15.1522276 C0,13.3751126 1.02527894,11.8035422 2.55135791,11.2413645 C2.56005627,11.2381612 3.50849969,10.9165864 3.50849969,10.9165864 C3.85160168,10.800556 4.22482576,10.8719182 4.51251597,11.1098516 L6.40376499,12.6743036 L8.29501401,11.1098516 C8.58254314,10.8720962 8.95560615,10.800734 9.29903029,10.9165864 C9.29903029,10.9165864 9.38599607,10.9460726 9.50750114,10.9872766 Z" id="Combined-Shape" fill="url(#linearGradient-1)"></path>
        </g>
    </g>
</svg>