<svg xmlns="http://www.w3.org/2000/svg" width="38" height="38" viewBox="0 0 38 38">
    <defs>
        <filter id="a" width="140%" height="140%" x="-20%" y="-20%" filterUnits="objectBoundingBox">
            <feGaussianBlur in="SourceGraphic" stdDeviation="2"/>
        </filter>
    </defs>
    <g fill="none" fill-rule="evenodd" transform="translate(4 4)">
        <circle cx="15" cy="15" r="15" fill="#03031D"/>
        <circle cx="15" cy="15" r="14" fill="#03031D" stroke="#FFDF66" stroke-width="2" filter="url(#a)"/>
        <circle cx="15" cy="15" r="15" stroke="#FFEB96"/>
        <g fill="#FFEFB9" fill-rule="nonzero">
            <path d="M17.738 14.382a.796.796 0 0 0-.74-.538h-5.815a.748.748 0 0 0-.74.538l-1.11 3.232v4.309c0 .323.212.538.529.538h.529c.317 0 .528-.215.528-.538v-.539h6.343v.539c0 .323.212.538.53.538h.528c.317 0 .528-.215.528-.538v-4.309l-1.11-3.232zm-6.555 5.386c-.422 0-.792-.377-.792-.808 0-.43.37-.807.792-.807.423 0 .793.377.793.807 0 .431-.37.808-.793.808zm5.815 0c-.423 0-.793-.377-.793-.808 0-.43.37-.807.793-.807.423 0 .793.377.793.807 0 .431-.37.808-.793.808zm-6.607-2.693l.792-2.423h5.815l.793 2.423h-7.4z"/>
            <path d="M22.051 8.503a.73.73 0 0 0-.68-.493h-5.339a.687.687 0 0 0-.68.493l-1.019 2.958v3.944c0 .295.194.493.486.493h.485c.291 0 .486-.198.486-.493v-.493h5.824v.493c0 .295.195.493.486.493h.485c.291 0 .486-.198.486-.493V11.46l-1.02-2.958zm-6.019 4.93a.752.752 0 0 1-.728-.74c0-.394.34-.74.728-.74.389 0 .728.346.728.74s-.34.74-.728.74zm5.34 0a.752.752 0 0 1-.728-.74c0-.394.34-.74.728-.74.388 0 .728.346.728.74s-.34.74-.728.74zm-6.068-2.465l.728-2.219h5.34l.728 2.219h-6.796zM11.55 10.859a.525.525 0 0 0-.488-.352h-3.84a.493.493 0 0 0-.489.352L6 12.972v2.817c0 .21.14.352.35.352h.348c.21 0 .35-.141.35-.352v-.353h4.189v.353c0 .21.14.352.349.352h.349c.21 0 .349-.141.349-.352v-2.817l-.733-2.113zM7.223 14.38a.54.54 0 0 1-.524-.528.54.54 0 0 1 .524-.528.54.54 0 0 1 .524.528.54.54 0 0 1-.524.528zm3.84 0a.54.54 0 0 1-.524-.528.54.54 0 0 1 .524-.528.54.54 0 0 1 .524.528.54.54 0 0 1-.524.528zm-4.364-1.76l.524-1.585h3.84l.524 1.585H6.698z"/>
        </g>
    </g>
</svg>
