<svg xmlns="http://www.w3.org/2000/svg" width="75" height="75" viewBox="0 0 75 75">
    <defs>
        <linearGradient id="a" x1="-10.701%" y1="19.009%" y2="69.269%">
            <stop offset="0%" stop-color="#DD9FFF"/>
            <stop offset="100%" stop-color="#8760FF"/>
        </linearGradient>
    </defs>
    <g fill="none" fill-rule="evenodd">
        <g stroke="#9795F0" stroke-linecap="square">
            <g opacity=".204">
                <path d="M22.708 2H2v21.694M52.292 2H73v21.694M22.708 73H2V51.306M52.292 73H73V51.306"/>
            </g>
            <path d="M25 8H7v18.214M49 8h18v18.214M25 68H7V49.786M49 68h18V49.786"/>
        </g>
        <g fill="url(#a)" transform="translate(15 17)">
            <g opacity=".2">
                <ellipse cx="22.941" cy="4.813" rx="5.294" ry="4.813"/>
                <path d="M31.752 24.247l-1.335-9.563c-.15-1.387-1.409-2.434-2.924-2.434h-1.611a1.55 1.55 0 0 0-1.041.395l-1.9 1.747-1.9-1.747A1.55 1.55 0 0 0 20 12.25h-1.61c-1.517 0-2.776 1.047-2.923 2.399L14.13 24.25c-.053.384.077.774.356 1.063.28.292.68.46 1.103.46h1.588l1.23 13.793C18.553 40.95 19.814 42 21.332 42h3.22c1.518 0 2.777-1.05 2.93-2.458l1.226-13.77h1.585c.424 0 .824-.167 1.103-.459.282-.29.412-.679.356-1.066z"/>
                <ellipse cx="36.176" cy="4.813" rx="5.294" ry="4.813"/>
                <path d="M8.824 0c-2.92 0-5.295 2.158-5.295 4.813 0 2.654 2.375 4.812 5.295 4.812 2.917 0 5.294-2.158 5.294-4.813C14.118 2.159 11.74 0 8.824 0zM44.987 23.408l-1.315-9.589c-.148-1.394-1.384-2.444-2.88-2.444h-1.587c-.385 0-.753.144-1.025.396l-1.872 1.752-1.871-1.752a1.51 1.51 0 0 0-1.023-.396h-1.587c-.18 0-.342.06-.513.09.374.618.666 1.288.753 2.04l1.312 9.558c.163 1.164-.225 2.336-1.06 3.217-.394.423-.898.722-1.437.955l.962 8.824c.148 1.391 1.388 2.441 2.883 2.441h3.172c1.494 0 2.734-1.052 2.885-2.466l1.205-11.096h1.562c.417 0 .81-.169 1.086-.462.278-.29.405-.68.35-1.068zM12.664 26.267a3.894 3.894 0 0 1-1.048-3.198l1.318-9.632c.075-.722.359-1.373.72-1.975-.162-.027-.315-.087-.486-.087h-1.587a1.51 1.51 0 0 0-1.025.396l-1.87 1.752-1.87-1.752a1.508 1.508 0 0 0-1.022-.396H4.207c-1.494 0-2.733 1.05-2.878 2.406L.01 23.411c-.052.385.076.775.35 1.065.276.293.673.462 1.087.462H3.01l1.21 11.12c.145 1.39 1.387 2.442 2.881 2.442h3.17c1.495 0 2.734-1.052 2.884-2.466l.962-8.802c-.542-.236-1.048-.537-1.454-.965z"/>
            </g>
            <g transform="translate(5 4)">
                <ellipse cx="18" cy="3.643" rx="4.154" ry="3.643"/>
                <path d="M24.913 19.508l-1.048-7.807c-.117-1.132-1.105-1.987-2.293-1.987h-1.265c-.307 0-.6.117-.817.323L18 11.463l-1.491-1.426a1.19 1.19 0 0 0-.817-.323H14.43c-1.191 0-2.179.855-2.294 1.959l-1.05 7.837c-.041.314.06.632.28.868.218.238.532.375.865.375h1.246l.964 11.26c.116 1.13 1.106 1.987 2.296 1.987h2.527c1.19 0 2.178-.857 2.298-2.007l.963-11.24h1.244c.332 0 .646-.137.865-.375.221-.236.323-.554.28-.87z"/>
                <ellipse cx="29.077" cy="3.643" rx="4.154" ry="3.643"/>
                <path d="M6.923 0C4.633 0 2.77 1.634 2.77 3.643s1.863 3.643 4.154 3.643c2.289 0 4.154-1.634 4.154-3.643C11.077 1.633 9.212 0 6.923 0zM35.99 19.41l-1.032-7.726c-.116-1.124-1.086-1.97-2.26-1.97h-1.245c-.302 0-.59.116-.804.32l-1.469 1.411-1.468-1.412a1.167 1.167 0 0 0-.802-.319h-1.246c-.14 0-.268.048-.402.072.293.499.523 1.039.59 1.644l1.03 7.703a3.188 3.188 0 0 1-.832 2.592c-.309.34-.704.581-1.127.77l.755 7.11c.116 1.12 1.088 1.966 2.261 1.966h2.49c1.172 0 2.145-.848 2.263-1.986l.946-8.942h1.225c.327 0 .636-.136.852-.372a1.05 1.05 0 0 0 .275-.86zM9.937 21.714a3.192 3.192 0 0 1-.823-2.577l1.034-7.762c.059-.581.282-1.106.566-1.59-.128-.023-.248-.07-.382-.07H9.087c-.302 0-.59.115-.804.318l-1.468 1.412-1.467-1.412a1.166 1.166 0 0 0-.802-.319H3.3c-1.172 0-2.145.846-2.258 1.939l-1.034 7.76c-.04.31.059.624.275.858.216.236.527.372.852.372h1.227l.95 8.961c.113 1.12 1.087 1.967 2.26 1.967H8.06c1.172 0 2.145-.848 2.263-1.986l.754-7.093c-.425-.19-.822-.433-1.14-.778z"/>
            </g>
        </g>
    </g>
</svg>
