<svg xmlns="http://www.w3.org/2000/svg" width="75" height="75" viewBox="0 0 75 75">
    <defs>
        <linearGradient id="a" x1="0%" y1="20.12%" y2="75.688%">
            <stop offset="0%" stop-color="#DD9FFF"/>
            <stop offset="100%" stop-color="#8760FF"/>
        </linearGradient>
    </defs>
    <g fill="none" fill-rule="evenodd">
        <g stroke="#9795F0" stroke-linecap="square">
            <g opacity=".204">
                <path d="M22.708 2H2v21.694M52.292 2H73v21.694M22.708 73H2V51.306M52.292 73H73V51.306"/>
            </g>
            <path d="M25 8H7v18.214M49 8h18v18.214M25 68H7V49.786M49 68h18V49.786"/>
        </g>
        <g fill="url(#a)" fill-rule="nonzero" transform="translate(15 15)">
            <path d="M41.502 33.903c2.553-2.313 2.789-6.233.52-8.783s-6.24-2.786-8.792-.52c-2.552 2.268-2.789 6.234-.52 8.784.142.189.331.33.52.52a8.265 8.265 0 0 0-1.796 1.605l-4.585-3.353c.614-2.266-.662-4.627-2.93-5.383V21.91h4.773c.804 0 1.418-.613 1.418-1.416v-3.258c0-2.597-1.323-4.958-3.45-6.375 2.552-2.314 2.789-6.233.52-8.783-2.27-2.55-6.287-2.786-8.887-.52-2.6 2.267-2.789 6.234-.52 8.783.142.19.331.331.52.52a7.604 7.604 0 0 0-3.45 6.375v3.258c0 .803.614 1.416 1.418 1.416h4.774v4.911c-2.222.756-3.546 3.07-2.931 5.383l-4.585 3.353a8.265 8.265 0 0 0-1.796-1.605c2.552-2.314 2.789-6.234.52-8.783-2.27-2.55-6.24-2.786-8.792-.52-2.553 2.267-2.837 6.186-.52 8.783.141.189.33.33.52.52A7.604 7.604 0 0 0 0 40.325v3.258C0 44.386.614 45 1.418 45H13.85c.803 0 1.418-.614 1.418-1.417v-3.258c0-.755-.095-1.51-.331-2.22l4.68-3.54a4.484 4.484 0 0 0 5.625 0l4.821 3.494c-.236.708-.33 1.463-.33 2.219v3.258c0 .803.614 1.417 1.417 1.417h12.432c.804 0 1.418-.614 1.418-1.417v-3.258a7.885 7.885 0 0 0-3.498-6.375z" opacity=".2"/>
            <path d="M38.124 31.876c2.099-1.902 2.293-5.125.427-7.221-1.865-2.097-5.13-2.291-7.229-.428-2.098 1.864-2.293 5.125-.427 7.222.117.155.272.272.427.427-.544.35-1.049.815-1.476 1.32l-3.77-2.757c.505-1.863-.544-3.804-2.41-4.426v-3.999h3.925c.661 0 1.166-.504 1.166-1.164v-2.68c0-2.135-1.088-4.076-2.837-5.24 2.099-1.903 2.293-5.126.428-7.222-1.866-2.097-5.17-2.291-7.307-.427-2.138 1.863-2.293 5.125-.428 7.221.117.155.273.272.428.427a6.252 6.252 0 0 0-2.837 5.242v2.679c0 .66.505 1.164 1.166 1.164h3.925v4.038c-1.827.621-2.915 2.524-2.41 4.426l-3.77 2.757a6.796 6.796 0 0 0-1.476-1.32c2.098-1.903 2.293-5.125.427-7.222-1.865-2.096-5.13-2.29-7.229-.427a5.1 5.1 0 0 0-.427 7.222c.116.155.272.272.427.427A6.252 6.252 0 0 0 4 37.156v2.68C4 40.495 4.505 41 5.166 41h10.222c.66 0 1.166-.505 1.166-1.165v-2.679a5.77 5.77 0 0 0-.272-1.825l3.847-2.911a3.687 3.687 0 0 0 4.625 0l3.964 2.873a5.77 5.77 0 0 0-.272 1.824v2.68c0 .66.506 1.164 1.166 1.164h10.222c.66 0 1.166-.505 1.166-1.165v-2.679a6.483 6.483 0 0 0-2.876-5.241z"/>
        </g>
    </g>
</svg>
