<?xml version="1.0" encoding="UTF-8" standalone="no"?>
<svg
   xmlns:dc="http://purl.org/dc/elements/1.1/"
   xmlns:cc="http://creativecommons.org/ns#"
   xmlns:rdf="http://www.w3.org/1999/02/22-rdf-syntax-ns#"
   xmlns:svg="http://www.w3.org/2000/svg"
   xmlns="http://www.w3.org/2000/svg"
   xmlns:sodipodi="http://sodipodi.sourceforge.net/DTD/sodipodi-0.dtd"
   xmlns:inkscape="http://www.inkscape.org/namespaces/inkscape"
   width="34px"
   height="34px"
   viewBox="0 0 34 34"
   version="1.1"
   id="svg2"
   inkscape:version="0.91 r13725"
   sodipodi:docname="ico-speed.svg">
  <metadata
     id="metadata29">
    <rdf:RDF>
      <cc:Work
         rdf:about="">
        <dc:format>image/svg+xml</dc:format>
        <dc:type
           rdf:resource="http://purl.org/dc/dcmitype/StillImage" />
      </cc:Work>
    </rdf:RDF>
  </metadata>
  <sodipodi:namedview
     pagecolor="#ffffff"
     bordercolor="#666666"
     borderopacity="1"
     objecttolerance="10"
     gridtolerance="10"
     guidetolerance="10"
     inkscape:pageopacity="0"
     inkscape:pageshadow="2"
     inkscape:window-width="1920"
     inkscape:window-height="1056"
     id="namedview27"
     showgrid="false"
     inkscape:zoom="6.9411765"
     inkscape:cx="17"
     inkscape:cy="17"
     inkscape:window-x="0"
     inkscape:window-y="24"
     inkscape:window-maximized="1"
     inkscape:current-layer="svg2" />
  <!-- Generator: Sketch 55.2 (78181) - https://sketchapp.com -->
  <title
     id="title4">Icon / Analytic / Circle / Speed Anomaly</title>
  <desc
     id="desc6">Created with Sketch.</desc>
  <defs
     id="defs8">
    <filter
       x="-20.0%"
       y="-20.0%"
       width="140.0%"
       height="140.0%"
       filterUnits="objectBoundingBox"
       id="filter-1">
      <feGaussianBlur
         stdDeviation="2"
         in="SourceGraphic"
         id="feGaussianBlur11" />
    </filter>
  </defs>
  <g
     id="Icon-/-Analytic-/-Circle-/-Speed-Anomaly"
     transform="matrix(0.97059841,0,0,0.97059841,0.35575926,0.49982706)"
     style="fill:none;fill-rule:evenodd;stroke:none;stroke-width:1">
    <g
       id="Icon/Analytic/Esti"
       transform="translate(2,2)"
       style="stroke:#ff55d7">
      <circle
         id="Oval-3"
         cx="15"
         cy="15"
         r="15"
         style="fill:#03031d" />
      <circle
         id="circle16"
         cx="15"
         cy="15"
         r="14"
         style="fill:#03031d;stroke-width:2;filter:url(#filter-1)" />
      <circle
         id="circle18"
         cx="15"
         cy="15"
         r="15" />
    </g>
    <g
       id="speedometer"
       transform="translate(8,8)"
       style="fill:#ffc0f0;fill-rule:nonzero">
      <path
         d="m 9,18 c 2.19397,0 4.203919,-0.830154 5.763702,-2.143433 C 13.530899,13.939728 11.386368,12.691406 9,12.691406 c -2.4064179,0 -4.5499878,1.224838 -5.7778473,3.152252 C 4.7839966,17.16449 6.7991638,18 9,18 Z m -1.5820313,-4.253906 3.1640623,0 0,1.054687 -3.1640623,0 0,-1.054687 z"
         id="Shape"
         inkscape:connector-curvature="0" />
      <path
         d="M 3.2257233,9.5273438 C 3.3387451,10.79393 3.8605957,11.966583 4.7249451,12.908386 5.9665375,12.111191 7.4274445,11.636719 9,11.636719 c 1.561707,0 3.033737,0.466095 4.277939,1.268646 0.862839,-0.941391 1.383453,-2.112808 1.496338,-3.3780212 l -1.028183,0 0,-1.0546875 1.027908,0 C 14.664963,7.2688293 14.188294,6.1700592 13.454956,5.290741 L 12.729034,6.0166626 11.983337,5.2709656 12.709259,4.5450439 C 11.829941,3.8117065 10.731171,3.3350372 9.5273438,3.2259979 l 0,1.0279083 -1.0546875,0 0,-1.0279083 C 7.2688293,3.3350372 6.1700592,3.8117065 5.290741,4.5450439 L 6.0166626,5.2709656 5.2709656,6.0166626 4.5450439,5.290741 C 3.8117065,6.1700592 3.3350372,7.2688293 3.2259979,8.4726563 l 1.0279083,0 0,1.0546875 -1.0281829,0 z M 9.822464,7.6486816 C 10.298309,7.9385834 10.582031,8.4438172 10.582031,9 c 0,0.8723144 -0.7097166,1.582031 -1.582031,1.582031 -0.5561828,0 -1.0614166,-0.283722 -1.3513184,-0.759567 L 5.8282471,5.8282471 9.822464,7.6486816 Z"
         id="path22"
         inkscape:connector-curvature="0" />
      <path
         d="M 9,0 C 4.0567017,0 0,4.0567017 0,9 0,11.361923 0.96006776,13.507004 2.4581909,15.109909 2.8568573,14.519119 3.3317413,13.992325 3.8675995,13.534882 2.7548218,12.281891 2.1445313,10.694504 2.1445313,9 2.1445313,5.2200165 5.2200165,2.1445313 9,2.1445313 c 3.779984,0 6.855469,3.0754852 6.855469,6.8554687 0,1.695602 -0.611115,3.283814 -1.725266,4.537216 0.536682,0.457581 1.010742,0.98671 1.410507,1.573929 C 17.03952,13.508102 18,11.362473 18,9 18,4.0567017 13.943298,0 9,0 Z"
         id="Path"
         inkscape:connector-curvature="0" />
      <path
         d="m 9,9.5273438 c 0.2910004,0 0.5273438,-0.2363434 0.5273438,-0.5273438 0,-0.1766052 -0.085968,-0.3378296 -0.2318116,-0.4367065 L 7.9530029,7.9530029 8.5788116,9.3295898 C 8.6462402,9.4325867 8.8146057,9.5273438 9,9.5273438 Z"
         id="path25"
         inkscape:connector-curvature="0" />
    </g>
  </g>
</svg>
