<svg xmlns="http://www.w3.org/2000/svg" width="75" height="75" viewBox="0 0 75 75">
    <defs>
        <linearGradient id="a" x1="-10.701%" y1="19.009%" y2="69.269%">
            <stop offset="0%" stop-color="#DD9FFF"/>
            <stop offset="100%" stop-color="#8760FF"/>
        </linearGradient>
    </defs>
    <g fill="none" fill-rule="evenodd">
        <g stroke="#9795F0" stroke-linecap="square">
            <g opacity=".204">
                <path d="M22.708 2H2v21.694M52.292 2H73v21.694M22.708 73H2V51.306M52.292 73H73V51.306"/>
            </g>
            <path d="M25 8H7v18.214M49 8h18v18.214M25 68H7V49.786M49 68h18V49.786"/>
        </g>
        <g fill="url(#a)" fill-rule="nonzero" transform="translate(16 17)">
            <g opacity=".2">
                <path d="M8.98 12.51c1.735 0 3.216-.61 4.444-1.832 1.227-1.221 1.841-2.696 1.841-4.423 0-1.726-.614-3.2-1.841-4.422C12.196.61 10.714 0 8.98 0 7.244 0 5.763.611 4.535 1.833 3.308 3.055 2.694 4.529 2.694 6.255c0 1.727.614 3.202 1.841 4.423 1.228 1.222 2.71 1.833 4.445 1.833zM16.735 22.273c1.579 1.832 3.483 2.748 5.714 2.748 2.231 0 4.136-.916 5.714-2.748 1.578-1.833 2.368-4.045 2.368-6.635s-.79-4.801-2.368-6.634c-1.578-1.832-3.483-2.749-5.714-2.749-2.231 0-4.136.917-5.714 2.75-1.578 1.832-2.368 4.043-2.368 6.633s.79 4.802 2.368 6.635zM35.02 12.51c1.736 0 3.217-.61 4.445-1.832 1.227-1.221 1.841-2.696 1.841-4.423 0-1.726-.614-3.2-1.841-4.422C38.237.61 36.755 0 35.02 0c-1.736 0-3.217.611-4.445 1.833-1.227 1.222-1.841 2.696-1.841 4.422 0 1.727.614 3.202 1.841 4.423 1.228 1.222 2.709 1.833 4.445 1.833zM40.995 12.51c-.096 0-.447.172-1.053.514-.605.342-1.393.688-2.362 1.038-.969.35-1.93.526-2.883.526a9.654 9.654 0 0 1-3.222-.562c.08.602.12 1.14.12 1.612 0 2.264-.653 4.35-1.962 6.255 2.617.082 4.756 1.124 6.42 3.128H39.3c1.324 0 2.439-.33 3.343-.99.905-.66 1.357-1.625 1.357-2.895 0-5.75-1-8.626-3.005-8.625z"/>
                <path d="M36.426 30.859a20.989 20.989 0 0 0-.592-2.564 12.552 12.552 0 0 0-.959-2.304 8.294 8.294 0 0 0-1.384-1.914 5.798 5.798 0 0 0-1.909-1.264c-.751-.315-1.581-.473-2.489-.473-.149 0-.469.17-.96.509-.49.338-1.034.717-1.629 1.134-.595.416-1.39.795-2.388 1.134a9.319 9.319 0 0 1-3.014.508 9.314 9.314 0 0 1-3.013-.508c-.998-.34-1.793-.718-2.389-1.134-.595-.417-1.138-.796-1.63-1.134-.49-.34-.81-.509-.96-.509-.907 0-1.736.158-2.488.473a5.789 5.789 0 0 0-1.908 1.264 8.275 8.275 0 0 0-1.384 1.914 12.526 12.526 0 0 0-.96 2.304 21.048 21.048 0 0 0-.592 2.564c-.156.921-.26 1.78-.312 2.576a37.407 37.407 0 0 0-.078 2.445c0 1.89.543 3.383 1.629 4.478C8.104 41.452 9.547 42 11.347 42h19.51c1.8 0 3.243-.548 4.33-1.642 1.086-1.095 1.63-2.588 1.63-4.478 0-.834-.027-1.65-.078-2.445a25.793 25.793 0 0 0-.313-2.576z"/>
                <path d="M14.367 21.894c-1.308-1.906-1.962-3.991-1.962-6.256 0-.472.04-1.01.121-1.612a9.662 9.662 0 0 1-3.222.562 8.444 8.444 0 0 1-2.883-.525c-.97-.35-1.757-.697-2.362-1.04-.606-.341-.958-.512-1.055-.512C1.001 12.51 0 15.386 0 21.136c0 1.27.452 2.236 1.357 2.896.904.66 2.019.99 3.343.99h3.247c1.664-2.004 3.804-3.047 6.42-3.128z"/>
            </g>
            <path d="M11.71 14.81c1.36 0 2.519-.478 3.48-1.436.96-.958 1.442-2.114 1.442-3.468s-.481-2.51-1.442-3.469C14.229 5.48 13.07 5 11.71 5c-1.358 0-2.518.48-3.479 1.437-.96.958-1.442 2.114-1.442 3.469 0 1.354.481 2.51 1.442 3.468.961.958 2.121 1.437 3.48 1.437zM17.688 21.088c1.126 1.383 2.484 2.074 4.075 2.074 1.591 0 2.95-.691 4.075-2.074s1.688-3.052 1.688-5.007c0-1.955-.563-3.623-1.688-5.006C24.712 9.692 23.354 9 21.763 9c-1.59 0-2.949.692-4.075 2.075C16.563 12.458 16 14.126 16 16.08s.563 3.624 1.688 5.007zM32.29 14.81c1.358 0 2.518-.478 3.479-1.436.961-.958 1.442-2.114 1.442-3.468s-.48-2.51-1.442-3.469C34.808 5.48 33.648 5 32.289 5c-1.358 0-2.518.48-3.48 1.437-.96.958-1.44 2.114-1.44 3.469 0 1.354.48 2.51 1.44 3.468.962.958 2.122 1.437 3.48 1.437zM36.755 14.81c-.072 0-.335.135-.788.403-.452.269-1.04.54-1.765.815a6.047 6.047 0 0 1-2.154.412 6.91 6.91 0 0 1-2.408-.441c.06.472.09.894.09 1.264 0 1.776-.489 3.41-1.467 4.906 1.956.064 3.555.881 4.799 2.453h2.426c.99 0 1.822-.26 2.498-.777.676-.517 1.014-1.274 1.014-2.27 0-4.51-.748-6.764-2.245-6.764z"/>
            <path d="M33.332 28.902c-.12-.753-.272-1.45-.455-2.094a10.613 10.613 0 0 0-.738-1.88 6.774 6.774 0 0 0-1.064-1.564c-.4-.431-.89-.775-1.467-1.032a4.65 4.65 0 0 0-1.913-.386c-.114 0-.36.138-.738.415-.377.276-.794.586-1.252.926-.458.34-1.07.65-1.836.926a6.784 6.784 0 0 1-2.316.415 6.78 6.78 0 0 1-2.317-.415c-.766-.277-1.378-.586-1.836-.926-.457-.34-.875-.65-1.252-.926-.378-.277-.623-.415-.738-.415a4.65 4.65 0 0 0-1.913.386 4.44 4.44 0 0 0-1.467 1.032c-.4.43-.755.953-1.064 1.563a10.591 10.591 0 0 0-.737 1.881 18.1 18.1 0 0 0-.455 2.094c-.12.753-.2 1.454-.24 2.103-.04.65-.06 1.316-.06 1.998 0 1.543.417 2.762 1.252 3.656.835.894 1.945 1.341 3.329 1.341H29.05c1.384 0 2.494-.447 3.33-1.341.834-.894 1.252-2.113 1.252-3.656 0-.682-.02-1.348-.06-1.998-.04-.65-.12-1.35-.24-2.103z"/>
            <path d="M15.737 22.169a8.778 8.778 0 0 1-1.467-4.906c0-.37.03-.791.091-1.264-.797.294-1.6.44-2.408.44-.712 0-1.43-.137-2.155-.411-.724-.275-1.312-.546-1.765-.815-.453-.268-.715-.402-.788-.402C5.748 14.81 5 17.066 5 21.575c0 .996.338 1.754 1.014 2.27.676.518 1.509.777 2.498.777h2.427c1.243-1.572 2.842-2.39 4.798-2.453z"/>
        </g>
    </g>
</svg>
