<svg xmlns="http://www.w3.org/2000/svg" width="75" height="75" viewBox="0 0 75 75">
    <defs>
        <filter id="a" width="182.8%" height="160%" x="-41.4%" y="-30%" filterUnits="objectBoundingBox">
            <feOffset dy="2" in="SourceAlpha" result="shadowOffsetOuter1"/>
            <feGaussianBlur in="shadowOffsetOuter1" result="shadowBlurOuter1" stdDeviation="2"/>
            <feColorMatrix in="shadowBlurOuter1" result="shadowMatrixOuter1" values="0 0 0 0 0.847058824 0 0 0 0 0.847058824 0 0 0 0 1 0 0 0 0.5 0"/>
            <feMerge>
                <feMergeNode in="shadowMatrixOuter1"/>
                <feMergeNode in="SourceGraphic"/>
            </feMerge>
        </filter>
        <linearGradient id="b" x1="-10.701%" y1="19.009%" y2="69.269%">
            <stop offset="0%" stop-color="#DD9FFF"/>
            <stop offset="100%" stop-color="#8760FF"/>
        </linearGradient>
    </defs>
    <g fill="none" fill-rule="evenodd">
        <g stroke="#9795F0" stroke-linecap="square">
            <g opacity=".204">
                <path d="M22.708 2H2v21.694M52.292 2H73v21.694M22.708 73H2V51.306M52.292 73H73V51.306"/>
            </g>
            <path d="M25 8H7v18.214M49 8h18v18.214M25 68H7V49.786M49 68h18V49.786"/>
        </g>
        <g fill="url(#b)" fill-rule="nonzero" filter="url(#a)" transform="translate(23 18)">
            <path d="M27.109 8.485C28.153 8.485 29 7.67 29 6.667s-.847-1.819-1.891-1.819h-1.892v-3.03C25.217.814 24.371 0 23.327 0H5.673C4.629 0 3.783.814 3.783 1.818v3.03H1.89C.847 4.848 0 5.663 0 6.667s.847 1.818 1.891 1.818h1.892v6.06H1.89C.847 14.545 0 15.36 0 16.364s.847 1.818 1.891 1.818h1.892v6.06H1.89C.847 24.242 0 25.057 0 26.061s.847 1.818 1.891 1.818h1.892v10.303c0 1.004.846 1.818 1.89 1.818h17.653c1.045 0 1.891-.814 1.891-1.818V27.879h1.892c1.044 0 1.891-.814 1.891-1.818s-.847-1.819-1.891-1.819h-1.892v-6.06h1.892c1.044 0 1.891-.814 1.891-1.818s-.847-1.819-1.891-1.819h-1.892v-6.06h1.892zM15.406 32.727a3.63 3.63 0 0 1-3.625-3.636 3.63 3.63 0 0 1 3.625-3.636 3.63 3.63 0 0 1 3.625 3.636 3.63 3.63 0 0 1-3.625 3.636zm0-9.09A3.63 3.63 0 0 1 11.781 20a3.63 3.63 0 0 1 3.625-3.636A3.63 3.63 0 0 1 19.031 20a3.63 3.63 0 0 1-3.625 3.636zm0-9.092a3.63 3.63 0 0 1-3.625-3.636 3.63 3.63 0 0 1 3.625-3.636 3.63 3.63 0 0 1 3.625 3.636 3.63 3.63 0 0 1-3.625 3.636z" opacity=".198"/>
            <path d="M25.435 11C26.299 11 27 10.328 27 9.5S26.3 8 25.435 8H23.87V5.5c0-.828-.701-1.5-1.566-1.5H7.696C6.83 4 6.13 4.672 6.13 5.5V8H4.565C3.701 8 3 8.672 3 9.5S3.7 11 4.565 11H6.13v5H4.565C3.701 16 3 16.672 3 17.5S3.7 19 4.565 19H6.13v5H4.565C3.701 24 3 24.672 3 25.5S3.7 27 4.565 27H6.13v8.5c0 .828.701 1.5 1.566 1.5h14.608c.865 0 1.566-.672 1.566-1.5V27h1.565c.864 0 1.565-.672 1.565-1.5s-.7-1.5-1.565-1.5H23.87v-5h1.565c.864 0 1.565-.672 1.565-1.5s-.7-1.5-1.565-1.5H23.87v-5h1.565zM15 32.17c-1.767 0-3.2-1.26-3.2-2.816 0-1.556 1.433-2.817 3.2-2.817 1.767 0 3.2 1.26 3.2 2.817 0 1.555-1.433 2.817-3.2 2.817zm0-8.048c-1.767 0-3.2-1.261-3.2-2.817 0-1.556 1.433-2.817 3.2-2.817 1.767 0 3.2 1.261 3.2 2.817 0 1.556-1.433 2.817-3.2 2.817zm0-8.049c-1.767 0-3.2-1.261-3.2-2.817 0-1.556 1.433-2.817 3.2-2.817 1.767 0 3.2 1.261 3.2 2.817 0 1.556-1.433 2.817-3.2 2.817z"/>
        </g>
    </g>
</svg>
