<?xml version="1.0" encoding="UTF-8"?>
<svg width="75px" height="75px" viewBox="0 0 75 75" version="1.1" xmlns="http://www.w3.org/2000/svg" xmlns:xlink="http://www.w3.org/1999/xlink">
    <!-- Generator: Sketch 53.2 (72643) - https://sketchapp.com -->
    <title>Icon / Analytic / Medium / Area Aquisition</title>
    <desc>Created with Sketch.</desc>
    <defs>
        <linearGradient x1="-10.7006642%" y1="19.0085863%" x2="100%" y2="69.2693757%" id="linearGradient-1">
            <stop stop-color="#DD9FFF" offset="0%"></stop>
            <stop stop-color="#8760FF" offset="100%"></stop>
        </linearGradient>
    </defs>
    <g id="Icon-/-Analytic-/-Medium-/-Area-Aquisition" stroke="none" stroke-width="1" fill="none" fill-rule="evenodd">
        <g id="fr-ico-step">
            <rect id="Rectangle" fill="#D8D8D8" opacity="0" x="0" y="0" width="75" height="75"></rect>
            <g id="fr" opacity="0.204427083" transform="translate(2.000000, 2.000000)" stroke="#9795F0" stroke-linecap="square">
                <g id="Group">
                    <polyline id="Line" points="20.7083333 3.55271368e-15 -1.49213975e-13 3.55271368e-15 -1.49213975e-13 21.6944444"></polyline>
                    <polyline id="Line" transform="translate(60.645833, 10.847222) scale(-1, 1) translate(-60.645833, -10.847222) " points="71 3.55271368e-15 50.2916667 3.55271368e-15 50.2916667 21.6944444"></polyline>
                    <polyline id="Line" transform="translate(10.354167, 60.152778) scale(-1, 1) rotate(-180.000000) translate(-10.354167, -60.152778) " points="20.7083333 49.3055556 -1.49213975e-13 49.3055556 -1.49213975e-13 71"></polyline>
                    <polyline id="Line" transform="translate(60.645833, 60.152778) rotate(180.000000) translate(-60.645833, -60.152778) " points="71 49.3055556 50.2916667 49.3055556 50.2916667 71"></polyline>
                </g>
            </g>
            <g id="fr" transform="translate(7.000000, 8.000000)" stroke="#9795F0" stroke-linecap="square">
                <polyline id="Line" points="18 0 0 0 0 18.2142857"></polyline>
                <polyline id="Line" transform="translate(51.000000, 9.107143) scale(-1, 1) translate(-51.000000, -9.107143) " points="60 0 42 0 42 18.2142857"></polyline>
                <polyline id="Line" transform="translate(9.000000, 50.892857) scale(-1, 1) rotate(-180.000000) translate(-9.000000, -50.892857) " points="18 41.7857143 0 41.7857143 0 60"></polyline>
                <polyline id="Line" transform="translate(51.000000, 50.892857) rotate(180.000000) translate(-51.000000, -50.892857) " points="60 41.7857143 42 41.7857143 42 60"></polyline>
            </g>
        </g>
        <g id="icon-area-aquisition" opacity="0.2" transform="translate(13.000000, 13.000000)">
            <rect id="Rectangle" x="0" y="0" width="49" height="49"></rect>
            <circle id="Oval" stroke="url(#linearGradient-1)" stroke-width="2" cx="25" cy="25" r="19"></circle>
            <circle id="Oval" stroke="url(#linearGradient-1)" stroke-width="2" cx="25" cy="25" r="13"></circle>
            <circle id="Oval" fill="url(#linearGradient-1)" cx="25" cy="25" r="7"></circle>
            <circle id="Oval" fill="url(#linearGradient-1)" cx="13.5" cy="9.5" r="3.5"></circle>
            <circle id="Oval" fill="url(#linearGradient-1)" cx="31.5" cy="13.5" r="3.5"></circle>
        </g>
        <g id="icon-area-aquisition" transform="translate(17.000000, 17.000000)">
            <rect id="Rectangle" x="0" y="0" width="42" height="42"></rect>
            <circle id="Oval" stroke="url(#linearGradient-1)" stroke-width="2" cx="21" cy="21" r="15.96"></circle>
            <circle id="Oval" stroke="url(#linearGradient-1)" stroke-width="2" cx="21" cy="21" r="10.92"></circle>
            <circle id="Oval" fill="url(#linearGradient-1)" cx="21" cy="21" r="5.88"></circle>
            <circle id="Oval" fill="url(#linearGradient-1)" cx="11.76" cy="8.4" r="3.36"></circle>
            <circle id="Oval" fill="url(#linearGradient-1)" cx="26.88" cy="11.76" r="3.36"></circle>
        </g>
    </g>
</svg>