<svg xmlns="http://www.w3.org/2000/svg" width="75" height="75" viewBox="0 0 75 75">
    <defs>
        <linearGradient id="a" x1="-10.701%" y1="19.009%" y2="69.269%">
            <stop offset="0%" stop-color="#DD9FFF"/>
            <stop offset="100%" stop-color="#8760FF"/>
        </linearGradient>
    </defs>
    <g fill="none" fill-rule="evenodd">
        <g stroke="#9795F0" stroke-linecap="square" opacity=".204">
            <path d="M22.708 2H2v21.694M52.292 2H73v21.694M22.708 73H2V51.306M52.292 73H73V51.306"/>
        </g>
        <g stroke="#9795F0" stroke-linecap="square">
            <path d="M25 8H7v18.214M49 8h18v18.214M25 68H7V49.786M49 68h18V49.786"/>
        </g>
        <g fill="url(#a)" fill-rule="nonzero" opacity=".2" transform="translate(15 18)">
            <path d="M30.255 18.693c-.29-.852-1.16-1.42-2.03-1.42h-15.95c-1.015 0-1.74.568-2.03 1.42L7.2 27.216V38.58c0 .852.58 1.42 1.45 1.42h1.45c.87 0 1.45-.568 1.45-1.42v-1.42h17.4v1.42c0 .852.58 1.42 1.45 1.42h1.45c.87 0 1.45-.568 1.45-1.42V27.216l-3.045-8.523zm-17.98 14.205c-1.16 0-2.175-.995-2.175-2.131 0-1.136 1.015-2.13 2.175-2.13s2.175.994 2.175 2.13-1.015 2.13-2.175 2.13zm15.95 0c-1.16 0-2.175-.995-2.175-2.131 0-1.136 1.015-2.13 2.175-2.13s2.175.994 2.175 2.13-1.015 2.13-2.175 2.13zM10.1 25.795l2.175-6.392h15.95l2.175 6.392H10.1z"/>
            <path d="M42.165 1.307C41.895.523 41.085 0 40.275 0h-14.85c-.945 0-1.62.523-1.89 1.307L20.7 9.147v10.455c0 .784.54 1.307 1.35 1.307h1.35c.81 0 1.35-.523 1.35-1.307v-1.307h16.2v1.307c0 .784.54 1.307 1.35 1.307h1.35c.81 0 1.35-.523 1.35-1.307V9.148l-2.835-7.841zm-16.74 13.068c-1.08 0-2.025-.915-2.025-1.96 0-1.046.945-1.96 2.025-1.96s2.025.914 2.025 1.96c0 1.045-.945 1.96-2.025 1.96zm14.85 0c-1.08 0-2.025-.915-2.025-1.96 0-1.046.945-1.96 2.025-1.96s2.025.914 2.025 1.96c0 1.045-.945 1.96-2.025 1.96zM23.4 7.841l2.025-5.88h14.85L42.3 7.84H23.4zM13.515 9.205c-.17-.614-.68-1.023-1.19-1.023h-9.35c-.595 0-1.02.409-1.19 1.023L0 15.34v8.182c0 .613.34 1.022.85 1.022h.85c.51 0 .85-.409.85-1.022V22.5h10.2v1.023c0 .613.34 1.022.85 1.022h.85c.51 0 .85-.409.85-1.022V15.34l-1.785-6.136zM2.975 19.432c-.68 0-1.275-.716-1.275-1.534 0-.818.595-1.534 1.275-1.534.68 0 1.275.716 1.275 1.534 0 .818-.595 1.534-1.275 1.534zm9.35 0c-.68 0-1.275-.716-1.275-1.534 0-.818.595-1.534 1.275-1.534.68 0 1.275.716 1.275 1.534 0 .818-.595 1.534-1.275 1.534zM1.7 14.318l1.275-4.602h9.35l1.275 4.602H1.7z"/>
        </g>
        <g fill="url(#a)" fill-rule="nonzero" transform="translate(17 22)">
            <path d="M29.167 16.385c-.253-.705-1.01-1.174-1.768-1.174H13.51c-.884 0-1.515.47-1.768 1.174L9.091 23.43v9.395c0 .704.505 1.174 1.263 1.174h1.262c.758 0 1.263-.47 1.263-1.174V31.65H28.03v1.175c0 .704.505 1.174 1.263 1.174h1.263c.757 0 1.262-.47 1.262-1.174V23.43l-2.651-7.046zM13.51 28.128c-1.01 0-1.894-.822-1.894-1.761 0-.94.884-1.762 1.894-1.762 1.01 0 1.894.822 1.894 1.762 0 .94-.884 1.761-1.894 1.761zm13.889 0c-1.01 0-1.894-.822-1.894-1.761 0-.94.884-1.762 1.894-1.762 1.01 0 1.894.822 1.894 1.762 0 .94-.884 1.761-1.894 1.761zm-15.783-5.871l1.894-5.285H27.4l1.894 5.285H11.616z"/>
            <path d="M37.667 1.063C37.444.424 36.777 0 36.11 0H23.89c-.778 0-1.333.425-1.556 1.063L20 7.438v8.5c0 .637.444 1.062 1.111 1.062h1.111c.667 0 1.111-.425 1.111-1.063v-1.062h13.334v1.063c0 .637.444 1.062 1.11 1.062h1.112c.667 0 1.111-.425 1.111-1.063v-8.5l-2.333-6.375zM23.889 11.687c-.889 0-1.667-.743-1.667-1.593S23 8.5 23.89 8.5s1.667.744 1.667 1.594c0 .85-.778 1.594-1.667 1.594zm12.222 0c-.889 0-1.667-.743-1.667-1.593S35.222 8.5 36.111 8.5s1.667.744 1.667 1.594c0 .85-.778 1.594-1.667 1.594zM22.222 6.375l1.667-4.781H36.11l1.667 4.781H22.222zM14.455 6.32c-.182-.571-.728-.952-1.273-.952h-10c-.637 0-1.091.38-1.273.951L0 12.023v7.605c0 .57.364.95.91.95h.908c.546 0 .91-.38.91-.95v-.95h10.908v.95c0 .57.364.95.91.95h.909c.545 0 .909-.38.909-.95v-7.605l-1.91-5.704zM3.182 16.104c-.727 0-1.364-.626-1.364-1.342 0-.716.637-1.342 1.364-1.342.727 0 1.363.626 1.363 1.342 0 .716-.636 1.342-1.363 1.342zm10 0c-.727 0-1.364-.626-1.364-1.342 0-.716.637-1.342 1.364-1.342.727 0 1.363.626 1.363 1.342 0 .716-.636 1.342-1.363 1.342zM1.818 10.737l1.364-4.474h10l1.363 4.474H1.818z"/>
        </g>
    </g>
</svg>
