<svg xmlns="http://www.w3.org/2000/svg" width="38" height="38" viewBox="0 0 38 38">
    <defs>
        <filter id="a" width="140%" height="140%" x="-20%" y="-20%" filterUnits="objectBoundingBox">
            <feGaussianBlur in="SourceGraphic" stdDeviation="2"/>
        </filter>
        <filter id="b" width="140%" height="140%" x="-20%" y="-20%" filterUnits="objectBoundingBox">
            <feGaussianBlur in="SourceGraphic" stdDeviation="2"/>
        </filter>
    </defs>
    <g fill="none" fill-rule="evenodd" transform="translate(4 4)">
        <circle cx="15" cy="15" r="15" fill="#03031D" filter="url(#a)"/>
        <circle cx="15" cy="15" r="14" fill="#03031D" stroke="#FF8700" stroke-width="2" filter="url(#b)"/>
        <circle cx="15" cy="15" r="15" stroke="#FF8700"/>
        <g fill="#FFBFA6" fill-rule="nonzero">
            <path d="M20 11.5c0 .827.673 1.5 1.5 1.5s1.5-.673 1.5-1.5-.673-1.5-1.5-1.5-1.5.673-1.5 1.5z"/>
            <path d="M24.004 13.141l-.374-.12a.421.421 0 0 0-.392.071l-.738.584-.738-.584a.421.421 0 0 0-.392-.072l-.374.121c-.596.21-.996.796-.996 1.459v2.344c0 .09.025.179.072.254l.745 1.197v3.142c0 .256.197.463.44.463h2.487c.242 0 .439-.207.439-.463v-3.142l.745-1.197a.482.482 0 0 0 .072-.254V14.6c0-.663-.4-1.249-.996-1.459zM8.5 13c.827 0 1.5-.673 1.5-1.5S9.327 10 8.5 10 7 10.673 7 11.5 7.673 13 8.5 13z"/>
            <path d="M10.004 13.141l-.374-.12a.421.421 0 0 0-.392.071l-.738.584-.738-.584a.421.421 0 0 0-.392-.072l-.374.121C6.4 13.351 6 13.937 6 14.6v2.344c0 .09.025.179.072.254l.745 1.197v3.142c0 .256.197.463.44.463h2.487c.242 0 .439-.207.439-.463v-3.142l.745-1.197a.482.482 0 0 0 .072-.254V14.6c0-.663-.4-1.249-.996-1.459zM17 9c0-1.103-.897-2-2-2s-2 .897-2 2 .897 2 2 2 2-.897 2-2z"/>
            <path d="M17.755 11.194l-.003-.001-.586-.185a.181.181 0 0 0-.225.115l-1.232 3.466a.22.22 0 0 1-.418 0l-1.232-3.466a.182.182 0 0 0-.171-.123c-.018 0-.64.192-.64.192A1.861 1.861 0 0 0 12 12.964v3.666c0 .037.01.072.03.103l1.286 2.005v5.075c0 .103.081.187.182.187h4.004c.1 0 .182-.084.182-.187v-5.075l1.286-2.005a.19.19 0 0 0 .03-.103v-3.676c0-.8-.502-1.51-1.245-1.76z"/>
            <path d="M15.937 11.089a.23.23 0 0 0-.182-.089h-.51a.23.23 0 0 0-.182.089.315.315 0 0 0-.031.326l.272.482-.127 1.26.25.784c.025.079.12.079.145 0l.251-.783-.127-1.261.272-.482a.315.315 0 0 0-.03-.326z"/>
        </g>
    </g>
</svg>
