<svg xmlns="http://www.w3.org/2000/svg" xmlns:xlink="http://www.w3.org/1999/xlink" width="38" height="38" viewBox="0 0 38 38">
    <defs>
        <filter id="a" width="140%" height="140%" x="-20%" y="-20%" filterUnits="objectBoundingBox">
            <feGaussianBlur in="SourceGraphic" stdDeviation="2"/>
        </filter>
        <filter id="b" width="140%" height="140%" x="-20%" y="-20%" filterUnits="objectBoundingBox">
            <feGaussianBlur in="SourceGraphic" stdDeviation="2"/>
        </filter>
        <path id="c" d="M0 0h16v16H0z"/>
    </defs>
    <g fill="none" fill-rule="evenodd" transform="translate(4 4)">
        <circle cx="15" cy="15" r="15" fill="#03031D" filter="url(#a)"/>
        <circle cx="15" cy="15" r="14" fill="#03031D" stroke="#A15AFF" stroke-width="2" filter="url(#b)"/>
        <circle cx="15" cy="15" r="15" stroke="#A15AFF"/>
        <g transform="translate(7 7)">
            <mask id="d" fill="#fff">
                <use xlink:href="#c"/>
            </mask>
            <g fill="#CBB4FF" fill-rule="nonzero" mask="url(#d)">
                <path d="M8 13c2.32 0 4.2-2.462 4.2-5.5S11.583 2 8 2C4.418 2 3.8 4.462 3.8 7.5S5.68 13 8 13zM-.998 13.306c-.002-.595-.004-.168 0 0zM14.6 13.306c.007-.093.002-.64 0 0z"/>
                <path d="M13.845 13.825c-.837-.337-1.896-.597-3.236-.825 0 0-.783.943-2.609.943S5.39 13 5.39 13c-1.665.284-2.898.617-3.81 1.086-2.1 1.08 14.907.801 12.265-.261z"/>
            </g>
        </g>
        <path stroke="#CBB4FF" stroke-linecap="square" d="M10.522 7.5H7.5v3M19.5 7.5h3.022v3M22.5 19.5v3.022h-3M7.5 19.5v3.022h3"/>
    </g>
</svg>
