<?xml version="1.0" encoding="UTF-8" standalone="no"?>
<svg width="32px" height="32px" viewBox="0 0 32 32" version="1.1" xmlns="http://www.w3.org/2000/svg" xmlns:xlink="http://www.w3.org/1999/xlink">
    <!-- Generator: Sketch 41.2 (35397) - http://www.bohemiancoding.com/sketch -->
    <title>facebook</title>
    <desc>Created with Sketch.</desc>
    <defs></defs>
    <g id="Page-1" stroke="none" stroke-width="1" fill="none" fill-rule="evenodd">
        <g id="02.3_New-Project-Workspace_Copy-Project" transform="translate(-1120.000000, -853.000000)" fill="#46CDA5">
            <g id="footer" transform="translate(0.000000, 800.000000)">
                <g id="Group-24" transform="translate(1120.000000, 53.000000)">
                    <path d="M0,16 C0,7.163444 7.16150109,0 16,0 C24.836556,0 32,7.16150109 32,16 C32,24.836556 24.8384989,32 16,32 C7.163444,32 0,24.8384989 0,16 Z M19,11.625 L17.25,11.625 C16.725,11.625 16.375,11.975 16.375,12.5 L16.375,14.25 L19,14.25 L19,16.875 L16.375,16.875 L16.375,23 L13.75,23 L13.75,16.875 L12,16.875 L12,14.25 L13.75,14.25 L13.75,12.0625 C13.75,10.4 15.15,9 16.8125,9 L19,9 L19,11.625 Z" id="facebook"></path>
                </g>
            </g>
        </g>
    </g>
</svg>