<?xml version="1.0" encoding="UTF-8" standalone="no"?>
<svg width="32px" height="32px" viewBox="0 0 32 32" version="1.1" xmlns="http://www.w3.org/2000/svg" xmlns:xlink="http://www.w3.org/1999/xlink">
    <!-- Generator: Sketch 41.2 (35397) - http://www.bohemiancoding.com/sketch -->
    <title>twitter</title>
    <desc>Created with Sketch.</desc>
    <defs></defs>
    <g id="Page-1" stroke="none" stroke-width="1" fill="none" fill-rule="evenodd">
        <g id="02.3_New-Project-Workspace_Copy-Project" transform="translate(-1167.000000, -853.000000)" fill="#46CDA5">
            <g id="footer" transform="translate(0.000000, 800.000000)">
                <g id="Group-24" transform="translate(1120.000000, 53.000000)">
                    <path d="M47,16 C47,7.163444 54.1615011,0 63,0 C71.836556,0 79,7.16150109 79,16 C79,24.836556 71.8384989,32 63,32 C54.163444,32 47,24.8384989 47,16 Z M69.7109375,13.1047088 C69.59375,18.4953338 66.1953125,22.2453338 61.0390625,22.4797088 C58.9296875,22.5968963 57.40625,21.8937713 56,21.0734588 C57.5234375,21.3078338 59.515625,20.7218963 60.5703125,19.7843963 C59.046875,19.6672088 58.109375,18.8468963 57.640625,17.5578338 C58.109375,17.6750213 58.578125,17.5578338 58.9296875,17.5578338 C57.5234375,17.0890838 56.5859375,16.2687713 56.46875,14.3937713 C56.8203125,14.6281463 57.2890625,14.7453338 57.7578125,14.7453338 C56.703125,14.1593963 56,11.9328338 56.8203125,10.5265838 C58.34375,12.1672088 60.21875,13.5734588 63.265625,13.8078338 C62.4453125,10.5265838 66.8984375,8.76877135 68.65625,10.9953338 C69.4765625,10.8781463 70.0625,10.5265838 70.6484375,10.2922088 C70.4140625,11.1125213 69.9453125,11.5812713 69.359375,12.0500213 C69.9453125,11.9328338 70.53125,11.8156463 71,11.5812713 C70.8828125,12.1672088 70.296875,12.6359588 69.7109375,13.1047088 Z" id="twitter"></path>
                </g>
            </g>
        </g>
    </g>
</svg>