<?xml version="1.0" encoding="UTF-8"?>
<svg width="23px" height="20px" viewBox="0 0 23 20" version="1.1" xmlns="http://www.w3.org/2000/svg" xmlns:xlink="http://www.w3.org/1999/xlink">
    <!-- Generator: Sketch 41.2 (35397) - http://www.bohemiancoding.com/sketch -->
    <title>activity monitor</title>
    <desc>Created with Sketch.</desc>
    <defs>
        <filter x="-50%" y="-50%" width="200%" height="200%" filterUnits="objectBoundingBox" id="filter-1">
            <feOffset dx="0" dy="1" in="SourceAlpha" result="shadowOffsetOuter1"></feOffset>
            <feGaussianBlur stdDeviation="1.5" in="shadowOffsetOuter1" result="shadowBlurOuter1"></feGaussianBlur>
            <feColorMatrix values="0 0 0 0 0   0 0 0 0 0   0 0 0 0 0  0 0 0 0.2 0" type="matrix" in="shadowBlurOuter1" result="shadowMatrixOuter1"></feColorMatrix>
            <feMerge>
                <feMergeNode in="shadowMatrixOuter1"></feMergeNode>
                <feMergeNode in="SourceGraphic"></feMergeNode>
            </feMerge>
        </filter>
    </defs>
    <g id="Page-1" stroke="none" stroke-width="1" fill="none" fill-rule="evenodd">
        <g id="DD_profile" transform="translate(-14.000000, -172.000000)" fill="#CCCCCC">
            <g id="Group-62" filter="url(#filter-1)" transform="translate(6.000000, 0.000000)">
                <g id="Group-33" transform="translate(0.000000, 41.000000)">
                    <g id="Group-27" transform="translate(10.000000, 131.000000)">
                        <g id="activity-monitor">
                            <path d="M10.208,16.093 C9.979,16.093 9.779,15.938 9.724,15.715 L7.686,7.646 L6.085,10.599 C5.998,10.76 5.829,10.861 5.646,10.861 L1.5,10.861 C1.224,10.861 1,10.637 1,10.361 C1,10.084 1.224,9.861 1.5,9.861 L5.348,9.861 L7.417,6.042 C7.515,5.862 7.708,5.756 7.919,5.784 C8.123,5.81 8.291,5.958 8.341,6.158 L10.146,13.306 L12.28,2.405 C12.325,2.174 12.523,2.007 12.757,2 L12.771,2 C12.999,2 13.199,2.155 13.255,2.378 L15.157,9.923 L17.486,9.861 L17.5,9.861 C17.77,9.861 17.992,10.075 18,10.347 C18.007,10.623 17.789,10.853 17.514,10.861 L14.784,10.934 C14.506,10.924 14.343,10.782 14.286,10.556 L12.832,4.789 L10.698,15.689 C10.653,15.919 10.455,16.086 10.222,16.093 L10.208,16.093 Z"></path>
                        </g>
                    </g>
                </g>
            </g>
        </g>
    </g>
</svg>