<?xml version="1.0" encoding="UTF-8" standalone="no"?>
<svg width="80px" height="80px" viewBox="0 0 80 80" version="1.1" xmlns="http://www.w3.org/2000/svg" xmlns:xlink="http://www.w3.org/1999/xlink">
    <!-- Generator: Sketch 41.2 (35397) - http://www.bohemiancoding.com/sketch -->
    <title>add-80</title>
    <desc>Created with Sketch.</desc>
    <defs></defs>
    <g id="Page-1" stroke="none" stroke-width="1" fill="none" fill-rule="evenodd">
        <g id="4.6_Visualization-Editor_Chart-Block_Field-Properties" transform="translate(-1058.000000, -656.000000)" fill="#CCCCCC">
            <g id="Group-5" transform="translate(40.000000, 248.000000)">
                <g id="Group-32" transform="translate(915.000000, 305.000000)">
                    <path d="M143,183 C165.09139,183 183,165.09139 183,143 C183,120.90861 165.09139,103 143,103 C120.90861,103 103,120.90861 103,143 C103,165.09139 120.90861,183 143,183 Z M143,181 C163.98682,181 181,163.98682 181,143 C181,122.01318 163.98682,105 143,105 C122.01318,105 105,122.01318 105,143 C105,163.98682 122.01318,181 143,181 Z M128.6,142.006897 L142.006897,142.006897 L142.006897,128.6 L143.993103,128.6 L143.993103,142.006897 L157.4,142.006897 L157.4,143.993103 L143.993103,143.993103 L143.993103,157.4 L142.006897,157.4 L142.006897,143.993103 L128.6,143.993103 L128.6,142.006897 Z" id="add-80"></path>
                </g>
            </g>
        </g>
    </g>
</svg>