<?xml version="1.0" encoding="UTF-8" standalone="no"?>
<svg width="16px" height="14px" viewBox="0 0 16 14" version="1.1" xmlns="http://www.w3.org/2000/svg" xmlns:xlink="http://www.w3.org/1999/xlink">
    <!-- Generator: Sketch 41.2 (35397) - http://www.bohemiancoding.com/sketch -->
    <title>back-16px</title>
    <desc>Created with Sketch.</desc>
    <defs></defs>
    <g id="Page-1" stroke="none" stroke-width="1" fill="none" fill-rule="evenodd" opacity="1">
        <g id="03.1.2_Analytics-Editor_Node-Properties_Parameter" transform="translate(-15.000000, -28.000000)" fill="#CCCCCC">
            <g id="Group-17" transform="translate(0.000000, 12.000000)">
                <path d="M30.2202821,22.2025968 L18.0721421,22.2629704 L22.9592179,17.3758947 C23.2781079,17.0567387 23.2781079,16.5580575 22.9592179,16.2391675 C22.6403279,15.9202775 22.1416467,15.9202775 21.8224907,16.2391675 L15,23.0608603 L15.5590549,23.6196492 L21.7030732,29.7639335 C21.8631831,29.9237775 22.0626556,30.0027686 22.2621281,30.0027686 C22.4616006,30.0027686 22.661073,29.9227136 22.820917,29.7639335 C23.139807,29.4447776 23.139807,28.9460964 22.820917,28.6272064 L18.0335775,23.8398669 L30.2013987,23.7797592 C30.6399722,23.7797592 30.9992886,23.4201768 30.9992886,22.9818692 C31.018172,22.541168 30.6585896,22.2025968 30.2202821,22.2025968 Z" id="back-16px"></path>
            </g>
        </g>
    </g>
</svg>