<?xml version="1.0" encoding="UTF-8" standalone="no"?>
<svg width="12px" height="12px" viewBox="0 0 12 12" version="1.1" xmlns="http://www.w3.org/2000/svg" xmlns:xlink="http://www.w3.org/1999/xlink">
    <!-- Generator: Sketch 41.2 (35397) - http://www.bohemiancoding.com/sketch -->
    <title>column-icon</title>
    <desc>Created with Sketch.</desc>
    <defs></defs>
    <g id="Page-1" stroke="none" stroke-width="1" fill="none" fill-rule="evenodd" opacity="1">
        <g id="4.8.1_Visualization-Editor_Multiple-Charts" transform="translate(-1792.000000, -29.000000)" fill="#CCCCCC">
            <g id="Group-12" transform="translate(1780.000000, 20.000000)">
                <g id="active">
                    <g id="4">
                        <path d="M23,19 C23,19.55 22.56,20 22,20 L20.34,20 L20.34,10 L22,10 C22.56,10 23,10.45 23,11 L23,19 Z M16.67,20 L19.34,20 L19.34,10 L16.67,10 L16.67,20 Z M15.67,20 L14,20 C13.45,20 13,19.55 13,19 L13,11 C13,10.45 13.45,10 14,10 L15.67,10 L15.67,20 Z M22,9 L14,9 C12.9,9 12,9.9 12,11 L12,19 C12,20.1 12.9,21 14,21 L22,21 C23.11,21 24,20.1 24,19 L24,11 C24,9.9 23.11,9 22,9 L22,9 Z" id="column-icon"></path>
                    </g>
                </g>
            </g>
        </g>
    </g>
</svg>