<?xml version="1.0" encoding="UTF-8" standalone="no"?>
<svg width="14px" height="16px" viewBox="0 0 14 16" version="1.1" xmlns="http://www.w3.org/2000/svg" xmlns:xlink="http://www.w3.org/1999/xlink">
    <!-- Generator: Sketch 41.2 (35397) - http://www.bohemiancoding.com/sketch -->
    <title>copy</title>
    <desc>Created with Sketch.</desc>
    <defs></defs>
    <g id="Page-1" stroke="none" stroke-width="1" fill="none" fill-rule="evenodd">
        <g id="01.1.2_Personal-Enviroment" transform="translate(-1134.000000, -164.000000)" fill="#999999">
            <g id="Group-3" transform="translate(80.000000, 130.000000)">
                <g id="copy" transform="translate(1053.000000, 34.000000)">
                    <path d="M13.2713797,3.92857143 L11.557094,3.92857143 L11.557094,1.78571429 C11.557094,1.08308571 10.9740083,0.5 10.2713797,0.5 L2.98566546,0.5 C2.28303689,0.5 1.69995117,1.08308571 1.69995117,1.78571429 L1.69995117,10.7857143 C1.69995117,11.4883429 2.28303689,12.0714286 2.98566546,12.0714286 L4.69995117,12.0714286 L4.69995117,14.2142857 C4.69995117,14.9169143 5.28303689,15.5 5.98566546,15.5 L13.2713797,15.5 C13.9740083,15.5 14.557094,14.9169143 14.557094,14.2142857 L14.557094,5.21428571 C14.557094,4.51165714 13.9740083,3.92857143 13.2713797,3.92857143 Z M4.69995117,5.21428571 L4.69995117,10.7857143 L2.98566546,10.7857143 L2.98566546,1.78571429 L10.2713797,1.78571429 L10.2713797,3.92857143 L5.98566546,3.92857143 C5.28303689,3.92857143 4.69995117,4.51165714 4.69995117,5.21428571 Z M13.2713797,14.2142857 L5.98566546,14.2142857 L5.98566546,5.21428571 L13.2713797,5.21428571 L13.2713797,14.2142857 Z"></path>
                </g>
            </g>
        </g>
    </g>
</svg>