<?xml version="1.0" encoding="UTF-8" standalone="no"?>
<svg width="12px" height="16px" viewBox="0 0 12 16" version="1.1" xmlns="http://www.w3.org/2000/svg" xmlns:xlink="http://www.w3.org/1999/xlink">
    <!-- Generator: Sketch 41.2 (35397) - http://www.bohemiancoding.com/sketch -->
    <title>delete</title>
    <desc>Created with Sketch.</desc>
    <defs></defs>
    <g id="Page-1" stroke="none" stroke-width="1" fill="none" fill-rule="evenodd">
        <g id="01.1.2_Personal-Enviroment" transform="translate(-1166.000000, -164.000000)" fill="#999999">
            <g id="Group-3" transform="translate(80.000000, 130.000000)">
                <g id="delete" transform="translate(1084.000000, 34.000000)">
                    <path d="M13.4314792,1.83859426 L10.0548393,1.83859426 L10.0548393,1.10805438 C10.0548393,0.496779836 9.55774144,-7.10542736e-15 8.94646689,-7.10542736e-15 L7.26085029,-7.10542736e-15 C6.64957574,-7.10542736e-15 6.15247787,0.496779836 6.15247787,1.10805438 L6.15247787,1.83859426 L2.7745658,1.83859426 C2.51250013,1.83859426 2.30004883,2.05104556 2.30004883,2.31311123 L2.30004883,4.13707561 C2.30004883,4.39914129 2.51250013,4.61159259 2.7745658,4.61159259 L2.85280386,4.61159259 L3.46026192,15.5515624 C3.47520984,15.8037688 3.68289052,16 3.93509693,16 L12.269994,16 C12.5222004,16 12.7308352,15.8024966 12.7445109,15.5515624 L13.3532412,4.61159259 L13.4314792,4.61159259 C13.6935449,4.61159259 13.9059962,4.39914129 13.9059962,4.13707561 L13.9059962,2.31311123 C13.9059962,2.05104556 13.6935449,1.83859426 13.4314792,1.83859426 Z M7.10182986,1.10805438 C7.10182986,1.02122923 7.17243493,0.950306114 7.25957813,0.950306114 L8.94519473,0.950306114 C9.03233793,0.950306114 9.10326104,1.02122923 9.10326104,1.10805438 L9.10326104,1.83859426 L7.10055769,1.83859426 L7.10055769,1.10805438 L7.10182986,1.10805438 Z M3.24908278,2.78762821 L12.9556901,2.78762821 L12.9556901,3.66096843 L3.24908278,3.66096843 L3.24908278,2.78762821 Z M11.8212383,15.0522382 L4.38480672,15.0522382 L3.80438213,4.61286475 L12.4016629,4.61286475 L11.8212383,15.0522382 Z M10.3083179,13.88312 L10.3181772,13.88312 C10.5751542,13.88312 10.7876055,13.6770295 10.7926941,13.4184623 L10.9367666,6.34968593 C10.9418553,6.08730222 10.7332205,5.87008031 10.4721089,5.86499165 C10.2199025,5.87135247 9.99250331,6.06885585 9.9877327,6.33092152 L9.84366018,13.4000159 C9.83857153,13.6620816 10.0459342,13.8780313 10.3083179,13.88312 Z M5.8865957,13.88312 L5.89645497,13.88312 C6.15883868,13.8780313 6.36747349,13.6608094 6.36111267,13.3987437 L6.21831232,6.33092152 C6.21354171,6.07140017 6.00109041,5.86626381 5.74379535,5.86626381 L5.73393608,5.86626381 C5.47187041,5.87135247 5.26291756,6.08857438 5.26800621,6.35064006 L5.41207872,13.4197344 C5.41716738,13.6783017 5.62961868,13.88312 5.8865957,13.88312 Z M8.10302251,13.88312 C8.36508819,13.88312 8.57753949,13.6706687 8.57753949,13.408603 L8.57753949,6.33950863 C8.57753949,6.07744295 8.36508819,5.86499165 8.10302251,5.86499165 C7.84095683,5.86499165 7.62850553,6.07744295 7.62850553,6.33950863 L7.62850553,13.408603 C7.62850553,13.6706687 7.84095683,13.88312 8.10302251,13.88312 Z"></path>
                </g>
            </g>
        </g>
    </g>
</svg>