<?xml version="1.0" encoding="UTF-8"?>
<svg width="12px" height="12px" viewBox="0 0 12 12" version="1.1" xmlns="http://www.w3.org/2000/svg" xmlns:xlink="http://www.w3.org/1999/xlink">
    <!-- Generator: Sketch 41.2 (35397) - http://www.bohemiancoding.com/sketch -->
    <title>edit-12px</title>
    <desc>Created with Sketch.</desc>
    <defs></defs>
    <g id="Page-1" stroke="none" stroke-width="1" fill="none" fill-rule="evenodd">
        <g id="03.8_Analytics-Editor_Node-Library" transform="translate(-896.000000, -294.000000)" fill="#CCCCCC">
            <g id="Group-12" transform="translate(340.000000, 120.000000)">
                <g id="Group" transform="translate(0.000000, 50.000000)">
                    <g id="Group-7" transform="translate(30.000000, 122.000000)">
                        <g id="delete-copy" transform="translate(524.000000, 0.000000)">
                            <path d="M10.954407,2.00259296 C10.8535542,2.01439366 10.7583044,2.06199646 10.6870671,2.1338007 L2.88298515,9.93426064 C2.82355407,9.99286409 2.78073167,10.0686686 2.76112141,10.1498733 L2.01072891,13.4500679 C1.97711133,13.5978767 2.02393582,13.7618863 2.13099182,13.8688926 C2.23824792,13.9758989 2.40233374,14.0229017 2.55001099,13.9892997 L5.85173798,13.2392555 C5.93458132,13.2204544 6.01202182,13.1774519 6.07225333,13.1172483 L13.8763353,5.31678838 C14.0412216,5.15037856 14.0412216,4.85036087 13.8763353,4.68395106 L11.3250008,2.1338007 C11.2295509,2.03699499 11.0888773,1.98779209 10.954407,2.00259296 Z M11.006034,3.08545681 L12.9194348,5.00276986 L12.0565835,5.86522071 L10.1431827,3.95270794 L11.006034,3.08545681 Z M9.50524898,4.58554526 L11.4186498,6.50285831 L5.90336499,12.0155834 L3.98996417,10.1030706 L9.50524898,4.58554526 Z M3.51611632,10.8999176 L5.106148,12.4892113 L3.05187349,12.9532386 L3.51611632,10.8999176 Z" id="edit-12px"></path>
                        </g>
                    </g>
                </g>
            </g>
        </g>
    </g>
</svg>