<svg xmlns="http://www.w3.org/2000/svg" width="40" height="40" viewBox="0 0 40 40">
    <path fill="#FFCACA" fill-rule="evenodd" d="M40 20c0 11.046-8.954 20-20 20S0 31.046 0 20 8.954 0 20 0s20 8.954 20 20zm-17.717 0l5.719-6.621a1.723 1.723 0 0 0-.182-2.434 1.734 1.734 0 0 0-2.44.181L20 17.356l-5.38-6.23a1.733 1.733 0 0 0-2.44-.181 1.723 1.723 0 0 0-.182 2.434L17.716 20l-5.718 6.621a1.726 1.726 0 1 0 1.31 2.852c.486 0 .97-.203 1.313-.599L20 22.644l5.38 6.23c.342.397.825.6 1.311.6a1.726 1.726 0 0 0 1.31-2.853l-5.718-6.62z"/>
</svg>
