<svg xmlns="http://www.w3.org/2000/svg" xmlns:xlink="http://www.w3.org/1999/xlink" width="33" height="33" viewBox="0 0 33 33">
    <defs>
        <linearGradient id="c" x1="50%" x2="50%" y1="100%" y2="-19.817%">
            <stop offset="0%" stop-color="#FF75F1"/>
            <stop offset="100%" stop-color="#F00"/>
        </linearGradient>
        <path id="b" d="M12.5 0C19.373 0 25 5.578 25 12.5v10.01A2.466 2.466 0 0 1 22.51 25c-1.345 0-2.44-1.096-2.44-2.49V12.5a7.566 7.566 0 0 0-7.57-7.57 7.566 7.566 0 0 0-7.57 7.57v10.01A2.466 2.466 0 0 1 2.44 25C1.096 25 0 23.904 0 22.51V12.5C0 5.578 5.627 0 12.5 0z"/>
        <filter id="a" width="148%" height="148%" x="-24%" y="-24%" filterUnits="objectBoundingBox">
            <feOffset in="SourceAlpha" result="shadowOffsetOuter1"/>
            <feGaussianBlur in="shadowOffsetOuter1" result="shadowBlurOuter1" stdDeviation="2"/>
            <feColorMatrix in="shadowBlurOuter1" values="0 0 0 0 1 0 0 0 0 0.490196078 0 0 0 0 0.490196078 0 0 0 0.5 0"/>
        </filter>
    </defs>
    <g fill="none" fill-rule="evenodd" transform="translate(4 4)">
        <use fill="#000" filter="url(#a)" xlink:href="#b"/>
        <use fill="url(#c)" xlink:href="#b"/>
    </g>
</svg>
