<svg xmlns="http://www.w3.org/2000/svg" width="25" height="25" viewBox="0 0 25 25">
    <defs>
        <linearGradient id="a" x1="50%" x2="50%" y1="-28.752%" y2="98.218%">
            <stop offset="0%" stop-color="#FCF6FF"/>
            <stop offset="54.437%" stop-color="#AEA1F7"/>
            <stop offset="100%" stop-color="#7D6DFC"/>
        </linearGradient>
    </defs>
    <path fill="url(#a)" fill-rule="evenodd" d="M12.5 0C19.373 0 25 5.578 25 12.5v10.01A2.466 2.466 0 0 1 22.51 25c-1.345 0-2.44-1.096-2.44-2.49V12.5a7.566 7.566 0 0 0-7.57-7.57 7.566 7.566 0 0 0-7.57 7.57v10.01A2.466 2.466 0 0 1 2.44 25C1.096 25 0 23.904 0 22.51V12.5C0 5.578 5.627 0 12.5 0z"/>
</svg>
