<?xml version="1.0" encoding="UTF-8"?>
<svg width="22px" height="22px" viewBox="0 0 22 22" version="1.1" xmlns="http://www.w3.org/2000/svg" xmlns:xlink="http://www.w3.org/1999/xlink">
    <!-- Generator: Sketch 41.2 (35397) - http://www.bohemiancoding.com/sketch -->
    <title>library</title>
    <desc>Created with Sketch.</desc>
    <defs>
        <filter x="-50%" y="-50%" width="200%" height="200%" filterUnits="objectBoundingBox" id="filter-1">
            <feOffset dx="0" dy="1" in="SourceAlpha" result="shadowOffsetOuter1"></feOffset>
            <feGaussianBlur stdDeviation="1.5" in="shadowOffsetOuter1" result="shadowBlurOuter1"></feGaussianBlur>
            <feColorMatrix values="0 0 0 0 0   0 0 0 0 0   0 0 0 0 0  0 0 0 0.2 0" type="matrix" in="shadowBlurOuter1" result="shadowMatrixOuter1"></feColorMatrix>
            <feMerge>
                <feMergeNode in="shadowMatrixOuter1"></feMergeNode>
                <feMergeNode in="SourceGraphic"></feMergeNode>
            </feMerge>
        </filter>
    </defs>
    <g id="Page-1" stroke="none" stroke-width="1" fill="none" fill-rule="evenodd">
        <g id="DD_profile" transform="translate(-15.000000, -91.000000)" fill="#CCCCCC">
            <g id="Group-62" filter="url(#filter-1)" transform="translate(6.000000, 0.000000)">
                <g id="Group-33" transform="translate(0.000000, 41.000000)">
                    <g id="Group-29" transform="translate(10.000000, 50.000000)">
                        <g id="my-library">
                            <path d="M11.0003,17 L17.0003,17 L17.0003,8.33 L11.0003,8.33 L11.0003,17 Z M17.0003,7.33 L11.0003,7.33 C10.4503,7.33 10.0003,7.78 10.0003,8.33 L10.0003,17 C10.0003,17.55 10.4503,18 11.0003,18 L17.0003,18 C17.5503,18 18.0003,17.55 18.0003,17 L18.0003,8.33 C18.0003,7.78 17.5503,7.33 17.0003,7.33 Z M14,5.6699 L14,6.3299 L13,6.3299 L13,5.6699 L7,5.6699 L7,14.3399 L9,14.3399 L9,15.3399 L7,15.3399 C6.45,15.3399 6,14.8899 6,14.3399 L6,5.6699 C6,5.1199 6.45,4.6699 7,4.6699 L13,4.6699 C13.551,4.6699 14,5.1199 14,5.6699 Z M9,2 L3,2 C2.45,2 2,2.45 2,3 L2,11.67 C2,12.22 2.45,12.67 3,12.67 L5,12.67 L5,11.67 L3,11.67 L3,3 L9,3 L9,3.67 L10,3.67 L10,3 C10,2.45 9.551,2 9,2 Z" id="library"></path>
                        </g>
                    </g>
                </g>
            </g>
        </g>
    </g>
</svg>