<?xml version="1.0" encoding="UTF-8"?>
<svg width="26px" height="22px" viewBox="0 0 26 22" version="1.1" xmlns="http://www.w3.org/2000/svg" xmlns:xlink="http://www.w3.org/1999/xlink">
    <!-- Generator: Sketch 41.2 (35397) - http://www.bohemiancoding.com/sketch -->
    <title>my-team</title>
    <desc>Created with Sketch.</desc>
    <defs>
        <filter x="-50%" y="-50%" width="200%" height="200%" filterUnits="objectBoundingBox" id="filter-1">
            <feOffset dx="0" dy="1" in="SourceAlpha" result="shadowOffsetOuter1"></feOffset>
            <feGaussianBlur stdDeviation="1.5" in="shadowOffsetOuter1" result="shadowBlurOuter1"></feGaussianBlur>
            <feColorMatrix values="0 0 0 0 0   0 0 0 0 0   0 0 0 0 0  0 0 0 0.2 0" type="matrix" in="shadowBlurOuter1" result="shadowMatrixOuter1"></feColorMatrix>
            <feMerge>
                <feMergeNode in="shadowMatrixOuter1"></feMergeNode>
                <feMergeNode in="SourceGraphic"></feMergeNode>
            </feMerge>
        </filter>
    </defs>
    <g id="Page-1" stroke="none" stroke-width="1" fill="none" fill-rule="evenodd">
        <g id="DD_profile" transform="translate(-13.000000, -51.000000)" fill="#CCCCCC">
            <g id="Group-62" filter="url(#filter-1)" transform="translate(6.000000, 0.000000)">
                <g id="Group-33" transform="translate(0.000000, 41.000000)">
                    <g id="Group-30" transform="translate(10.000000, 10.000000)">
                        <g id="my-team">
                            <path d="M17.13,10.9499 L14.51,10.9499 C13.87,10.3299 12.94,9.9399 11.9,9.9399 L7.91,9.9399 C6.88,9.9399 5.95,10.3199 5.31,10.9499 L2.68,10.9499 C1.2,10.9499 0,11.9999 0,13.3009 L0,15.7299 C0,15.8909 0.13,15.9999 0.31,15.9999 L4.34,15.9999 L4.34,17.6299 C4.34,17.8509 4.51,17.9999 4.76,17.9999 L15.04,17.9999 C15.25,17.9999 15.46,17.8199 15.46,17.6009 L15.46,15.9999 L19.49,15.9999 C19.65,15.9999 19.81,15.8599 19.81,15.6999 L19.81,13.3009 C19.81,11.9999 18.61,10.9499 17.13,10.9499 Z M18.81,14.9999 L15.46,14.9999 L15.46,13.0699 C15.46,12.6809 15.38,12.3009 15.22,11.9499 L17.13,11.9499 C18.06,11.9499 18.81,12.5609 18.81,13.3009 L18.81,14.9999 Z M14.46,16.9999 L5.34,16.9999 L5.34,13.0699 C5.34,12.7499 5.43,12.4399 5.581,12.1699 C5.62,12.0909 5.67,12.0209 5.72,11.9499 C5.87,11.7499 6.06,11.5699 6.27,11.4199 C6.42,11.3199 6.59,11.2299 6.77,11.1699 L6.78,11.1599 C7.12,11.0209 7.51,10.9399 7.91,10.9399 L11.9,10.9399 C12.3,10.9399 12.69,11.0209 13.03,11.1699 C13.21,11.2299 13.38,11.3199 13.53,11.4199 C13.74,11.5699 13.93,11.7499 14.081,11.9499 C14.13,12.0209 14.18,12.0909 14.22,12.1699 C14.37,12.4399 14.46,12.7499 14.46,13.0699 L14.46,16.9999 Z M4.34,13.0699 L4.34,14.9999 L1,14.9999 L1,13.3009 C1,12.5609 1.75,11.9499 2.68,11.9499 L4.581,11.9499 C4.42,12.3009 4.34,12.6809 4.34,13.0699 Z M16,10 C14.6192881,10 13.5,8.88071187 13.5,7.5 C13.5,6.11928813 14.6192881,5 16,5 C17.3807119,5 18.5,6.11928813 18.5,7.5 C18.5,8.88071187 17.3807119,10 16,10 Z M16,9 C16.8284271,9 17.5,8.32842712 17.5,7.5 C17.5,6.67157288 16.8284271,6 16,6 C15.1715729,6 14.5,6.67157288 14.5,7.5 C14.5,8.32842712 15.1715729,9 16,9 Z M4,10 C2.61928813,10 1.5,8.88071187 1.5,7.5 C1.5,6.11928813 2.61928813,5 4,5 C5.38071187,5 6.5,6.11928813 6.5,7.5 C6.5,8.88071187 5.38071187,10 4,10 Z M4,9 C4.82842712,9 5.5,8.32842712 5.5,7.5 C5.5,6.67157288 4.82842712,6 4,6 C3.17157288,6 2.5,6.67157288 2.5,7.5 C2.5,8.32842712 3.17157288,9 4,9 Z M10,9 C8.06700338,9 6.5,7.43299662 6.5,5.5 C6.5,3.56700338 8.06700338,2 10,2 C11.9329966,2 13.5,3.56700338 13.5,5.5 C13.5,7.43299662 11.9329966,9 10,9 Z M10,8 C11.3807119,8 12.5,6.88071187 12.5,5.5 C12.5,4.11928813 11.3807119,3 10,3 C8.61928813,3 7.5,4.11928813 7.5,5.5 C7.5,6.88071187 8.61928813,8 10,8 Z"></path>
                        </g>
                    </g>
                </g>
            </g>
        </g>
    </g>
</svg>