<?xml version="1.0" encoding="UTF-8" standalone="no"?>
<svg width="20px" height="24px" viewBox="0 0 20 24" version="1.1" xmlns="http://www.w3.org/2000/svg" xmlns:xlink="http://www.w3.org/1999/xlink">
    <!-- Generator: Sketch 41.2 (35397) - http://www.bohemiancoding.com/sketch -->
    <title>notification</title>
    <desc>Created with Sketch.</desc>
    <defs></defs>
    <g id="Page-1" stroke="none" stroke-width="1" fill="none" fill-rule="evenodd">
        <g id="01.3_Landing-(Team)-Page_Dropdowns" transform="translate(-1170.000000, -13.000000)" fill="#CCCCCC">
            <g id="header">
                <path d="M1179.70213,33.2723404 C1174.54468,33.2723404 1171.42979,32.4042553 1171.07234,31.893617 C1172.70638,29.2893617 1173.47234,27.1446809 1173.42128,24.8978723 L1173.42128,23.4170213 C1173.42128,21.7319149 1174.08511,20.1489362 1175.31064,18.9744681 C1176.49532,17.8408511 1178.00681,17.187234 1179.62043,17.187234 L1179.80426,17.187234 C1183.17447,17.2382979 1185.93191,20.1489362 1185.93191,23.6723404 L1185.93191,24.9489362 C1185.93191,27.093617 1186.64681,29.2893617 1188.33191,31.893617 C1187.97447,32.4042553 1184.91064,33.2723404 1179.70213,33.2723404 M1179.70213,35.9787234 C1178.62979,35.9787234 1177.75149,35.2331915 1177.54723,34.2221277 C1178.7217,34.293617 1179.57957,34.293617 1179.70213,34.293617 C1179.82468,34.293617 1180.68255,34.293617 1181.85702,34.2221277 C1181.65277,35.2331915 1180.77447,35.9787234 1179.70213,35.9787234 M1179.70213,14.0212766 C1180.26383,14.0212766 1180.7234,14.4808511 1180.7234,15.093617 C1180.7234,15.706383 1180.26383,16.1659574 1179.70213,16.1659574 C1179.14043,16.1659574 1178.68085,15.706383 1178.68085,15.093617 C1178.68085,14.4808511 1179.14043,14.0212766 1179.70213,14.0212766 M1189.2,31.3829787 C1187.66809,28.9319149 1186.95319,26.9404255 1186.95319,24.9489362 L1186.95319,23.6723404 C1186.95319,20.1387234 1184.54298,17.1361702 1181.33617,16.36 C1181.59149,16.012766 1181.74468,15.573617 1181.74468,15.093617 C1181.74468,13.9191489 1180.82553,13 1179.70213,13 C1178.57872,13 1177.65957,13.9191489 1177.65957,15.093617 C1177.65957,15.5634043 1177.80255,16.0025532 1178.06809,16.3497872 C1176.76085,16.6357447 1175.55574,17.2995745 1174.59574,18.2595745 C1173.16596,19.6382979 1172.4,21.4765957 1172.4,23.4680851 L1172.4,24.9489362 C1172.4,26.9404255 1171.73617,28.9319149 1170.15319,31.3829787 C1170.05106,31.5361702 1170,31.7404255 1170,31.893617 C1170,33.3744681 1173.68681,33.9361702 1176.51574,34.1608511 C1176.68936,35.7744681 1178.04766,37 1179.70213,37 C1181.36681,37 1182.71489,35.7642553 1182.88851,34.1506383 C1185.70723,33.9361702 1189.38383,33.3744681 1189.35319,31.893617 C1189.35319,31.7404255 1189.30213,31.5361702 1189.2,31.3829787" id="notification"></path>
            </g>
        </g>
    </g>
</svg>