<?xml version="1.0" encoding="UTF-8"?>
<svg width="23px" height="21px" viewBox="0 0 23 21" version="1.1" xmlns="http://www.w3.org/2000/svg" xmlns:xlink="http://www.w3.org/1999/xlink">
    <!-- Generator: Sketch 41.2 (35397) - http://www.bohemiancoding.com/sketch -->
    <title>Path</title>
    <desc>Created with Sketch.</desc>
    <defs>
        <filter x="-50%" y="-50%" width="200%" height="200%" filterUnits="objectBoundingBox" id="filter-1">
            <feOffset dx="0" dy="1" in="SourceAlpha" result="shadowOffsetOuter1"></feOffset>
            <feGaussianBlur stdDeviation="1.5" in="shadowOffsetOuter1" result="shadowBlurOuter1"></feGaussianBlur>
            <feColorMatrix values="0 0 0 0 0   0 0 0 0 0   0 0 0 0 0  0 0 0 0.2 0" type="matrix" in="shadowBlurOuter1" result="shadowMatrixOuter1"></feColorMatrix>
            <feMerge>
                <feMergeNode in="shadowMatrixOuter1"></feMergeNode>
                <feMergeNode in="SourceGraphic"></feMergeNode>
            </feMerge>
        </filter>
    </defs>
    <g id="Page-1" stroke="none" stroke-width="1" fill="none" fill-rule="evenodd">
        <g id="DD_profile" transform="translate(-15.000000, -214.000000)" fill="#CCCCCC">
            <g id="Group-62" filter="url(#filter-1)" transform="translate(6.000000, 0.000000)">
                <g id="Group-33" transform="translate(0.000000, 41.000000)">
                    <g id="Group-26" transform="translate(10.000000, 172.000000)">
                        <g id="data-market-place">
                            <path d="M17.08,3 C16.26,3 15.58,3.669 15.58,4.5 C15.58,4.729 15.63,4.95 15.74,5.15 L12.53,8.349 C12.33,8.229 12.11,8.179 11.87,8.179 C11.21,8.179 10.64,8.61 10.45,9.21 L8.29,9.21 C8.08,8.639 7.53,8.24 6.89,8.24 C6.06,8.24 5.39,8.91 5.39,9.74 C5.39,10.12 5.54,10.479 5.79,10.74 L3.62,14.979 C3.58,14.969 3.54,14.969 3.5,14.969 C2.67,14.969 2,15.639 2,16.469 C2,17.299 2.67,17.969 3.5,17.969 C4.33,17.969 5,17.299 5,16.469 C5,16.04 4.82,15.65 4.53,15.379 L6.66,11.219 C6.729,11.229 6.81,11.24 6.89,11.24 C7.55,11.24 8.11,10.809 8.31,10.21 L10.47,10.21 C10.68,10.78 11.229,11.179 11.87,11.179 C12.7,11.179 13.37,10.509 13.37,9.679 C13.37,9.46 13.32,9.25 13.229,9.059 L16.45,5.849 C16.64,5.95 16.85,6 17.08,6 C17.91,6 18.58,5.33 18.58,4.5 C18.58,3.669 17.91,3 17.08,3 L17.08,3 Z" id="Path"></path>
                        </g>
                    </g>
                </g>
            </g>
        </g>
    </g>
</svg>