<?xml version="1.0" encoding="UTF-8" standalone="no"?>
<svg width="14px" height="10px" viewBox="0 0 14 10" version="1.1" xmlns="http://www.w3.org/2000/svg" xmlns:xlink="http://www.w3.org/1999/xlink">
    <!-- Generator: Sketch 41.2 (35397) - http://www.bohemiancoding.com/sketch -->
    <title>publish-icon</title>
    <desc>Created with Sketch.</desc>
    <defs></defs>
    <g id="Page-1" stroke="none" stroke-width="1" fill="none" fill-rule="evenodd" opacity="1">
        <g id="03.1.1_Analytics-Editor_New-Analytics" transform="translate(-1175.000000, -30.000000)" fill="#CCCCCC">
            <g id="Group-17" transform="translate(0.000000, 12.000000)">
                <g id="Publish" transform="translate(1160.000000, 8.000000)">
                    <g id="publish-button">
                        <g id="Group-7" transform="translate(15.000000, 8.000000)">
                            <path d="M14,9.01166667 C14,10.365 12.9033333,11.4616667 11.5616667,11.4616667 L7.58333333,11.4616667 L7.58333333,8.07833333 L8.23666667,8.73166667 C8.47,8.965 8.84333333,8.965 9.065,8.74333333 C9.29833333,8.51 9.29833333,8.13666667 9.065,7.915 L7.40833333,6.25833333 C7.30333333,6.14166667 7.15166667,6.08333333 7,6.08333333 C6.84833333,6.08333333 6.69666667,6.14166667 6.58,6.25833333 L4.935,7.915 C4.70166667,8.13666667 4.70166667,8.51 4.935,8.74333333 C5.16833333,8.965 5.53,8.965 5.76333333,8.73166667 L6.41666667,8.07833333 L6.41666667,11.4616667 L3.255,11.4616667 C1.45833333,11.4616667 0,10.0033333 0,8.20666667 C0,6.64333333 1.10833333,5.33666667 2.57833333,5.02166667 C3.045,3.28333333 4.63166667,2 6.52166667,2 C8.31833333,2 9.84666667,3.17833333 10.3833333,4.8 C10.5116667,4.765 10.6516667,4.75333333 10.7916667,4.75333333 C11.69,4.75333333 12.4133333,5.47666667 12.4133333,6.38666667 C12.4133333,6.49166667 12.4016667,6.60833333 12.3783333,6.71333333 C13.3233333,7.05166667 14,7.95 14,9.01166667" id="publish-icon"></path>
                        </g>
                    </g>
                </g>
            </g>
        </g>
    </g>
</svg>