<?xml version="1.0" encoding="UTF-8" standalone="no"?>
<svg width="12px" height="10px" viewBox="0 0 12 10" version="1.1" xmlns="http://www.w3.org/2000/svg" xmlns:xlink="http://www.w3.org/1999/xlink">
    <!-- Generator: Sketch 41.2 (35397) - http://www.bohemiancoding.com/sketch -->
    <title>rearrange-12px</title>
    <desc>Created with Sketch.</desc>
    <defs></defs>
    <g id="Page-1" stroke="none" stroke-width="1" fill="none" fill-rule="evenodd" opacity="1">
        <g id="4.8.1_Visualization-Editor_Multiple-Charts" transform="translate(-1339.000000, -30.000000)" fill="#CCCCCC">
            <g id="Group-6" transform="translate(1321.000000, 20.000000)">
                <path d="M27.507,16.6247 L27.007,16.6247 C26.323,16.6247 25.486,16.0267 24.616,15.2417 C24.412,15.4297 24.223,15.6347 24.052,15.8057 C23.882,15.9767 23.694,16.1467 23.523,16.3177 C24.65,17.3427 25.795,18.1617 27.007,18.1617 L27.507,18.1617 L27.507,19.2557 L30,17.3947 L27.507,15.5327 L27.507,16.6247 Z M27.507,11.093 L27.007,11.093 C25.367,11.093 23.831,12.613 22.345,14.064 C21.064,15.328 19.732,16.626 18.708,16.626 L18,16.626 L18,18.162 L18.691,18.162 C20.364,18.162 21.901,16.642 23.403,15.157 C24.667,13.91 25.982,12.63 26.989,12.63 L27.507,12.63 L27.507,13.723 L30,11.862 L27.507,10 L27.507,11.093 Z M18.0002,11.093 L18.0002,12.63 L18.6902,12.63 C19.3912,12.63 20.2272,13.227 21.0982,14.013 C21.3022,13.808 21.5082,13.603 21.6962,13.432 C21.8662,13.261 22.0202,13.107 22.1912,12.937 C21.0642,11.912 19.9032,11.092 18.6732,11.092 L18.0002,11.092 L18.0002,11.093 Z" id="rearrange-12px"></path>
            </g>
        </g>
    </g>
</svg>