<?xml version="1.0" encoding="UTF-8"?>
<svg width="22px" height="24px" viewBox="0 0 22 24" version="1.1" xmlns="http://www.w3.org/2000/svg" xmlns:xlink="http://www.w3.org/1999/xlink">
    <!-- Generator: Sketch 41.2 (35397) - http://www.bohemiancoding.com/sketch -->
    <title>settings</title>
    <desc>Created with Sketch.</desc>
    <defs>
        <filter x="-50%" y="-50%" width="200%" height="200%" filterUnits="objectBoundingBox" id="filter-1">
            <feOffset dx="0" dy="1" in="SourceAlpha" result="shadowOffsetOuter1"></feOffset>
            <feGaussianBlur stdDeviation="1.5" in="shadowOffsetOuter1" result="shadowBlurOuter1"></feGaussianBlur>
            <feColorMatrix values="0 0 0 0 0   0 0 0 0 0   0 0 0 0 0  0 0 0 0.2 0" type="matrix" in="shadowBlurOuter1" result="shadowMatrixOuter1"></feColorMatrix>
            <feMerge>
                <feMergeNode in="shadowMatrixOuter1"></feMergeNode>
                <feMergeNode in="SourceGraphic"></feMergeNode>
            </feMerge>
        </filter>
    </defs>
    <g id="Page-1" stroke="none" stroke-width="1" fill="none" fill-rule="evenodd">
        <g id="DD_profile" transform="translate(-15.000000, -252.000000)" fill="#CCCCCC">
            <g id="Group-62" filter="url(#filter-1)" transform="translate(6.000000, 0.000000)">
                <g id="Group-33" transform="translate(0.000000, 41.000000)">
                    <g id="Group-25" transform="translate(10.000000, 212.000000)">
                        <g id="settings">
                            <path d="M11.6431577,18.5 L8.59515767,18.5 C8.35415767,18.5 8.14615767,18.327 8.10315767,18.09 L7.79315767,16.378 C7.10715767,16.127 6.47015767,15.768 5.89315767,15.304 L4.26915767,15.931 C4.04615767,16.018 3.78915767,15.932 3.66315767,15.725 L2.07315767,13.123 C1.94715767,12.916 1.98715767,12.648 2.16815767,12.488 L3.47215767,11.333 C3.38415767,10.892 3.33915767,10.444 3.33915767,10 C3.33915767,9.555 3.38415767,9.107 3.47215767,8.667 L2.16815767,7.511 C1.98715767,7.351 1.94715767,7.083 2.07315767,6.876 L3.66315767,4.274 C3.78915767,4.067 4.04515767,3.982 4.26915767,4.068 L5.89215767,4.695 C6.46915767,4.231 7.10615767,3.872 7.79315767,3.621 L8.10315767,1.91 C8.14615767,1.673 8.35415767,1.5 8.59515767,1.5 L11.6431577,1.5 C11.8841577,1.5 12.0921577,1.673 12.1351577,1.91 L12.4461577,3.621 C13.1311577,3.871 13.7681577,4.231 14.3451577,4.695 L15.9691577,4.068 C16.1931577,3.984 16.4511577,4.068 16.5761577,4.274 L18.1651577,6.876 C18.2911577,7.082 18.2521577,7.349 18.0711577,7.51 L16.7711577,8.671 C16.8561577,9.103 16.8991577,9.549 16.8991577,10 C16.8991577,10.451 16.8561577,10.896 16.7711577,11.328 L18.0711577,12.489 C18.2521577,12.65 18.2911577,12.917 18.1651577,13.123 L16.5761577,15.725 C16.4501577,15.932 16.1911577,16.016 15.9691577,15.931 L14.3451577,15.304 C13.7671577,15.768 13.1301577,16.128 12.4461577,16.378 L12.1351577,18.09 C12.0921577,18.327 11.8841577,18.5 11.6431577,18.5 Z M9.01215767,17.5 L11.2261577,17.5 L11.5141577,15.91 C11.5471577,15.729 11.6791577,15.579 11.8561577,15.523 C12.6141577,15.284 13.3081577,14.892 13.9211577,14.355 C14.0611577,14.233 14.2581577,14.197 14.4301577,14.265 L15.9401577,14.848 L17.0941577,12.957 L15.8871577,11.879 C15.7501577,11.756 15.6911577,11.566 15.7351577,11.387 C15.8431577,10.941 15.8991577,10.475 15.8991577,10 C15.8991577,9.524 15.8431577,9.058 15.7351577,8.612 C15.6911577,8.433 15.7501577,8.243 15.8871577,8.12 L17.0941577,7.042 L15.9401577,5.151 L14.4301577,5.734 C14.2581577,5.801 14.0611577,5.765 13.9211577,5.644 C13.3091577,5.108 12.6151577,4.716 11.8561577,4.477 C11.6791577,4.421 11.5471577,4.272 11.5141577,4.09 L11.2261577,2.5 L9.01215767,2.5 L8.72415767,4.09 C8.69115767,4.272 8.55915767,4.421 8.38215767,4.477 C7.62215767,4.716 6.92715767,5.108 6.31815767,5.644 C6.17815767,5.766 5.98215767,5.802 5.80815767,5.734 L4.29815767,5.151 L3.14415767,7.04 L4.35615767,8.114 C4.49515767,8.237 4.55415767,8.428 4.50915767,8.608 C4.39715767,9.065 4.33915767,9.534 4.33915767,10 C4.33915767,10.465 4.39715767,10.934 4.50915767,11.393 C4.55415767,11.572 4.49515767,11.763 4.35615767,11.886 L3.14415767,12.959 L4.29815767,14.848 L5.80815767,14.265 C5.97815767,14.196 6.17615767,14.232 6.31715767,14.355 C6.92815767,14.891 7.62415767,15.284 8.38215767,15.523 C8.55915767,15.579 8.69115767,15.729 8.72415767,15.91 L9.01215767,17.5 Z M10.1188577,13.6773 C8.09085767,13.6773 6.44085767,12.0283 6.44085767,10.0003 C6.44085767,7.9713 8.09085767,6.3213 10.1188577,6.3213 C12.1468577,6.3213 13.7978577,7.9713 13.7978577,10.0003 C13.7978577,12.0283 12.1468577,13.6773 10.1188577,13.6773 Z M10.1188577,7.3213 C8.64185767,7.3213 7.44085767,8.5233 7.44085767,10.0003 C7.44085767,11.4763 8.64185767,12.6773 10.1188577,12.6773 C11.5958577,12.6773 12.7978577,11.4763 12.7978577,10.0003 C12.7978577,8.5233 11.5958577,7.3213 10.1188577,7.3213 Z"></path>
                        </g>
                    </g>
                </g>
            </g>
        </g>
    </g>
</svg>