<?xml version="1.0" encoding="UTF-8" standalone="no"?>
<svg width="16px" height="12px" viewBox="0 0 16 12" version="1.1" xmlns="http://www.w3.org/2000/svg" xmlns:xlink="http://www.w3.org/1999/xlink">
    <!-- Generator: Sketch 41.2 (35397) - http://www.bohemiancoding.com/sketch -->
    <title>show</title>
    <desc>Created with Sketch.</desc>
    <defs></defs>
    <g id="Page-1" stroke="none" stroke-width="1" fill="none" fill-rule="evenodd">
        <g id="02.2.1_New-Project-Workspace_Visualization-Library" transform="translate(-397.000000, -626.000000)" fill="#FFFFFF">
            <g id="Group-43" transform="translate(80.000000, 228.000000)">
                <g id="Group-42" transform="translate(245.000000, 396.000000)">
                    <g id="Group-10" transform="translate(72.000000, 0.000000)">
                        <path d="M7.99981207,2.59002686 C4.36373887,2.59002686 1.25800465,4.85157869 0,8.04451251 C1.25800465,11.2370705 4.36373887,13.4989982 7.99981207,13.4989982 C11.6362611,13.4989982 14.7416195,11.2370705 16,8.04451251 C14.7416195,4.85157869 11.6362611,2.59002686 7.99981207,2.59002686 L7.99981207,2.59002686 Z M7.99981207,11.6805857 C5.99271771,11.6805857 4.36373887,10.0516069 4.36373887,8.04451251 C4.36373887,6.03704229 5.99271771,4.40806345 7.99981207,4.40806345 C10.0072823,4.40806345 11.6362611,6.03704229 11.6362611,8.04451251 C11.6362611,10.0516069 10.0072823,11.6805857 7.99981207,11.6805857 L7.99981207,11.6805857 Z M7.99981207,5.86264308 C6.79254857,5.86264308 5.81794263,6.83724901 5.81794263,8.04451251 C5.81794263,9.25177602 6.79254857,10.2263819 7.99981207,10.2263819 C9.20707557,10.2263819 10.1816815,9.25177602 10.1816815,8.04451251 C10.1816815,6.83724901 9.20707557,5.86264308 7.99981207,5.86264308 L7.99981207,5.86264308 Z" id="show"></path>
                    </g>
                </g>
            </g>
        </g>
    </g>
</svg>