<?xml version="1.0" encoding="UTF-8"?>
<svg width="22px" height="23px" viewBox="0 0 22 23" version="1.1" xmlns="http://www.w3.org/2000/svg" xmlns:xlink="http://www.w3.org/1999/xlink">
    <!-- Generator: Sketch 41.2 (35397) - http://www.bohemiancoding.com/sketch -->
    <title>sign out</title>
    <desc>Created with Sketch.</desc>
    <defs>
        <filter x="-50%" y="-50%" width="200%" height="200%" filterUnits="objectBoundingBox" id="filter-1">
            <feOffset dx="0" dy="1" in="SourceAlpha" result="shadowOffsetOuter1"></feOffset>
            <feGaussianBlur stdDeviation="1.5" in="shadowOffsetOuter1" result="shadowBlurOuter1"></feGaussianBlur>
            <feColorMatrix values="0 0 0 0 0   0 0 0 0 0   0 0 0 0 0  0 0 0 0.2 0" type="matrix" in="shadowBlurOuter1" result="shadowMatrixOuter1"></feColorMatrix>
            <feMerge>
                <feMergeNode in="shadowMatrixOuter1"></feMergeNode>
                <feMergeNode in="SourceGraphic"></feMergeNode>
            </feMerge>
        </filter>
    </defs>
    <g id="Page-1" stroke="none" stroke-width="1" fill="red" fill-rule="evenodd">
        <g id="DD_profile"  transform="translate(-15.000000, -293.000000)" fill="#EF3E36">
            <g id="Group-62" filter="url(#filter-1)" transform="translate(6.000000, 0.000000)">
                <g id="Group-23" transform="translate(0.000000, 284.000000)">
                    <g id="Group-22" transform="translate(10.000000, 9.000000)">
                        <g id="logout">
                            <path d="M10.1182512,11.1470122 C9.84225117,11.1470122 9.61825117,10.9230122 9.61825117,10.6470122 L9.61825117,2.20001221 C9.61825117,1.92301221 9.84225117,1.70001221 10.1182512,1.70001221 C10.3942512,1.70001221 10.6182512,1.92301221 10.6182512,2.20001221 L10.6182512,10.6470122 C10.6182512,10.9230122 10.3942512,11.1470122 10.1182512,11.1470122 Z M10.0459512,18.3999122 C5.99495117,18.3999122 2.69995117,15.1049122 2.69995117,11.0549122 C2.69995117,7.81291221 4.78095117,4.98991221 7.87795117,4.02891221 C8.14695117,3.94491221 8.42295117,4.09491221 8.50395117,4.35791221 C8.58595117,4.62191221 8.43895117,4.90191221 8.17495117,4.98391221 C5.49795117,5.81391221 3.69995117,8.25391221 3.69995117,11.0549122 C3.69995117,14.5529122 6.54695117,17.3999122 10.0459512,17.3999122 C13.5439512,17.3999122 16.3909512,14.5529122 16.3909512,11.0549122 C16.3909512,8.26191221 14.5969512,5.82691221 11.9279512,4.99591221 C11.6639512,4.91391221 11.5169512,4.63291221 11.5989512,4.36991221 C11.6799512,4.10491221 11.9639512,3.95691221 12.2249512,4.04091221 C15.3149512,5.00391221 17.3909512,7.82191221 17.3909512,11.0549122 C17.3909512,15.1049122 14.0959512,18.3999122 10.0459512,18.3999122 Z" id="sign-out"></path>
                        </g>
                    </g>
                </g>
            </g>
        </g>
    </g>
</svg>
