<?xml version="1.0" encoding="UTF-8" standalone="no"?>
<svg width="12px" height="12px" viewBox="0 0 12 12" version="1.1" xmlns="http://www.w3.org/2000/svg" xmlns:xlink="http://www.w3.org/1999/xlink">
    <!-- Generator: Sketch 41.2 (35397) - http://www.bohemiancoding.com/sketch -->
    <title>theme-12px</title>
    <desc>Created with Sketch.</desc>
    <defs></defs>
    <g id="Page-1" stroke="none" stroke-width="1" fill="none" fill-rule="evenodd" opacity="1">
        <g id="Style-Guide" transform="translate(-1870.000000, -1407.000000)" fill="#CCCCCC">
            <g id="Group-37" transform="translate(1721.000000, 1366.000000)">
                <g id="Group-29" transform="translate(0.000000, 22.000000)">
                    <g id="Group-26" transform="translate(130.000000, 0.000000)">
                        <path d="M27.0198219,22.3555115 L26.1269573,21.59331 C26.0172256,21.4998584 25.9180654,21.3941439 25.8313796,21.2784922 L24.1976677,19.096545 C24.1092904,18.9792019 23.9376101,18.9669391 23.8344327,19.0701164 L20.1352711,22.7692781 C20.0014365,22.9031126 19.9972079,23.1179245 20.1253339,23.2566219 L21.4996223,24.7440249 C21.5738339,24.8250022 21.4615651,24.9406538 21.3788964,24.868768 L19.8329276,23.5325367 C19.6933845,23.4118108 19.4842812,23.4192108 19.3538295,23.5498739 L19.0705146,23.8329773 C18.9855202,23.9181832 18.9764287,24.0528635 19.0483146,24.1494865 L20.6894264,26.3214966 C20.7761123,26.4363025 20.8752725,26.5411713 20.9850042,26.6337772 L21.963709,27.462156 C22.1188979,27.5934534 22.3485098,27.5835163 22.4922815,27.4397445 L27.040542,22.8923298 C27.1917137,22.7420037 27.1817765,22.494209 27.0198219,22.3555115 Z M30.3796401,29.0129877 C29.1795691,27.825391 27.348594,26.4817598 27.348594,26.4817598 C26.8834502,26.1646163 26.9859933,25.8176613 27.1817765,25.6212438 L28.1363784,24.6664304 C28.6345052,24.1683037 28.6345052,23.360645 28.1363784,22.8627297 C28.051384,22.7775238 27.9135323,22.7775238 27.8283264,22.8627297 L22.5863674,28.1046887 C22.5013729,28.1896832 22.5013729,28.3275349 22.5863674,28.4127408 C23.0844941,28.910656 23.8921528,28.910656 24.3902795,28.4127408 L25.3448814,27.4579274 C25.5415104,27.2612985 25.8098138,27.1382468 26.2053975,27.6247449 C26.2053975,27.6247449 27.5492401,29.45572 28.7368368,30.655791 C29.1895063,31.1133233 29.928662,31.1150147 30.3836572,30.6591738 C30.8388638,30.2048129 30.8371724,29.4665029 30.3796401,29.0129877 Z M29.765016,30.042224 C29.6024271,30.2048129 29.3381408,30.2048129 29.1753405,30.042224 C29.0127516,29.8794237 29.0127516,29.6151375 29.1753405,29.4525486 C29.3381408,29.2897482 29.6024271,29.2897482 29.765016,29.4525486 C29.9278163,29.6151375 29.9278163,29.8794237 29.765016,30.042224 Z" id="theme-12px" transform="translate(24.861965, 25.000000) scale(-1, 1) translate(-24.861965, -25.000000) "></path>
                    </g>
                </g>
            </g>
        </g>
    </g>
</svg>