<?xml version="1.0" encoding="UTF-8" standalone="no"?>
<svg width="12px" height="12px" viewBox="0 0 12 12" version="1.1" xmlns="http://www.w3.org/2000/svg" xmlns:xlink="http://www.w3.org/1999/xlink">
    <!-- Generator: Sketch 41.2 (35397) - http://www.bohemiancoding.com/sketch -->
    <title>undo-12px</title>
    <desc>Created with Sketch.</desc>
    <defs></defs>
    <g id="Page-1" stroke="none" stroke-width="1" fill="none" fill-rule="evenodd" opacity="1">
        <g id="4.8.1_Visualization-Editor_Multiple-Charts" transform="translate(-1960.000000, -29.000000)" fill="#CCCCCC">
            <g id="Undo-&amp;-Redo" transform="translate(1951.000000, 20.000000)">
                <g id="undo">
                    <path d="M18.9997391,10.7523334 C16.7254984,8.47809267 13.0692124,8.42004277 10.7157607,10.5635998 L10.7157607,10.1023461 C10.7157607,9.62879616 10.3314303,9.24446577 9.85788033,9.24446577 C9.38433039,9.24446577 9,9.62879616 9,10.1023461 L9,12.6759871 C9,13.1495371 9.38433039,13.5338674 9.85788033,13.5338674 L12.4315213,13.5338674 C12.9050713,13.5338674 13.2894017,13.1495371 13.2894017,12.6759871 C13.2894017,12.2024372 12.9050713,11.8181068 12.4315213,11.8181068 L11.8830498,11.8181068 C13.5653532,10.2999445 16.1667323,10.3459841 17.7866963,11.9656622 C18.5965354,12.7755012 19.0432051,13.8532849 19.0432051,14.9982692 C19.0432051,16.1443973 18.5973933,17.2213231 17.7866963,18.0311621 C16.1144016,19.7031709 13.3920614,19.7031709 11.7200526,18.0311621 C11.3849073,17.6960169 10.8418691,17.6960169 10.5070098,18.0311621 C10.1718645,18.3660214 10.1718645,18.9090597 10.5070098,19.2442049 C11.6774445,20.4146397 13.2144801,21 14.7526596,21 C16.290839,21 17.8290184,20.4146397 18.9985953,19.2442049 C20.133571,18.1103731 20.7578219,16.6022194 20.7578219,14.9982692 C20.7589657,13.3943189 20.1347148,11.8861653 18.9997391,10.7523334 Z" id="undo-12px"></path>
                </g>
            </g>
        </g>
    </g>
</svg>