<?xml version="1.0" encoding="UTF-8" standalone="no"?>
<svg width="14px" height="14px" viewBox="0 0 14 14" version="1.1" xmlns="http://www.w3.org/2000/svg" xmlns:xlink="http://www.w3.org/1999/xlink">
    <!-- Generator: Sketch 41.2 (35397) - http://www.bohemiancoding.com/sketch -->
    <title>ungroup-12px</title>
    <desc>Created with Sketch.</desc>
    <defs></defs>
    <g id="Page-1" stroke="none" stroke-width="1" fill="none" fill-rule="evenodd" opacity="1">
        <g id="4.8.1_Visualization-Editor_Multiple-Charts" transform="translate(-1632.000000, -27.000000)" fill="#CCCCCC">
            <g id="Group-8" transform="translate(1505.000000, 20.000000)">
                <g id="Group-11">
                    <g id="ungroup'" transform="translate(109.000000, 0.000000)">
                        <path d="M19.8666667,14.4666667 L25.4624512,14.4666667 L25.5045492,8.86666667 L32,8.86666667 L32,21 L19.8666667,21 L19.8666667,14.4666667 Z M25.4666667,15.4 L25.4666667,20.0666667 L20.8,20.0666667 L20.8,15.4 L25.4666667,15.4 Z M31.0666667,15.4 L31.0666667,20.0666667 L26.4,20.0666667 L26.4,15.4 L31.0666667,15.4 Z M31.0666667,9.8 L31.0666667,14.4666667 L26.4,14.4666667 L26.4,9.8 L31.0666667,9.8 Z M24.5333333,7 L18,7 L18,13.5333333 L24.5333333,13.5333333 L24.5333333,7 Z M23.6,7.93333333 L23.6,12.6 L18.9333333,12.6 L18.9333333,7.93333333 L23.6,7.93333333 Z" id="ungroup-12px" transform="translate(25.000000, 14.000000) scale(-1, 1) translate(-25.000000, -14.000000) "></path>
                    </g>
                </g>
            </g>
        </g>
    </g>
</svg>