<?xml version="1.0" encoding="UTF-8" standalone="no"?>
<svg width="12px" height="12px" viewBox="0 0 12 12" version="1.1" xmlns="http://www.w3.org/2000/svg" xmlns:xlink="http://www.w3.org/1999/xlink">
    <!-- Generator: Sketch 41.2 (35397) - http://www.bohemiancoding.com/sketch -->
    <title>node library</title>
    <desc>Created with Sketch.</desc>
    <defs></defs>
    <g id="Page-1" stroke="none" stroke-width="1" fill="none" fill-rule="evenodd" opacity="1">
        <g id="03.1.1_Analytics-Editor_New-Analytics" transform="translate(-809.000000, -29.000000)" fill="#CCCCCC">
            <g id="Group-17" transform="translate(0.000000, 12.000000)">
                <g id="Node-library" transform="translate(789.000000, 8.000000)">
                    <g id="node-library">
                        <path d="M20,21 L32,21 L32,9 L20,9 L20,21 Z M21,20 L31,20 L31,10 L21,10 L21,20 Z M25.0552,17.667 L24.4512,17.368 L26.9452,12.334 L27.5492,12.632 L25.0552,17.667 Z M21.5093,14.6401 L24.2653,13.3811 L24.2653,14.1661 L22.3023,15.0001 L24.2653,15.8371 L24.2653,16.6191 L21.5093,15.3601 L21.5093,14.6401 Z M30.4902,15.3599 L27.7352,16.6189 L27.7352,15.8349 L29.6982,14.9999 L27.7352,14.1629 L27.7352,13.3809 L30.4902,14.6409 L30.4902,15.3599 Z"></path>
                    </g>
                </g>
            </g>
        </g>
    </g>
</svg>