<?xml version="1.0" encoding="UTF-8" standalone="no"?>
<svg width="75px" height="70px" viewBox="0 0 75 70" version="1.1" xmlns="http://www.w3.org/2000/svg" xmlns:xlink="http://www.w3.org/1999/xlink">
    <!-- Generator: Sketch 41.2 (35397) - http://www.bohemiancoding.com/sketch -->
    <title>new visualization</title>
    <desc>Created with Sketch.</desc>
    <defs></defs>
    <g id="Page-1" stroke="none" stroke-width="1" fill="none" fill-rule="evenodd">
        <g id="01.6.3_New-Project_Empty-State" transform="translate(-488.000000, -334.000000)" fill="#46CDA5">
            <g id="Group-5" transform="translate(425.000000, 278.000000)">
                <g id="Group">
                    <path d="M115.5,67.25 C114.76,67.25 114.06,67.03 113.48,66.66 C113.42,66.61 113.37,66.56 113.3,66.51 C113.24,66.47 113.18,66.43 113.12,66.39 C112.28,65.71 111.75,64.66 111.75,63.5 C111.75,61.43 113.43,59.75 115.5,59.75 C117.57,59.75 119.25,61.43 119.25,63.5 C119.25,65.57 117.57,67.25 115.5,67.25 M100.5,87.88 C98.43,87.88 96.75,86.19 96.75,84.12 C96.75,82.06 98.43,80.38 100.5,80.38 C101.24,80.38 101.94,80.59 102.52,80.97 C102.57,81.02 102.63,81.06 102.69,81.11 C102.76,81.15 102.82,81.19 102.88,81.23 C103.72,81.92 104.25,82.96 104.25,84.12 C104.25,86.19 102.57,87.88 100.5,87.88 M85.5,76.62 C83.43,76.62 81.75,74.94 81.75,72.88 C81.75,70.81 83.43,69.12 85.5,69.12 C87.57,69.12 89.25,70.81 89.25,72.88 C89.25,74.94 87.57,76.62 85.5,76.62 M70.5,95.38 C68.43,95.38 66.75,93.69 66.75,91.62 C66.75,89.56 68.43,87.88 70.5,87.88 C72.57,87.88 74.25,89.56 74.25,91.62 C74.25,93.69 72.57,95.38 70.5,95.38 M115.5,56 C111.36,56 108,59.36 108,63.5 C108,65.31 108.64,66.97 109.71,68.27 L103.25,77.15 C102.4,76.81 101.47,76.62 100.5,76.62 C98.73,76.62 97.1,77.24 95.82,78.27 L92.44,75.73 C92.8,74.85 93,73.89 93,72.88 C93,68.74 89.64,65.38 85.5,65.38 C81.36,65.38 78,68.74 78,72.88 C78,74.56 78.56,76.12 79.5,77.37 L73.57,84.78 C72.63,84.36 71.59,84.12 70.5,84.12 C66.36,84.12 63,87.49 63,91.62 C63,95.76 66.36,99.12 70.5,99.12 C74.64,99.12 78,95.76 78,91.62 C78,89.94 77.44,88.38 76.5,87.13 L82.43,79.72 C83.37,80.14 84.41,80.38 85.5,80.38 C87.27,80.38 88.9,79.76 90.18,78.73 L93.57,81.27 C93.2,82.15 93,83.11 93,84.12 C93,88.26 96.36,91.62 100.5,91.62 C104.64,91.62 108,88.26 108,84.12 C108,82.31 107.36,80.65 106.29,79.36 L112.74,70.48 C113.6,70.81 114.53,71 115.5,71 C119.64,71 123,67.64 123,63.5 C123,59.36 119.64,56 115.5,56 M123,96 C121.01,96 119.12,96.39 117.38,97.09 L117.38,78.5 C117.38,77.47 116.54,76.62 115.5,76.62 C114.46,76.62 113.62,77.47 113.62,78.5 L113.62,99.3 C110.19,102.05 108,106.27 108,111 C108,111.42 108.02,111.84 108.06,112.25 L102.38,112.25 L102.38,99.12 C102.38,98.09 101.54,97.25 100.5,97.25 C99.46,97.25 98.62,98.09 98.62,99.12 L98.62,112.25 L87.38,112.25 L87.38,87.88 C87.38,86.84 86.53,86 85.5,86 C84.47,86 83.62,86.84 83.62,87.88 L83.62,112.25 L72.38,112.25 L72.38,106.62 C72.38,105.59 71.53,104.75 70.5,104.75 C69.47,104.75 68.62,105.59 68.62,106.62 L68.62,112.25 L64.88,112.25 C63.84,112.25 63,113.09 63,114.12 C63,115.16 63.84,116 64.88,116 L108.86,116 C110.91,121.82 116.47,126 123,126 C131.28,126 138,119.28 138,111 C138,102.72 131.28,96 123,96 Z M123,122 C118.72,122 115.02,119.56 113.2,116 C112.61,114.85 112.22,113.59 112.08,112.25 C112.02,111.84 112,111.42 112,111 C112,108.89 112.59,106.92 113.62,105.24 C114.56,103.72 115.85,102.45 117.38,101.54 C119.03,100.56 120.95,100 123,100 C129.08,100 134,104.92 134,111 C134,117.08 129.08,122 123,122 Z M129.5,111 C129.5,111.83 128.84,112.5 128.01,112.5 L124.5,112.5 L124.5,116.01 C124.5,116.83 123.83,117.5 123,117.5 C122.17,117.5 121.5,116.84 121.5,116.01 L121.5,112.5 L117.99,112.5 C117.17,112.5 116.5,111.83 116.5,111 C116.5,110.39 116.86,109.87 117.38,109.64 C117.56,109.55 117.77,109.5 117.99,109.5 L121.5,109.5 L121.5,105.99 C121.5,105.17 122.17,104.5 123,104.5 C123.83,104.5 124.5,105.16 124.5,105.99 L124.5,109.5 L128.01,109.5 C128.83,109.5 129.5,110.17 129.5,111 Z" id="new-visualization"></path>
                </g>
            </g>
        </g>
    </g>
</svg>