<?xml version="1.0" encoding="UTF-8" standalone="no"?>
<svg width="76px" height="71px" viewBox="0 0 76 71" version="1.1" xmlns="http://www.w3.org/2000/svg" xmlns:xlink="http://www.w3.org/1999/xlink">
    <!-- Generator: Sketch 41.2 (35397) - http://www.bohemiancoding.com/sketch -->
    <title>new analytics</title>
    <desc>Created with Sketch.</desc>
    <defs></defs>
    <g id="Page-1" stroke="none" stroke-width="1" fill="none" fill-rule="evenodd">
        <g id="01.6.3_New-Project_Empty-State" transform="translate(-717.000000, -333.000000)" fill="#46CDA5">
            <g id="Group-5" transform="translate(425.000000, 278.000000)">
                <g id="Group-2" transform="translate(230.000000, 0.000000)">
                    <path d="M123,96 C122.01,96 121.04,96.1 120.1,96.28 C119.86,96.33 119.63,96.38 119.4,96.44 C119.28,96.47 119.17,96.5 119.05,96.53 C118.88,96.57 118.71,96.62 118.54,96.68 C118.34,96.74 118.14,96.8 117.94,96.88 C117.74,96.95 117.53,97.03 117.33,97.11 C117.05,97.23 116.77,97.35 116.5,97.48 C116.45,97.5 116.4,97.53 116.35,97.56 C116.07,97.69 115.8,97.84 115.53,97.99 C115.21,98.17 114.91,98.36 114.62,98.56 C114.45,98.68 114.29,98.79 114.13,98.91 C114.06,98.96 114,99 113.94,99.05 C113.83,99.13 113.73,99.22 113.62,99.3 C113.38,99.49 113.14,99.69 112.92,99.9 C112.74,100.06 112.57,100.23 112.4,100.4 C112.23,100.57 112.06,100.74 111.9,100.92 C111.41,101.45 110.97,102.02 110.56,102.62 C110.46,102.77 110.37,102.92 110.27,103.07 C110.14,103.27 110.02,103.47 109.91,103.68 C109.82,103.83 109.74,103.97 109.67,104.13 C109.54,104.37 109.42,104.63 109.31,104.88 C109.22,105.07 109.14,105.27 109.06,105.47 C109.04,105.5 109.03,105.53 109.03,105.55 C108.96,105.72 108.89,105.89 108.84,106.06 C108.78,106.22 108.72,106.38 108.68,106.54 C108.62,106.72 108.57,106.91 108.52,107.09 C108.47,107.25 108.43,107.4 108.4,107.56 C108.3,107.97 108.22,108.39 108.17,108.82 C102.06,107.56 100.31,99.7 98.45,88.24 C97.3,81.19 96.05,73.52 92.36,69 L110.41,69 C111.19,70.76 112.95,72 115,72 C117.76,72 120,69.76 120,67 C120,64.24 117.76,62 115,62 C112.95,62 111.19,63.24 110.41,65 L85.83,65 C85.84,65.06 85.83,65 85.83,65 C84.88,59.33 79.95,55 74,55 C67.38,55 62,60.38 62,67 C62,73.63 67.38,79 74,79 C79.86,79 84.74,74.8 85.79,69.24 C91.11,70.65 92.74,78.1 94.5,88.89 C96.24,99.55 98.19,111.56 108.13,112.87 C108.13,112.91 108.13,112.96 108.14,113 C108.15,113.15 108.17,113.3 108.2,113.45 C108.25,113.74 108.3,114.03 108.37,114.32 C108.42,114.57 108.49,114.82 108.56,115.06 C108.65,115.38 108.74,115.69 108.86,116 C108.92,116.17 108.98,116.34 109.05,116.51 C109.05,116.52 109.06,116.54 109.07,116.56 C109.14,116.73 109.21,116.9 109.29,117.07 C109.36,117.24 109.44,117.42 109.53,117.59 C109.61,117.76 109.7,117.93 109.79,118.1 C109.87,118.25 109.95,118.39 110.04,118.54 C110.05,118.57 110.07,118.6 110.08,118.62 C110.36,119.09 110.66,119.53 110.98,119.97 C111.29,120.39 111.63,120.79 111.98,121.17 C112.12,121.32 112.26,121.46 112.4,121.6 C112.55,121.76 112.7,121.9 112.86,122.05 C113.02,122.2 113.18,122.34 113.35,122.48 C114.43,123.39 115.63,124.15 116.94,124.72 C117.16,124.82 117.39,124.92 117.62,125 C117.83,125.08 118.03,125.16 118.24,125.22 C118.45,125.3 118.66,125.36 118.88,125.42 C119.06,125.48 119.25,125.53 119.44,125.57 C119.74,125.64 120.04,125.71 120.34,125.76 C121.2,125.92 122.09,126 123,126 C124.29,126 125.55,125.84 126.75,125.53 C127.23,125.4 127.7,125.26 128.16,125.09 C129.53,124.58 130.82,123.88 131.97,123.02 C132.55,122.58 133.09,122.11 133.6,121.6 C136.32,118.89 138,115.14 138,111 C138,102.72 131.28,96 123,96 Z M123,122 C122.74,122 122.47,121.99 122.21,121.97 C122.05,121.96 121.88,121.94 121.71,121.92 C121.58,121.91 121.45,121.89 121.32,121.87 C121.29,121.87 121.26,121.86 121.23,121.86 C121.04,121.83 120.85,121.79 120.66,121.75 C120.41,121.7 120.16,121.63 119.92,121.56 C119.74,121.51 119.57,121.46 119.41,121.4 C119.34,121.38 119.28,121.36 119.22,121.33 C119.14,121.31 119.06,121.28 118.98,121.24 C118.82,121.18 118.66,121.11 118.5,121.04 C118.3,120.95 118.11,120.86 117.92,120.76 C117.43,120.51 116.97,120.22 116.53,119.9 C116.35,119.77 116.17,119.63 116,119.49 C115.99,119.48 115.98,119.47 115.97,119.46 C115.78,119.31 115.6,119.15 115.43,118.98 C115.42,118.97 115.41,118.97 115.41,118.96 C115.23,118.8 115.06,118.62 114.9,118.44 C114.7,118.22 114.51,118 114.33,117.77 C114.21,117.62 114.09,117.46 113.98,117.3 C113.95,117.25 113.91,117.2 113.88,117.15 C113.77,116.99 113.66,116.82 113.56,116.65 C113.43,116.44 113.31,116.22 113.2,116 C113.12,115.86 113.05,115.71 112.99,115.56 C112.92,115.42 112.86,115.27 112.8,115.12 C112.75,115.01 112.71,114.89 112.67,114.78 C112.62,114.65 112.57,114.51 112.53,114.38 C112.41,114.01 112.31,113.63 112.23,113.24 C112.2,113.11 112.18,112.98 112.16,112.85 C112.13,112.65 112.1,112.45 112.08,112.25 C112.05,112.04 112.03,111.83 112.02,111.63 C112.01,111.42 112,111.21 112,111 C112,110.74 112.01,110.48 112.03,110.22 C112.04,110.01 112.06,109.81 112.09,109.6 C112.15,109.14 112.23,108.69 112.35,108.25 C112.38,108.1 112.43,107.95 112.47,107.8 C112.49,107.74 112.51,107.69 112.53,107.63 C112.62,107.33 112.72,107.04 112.85,106.76 C112.93,106.56 113.02,106.36 113.11,106.16 C113.18,106.02 113.25,105.89 113.33,105.75 C113.42,105.58 113.52,105.41 113.62,105.24 C113.7,105.11 113.79,104.98 113.88,104.85 C113.95,104.74 114.02,104.63 114.1,104.53 C114.59,103.85 115.16,103.24 115.79,102.69 C115.95,102.55 116.11,102.42 116.28,102.29 C116.44,102.16 116.61,102.04 116.78,101.93 C116.97,101.79 117.17,101.66 117.38,101.54 C117.61,101.4 117.84,101.28 118.08,101.16 C118.42,100.98 118.78,100.83 119.15,100.7 C119.17,100.68 119.2,100.67 119.22,100.67 C119.33,100.63 119.43,100.59 119.54,100.56 C119.65,100.52 119.77,100.48 119.89,100.45 C120,100.41 120.12,100.38 120.24,100.35 C120.41,100.31 120.58,100.27 120.76,100.23 C120.95,100.19 121.13,100.16 121.32,100.13 L121.33,100.13 C121.46,100.11 121.6,100.09 121.74,100.08 C121.9,100.05 122.07,100.04 122.24,100.03 C122.49,100.01 122.75,100 123,100 C129.08,100 134,104.92 134,111 C134,117.08 129.08,122 123,122 Z M74,75 C69.59,75 66,71.42 66,67 C66,62.59 69.59,59 74,59 C78.42,59 82,62.59 82,67 C82,71.42 78.42,75 74,75 Z M70.5,64.3721 C70.5,63.8911 70.896,63.5001 71.373,63.5001 L76.627,63.5001 C77.109,63.5001 77.5,63.8961 77.5,64.3721 L77.5,69.6281 C77.5,70.1091 77.104,70.5001 76.627,70.5001 L71.373,70.5001 C70.891,70.5001 70.5,70.1031 70.5,69.6281 L70.5,64.3721 Z M129.5,111 C129.5,111.83 128.84,112.5 128.01,112.5 L124.5,112.5 L124.5,116.01 C124.5,116.83 123.83,117.5 123,117.5 C122.17,117.5 121.5,116.84 121.5,116.01 L121.5,112.5 L117.99,112.5 C117.17,112.5 116.5,111.83 116.5,111 C116.5,110.39 116.86,109.87 117.38,109.64 C117.56,109.55 117.77,109.5 117.99,109.5 L121.5,109.5 L121.5,105.99 C121.5,105.17 122.17,104.5 123,104.5 C123.83,104.5 124.5,105.16 124.5,105.99 L124.5,109.5 L128.01,109.5 C128.83,109.5 129.5,110.17 129.5,111 Z" id="new-analytics"></path>
                </g>
            </g>
        </g>
    </g>
</svg>