<?xml version="1.0" encoding="UTF-8" standalone="no"?>
<svg width="249px" height="227px" viewBox="0 0 249 227" version="1.1" xmlns="http://www.w3.org/2000/svg" xmlns:xlink="http://www.w3.org/1999/xlink">
    <!-- Generator: Sketch 41.2 (35397) - http://www.bohemiancoding.com/sketch -->
    <title>no-projects-graphic</title>
    <desc>Created with Sketch.</desc>
    <defs></defs>
    <g id="Page-1" stroke="none" stroke-width="1" fill="none" fill-rule="evenodd">
        <g id="01.1.1_Personal-Enviroment_Empty-State" transform="translate(-516.000000, -150.000000)">
            <g id="no-projects-graphic" transform="translate(516.000000, 150.000000)">
                <g id="Group-4" transform="translate(0.000000, 1.000000)">
                    <g id="Page-1" transform="translate(0.000000, 0.000000)"></g>
                </g>
                <path d="M22.5,0.5 L22.5,225.5 L23.5,225.5 L23.5,0.5 L22.5,0.5 Z M44.5,0.5 L44.5,225.5 L45.5,225.5 L45.5,0.5 L44.5,0.5 Z M66.5,0.5 L66.5,225.5 L67.5,225.5 L67.5,0.5 L66.5,0.5 Z M88.5,0.5 L88.5,225.5 L89.5,225.5 L89.5,0.5 L88.5,0.5 Z M110.5,0.5 L110.5,225.5 L111.5,225.5 L111.5,0.5 L110.5,0.5 Z M132.5,0.5 L132.5,225.5 L133.5,225.5 L133.5,0.5 L132.5,0.5 Z M154.5,0.5 L154.5,225.5 L155.5,225.5 L155.5,0.5 L154.5,0.5 Z M176.5,0.5 L176.5,225.5 L177.5,225.5 L177.5,0.5 L176.5,0.5 Z M198.5,0.5 L198.5,225.5 L199.5,225.5 L199.5,0.5 L198.5,0.5 Z M220.5,0.5 L220.5,225.5 L221.5,225.5 L221.5,0.5 L220.5,0.5 Z M242.5,0.5 L242.5,225.5 L243.5,225.5 L243.5,0.5 L242.5,0.5 Z" id="Combined-Shape" fill="#E2E2E2"></path>
                <path d="M2.30481464,184 L248.5,184 L248.5,183 L2.30481464,183 L2.30481464,162 L248.5,162 L248.5,161 L2.30481464,161 L2.30481464,140 L248.5,140 L248.5,139 L2.30481464,139 L2.30481464,118 L248.5,118 L248.5,117 L2.30481464,117 L2.30481464,96 L248.5,96 L248.5,95 L2.30481464,95 L2.30481464,74 L248.5,74 L248.5,73 L2.30481464,73 L2.30481464,52 L248.5,52 L248.5,51 L2.30481464,51 L2.30481464,30 L248.5,30 L248.5,29 L2.30481464,29 L2.30481464,8 L248.5,8 L248.5,7 L2.30481464,7 L2.30481464,1 L0,1 L0,224.612966 C0,225.802535 0.964278479,226.767983 2.15240732,226.767983 L246.49973,226.767983 L246.49973,224.45795 L2.30481464,224.45795 L2.30481464,206 L248.5,206 L248.5,205 L2.30481464,205 L2.30481464,184 Z" id="Combined-Shape" fill="#E2E2E2"></path>
                <path d="M115.220658,181.513456 C113.296964,181.513456 111.731343,183.084341 111.731343,185.018326 C111.731343,186.948488 113.296964,188.519373 115.220658,188.519373 C117.148162,188.519373 118.713783,186.948488 118.713783,185.018326 C118.713783,183.084341 117.148162,181.513456 115.220658,181.513456 M115.220658,192.341478 C111.194232,192.341478 107.922046,189.05829 107.922046,185.018326 C107.922046,180.978361 111.194232,177.691351 115.220658,177.691351 C119.247085,177.691351 122.52308,180.978361 122.52308,185.018326 C122.52308,189.05829 119.247085,192.341478 115.220658,192.341478 Z M81.2790655,163.326737 C80.4295924,163.326737 79.6563053,162.757243 79.4353661,161.893447 C79.0887201,160.544245 79.1230038,159.596363 79.1344317,159.424368 C79.1915711,158.369467 80.1210394,157.582114 81.1457402,157.627979 C82.1894874,157.689133 82.9856303,158.583505 82.9361095,159.62694 C82.9361095,159.672805 82.9323002,160.184967 83.122765,160.937921 C83.3856065,161.962245 82.776119,163.001858 81.7552276,163.265583 C81.5952371,163.307626 81.4352467,163.326737 81.2790655,163.326737 Z M126.566648,187.487405 C125.538138,187.487405 124.696283,186.669475 124.662,185.637506 C124.627716,184.582606 125.454333,183.6997 126.505699,183.665301 L128.376064,183.596503 C129.541708,183.512416 130.311186,184.368568 130.360707,185.419646 C130.410228,186.474547 129.595038,187.36892 128.547482,187.414785 L126.627596,187.487405 L126.566648,187.487405 Z M89.1544049,171.273274 C88.9144193,171.273274 88.6706243,171.227409 88.4344479,171.131856 C87.0326268,170.55854 85.7679404,169.874384 84.6632445,169.098496 C83.8061528,168.490782 83.5928322,167.298285 84.1985103,166.43449 C84.8003791,165.570694 85.9888796,165.3643 86.8535899,165.968193 C87.7221095,166.57973 88.7391916,167.130113 89.874362,167.592587 C90.8457325,167.993908 91.314276,169.109963 90.9181092,170.084599 C90.6171748,170.826088 89.9048363,171.273274 89.1544049,171.273274 Z M100.483252,173.459517 C100.456587,173.459517 100.426113,173.459517 100.395639,173.455695 C98.9595339,173.394542 97.6300894,173.276056 96.3882588,173.115528 C95.3445116,172.981754 94.6093174,172.026228 94.7426428,170.978972 C94.8721588,169.927893 95.8473387,169.205515 96.8720395,169.324001 C98.0148284,169.473063 99.2414218,169.580082 100.567057,169.637413 C101.614613,169.683278 102.429803,170.577651 102.384091,171.632552 C102.33838,172.656876 101.496525,173.459517 100.483252,173.459517 Z M119.804004,173.459517 C118.756447,173.459517 117.903165,172.61101 117.899356,171.556109 C117.895546,170.501209 118.748829,169.641235 119.796385,169.637413 L123.662821,169.629769 L123.66663,169.629769 C124.714187,169.629769 125.571279,170.482098 125.571279,171.536999 C125.571279,172.5919 124.717996,173.448051 123.67044,173.451873 L119.811622,173.459517 L119.804004,173.459517 Z M135.269747,173.470984 L135.262129,173.470984 L131.399502,173.455695 C130.344327,173.451873 129.494854,172.595722 129.498663,171.536999 C129.502472,170.48592 130.351946,169.633591 131.403311,169.633591 L131.407121,169.633591 L135.178324,169.648879 C136.22969,169.652702 137.132493,170.512675 137.124875,171.567576 C137.121065,172.618655 136.321113,173.470984 135.269747,173.470984 Z M108.208506,173.509205 C107.160949,173.509205 106.307667,172.660698 106.303857,171.609619 C106.300048,170.554718 107.149521,169.694745 108.200887,169.6871 L112.063514,169.671812 L112.074941,169.671812 C113.122498,169.671812 113.971971,170.520319 113.97959,171.571398 C113.987208,172.626299 113.137735,173.486272 112.086369,173.493916 L108.216124,173.509205 L108.208506,173.509205 Z M146.876673,173.585647 L146.850008,173.585647 L142.983572,173.53596 C141.928397,173.520671 141.090352,172.656876 141.10178,171.601975 C141.113208,170.554718 141.962681,169.713855 143.006428,169.713855 L143.029284,169.713855 L146.907148,169.763543 C147.962323,169.782653 148.796559,170.650271 148.781322,171.705172 C148.766084,172.752428 147.916611,173.585647 146.876673,173.585647 Z M158.475981,173.857016 L158.418842,173.857016 L154.560024,173.746175 C153.508658,173.719421 152.678232,172.840337 152.704897,171.785436 C152.727753,170.734357 153.741026,169.901138 154.655257,169.924071 L158.53693,170.038734 C159.588296,170.073133 160.414913,170.956039 160.380629,172.007118 C160.346346,173.042908 159.500682,173.857016 158.475981,173.857016 Z M170.06767,174.392111 C170.025768,174.392111 169.987675,174.392111 169.945772,174.388289 C168.71537,174.308025 167.435446,174.235405 166.109811,174.170429 C165.062254,174.116919 164.250874,173.218725 164.308014,172.167646 C164.353725,171.112745 165.14225,170.264238 166.304085,170.352147 C167.641148,170.420944 168.943927,170.493564 170.189567,170.573829 C171.240933,170.642627 172.037076,171.552287 171.968509,172.607188 C171.903751,173.616224 171.065706,174.392111 170.06767,174.392111 Z M181.613647,175.58843 C181.503178,175.58843 181.396517,175.576963 181.286048,175.561675 C180.185161,175.366748 178.939521,175.194753 177.560556,175.038047 C176.516809,174.919561 175.762568,173.971679 175.884466,172.924423 C176.002554,171.873344 176.970115,171.12039 177.991006,171.242697 C179.453776,171.407047 180.775602,171.590508 181.937438,171.79308 C182.977375,171.976541 183.670667,172.966466 183.487821,174.006078 C183.327831,174.93485 182.524069,175.58843 181.613647,175.58843 Z M182.078382,180.56481 C181.278429,180.56481 180.531807,180.05647 180.268966,179.250006 C179.937557,178.252436 180.482286,177.166959 181.476513,176.838258 C183.282119,176.238187 184.207778,175.791001 184.664894,175.51581 C185.571506,174.976893 186.733342,175.278839 187.278071,176.1885 C187.811373,177.098161 187.510438,178.271547 186.607635,178.806641 C185.689595,179.34938 184.405862,179.892119 182.676441,180.465435 C182.474548,180.534233 182.272656,180.56481 182.078382,180.56481 Z M170.810483,183.282326 C169.888633,183.282326 169.081062,182.609635 168.92869,181.67322 C168.764891,180.629785 169.47342,179.647504 170.509548,179.483154 C171.96089,179.250006 173.214149,179.024501 174.223612,178.806641 C175.240694,178.588782 176.261586,179.242361 176.486334,180.27433 C176.703464,181.306298 176.052075,182.322978 175.019755,182.54466 C173.960771,182.770164 172.638945,183.010956 171.115226,183.255571 C171.012375,183.274682 170.909524,183.282326 170.810483,183.282326 Z M159.314026,184.811167 C158.361702,184.811167 157.535085,184.092612 157.424615,183.114153 C157.306527,182.066897 158.056958,181.119015 159.100706,181.000529 C160.414913,180.847645 161.691027,180.694761 162.917621,180.541877 C163.942321,180.411925 164.917501,181.149591 165.047017,182.20067 C165.176533,183.247927 164.43753,184.203453 163.393783,184.333404 C162.151952,184.490111 160.860601,184.646817 159.534965,184.795879 C159.458779,184.807345 159.386403,184.811167 159.314026,184.811167 Z M147.775667,186.003664 C146.804297,186.003664 145.970061,185.262176 145.882447,184.268429 C145.783405,183.21735 146.556693,182.288579 147.604249,182.189204 L151.440211,181.822282 C152.453483,181.719085 153.417235,182.483506 153.520086,183.534585 C153.630556,184.581841 152.864887,185.518257 151.817331,185.625276 L147.954704,185.999842 C147.893756,186.003664 147.832807,186.003664 147.775667,186.003664 Z M136.214453,186.963012 C135.224036,186.963012 134.38599,186.190947 134.313614,185.185734 C134.245047,184.130833 135.033571,183.21735 136.081127,183.14473 L139.924707,182.858072 C140.903697,182.777808 141.890304,183.557517 141.9703,184.612418 C142.057913,185.663497 141.273198,186.584624 140.221833,186.66871 L136.351587,186.95919 C136.305876,186.95919 136.256355,186.963012 136.214453,186.963012 Z M102.252671,189.023126 C101.300347,189.023126 100.473729,188.304571 100.36326,187.329934 C100.245171,186.278856 100.995603,185.334796 102.03935,185.212488 L103.940189,185.002273 C104.949652,184.879965 105.924832,185.65203 106.031493,186.703109 C106.141962,187.754188 105.383912,188.694426 104.336356,188.801444 L102.47361,189.01166 C102.397424,189.019304 102.328857,189.023126 102.252671,189.023126 Z M91.1371437,190.523685 C90.215294,190.523685 89.4039139,189.850994 89.2591606,188.906935 C89.0991701,187.8635 89.8076993,186.885041 90.8514465,186.724513 C92.142798,186.521941 93.3960565,186.33848 94.5807477,186.170308 C95.5864019,186.005957 96.5844376,186.751268 96.7330001,187.798524 C96.8777534,188.845781 96.1501778,189.808951 95.1102399,189.958013 C93.9369766,190.122364 92.7065738,190.302003 91.4304595,190.500752 C91.3352271,190.51604 91.2323761,190.523685 91.1371437,190.523685 Z M80.1054213,192.572333 C79.2330924,192.572333 78.4445681,191.96844 78.2464847,191.081712 C78.0141176,190.053566 78.6578887,189.029242 79.6825894,188.796093 C80.8863271,188.524724 82.1357763,188.260999 83.404272,188.012562 C84.4213542,187.806168 85.434627,188.486503 85.640329,189.522293 C85.8384124,190.558084 85.1679762,191.563297 84.1318476,191.765869 C82.9014449,192.006661 81.6900886,192.25892 80.5244439,192.522645 C80.3835,192.557044 80.242556,192.572333 80.1054213,192.572333 Z M69.7136607,196.520566 C69.2603544,196.520566 68.8070482,196.360038 68.445165,196.035159 C67.66045,195.331892 67.5918826,194.124107 68.2927932,193.336754 C69.0584617,192.47678 70.3460039,191.700893 72.2239871,190.959405 C73.1953576,190.573372 74.3076722,191.054957 74.6924111,192.037238 C75.0771501,193.019519 74.5971787,194.127929 73.6143802,194.513962 C71.8087737,195.228695 71.2564258,195.744679 71.1345283,195.886097 C70.7535986,196.306529 70.2355343,196.520566 69.7136607,196.520566 Z M77.9379317,201.837114 C77.7893691,201.837114 77.6369972,201.821825 77.4884347,201.783604 C76.0561392,201.431971 74.8181179,201.084159 73.7591335,200.743992 C72.7572886,200.419113 72.2049406,199.345102 72.5287308,198.336066 C72.8449024,197.334675 73.9343611,196.788114 74.9247782,197.105348 C75.911386,197.422583 77.0617935,197.74364 78.3874286,198.068519 C79.4121294,198.320778 80.036854,199.352746 79.7892497,200.380892 C79.5759291,201.252332 78.7988327,201.837114 77.9379317,201.837114 Z M88.9467983,203.954559 C88.8439473,203.954559 88.7449056,203.946915 88.6496732,203.931627 C87.3316566,203.725233 86.0936353,203.51884 84.9279906,203.312446 C83.891862,203.128985 83.19857,202.13906 83.3814162,201.099447 C83.5604532,200.056013 84.5584888,199.368034 85.5831896,199.547673 C86.7335971,199.750245 87.9487626,199.952816 89.2363048,200.155388 C90.2762427,200.319738 90.9885812,201.298197 90.8247814,202.341631 C90.6762189,203.281869 89.8648387,203.954559 88.9467983,203.954559 Z M100.050897,205.502512 C99.9709021,205.502512 99.8947162,205.49869 99.8109116,205.487223 L96.0930383,205.00946 C95.0454818,204.871865 94.3140969,203.908694 94.4512316,202.86526 C94.5921756,201.814181 95.6054484,201.080337 96.5920562,201.221755 L100.279455,201.695696 C101.323202,201.825647 102.066015,202.777351 101.936499,203.824608 C101.818411,204.7916 100.995603,205.502512 100.050897,205.502512 Z M111.18928,206.763806 C111.120713,206.763806 111.055955,206.759984 110.991197,206.75234 L107.261895,206.354841 C106.218148,206.240178 105.463908,205.296118 105.578186,204.245039 C105.692465,203.193961 106.64098,202.421896 107.680918,202.555669 L111.375936,202.949346 C112.427301,203.056365 113.185351,203.996603 113.078691,205.047681 C112.97584,206.029962 112.153032,206.763806 111.18928,206.763806 Z M120.622241,207.684169 C120.561292,207.684169 120.507962,207.684169 120.447013,207.676525 L118.538556,207.496886 C117.494808,207.397511 116.72533,206.464918 116.824372,205.413839 C116.927223,204.36276 117.890975,203.583051 118.904248,203.693892 L120.78985,203.869709 C121.837406,203.965261 122.606884,204.894033 122.515461,205.945111 C122.427847,206.938859 121.597421,207.684169 120.622241,207.684169 Z M185.054585,153.109105 C184.574613,153.109105 184.102261,152.921822 183.736568,152.57401 L172.929594,142.154954 L162.34356,152.558722 C161.989295,152.910355 161.509324,153.109105 161.010306,153.109105 L160.991259,153.109105 C160.484623,153.101461 160.000842,152.895067 159.650387,152.531967 L149.765263,142.407213 L138.984954,152.589299 C138.234523,153.296388 137.061259,153.273455 136.329874,152.547256 L125.995253,142.181709 L115.439693,152.558722 C114.704499,153.288744 113.512189,153.288744 112.776995,152.562544 L102.655694,142.617428 L92.0810874,152.589299 C91.3420839,153.284922 90.1916764,153.277278 89.4602914,152.57401 L79.1104331,142.617428 L68.7605748,152.57401 C68.2120361,153.105283 67.4006559,153.254345 66.6959361,152.952399 C65.9950256,152.654274 65.53791,151.962474 65.53791,151.198053 L65.53791,81.2038552 C65.53791,47.615202 92.7743793,20.2909778 126.250476,20.2909778 C159.726573,20.2909778 186.959233,47.615202 186.959233,81.2038552 L186.959233,151.198053 C186.959233,151.962474 186.502117,152.654274 185.805016,152.952399 C185.561221,153.055595 185.309808,153.109105 185.054585,153.109105 Z M79.1104331,138.057658 C79.5865952,138.057658 80.0589479,138.233475 80.4284497,138.58893 L90.7897359,148.560801 L101.375771,138.577464 C102.114774,137.874197 103.280419,137.885663 104.011804,138.604219 L114.110248,148.518758 L124.677237,138.126456 C125.41624,137.38879 126.616169,137.396434 127.355172,138.137922 L137.720268,148.534046 L148.515814,138.336671 C149.273864,137.621938 150.454746,137.648693 151.182321,138.394003 L161.036971,148.492003 L171.581103,138.126456 C172.320107,137.404078 173.497179,137.400256 174.236183,138.114989 L183.149937,146.710902 L183.149937,81.2038552 C183.149937,49.7250036 157.623841,24.1130821 126.250476,24.1130821 C94.8771109,24.1130821 69.3472064,49.7250036 69.3472064,81.2038552 L69.3472064,146.714724 L77.7924165,138.58893 C78.1619183,138.233475 78.634271,138.057658 79.1104331,138.057658 Z M157.201009,91.9535238 C154.313563,91.9535238 151.963227,89.5952854 151.963227,86.6981303 C151.963227,83.8009752 154.313563,81.4427368 157.201009,81.4427368 C160.088456,81.4427368 162.438792,83.8009752 162.438792,86.6981303 C162.438792,89.5952854 160.088456,91.9535238 157.201009,91.9535238 Z M96.2522669,91.9535238 C93.3648203,91.9535238 91.0144844,89.5952854 91.0144844,86.6981303 C91.0144844,83.8009752 93.3648203,81.4427368 96.2522669,81.4427368 C99.1397136,81.4427368 101.490049,83.8009752 101.490049,86.6981303 C101.490049,89.5952854 99.1397136,91.9535238 96.2522669,91.9535238 Z M135.773717,120.04064 L117.359578,120.04064 C116.308213,120.04064 115.45493,119.184489 115.45493,118.129588 C115.45493,117.074687 116.308213,116.218536 117.359578,116.218536 L135.773717,116.218536 C136.825083,116.218536 137.678365,117.074687 137.678365,118.129588 C137.678365,119.184489 136.825083,120.04064 135.773717,120.04064 Z" id="ghost" fill="#BBBBBB"></path>
            </g>
        </g>
    </g>
</svg>