<svg width="24" height="24" viewBox="0 0 24 24" fill="none" xmlns="http://www.w3.org/2000/svg">
<path d="M13.2817 10.5086V10.5369H13.2627C13.2654 10.532 13.269 10.527 13.2726 10.522C13.2758 10.5176 13.279 10.5131 13.2817 10.5086Z" fill="#2A4997"/>
<path fill-rule="evenodd" clip-rule="evenodd" d="M24 12C24 18.6274 18.6274 24 12 24C5.37258 24 0 18.6274 0 12C0 5.37258 5.37258 0 12 0C18.6274 0 24 5.37258 24 12ZM19.1688 17.9132V12.9658C19.1688 10.3165 17.754 9.08355 15.8669 9.08355C14.3427 9.08355 13.6629 9.92208 13.2817 10.5086V9.28612H10.413C10.4515 10.0953 10.413 17.913 10.413 17.913H13.2815V13.0948C13.2815 12.8362 13.301 12.5801 13.3765 12.3958C13.5844 11.8798 14.0552 11.3469 14.8478 11.3469C15.8863 11.3469 16.3005 12.1384 16.3005 13.2974V17.9132H19.1688ZM5.78906 6.61801C5.78906 5.77177 6.43101 5.12769 7.41222 5.12769C8.39365 5.12769 8.99666 5.77177 9.0157 6.61801C9.0157 7.44627 8.39365 8.10897 7.39318 8.10897H7.37457C6.4124 8.10897 5.78906 7.44627 5.78906 6.61801ZM8.82703 17.9132H5.95955V9.28612H8.82703V17.9132Z" fill="#2A4997"/>
</svg>
