<svg width="24" height="24" viewBox="0 0 24 24" fill="none" xmlns="http://www.w3.org/2000/svg">
<path d="M11.9996 0C5.37248 0 0 5.37288 0 11.9998C0 18.6266 5.37248 24 11.9996 24C18.6267 24 23.9998 18.627 23.9998 11.9998C23.9998 5.37256 18.6267 0 11.9996 0ZM18.029 9.86416L15.0941 12.799C14.7758 13.1174 14.3526 13.2926 13.9025 13.2926C13.4525 13.2926 13.0292 13.1173 12.7109 12.7992L12.5959 12.6842L12.2834 12.9967L12.3982 13.1114C13.0553 13.7686 13.0553 14.8378 12.3982 15.4949L9.46368 18.4298C9.14536 18.7481 8.72216 18.9234 8.27184 18.9234C7.8216 18.9234 7.39832 18.748 7.07984 18.4295L5.97064 17.32C5.31352 16.6633 5.31352 15.5942 5.9704 14.9368L8.90552 12.0021C9.22384 11.6838 9.64704 11.5085 10.0974 11.5085C10.5477 11.5085 10.9706 11.6838 11.2892 12.0021L11.4038 12.1166L11.7162 11.8042L11.6017 11.6896C10.9446 11.0327 10.9446 9.96352 11.6013 9.3064L14.5364 6.37152C14.8549 6.05304 15.2782 5.87768 15.7282 5.87768C16.1783 5.87768 16.6015 6.05304 16.9201 6.37128L18.0295 7.48112C18.6861 8.13784 18.6861 9.2072 18.029 9.86416Z" fill="#4C12A1"/>
<path d="M11.4026 13.8768L10.8352 14.4442L9.95502 13.5643L10.5225 12.9969L10.4079 12.8823C10.3247 12.7993 10.2141 12.7534 10.0967 12.7534C9.97902 12.7534 9.86846 12.7993 9.78526 12.8823L6.85038 15.8168C6.67878 15.9885 6.67878 16.2678 6.85038 16.4394L7.95998 17.5493C8.12662 17.7159 8.41662 17.7157 8.58286 17.5495L11.5173 14.6146C11.6892 14.4429 11.6892 14.1633 11.5173 13.9915L11.4026 13.8768Z" fill="#4C12A1"/>
<path d="M16.0393 7.25148C15.9561 7.16828 15.8453 7.12244 15.7276 7.12244C15.6099 7.12244 15.4991 7.16828 15.4159 7.25172L12.481 10.1864C12.3097 10.3582 12.3097 10.6375 12.4813 10.8093L12.596 10.9239L13.4664 10.0532L14.3465 10.9334L13.4761 11.804L13.5909 11.9188C13.7575 12.0849 14.0471 12.0852 14.2137 11.9185L17.1485 8.98404C17.3201 8.81228 17.3201 8.533 17.1485 8.36116L16.0393 7.25148Z" fill="#4C12A1"/>
</svg>
