<svg width="24" height="24" viewBox="0 0 24 24" fill="none" xmlns="http://www.w3.org/2000/svg">
<path fill-rule="evenodd" clip-rule="evenodd" d="M24 12C24 18.6274 18.6274 24 12 24C5.37258 24 0 18.6274 0 12C0 5.37258 5.37258 0 12 0C18.6274 0 24 5.37258 24 12ZM17.7024 9.07527C18.2825 9.00639 18.8357 8.85216 19.35 8.62413C18.9656 9.19934 18.4793 9.70438 17.9185 10.1087C17.924 10.2315 17.9268 10.3553 17.9268 10.4796C17.9268 14.2703 15.0416 18.641 9.76566 18.641C8.14592 18.641 6.63785 18.1663 5.36914 17.3521C5.59311 17.3789 5.82199 17.3924 6.05301 17.3924C7.39723 17.3924 8.63386 16.9339 9.61571 16.1645C8.36026 16.1412 7.30119 15.3119 6.93626 14.1726C7.11123 14.2059 7.29071 14.2237 7.47595 14.2237C7.73714 14.2237 7.99105 14.1888 8.23149 14.1229C6.91957 13.8596 5.93044 12.7004 5.93044 11.3106C5.93044 11.2987 5.93044 11.2865 5.93066 11.2743C6.3172 11.4897 6.75978 11.6187 7.22974 11.6334C6.46052 11.1192 5.95376 10.2409 5.95376 9.24597C5.95376 8.72039 6.09537 8.22732 6.34222 7.80378C7.75703 9.53967 9.87069 10.6815 12.2545 10.8011C12.2053 10.591 12.1799 10.3722 12.1799 10.1474C12.1799 8.56359 13.4644 7.27905 15.0482 7.27905C15.8737 7.27905 16.6192 7.6273 17.1424 8.18454C17.7955 8.05598 18.4096 7.81747 18.9639 7.48869C18.7493 8.15887 18.2947 8.72039 17.7024 9.07527Z" fill="#439DFF"/>
</svg>
