<svg id="Layer_1" data-name="Layer 1" xmlns="http://www.w3.org/2000/svg" viewBox="0 0 130.33 27.07">
    <defs>
        <mask></mask>
    </defs>
    <title>logo</title>
    <path fill="" d="M239.5,193.37v7.23a1.78,1.78,0,1,1-3.56,0v-7.23a5.47,5.47,0,1,0-10.94,0v7.23a1.78,1.78,0,1,1-3.56,0v-7.23A9,9,0,1,1,239.5,193.37Z" transform="translate(-221.43 -175.37)" />
    <path d="M241.63,193.37a9,9,0,1,1,9,9A9,9,0,0,1,241.63,193.37Zm3.56,0a5.47,5.47,0,1,0,5.47-5.47A5.49,5.49,0,0,0,245.19,193.37Z" transform="translate(-221.43 -175.37)" />
    <path d="M276.36,186.1v-9a1.78,1.78,0,0,1,3.56,0V193.3A9,9,0,1,1,276.36,186.1Zm0,7.2v0a5.47,5.47,0,1,0-5.47,5.51,5.46,5.46,0,0,0,5.47-5.51Z" transform="translate(-221.43 -175.37)" />
    <path d="M300.09,193.37a1.77,1.77,0,0,1-1.8,1.76H285.87a5.49,5.49,0,0,0,5.18,3.71,7.06,7.06,0,0,0,4-1.19,1.72,1.72,0,0,1,2.38.83,1.87,1.87,0,0,1-.86,2.38,8.81,8.81,0,0,1-5.54,1.55,9,9,0,1,1,0-18.07A8.86,8.86,0,0,1,300.09,193.37Zm-14.22-1.8h10.4a5.26,5.26,0,0,0-5.22-3.67A5.5,5.5,0,0,0,285.87,191.57Z" transform="translate(-221.43 -175.37)" />
    <path d="M312.33,186.1a1.78,1.78,0,0,1-1.8,1.8h-3.17V200.6a1.78,1.78,0,1,1-3.56,0V187.9h-2a1.78,1.78,0,0,1,0-3.56h2a9.07,9.07,0,0,1,2.63-6.62,8.57,8.57,0,0,1,3.38-2.12,1.75,1.75,0,0,1,2.27,1.08,1.78,1.78,0,0,1-1.08,2.27,5.22,5.22,0,0,0-2.05,1.3,5.59,5.59,0,0,0-1.58,4.1h3.17A1.77,1.77,0,0,1,312.33,186.1Z" transform="translate(-221.43 -175.37)" />
    <path d="M314.42,200.64V177.21a1.78,1.78,0,0,1,3.56,0v23.43A1.78,1.78,0,1,1,314.42,200.64Z" transform="translate(-221.43 -175.37)" />
    <path d="M334.79,186.13v9.07a7.29,7.29,0,0,1-14.58,0v-9.07a1.78,1.78,0,0,1,3.56,0v9a3.73,3.73,0,1,0,7.45,0v-9A1.78,1.78,0,0,1,334.79,186.13Z" transform="translate(-221.43 -175.37)" />
    <path d="M351.39,199.52a1.81,1.81,0,0,1-1.4,2.88,1.83,1.83,0,0,1-1.4-.68l-4.21-5.44-4.21,5.44a1.82,1.82,0,0,1-1.4.68,1.81,1.81,0,0,1-1.4-2.88l4.75-6.15-4.75-6.16a1.79,1.79,0,0,1,.32-2.52,1.75,1.75,0,0,1,2.48.32l4.21,5.44,4.21-5.44a1.75,1.75,0,0,1,2.48-.32,1.79,1.79,0,0,1,.32,2.52l-4.75,6.16Z" transform="translate(-221.43 -175.37)" />
</svg>
