<?xml version="1.0" encoding="UTF-8" standalone="no"?>
<svg width="20px" height="20px" viewBox="0 0 20 20" version="1.1" xmlns="http://www.w3.org/2000/svg" xmlns:xlink="http://www.w3.org/1999/xlink">
    <!-- Generator: Sketch 41.2 (35397) - http://www.bohemiancoding.com/sketch -->
    <title>chart-16px</title>
    <desc>Created with Sketch.</desc>
    <defs></defs>
    <g id="Page-1" stroke="none" stroke-width="1" fill="none" fill-rule="evenodd">
        <g id="Style-Guide" transform="translate(-2024.000000, -1056.000000)" fill="#4076CB">
            <g id="chart" transform="translate(2009.000000, 1041.000000)">
                <path d="M21.4759212,22.9058469 C21.7885733,23.0466761 22.1352502,23.1250667 22.5,23.1250667 C23.0902242,23.1250667 23.6331255,22.9198051 24.0611144,22.5768712 L25.1884543,23.4221056 C25.0670217,23.7158559 25,24.0376687 25,24.3749333 C25,25.7541333 26.1208,26.8749333 27.5,26.8749333 C28.8792,26.8749333 30,25.7541333 30,24.3749333 C30,23.7714648 29.7854232,23.2174669 29.4285117,22.7851818 L31.5804736,19.8250309 C31.8651796,19.9379306 32.1754347,20 32.5,20 C33.8792,20 35,18.8792 35,17.5 C35,16.1208 33.8792,15 32.5,15 C31.1208,15 30,16.1208 30,17.5 C30,18.1029164 30.2141844,18.6564526 30.570509,19.0885647 L28.4180962,22.0493358 C28.1337815,21.9367951 27.8240219,21.8749333 27.5,21.8749333 C26.9100128,21.8749333 26.3673106,22.0800301 25.9394013,22.4227157 L24.811798,21.5772838 C24.9330712,21.2836982 25,20.9620976 25,20.6250667 C25,19.2458667 23.8792,18.1250667 22.5,18.1250667 C21.1208,18.1250667 20,19.2458667 20,20.6250667 C20,21.1873953 20.1863177,21.7067685 20.5005013,22.1247345 L18.5243065,24.5942557 C18.2115951,24.453362 17.8648384,24.3749333 17.5,24.3749333 C16.1208,24.3749333 15,25.4957333 15,26.8749333 C15,28.2541333 16.1208,29.3749333 17.5,29.3749333 C18.8792,29.3749333 20,28.2541333 20,26.8749333 C20,26.3128851 19.8138681,25.7937494 19.4999686,25.3758908 L21.4759212,22.9058469 Z M31.705423,18.4643786 C31.4274779,18.2350204 31.2501333,17.8879795 31.2501333,17.5 C31.2501333,16.8104 31.8104,16.2501333 32.5,16.2501333 C33.1896,16.2501333 33.7498667,16.8104 33.7498667,17.5 C33.7498667,18.1896 33.1896,18.7498667 32.5,18.7498667 C32.2522406,18.7498667 32.0211758,18.6775463 31.8267909,18.5528908 C31.8083345,18.5357137 31.7886418,18.5194638 31.7677333,18.5042667 C31.7475011,18.4895978 31.7266935,18.4763075 31.705423,18.4643786 Z M28.2942739,23.4103047 C28.5723932,23.6396607 28.7498667,23.9868128 28.7498667,24.3749333 C28.7498667,25.0645333 28.1896,25.6250667 27.5,25.6250667 C26.8104,25.6250667 26.2501333,25.0645333 26.2501333,24.3749333 C26.2501333,23.6853333 26.8104,23.1250667 27.5,23.1250667 C27.7475585,23.1250667 27.9784494,23.1972698 28.1727362,23.3217393 C28.191021,23.3387297 28.2105155,23.3548126 28.2312,23.3698667 C28.2516943,23.3847716 28.2727565,23.3982432 28.2942739,23.4103047 Z M33.1250667,33.7498667 L34.3749333,33.7498667 C34.7208,33.7498667 35,34.0290667 35,34.3749333 C35,34.7208 34.7208,35 34.3749333,35 L15.6250667,35 C15.2802667,35 15,34.7208 15,34.3749333 C15,34.0290667 15.2802667,33.7498667 15.6250667,33.7498667 L16.8749333,33.7498667 L16.8749333,31.8749333 C16.8749333,31.5290667 17.1552,31.2501333 17.5,31.2501333 C17.8448,31.2501333 18.1250667,31.5290667 18.1250667,31.8749333 L18.1250667,33.7498667 L21.8749333,33.7498667 L21.8749333,25.6250667 C21.8749333,25.2802667 22.1552,25 22.5,25 C22.8448,25 23.1250667,25.2802667 23.1250667,25.6250667 L23.1250667,33.7498667 L26.8749333,33.7498667 L26.8749333,29.3749333 C26.8749333,29.0290667 27.1541333,28.7498667 27.5,28.7498667 C27.8458667,28.7498667 28.1250667,29.0290667 28.1250667,29.3749333 L28.1250667,33.7498667 L31.8749333,33.7498667 L31.8749333,22.5 C31.8749333,22.1552 32.1541333,21.8749333 32.5,21.8749333 C32.8458667,21.8749333 33.1250667,22.1552 33.1250667,22.5 L33.1250667,33.7498667 Z M17.5,25.6250667 C16.8104,25.6250667 16.2501333,26.1853333 16.2501333,26.8749333 C16.2501333,27.5645333 16.8104,28.1250667 17.5,28.1250667 C18.1896,28.1250667 18.7498667,27.5645333 18.7498667,26.8749333 C18.7498667,26.1853333 18.1896,25.6250667 17.5,25.6250667 Z M22.5,19.3749333 C21.8104,19.3749333 21.2501333,19.9354667 21.2501333,20.6250667 C21.2501333,21.3146667 21.8104,21.8749333 22.5,21.8749333 C23.1896,21.8749333 23.7498667,21.3146667 23.7498667,20.6250667 C23.7498667,19.9354667 23.1896,19.3749333 22.5,19.3749333 Z" id="chart-16px"></path>
            </g>
        </g>
    </g>
</svg>