<?xml version="1.0" encoding="UTF-8" standalone="no"?>
<svg width="20px" height="16px" viewBox="0 0 20 16" version="1.1" xmlns="http://www.w3.org/2000/svg" xmlns:xlink="http://www.w3.org/1999/xlink">
    <!-- Generator: Sketch 41.2 (35397) - http://www.bohemiancoding.com/sketch -->
    <title>image-16px</title>
    <desc>Created with Sketch.</desc>
    <defs></defs>
    <g id="Page-1" stroke="none" stroke-width="1" fill="none" fill-rule="evenodd">
        <g id="Style-Guide" transform="translate(-2024.000000, -1178.000000)" fill="#4076CB">
            <g id="picture" transform="translate(2009.000000, 1161.000000)">
                <path d="M34.0375,30.225 C34.0375,30.9375 33.44875,31.5125 32.73625,31.5125 L17.2625,31.5125 C16.55,31.5125 15.9625,30.9375 15.9625,30.225 L15.9625,19.26125 C15.9625,18.55 16.55,17.96125 17.2625,17.96125 L32.73625,17.96125 C33.44875,17.96125 34.0375,18.55 34.0375,19.26125 L34.0375,30.225 Z M33.0625,17 L16.93625,17 C15.86125,17 15,17.8625 15,18.9375 L15,30.55 C15,31.6125 15.86125,32.4875 16.93625,32.4875 L33.0625,32.4875 C34.13625,32.4875 35,31.6125 35,30.55 L35,18.9375 C35,17.8625 34.13625,17 33.0625,17 Z M32.4615,30.487375 L16.999,30.487375 L21.749,24.374875 C22.299,23.674875 23.174,23.674875 23.724,24.374875 L27.374,29.074875 L28.3865,27.787375 C28.924,27.087375 29.8115,27.087375 30.35025,27.787375 L32.4615,30.487375 Z M31.69925,21.499375 C31.69925,22.386875 30.98675,23.099375 30.09925,23.099375 C29.21175,23.099375 28.48675,22.386875 28.48675,21.499375 C28.48675,20.611875 29.21175,19.886875 30.09925,19.886875 C30.98675,19.886875 31.69925,20.611875 31.69925,21.499375 Z" id="image-16px"></path>
            </g>
        </g>
    </g>
</svg>