<?xml version="1.0" encoding="UTF-8" standalone="no"?>
<svg width="22px" height="14px" viewBox="0 0 22 14" version="1.1" xmlns="http://www.w3.org/2000/svg" xmlns:xlink="http://www.w3.org/1999/xlink">
    <!-- Generator: Sketch 41.2 (35397) - http://www.bohemiancoding.com/sketch -->
    <title>text</title>
    <desc>Created with Sketch.</desc>
    <defs></defs>
    <g id="Page-1" stroke="none" stroke-width="1" fill="none" fill-rule="evenodd">
        <g id="Style-Guide" transform="translate(-2024.000000, -999.000000)" fill="#4076CB">
            <g id="text" transform="translate(2009.000000, 981.000000)">
                <path d="M16.9961507,30.8479516 L15,30.8479516 L20.5710751,18 L22.2042893,18 L27.7209239,30.8479516 L25.6884795,30.8479516 L24.3819082,27.6904042 L18.2845752,27.6904042 L16.9961507,30.8479516 Z M18.9197141,26.1116305 L23.7286225,26.1116305 L21.3332417,20.0868848 L18.9197141,26.1116305 Z M35.239758,25.2768766 C35.239758,24.6356856 35.0461938,24.1608484 34.6590597,23.8523508 C34.2719255,23.5438533 33.7577706,23.3896068 33.1165796,23.3896068 C32.6326619,23.3896068 32.1759713,23.4833645 31.7464944,23.6708826 C31.3170174,23.8584007 30.9571089,24.0973315 30.6667583,24.3876822 L29.7594171,23.2988727 C30.1828451,22.8996406 30.7000244,22.5850988 31.3109706,22.3552378 C31.9219167,22.1253769 32.5782203,22.0104482 33.279901,22.0104482 C33.8968961,22.0104482 34.4322221,22.098157 34.885895,22.2735771 C35.3395678,22.4489973 35.711574,22.6879281 36.0019247,22.9903767 C36.2922753,23.2928253 36.510035,23.6497093 36.6552103,24.0610393 C36.8003857,24.4723694 36.8729722,24.9139377 36.8729722,25.3857575 L36.8729722,29.1421501 C36.8729722,29.4325008 36.8820456,29.7379693 36.9001925,30.0585648 C36.9183394,30.3791603 36.9516082,30.6422866 37,30.8479516 L35.4575199,30.8479516 C35.3607364,30.4366216 35.3123453,30.0252976 35.3123453,29.6139676 L35.2579049,29.6139676 C34.9433583,30.0736894 34.5471566,30.4305734 34.0692879,30.6846302 C33.5914191,30.938687 33.0258487,31.0657135 32.3725598,31.0657135 C32.0338174,31.0657135 31.6799578,31.0203469 31.3109706,30.9296123 C30.9419833,30.8388778 30.6062704,30.6906802 30.3038218,30.4850151 C30.0013732,30.2793501 29.7503447,30.0071505 29.5507286,29.668408 C29.3511125,29.3296656 29.251306,28.9122928 29.251306,28.4162772 C29.251306,27.7629882 29.4267236,27.2458089 29.7775639,26.8647237 C30.1284043,26.4836385 30.5881192,26.1932922 31.1567226,25.9936761 C31.7253259,25.7940601 32.3665073,25.6640091 33.0802859,25.6035194 C33.7940646,25.5430297 34.5138814,25.5127853 35.239758,25.5127853 L35.239758,25.2768766 Z M34.8223811,26.7467693 C34.3989531,26.7467693 33.9604092,26.764916 33.5067363,26.8012098 C33.0530634,26.8375036 32.6417395,26.9100902 32.2727523,27.0189717 C31.903765,27.1278532 31.5982965,27.291173 31.3563376,27.508936 C31.1143788,27.7266989 30.9934011,28.0170452 30.9934011,28.3799835 C30.9934011,28.6340403 31.0448166,28.8457512 31.1476492,29.0151224 C31.2504817,29.1844936 31.3865815,29.3236178 31.5559527,29.4324993 C31.7253239,29.5413808 31.9128392,29.6169918 32.1185043,29.6593346 C32.3241693,29.7016774 32.5358801,29.7228485 32.7536431,29.7228485 C33.5521074,29.7228485 34.1660688,29.4839177 34.5955458,29.006049 C35.0250228,28.5281802 35.239758,27.9263165 35.239758,27.2004399 L35.239758,26.7467693 L34.8223811,26.7467693 Z"></path>
            </g>
        </g>
    </g>
</svg>