<?xml version="1.0" encoding="UTF-8" standalone="no"?>
<svg width="20px" height="20px" viewBox="0 0 20 20" version="1.1" xmlns="http://www.w3.org/2000/svg" xmlns:xlink="http://www.w3.org/1999/xlink">
    <!-- Generator: Sketch 41.2 (35397) - http://www.bohemiancoding.com/sketch -->
    <title>video-16px</title>
    <desc>Created with Sketch.</desc>
    <defs></defs>
    <g id="Page-1" stroke="none" stroke-width="1" fill="none" fill-rule="evenodd">
        <g id="Style-Guide" transform="translate(-2024.000000, -1116.000000)" fill="#4076CB">
            <g id="video" transform="translate(2009.000000, 1101.000000)">
                <path d="M25,15 C19.4775,15 15,19.4775 15,25 C15,30.5225 19.4775,35 25,35 C30.5225,35 35,30.5225 35,25 C35,19.4775 30.5225,15 25,15 M25,16 C29.9625,16 34,20.0375 34,25 C34,29.9625 29.9625,34 25,34 C20.0375,34 16,29.9625 16,25 C16,20.0375 20.0375,16 25,16 Z M28.388625,24.04425 C29.281125,24.57175 29.282375,25.42675 28.388625,25.9555 L23.493625,28.8555 C22.602375,29.383 21.878625,28.973 21.878625,27.933 L21.878625,22.06675 C21.878625,21.0305 22.599875,20.61675 23.493625,21.1455 L28.388625,24.04425 Z" id="video-16px"></path>
            </g>
        </g>
    </g>
</svg>